<svg xmlns="http://www.w3.org/2000/svg" viewBox="0 0 500 500"><g id="freepik--background-complete--inject-21"><path d="M428.27,249.91s-25.06,55.82,16,55.82S458.65,248,458.65,248s9.49-4.18-1.52-35.31-15.93-31.14-20.5-31.14c-5.78,0-11.16,13.48-7.22,34.17C429.41,215.74,415,241.56,428.27,249.91Z" style="fill:#ebebeb"></path><polygon points="447.86 342.74 443.9 258.67 439.95 342.74 447.86 342.74" style="fill:#a6a6a6"></polygon><polygon points="445.51 293.92 430.61 276.51 442.3 296.22 445.51 293.92" style="fill:#a6a6a6"></polygon><path d="M77.39,266.72s20.52,45.71-13.06,45.71-11.81-47.26-11.81-47.26-7.78-3.42,1.24-28.92,13.05-25.5,16.79-25.5c4.73,0,9.14,11,5.91,28C76.46,238.74,88.27,259.88,77.39,266.72Z" style="fill:#ebebeb"></path><polygon points="61.35 342.74 64.59 273.89 67.83 342.74 61.35 342.74" style="fill:#a6a6a6"></polygon><polygon points="63.27 302.76 75.48 288.5 65.91 304.64 63.27 302.76" style="fill:#a6a6a6"></polygon><path d="M423.82,255.92s11.69-4.64,21,11.51c9.52,16.56-2.41,27.47-11.88,21,0,0-7.42,15.59-22.27,11.88s-17.27-15.59-17.27-15.59-13.17.93-13.55-8.91,9.29-18.56,9.29-18.56.55-24.5,16.51-24.32S423.82,255.92,423.82,255.92Z" style="fill:#dbdbdb"></path><polygon points="412.96 342.74 409.62 269.84 406.27 342.74 412.96 342.74" style="fill:#a6a6a6"></polygon><polygon points="411.05 296.36 420.86 276.78 408.18 294.64 411.05 296.36" style="fill:#a6a6a6"></polygon><path d="M36.18,342.83s65.15-54.9,124.6-54.9c71.47,0,142.63,55.26,142.63,55.26H36.18" style="fill:#dbdbdb"></path><path d="M195,342.83s73.85-43.33,125.35-44.38,143.49,44.74,143.49,44.74H195" style="fill:#ebebeb"></path><circle cx="392.28" cy="96.11" r="26.86" style="fill:#ebebeb;opacity:0.5"></circle><circle cx="392.28" cy="96.11" r="19.35" transform="translate(-3.45 176.87) rotate(-25.3)" style="fill:#ebebeb"></circle><path d="M446.11,125.27H338.44s10.68-29.16,27.11-29.16,21.57,20.13,21.57,20.13,11.09-10.94,20.2-10.94,17,14.45,17,14.45S437.21,112,446.11,125.27Z" style="fill:#ebebeb"></path><path d="M317.34,158.91H267s11.25-16.29,20.1-16.29,11.48,10.86,11.48,10.86,6.25-5.06,12-4.16S317.34,158.91,317.34,158.91Z" style="fill:#ebebeb;opacity:0.5"></path><path d="M151.9,143.07h-98s13.42-30,27.78-31.84,21.22,22.26,21.22,22.26,9.26-8.53,16.54-8.53,12.91,11.24,12.91,11.24S146.9,128.5,151.9,143.07Z" style="fill:#ebebeb"></path><path d="M245.05,88.45H178.84s11.37-21.71,23.71-22,18.82,16.43,18.82,16.43S240.56,67.45,245.05,88.45Z" style="fill:#ebebeb;opacity:0.5"></path></g><g id="freepik--Shadow--inject-21"><ellipse cx="250" cy="435.51" rx="184.09" ry="17.66" style="fill:#ebebeb"></ellipse></g><g id="freepik--Plants--inject-21"><path d="M140.93,343.23h-57s.13-8.49,5.73-10.74a7.65,7.65,0,0,1,8.94,2.14S100.89,319,111.33,319s15.44,13.45,15.44,13.45,2.34-4.06,8.13-3.31S140.93,343.23,140.93,343.23Z" style="fill:#455a64"></path><path d="M458.4,343.23s-1.75-8.16-5.24-9.41-5.61,2.4-5.61,2.4-.82-7.79-5.77-10.12-8.66,2.44-8.66,2.44-3.8-9.88-10.58-9.88-10.2,14.46-10.2,14.46-4-4.31-8.11-1.88-4.1,12-4.1,12Z" style="fill:#37474f"></path><path d="M94.15,343.23H41.6s1.73-7.41,5.22-7.94,5.1,2.91,5.1,2.91-.16-10.33,6.35-12.09,12,7.37,12,7.37,4.08-5.21,9.64-4.87,7,8.93,7,8.93S91.92,334.56,94.15,343.23Z" style="fill:#37474f"></path><path d="M403.9,343.23H371.61s.07-4.81,3.25-6.08a4.32,4.32,0,0,1,5.06,1.21s1.29-8.84,7.21-8.84,8.74,7.63,8.74,7.63a4.54,4.54,0,0,1,4.61-1.88C403.77,335.7,403.9,343.23,403.9,343.23Z" style="fill:#455a64"></path></g><g id="freepik--Floor--inject-21"><polygon points="37.79 343.19 90.84 342.95 143.9 342.86 250 342.69 356.1 342.86 409.15 342.95 462.21 343.19 409.15 343.44 356.1 343.52 250 343.69 143.9 343.52 90.84 343.43 37.79 343.19" style="fill:#263238"></polygon></g><g id="freepik--Bench--inject-21"><polygon points="88.72 314.65 82.03 392.23 88.72 392.23 97.11 324.67 118.08 324.67 149.63 405.65 158.54 405.65 126.46 314.65 88.72 314.65" style="fill:#263238"></polygon><polygon points="309.99 314.65 303.31 392.23 309.99 392.23 318.38 324.67 339.35 324.67 370.9 405.65 379.81 405.65 347.74 314.65 309.99 314.65" style="fill:#263238"></polygon><polygon points="86.93 199.39 107.75 303.18 99.84 303.18 80.99 199.39 86.93 199.39" style="fill:#263238"></polygon><polygon points="184 199.39 204.82 303.18 196.91 303.18 178.06 199.39 184 199.39" style="fill:#263238"></polygon><polygon points="282.49 199.39 303.31 303.18 295.39 303.18 276.54 199.39 282.49 199.39" style="fill:#263238"></polygon><polygon points="314.66 226.18 61.38 226.18 57.68 207.74 310.96 207.74 314.66 226.18" style="fill:#FFE2E2"></polygon><polygon points="314.66 226.18 66.38 226.18 62.68 207.74 310.96 207.74 314.66 226.18" style="opacity:0.2"></polygon><polygon points="318.95 247.56 65.67 247.56 61.97 229.13 315.26 229.13 318.95 247.56" style="fill:#FFE2E2"></polygon><polygon points="318.95 247.56 70.67 247.56 66.97 229.13 315.26 229.13 318.95 247.56" style="opacity:0.2"></polygon><polygon points="323.24 268.94 69.95 268.94 66.26 250.51 319.54 250.51 323.24 268.94" style="fill:#FFE2E2"></polygon><polygon points="323.24 268.94 74.95 268.94 71.26 250.51 319.54 250.51 323.24 268.94" style="opacity:0.2"></polygon><polygon points="327.53 290.33 74.25 290.33 70.55 271.9 323.83 271.9 327.53 290.33" style="fill:#FFE2E2"></polygon><polygon points="327.53 290.33 79.25 290.33 75.55 271.9 323.83 271.9 327.53 290.33" style="opacity:0.2"></polygon><path d="M88.55,217a1.35,1.35,0,1,1-1.35-1.35A1.35,1.35,0,0,1,88.55,217Z" style="fill:#263238"></path><path d="M92.8,238.35A1.35,1.35,0,1,1,91.45,237,1.34,1.34,0,0,1,92.8,238.35Z" style="fill:#263238"></path><path d="M97.05,259.73a1.35,1.35,0,1,1-1.34-1.34A1.34,1.34,0,0,1,97.05,259.73Z" style="fill:#263238"></path><path d="M101.31,281.12a1.35,1.35,0,1,1-1.35-1.34A1.35,1.35,0,0,1,101.31,281.12Z" style="fill:#263238"></path><path d="M185.43,217a1.35,1.35,0,1,1-1.34-1.35A1.34,1.34,0,0,1,185.43,217Z" style="fill:#263238"></path><path d="M189.69,238.35a1.35,1.35,0,1,1-1.35-1.35A1.35,1.35,0,0,1,189.69,238.35Z" style="fill:#263238"></path><circle cx="192.59" cy="259.73" r="1.35" style="fill:#263238"></circle><path d="M198.19,281.12a1.35,1.35,0,1,1-1.34-1.34A1.34,1.34,0,0,1,198.19,281.12Z" style="fill:#263238"></path><path d="M284.21,217a1.35,1.35,0,1,1-1.35-1.35A1.34,1.34,0,0,1,284.21,217Z" style="fill:#263238"></path><path d="M288.46,238.35a1.35,1.35,0,1,1-1.34-1.35A1.34,1.34,0,0,1,288.46,238.35Z" style="fill:#263238"></path><path d="M292.72,259.73a1.35,1.35,0,1,1-1.35-1.34A1.35,1.35,0,0,1,292.72,259.73Z" style="fill:#263238"></path><path d="M297,281.12a1.35,1.35,0,1,1-1.35-1.34A1.34,1.34,0,0,1,297,281.12Z" style="fill:#263238"></path><polygon points="382.32 331.05 132.34 331.05 127.69 318.29 377.68 318.29 382.32 331.05" style="fill:#FFE2E2"></polygon><polygon points="382.32 331.05 137.34 331.05 132.69 318.29 377.68 318.29 382.32 331.05" style="opacity:0.2"></polygon><polygon points="376.65 314.65 82.03 314.65 82.03 303.18 371.2 303.18 376.65 314.65" style="fill:#FFE2E2"></polygon><polygon points="376.65 314.65 87.03 314.65 87.03 303.18 371.2 303.18 376.65 314.65" style="opacity:0.2"></polygon></g><g id="freepik--Birds--inject-21"><path d="M165.23,106.22a18.34,18.34,0,0,1,2.37-1,9.71,9.71,0,0,1,2.59-.6,2.14,2.14,0,0,1,.8.09,1.39,1.39,0,0,1,.25.12l.16.11a3,3,0,0,1,.27.23,9.35,9.35,0,0,1,.94,1,24.57,24.57,0,0,1,1.62,2l-.64-.23a21.74,21.74,0,0,1,2.64-.56,10.43,10.43,0,0,1,1.38-.09,4.56,4.56,0,0,1,.73,0,2,2,0,0,1,.4.1,2.76,2.76,0,0,1,.39.18,5,5,0,0,1,1.05,1c.28.36.53.73.78,1.1a17,17,0,0,1,1.22,2.36c-.56-.68-1.11-1.36-1.69-2-.29-.33-.58-.64-.89-.93a4.25,4.25,0,0,0-.93-.72,2.31,2.31,0,0,0-1-.1,11.09,11.09,0,0,0-1.24.16c-.82.15-1.67.36-2.48.58l-.41.11-.24-.33c-.47-.69-1-1.36-1.5-2a10.19,10.19,0,0,0-.8-.91,1.19,1.19,0,0,0-.2-.19l-.09-.08s0,0,0,0a1.24,1.24,0,0,0-.46-.09,12.37,12.37,0,0,0-2.44.24C166.91,105.89,166.07,106.07,165.23,106.22Z" style="fill:#263238"></path><path d="M174.56,131.42a28.84,28.84,0,0,1,3.18-2.18,15.16,15.16,0,0,1,3.63-1.63,3.47,3.47,0,0,1,1.21-.11,2.24,2.24,0,0,1,.39.1l.27.12a4.13,4.13,0,0,1,.47.26,17.17,17.17,0,0,1,1.66,1.12c1,.79,2,1.64,3,2.52l-1-.14a28.17,28.17,0,0,1,3.71-1.59,15.86,15.86,0,0,1,2-.54,6.36,6.36,0,0,1,1.1-.14,4.1,4.1,0,0,1,.6,0c.21,0,.43.11.64.16a6.87,6.87,0,0,1,1.82,1.17,17.7,17.7,0,0,1,1.47,1.39,25.41,25.41,0,0,1,2.49,3.1c-1-.83-2-1.67-3.08-2.44a16.56,16.56,0,0,0-1.57-1.11,6.66,6.66,0,0,0-1.58-.79,3.62,3.62,0,0,0-1.54.15,17.66,17.66,0,0,0-1.77.61c-1.17.46-2.35,1-3.48,1.57l-.57.29-.44-.43c-.9-.86-1.85-1.7-2.8-2.5a16.44,16.44,0,0,0-1.44-1.12l-.35-.22-.16-.09s0,0-.07,0a1.92,1.92,0,0,0-.69,0,18.54,18.54,0,0,0-3.52,1.07C176.93,130.45,175.75,131,174.56,131.42Z" style="fill:#263238"></path><path d="M337.91,177.65a18.29,18.29,0,0,1,2.18-1.39,10.09,10.09,0,0,1,2.45-1,2.11,2.11,0,0,1,.81,0,1,1,0,0,1,.26.07l.17.09a3.3,3.3,0,0,1,.32.18,11,11,0,0,1,1.08.78c.68.55,1.3,1.14,1.93,1.75l-.67-.12a20.08,20.08,0,0,1,2.51-1,9.84,9.84,0,0,1,1.35-.32,4.21,4.21,0,0,1,.73-.07,3,3,0,0,1,.41,0,3.86,3.86,0,0,1,.42.12,4.81,4.81,0,0,1,1.19.82,12.28,12.28,0,0,1,.95,1,16.28,16.28,0,0,1,1.59,2.12c-.67-.58-1.32-1.16-2-1.7a12.39,12.39,0,0,0-1-.77,4.44,4.44,0,0,0-1-.56,2.52,2.52,0,0,0-1,.07,8.6,8.6,0,0,0-1.19.37c-.8.28-1.6.62-2.36,1l-.39.18-.28-.3c-.58-.59-1.2-1.17-1.82-1.72a11,11,0,0,0-.93-.78l-.23-.15-.11-.07,0,0a1.35,1.35,0,0,0-.46,0,12.08,12.08,0,0,0-2.37.63C339.52,177.05,338.72,177.36,337.91,177.65Z" style="fill:#263238"></path><path d="M316.78,174.23a28,28,0,0,1,2.4-3,14.66,14.66,0,0,1,3-2.64,3.43,3.43,0,0,1,1.12-.46,2.55,2.55,0,0,1,.41,0l.29,0c.19,0,.35.07.52.1a17.94,17.94,0,0,1,1.92.58c1.24.44,2.41,1,3.59,1.52l-1,.17a28.42,28.42,0,0,1,3.08-2.62,16.32,16.32,0,0,1,1.75-1.12,8.38,8.38,0,0,1,1-.45,4.59,4.59,0,0,1,.59-.16,3.5,3.5,0,0,1,.65,0,6.89,6.89,0,0,1,2.09.57,19.16,19.16,0,0,1,1.82.89,26.16,26.16,0,0,1,3.3,2.23c-1.23-.49-2.44-1-3.67-1.43-.61-.22-1.22-.43-1.83-.59a6.35,6.35,0,0,0-1.74-.28,3.57,3.57,0,0,0-1.43.6,15.35,15.35,0,0,0-1.51,1.11c-1,.78-2,1.66-2.86,2.53l-.46.44-.55-.27c-1.11-.56-2.27-1.08-3.41-1.56a13.64,13.64,0,0,0-1.7-.64,3.59,3.59,0,0,0-.41-.11l-.18,0h-.07a2.05,2.05,0,0,0-.66.2,19.4,19.4,0,0,0-3,2.06C318.76,172.59,317.78,173.42,316.78,174.23Z" style="fill:#263238"></path><path d="M144.41,125.24a28,28,0,0,1,2.39-3,15.21,15.21,0,0,1,3-2.63,3.31,3.31,0,0,1,1.12-.46,2.62,2.62,0,0,1,.41,0l.29,0a4.51,4.51,0,0,1,.53.1,16.47,16.47,0,0,1,1.92.58c1.23.44,2.4,1,3.58,1.52l-1,.16a30.87,30.87,0,0,1,3.08-2.62,16.68,16.68,0,0,1,1.74-1.11,7.59,7.59,0,0,1,1-.45,3.65,3.65,0,0,1,.59-.16,4.78,4.78,0,0,1,.66,0,7.21,7.21,0,0,1,2.08.57c.64.27,1.23.58,1.82.9a25.72,25.72,0,0,1,3.3,2.22c-1.23-.49-2.44-1-3.67-1.42-.6-.22-1.22-.43-1.83-.59a6.29,6.29,0,0,0-1.74-.28,3.43,3.43,0,0,0-1.43.6,15.12,15.12,0,0,0-1.5,1.1c-1,.79-1.95,1.67-2.87,2.54l-.45.44-.55-.28c-1.11-.55-2.27-1.07-3.41-1.56a17.92,17.92,0,0,0-1.71-.64c-.13,0-.28-.08-.4-.1l-.18,0h-.07a2,2,0,0,0-.66.21,19,19,0,0,0-3.05,2.06C146.38,123.6,145.41,124.43,144.41,125.24Z" style="fill:#263238"></path></g><g id="freepik--Pigeons--inject-21"><path d="M411.19,388.24c-2.53.52-5.28,6.08-3.91,11.49s10.09,8.49,13.19,8.88,15.24-.59,15.24-.59l-1.9-2.19L423,403.1l9.85,1.9-1.36-1.68-9.61-3.74,8.93,2.69-1.13-1.81S415.39,387.37,411.19,388.24Z" style="fill:#a6a6a6"></path><path d="M429.88,412c0,.08-1.56,7.39-1.61,7.55s-5.44.63-5.74.9-.66.92-.16,1,3.85-.68,3.94-.67-3,1.17-3,1.5.49.58.85.52,3.84-2,4.24-2.05,3.61,1,4,.93.53-.53-.08-.92-2.84-.74-2.94-1,1.7-7.71,1.7-7.71Z" style="fill:#FFE2E2"></path><path d="M424.55,409.65c0,.08-1.55,7.38-1.61,7.55s-5.44.63-5.73.9-.67.91-.16,1,3.85-.68,3.93-.67-3,1.17-3,1.5.49.58.85.52,3.85-2,4.24-2.06,3.61,1,4,.93.52-.52-.09-.92-2.83-.73-2.94-1,1.7-7.72,1.7-7.72Z" style="fill:#FFE2E2"></path><path d="M420.53,408.64c1,1.06,2.79,3.37,3.47,3.52a2.48,2.48,0,0,0,1.32,0c.34-.1,1.57-2.4,2.59-3.3S419.43,407.47,420.53,408.64Z" style="fill:#a6a6a6"></path><path d="M425.79,410.2c1,1.06,2.79,3.37,3.48,3.52a2.44,2.44,0,0,0,1.31,0c.34-.1,1.57-2.4,2.59-3.3S424.69,409,425.79,410.2Z" style="fill:#dbdbdb"></path><path d="M409.06,393.37c0,.16,1,12.71,8,15.27,10.56,3.85,21.74.53,21.74.53l6.8-.75,15.57,5.07-.75-2.54-12.54-4.49,12,2.87c0-.12-.77-2.49-.77-2.49l-9-2.07,8.16.91-.74-1.08-13.29-3.48a117.22,117.22,0,0,0-22.77-16.44c-1.73-.92-3.67-6.76-6.69-9.62s-9.63-.14-9.51,3.49C405.44,382,409,393.31,409.06,393.37Z" style="fill:#dbdbdb"></path><path d="M410,381c1.29-.35,1.82,2,.63,2.29S408.9,381.26,410,381Z" style="fill:#263238"></path><path d="M407.63,382.36a2.66,2.66,0,0,0-2.23-.39c-1,.44-.84,2.12-.84,2.12a10,10,0,0,1,2.56-.47C408.16,383.64,407.63,382.36,407.63,382.36Z" style="fill:#a6a6a6"></path><path d="M407.66,384.54a2.94,2.94,0,0,1-1.44,1.06,5.31,5.31,0,0,1-2-.07Z" style="fill:#FFE2E2"></path><path d="M407.14,383.52a8.51,8.51,0,0,0-2.07.38A3.53,3.53,0,0,0,403,386c.09.07,4.74-1.3,4.74-1.3Z" style="fill:#FFE2E2"></path><path d="M408.18,382.43a1.38,1.38,0,0,0-.87,2.61,1.38,1.38,0,0,0,.87-2.61Z" style="fill:#a6a6a6"></path><path d="M409.51,392.6c.29.33.64,1.41,1.22.76a3.5,3.5,0,0,0,.5-1.19s0,0,0,0h0a0,0,0,0,1,.06,0s.05,0,.06,0c.42.49,1,1.61,1.77,1.23s.6-1.54.58-2.22l0,0c-.05-.07,0-.18.1-.14a4.64,4.64,0,0,0,1.42.63c1.19.14.68-1,.48-1.62,0-.09.08-.14.13-.06.34.55.87,1.5,0,1.91a2.06,2.06,0,0,1-1.94-.51c.19.8.19,2.12-.65,2.43s-1.59-.62-1.92-1.32c-.05.54-.23,1.22-.75,1.38s-1.1-.64-1.18-1.15A.06.06,0,0,1,409.51,392.6Z" style="fill:#a6a6a6"></path><path d="M411.07,397.34c.25.34.46,1,.95,1s.62-.64.74-1.06a.36.36,0,0,1,0-.1c0-.11.14-.2.21-.1.35.5.78,1.61,1.58,1.41s.56-1.73.5-2.29a.08.08,0,0,1,0-.08.12.12,0,0,1,.17-.08c.58.3,2.47,1.69,2.73.34.15-.76-.65-1.63-1-2.27h0a.09.09,0,0,1,.06-.17,4.69,4.69,0,0,0,1.74.22c1.11-.25.26-1.45-.12-1.95a.06.06,0,0,1,.09-.09c.49.49,1.36,1.4.68,2.09a1.91,1.91,0,0,1-1.91.19c.56.73,1.11,1.91.53,2.59s-2.06,0-2.76-.59c.22.78.24,2.07-.56,2.39s-1.53-.44-1.86-1.16c-.09.48-.35,1-.82,1s-1.08-.75-1.15-1.23C410.9,397.33,411,397.26,411.07,397.34Z" style="fill:#a6a6a6"></path><path d="M424,386c-2.54.52-5.28,6.08-3.91,11.5s10.09,8.48,13.19,8.87,15.24-.58,15.24-.58l-1.9-2.2-10.78-2.73,9.85,1.9-1.36-1.67-9.61-3.74,8.92,2.68-1.12-1.8S428.17,385.17,424,386Z" style="fill:#a6a6a6"></path><path d="M106.45,399.45c2.58.09,6.21,5.12,5.76,10.69s-8.55,10-11.54,10.93S85.54,423,85.54,423l1.51-2.48,10.18-4.48-9.4,3.51,1.07-1.87,8.85-5.28-8.35,4.12.8-2S102.16,399.29,106.45,399.45Z" style="fill:#a6a6a6"></path><path d="M89,425.87c0,.09,1.55,7.39,1.61,7.56s5.44.62,5.73.9.67.91.16,1-3.85-.69-3.93-.67,3,1.17,3,1.5a.77.77,0,0,1-.85.52c-.36-.06-3.85-2-4.24-2.06s-3.61,1-4,.93-.52-.53.08-.92,2.84-.73,3-1-1.7-7.72-1.7-7.72Z" style="fill:#FFE2E2"></path><path d="M94.27,423.49c0,.09,1.56,7.39,1.62,7.55s5.44.63,5.73.9.67.92.16,1-3.85-.68-3.94-.67,3,1.17,3,1.5a.77.77,0,0,1-.86.52c-.36-.05-3.84-2-4.23-2.05s-3.62,1-4,.93-.53-.53.08-.92,2.84-.74,3-1-1.7-7.71-1.7-7.71Z" style="fill:#FFE2E2"></path><path d="M98.3,422.48c-1,1.07-2.79,3.37-3.47,3.52a2.28,2.28,0,0,1-1.32,0c-.34-.1-1.57-2.39-2.59-3.29S99.4,421.31,98.3,422.48Z" style="fill:#a6a6a6"></path><path d="M93,424c-1,1.07-2.79,3.38-3.47,3.52a2.29,2.29,0,0,1-1.32,0c-.34-.1-1.57-2.39-2.59-3.29S94.13,422.87,93,424Z" style="fill:#dbdbdb"></path><path d="M109.4,404.16c0,.16,1.16,12.69-5.36,16.39-9.78,5.54-21.36,4.12-21.36,4.12l-6.82.38-14.52,7.58c0-.11.24-2,.32-2.63l11.62-6.51-11.4,4.83c0-.13.35-2.58.35-2.59l8.51-3.52-7.89,2.25.55-1.19,12.53-5.63a117.72,117.72,0,0,1,19.73-20c1.55-1.19,2.5-7.27,5-10.59s9.47-1.73,10,1.87C111.08,392.32,109.41,404.1,109.4,404.16Z" style="fill:#dbdbdb"></path><path d="M106.43,392.07c-1.33-.13-1.47,2.24-.23,2.37S107.55,392.18,106.43,392.07Z" style="fill:#263238"></path><path d="M109,393.06a2.66,2.66,0,0,1,2.13-.75c1.08.27,1.18,1.95,1.18,1.95a10.06,10.06,0,0,0-2.6,0C108.68,394.41,109,393.06,109,393.06Z" style="fill:#a6a6a6"></path><path d="M109.32,395.22a3,3,0,0,0,1.59.81,5.31,5.31,0,0,0,2-.4Z" style="fill:#FFE2E2"></path><path d="M109.66,394.12a9.06,9.06,0,0,1,2.1,0,3.55,3.55,0,0,1,2.44,1.75c-.08.09-4.89-.5-4.89-.5Z" style="fill:#FFE2E2"></path><path d="M108.45,393.22a1.38,1.38,0,1,1-.6,1.61A1.4,1.4,0,0,1,108.45,393.22Z" style="fill:#a6a6a6"></path><path d="M108.82,403.47c-.23.38-.39,1.5-1.07.95a3.32,3.32,0,0,1-.69-1.09l0,0h0a0,0,0,0,0-.07,0,.05.05,0,0,0,0,0c-.33.56-.71,1.76-1.54,1.51s-.84-1.42-.94-2.1v0c0-.07,0-.17-.11-.12a4.67,4.67,0,0,1-1.3.86c-1.15.34-.84-.88-.74-1.52a.07.07,0,0,0-.14,0c-.24.61-.61,1.63.3,1.89a2,2,0,0,0,1.83-.82c-.06.82.16,2.12,1,2.29s1.46-.88,1.68-1.62c.13.52.42,1.17,1,1.23s1-.81,1-1.33A.07.07,0,0,0,108.82,403.47Z" style="fill:#a6a6a6"></path><path d="M108.07,408.41c-.18.37-.28,1.08-.77,1.16s-.71-.53-.9-.93c0,0,0-.06,0-.09s-.17-.18-.23-.07c-.26.56-.5,1.72-1.32,1.66S104,408.52,104,408c0,0,0-.05,0-.07a.12.12,0,0,0-.17-.05c-.52.4-2.16,2.08-2.64.79-.28-.73.37-1.71.57-2.4h0a.09.09,0,0,0-.09-.15,5,5,0,0,1-1.67.5c-1.14-.06-.5-1.39-.21-1.95a.06.06,0,1,0-.1-.06c-.41.56-1.11,1.6-.33,2.17a1.91,1.91,0,0,0,1.92-.14c-.44.82-.78,2.08-.1,2.64s2-.32,2.63-1c-.09.81.1,2.08,1,2.27s1.44-.69,1.64-1.45c.17.45.5.9,1,.85s.94-.91.93-1.4A.1.1,0,0,0,108.07,408.41Z" style="fill:#a6a6a6"></path><path d="M93.48,399.39c2.59.09,6.21,5.12,5.76,10.69s-8.55,10-11.54,10.94S72.57,423,72.57,423l1.52-2.48L84.26,416l-9.4,3.51,1.07-1.87,8.86-5.28-8.36,4.12.81-2S89.19,399.23,93.48,399.39Z" style="fill:#a6a6a6"></path><path d="M395.89,423.1c.42,2.55-3.78,7.11-9.33,7.77s-11.54-6.37-13-9.12-4.92-14.44-4.92-14.44l2.73,1,6.42,9.08-5.31-8.51,2.05.67,6.94,7.63-5.71-7.37,2.09.4S395.19,418.86,395.89,423.1Z" style="fill:#a6a6a6"></path><path d="M373.83,429.53c0,.09,1.56,7.39,1.62,7.55s5.44.63,5.73.9.67.92.16,1-3.85-.68-3.94-.67,3,1.17,3,1.5a.76.76,0,0,1-.86.52c-.36-.05-3.84-2-4.23-2.05s-3.62,1-4,.93-.53-.53.08-.92,2.84-.74,2.95-1-1.7-7.71-1.7-7.71Z" style="fill:#FFE2E2"></path><path d="M379.16,427.15c0,.08,1.56,7.38,1.61,7.55s5.44.63,5.74.9.66.92.16,1-3.85-.68-3.94-.67,3,1.17,3,1.5-.49.58-.85.52-3.84-2-4.24-2.06-3.61,1-4,.93-.53-.52.08-.92,2.84-.73,2.94-1-1.69-7.72-1.69-7.72Z" style="fill:#FFE2E2"></path><path d="M383.19,426.14c-1,1.06-2.79,3.37-3.47,3.52a2.47,2.47,0,0,1-1.32,0c-.34-.1-1.57-2.4-2.59-3.3S384.29,425,383.19,426.14Z" style="fill:#a6a6a6"></path><path d="M377.92,427.7c-1,1.06-2.79,3.37-3.47,3.52a2.38,2.38,0,0,1-1.32,0c-.34-.1-1.57-2.4-2.59-3.3S379,426.53,377.92,427.7Z" style="fill:#dbdbdb"></path><path d="M394.36,423.3c-.12.11-7.44,10.35-14.78,8.87-11-2.22-18.84-10.87-18.84-10.87l-5.41-4.18-15.93-3.78c.08-.07,1.48-1.35,2-1.77l13,2.69-11.77-3.82,1.95-1.72,8.75,2.91-7.45-3.48,1.2-.53,13.16,3.94a117.81,117.81,0,0,1,28-2.18c1.95.12,6.65-3.86,10.72-4.73s8.29,4.9,6.3,7.94C403.38,415.46,394.41,423.26,394.36,423.3Z" style="fill:#dbdbdb"></path><path d="M400,412.22c-.92-1-2.57.73-1.72,1.63S400.8,413,400,412.22Z" style="fill:#263238"></path><path d="M401.32,414.64a2.66,2.66,0,0,1,2.1.83c.64.91-.38,2.25-.38,2.25a9.91,9.91,0,0,0-2-1.74C400.2,415.46,401.32,414.64,401.32,414.64Z" style="fill:#a6a6a6"></path><path d="M400.15,416.49a3,3,0,0,0,.68,1.65,5.43,5.43,0,0,0,1.73,1Z" style="fill:#FFE2E2"></path><path d="M401.13,415.88a9.09,9.09,0,0,1,1.57,1.41,3.52,3.52,0,0,1,.69,2.91c-.12,0-3.37-3.58-3.37-3.58Z" style="fill:#FFE2E2"></path><path d="M400.81,414.41a1.38,1.38,0,1,1-1.51.82A1.4,1.4,0,0,1,400.81,414.41Z" style="fill:#a6a6a6"></path><path d="M394.37,422.4c-.41.13-1.27.88-1.43,0a3.33,3.33,0,0,1,.2-1.28s0,0,0,0h0s0,0,0-.06h-.06c-.61.2-1.69.86-2.15.13s.29-1.63.66-2.2h0c.08,0,.09-.16,0-.17a4.5,4.5,0,0,1-1.54-.2c-1.09-.5-.06-1.21.43-1.63a.07.07,0,0,0-.08-.12c-.57.3-1.52.83-1,1.62a2.06,2.06,0,0,0,1.93.58c-.59.58-1.27,1.71-.72,2.41s1.68.3,2.33-.12c-.24.48-.44,1.16-.07,1.56s1.26,0,1.61-.37A.07.07,0,0,0,394.37,422.4Z" style="fill:#a6a6a6"></path><path d="M390.58,425.64c-.39.16-.92.64-1.35.37s-.19-.86-.07-1.29l.07-.06c.07-.09,0-.25-.13-.2-.56.25-1.5,1-2.09.38s.43-1.77.78-2.22a.08.08,0,0,0,0-.08.11.11,0,0,0-.1-.15c-.65-.05-3,.16-2.51-1.13.27-.74,1.4-1.06,2-1.45h0a.09.09,0,0,0,0-.18,4.59,4.59,0,0,1-1.59-.72c-.82-.79.53-1.37,1.12-1.6a.06.06,0,0,0,0-.12c-.67.16-1.88.49-1.67,1.43a1.9,1.9,0,0,0,1.54,1.15c-.86.33-1.95,1.06-1.8,1.94s1.75,1.08,2.66.94c-.59.55-1.28,1.63-.77,2.33s1.54.42,2.19,0c-.16.45-.21,1,.18,1.29s1.31-.08,1.63-.46C390.73,425.72,390.67,425.6,390.58,425.64Z" style="fill:#a6a6a6"></path><path d="M386.52,410.58c1.1,2.34-1.72,7.87-6.88,10s-12.83-3-15-5.27S356,402.76,356,402.76l2.89.21,8.64,7-7.42-6.76,2.16.1,8.74,5.46-7.48-5.55,2.11-.18S384.7,406.69,386.52,410.58Z" style="fill:#a6a6a6"></path></g><g id="freepik--Character--inject-21"><path d="M193.15,225.88a38.14,38.14,0,0,1-7.84,3.57c4.8-6.13,6.15-21.22,5.4-19.14-3.64,9.93-11.53,20.31-14.05,20.54,0,0,0,0,0,0a28.5,28.5,0,0,1-17.05-6s0,0,0,0c6.06-6.86,7.84-22.15,7.37-21.26-5,9.47-13.48,14.28-14.81,14.09h0c-4.33-5.37-6.33-10.42-5.56-10.81,5.58-2.82,11.11-11.23,16.28-20.21h0c5.11-8.86,8.23-17.51,14.8-25.15,6-7,16.2-7.14,21.35-2.49C212.54,171.18,196.65,223.81,193.15,225.88Z" style="fill:#263238"></path><path d="M198.07,158.25a10,10,0,0,1,2.94,3.13,23.43,23.43,0,0,1,2,3.87,40.52,40.52,0,0,1,2.14,8.39,65,65,0,0,1,.13,17.29,102.37,102.37,0,0,1-3.6,16.91c-.4,1.38-.89,2.74-1.32,4.11L198.87,216l-1.59,4-1.72,4,1.48-4.05,1.38-4.08,1.31-4.1c.39-1.37.83-2.74,1.19-4.13a110.94,110.94,0,0,0,3.37-16.81,68.27,68.27,0,0,0,.11-17.08,41.7,41.7,0,0,0-1.84-8.34,24.72,24.72,0,0,0-1.75-3.89,14.54,14.54,0,0,0-1.21-1.77A7,7,0,0,0,198.07,158.25Z" style="fill:#263238"></path><path d="M146.17,205.23a72.85,72.85,0,0,0,5.14-5.4q2.48-2.79,4.7-5.77c1.47-2,2.9-4,4.19-6.14s2.51-4.29,3.77-6.44c2.57-4.27,5.13-8.55,7.95-12.68,1.41-2.05,2.87-4.09,4.46-6a35,35,0,0,1,2.55-2.75,9,9,0,0,1,3.08-2.12,9.93,9.93,0,0,0-2.9,2.3,34.12,34.12,0,0,0-2.36,2.86c-1.5,2-2.88,4.05-4.22,6.14-2.67,4.19-5.23,8.45-7.73,12.76-1.29,2.14-2.53,4.29-3.86,6.41a65.81,65.81,0,0,1-4.34,6.13A72,72,0,0,1,146.17,205.23Z" style="fill:#263238"></path><path d="M201.32,202.46c19.68,20,46.1,67.22,49.52,74.41,2.33,4.88-23.19,17.75-24.27,14.2-1.39-4.55-26.21-53.94-31.82-81C192.29,198.15,197.34,198.41,201.32,202.46Z" style="fill: rgb(247, 169, 160);"></path><path d="M225.37,287.72c.89,2.42,3.92,12.75,6,14s13.24,1,18.84,1,6.71-1.56,6.62-3.49S245,297,245,297s15.7,4.5,19.65,5.24,13.06,3,14.38-.25c.59-1.47-1.9-3-1.9-3s3.82,1.12,4.42-.78c.7-2.16-2.34-3.35-2.34-3.35s2.39.48,2.44-1.28c.12-3.94-14.82-5.87-14.82-5.87s11.44,5.56,11.81,2.35c.51-4.44-22.93-9.32-25.37-11.26a16.45,16.45,0,0,1-3.91-4.83Z" style="fill: rgb(247, 169, 160);"></path><path d="M256.79,300.25a1.75,1.75,0,0,0-.54-1.5,4.82,4.82,0,0,0-1.36-.88,18.24,18.24,0,0,0-3.21-1c-2.21-.56-4.48-1-6.73-1.54a27.46,27.46,0,0,1,6.92.77,12.65,12.65,0,0,1,3.3,1.27,4.45,4.45,0,0,1,1.38,1.18A1.81,1.81,0,0,1,256.79,300.25Z" style="fill:#263238"></path><path d="M277.15,299c-1.62-.39-3.21-.85-4.8-1.31s-3.17-.95-4.76-1.42l-4.73-1.49c-1.58-.49-3.15-1-4.75-1.46a37.13,37.13,0,0,1,4.91.88c1.62.37,3.22.83,4.81,1.31s3.15,1,4.71,1.61S275.64,298.3,277.15,299Z" style="fill:#263238"></path><path d="M261.91,289.4a31.64,31.64,0,0,1,4.53.63,42.32,42.32,0,0,1,4.43,1.14,38.07,38.07,0,0,1,4.29,1.6,30.68,30.68,0,0,1,4.07,2.1c-1.45-.5-2.85-1.06-4.29-1.54s-2.86-1-4.3-1.41-2.89-.88-4.34-1.31S263.38,289.8,261.91,289.4Z" style="fill:#263238"></path><path d="M264.22,285.65a28.26,28.26,0,0,1,7.21,1.52,27.92,27.92,0,0,1,6.64,3.22c-2.33-.83-4.58-1.7-6.89-2.47S266.56,286.4,264.22,285.65Z" style="fill:#263238"></path><path d="M202.13,237.08,219.66,225A226.09,226.09,0,0,0,203,203.94c-8.27-9-10.71-3.14-8.68,7.21S202.13,237.08,202.13,237.08Z" style="fill:#FFE2E2"></path><path d="M208.7,215.47a1.28,1.28,0,1,0,1.28,1.28A1.28,1.28,0,0,0,208.7,215.47Zm0,2.31a1,1,0,1,1,1-1A1,1,0,0,1,208.7,217.78Zm-12.65-2a1.18,1.18,0,0,0-.62.17l.06.25a1,1,0,0,1,.56-.17,1,1,0,1,1,0,2.05H196c0,.08,0,.17.07.26a1.28,1.28,0,0,0,0-2.55Zm-.7-11.16a1.28,1.28,0,1,0,1.28,1.28A1.28,1.28,0,0,0,195.35,204.63Zm0,2.31a1,1,0,1,1,1-1A1,1,0,0,1,195.35,206.94Zm5.35-5.26-.52-.42a1.26,1.26,0,0,0,1.1,1Zm1.88,8.63a1.28,1.28,0,1,0,1.28,1.28A1.28,1.28,0,0,0,202.58,210.31Zm0,2.31a1,1,0,1,1,1-1A1,1,0,0,1,202.58,212.62Zm.37,7.81a1.28,1.28,0,1,0,1.28,1.28A1.28,1.28,0,0,0,203,220.43Zm0,2.31a1,1,0,1,1,1-1A1,1,0,0,1,203,222.74Zm7.25,2.08a1.28,1.28,0,1,0,1.27,1.28A1.28,1.28,0,0,0,210.2,224.82Zm0,2.31a1,1,0,1,1,1-1A1,1,0,0,1,210.2,227.13Zm-5.31,4.32a1.28,1.28,0,1,0,0,2.56,1.28,1.28,0,0,0,0-2.56Zm0,2.31a1,1,0,1,1,1-1A1,1,0,0,1,204.89,233.76Zm12-12.56a1,1,0,1,1-1-1.18.41.41,0,0,1,.16,0l-.2-.27a1.28,1.28,0,0,0,0,2.56,1.26,1.26,0,0,0,1.2-.87Z" style="fill:#fff"></path><path d="M215.8,221.54a171.71,171.71,0,0,0-14.31,10.6.08.08,0,0,0,.09.12,170.26,170.26,0,0,0,14.33-10.59C216,221.61,215.88,221.49,215.8,221.54Z" style="fill:#263238"></path><path d="M252.56,428.14c-2.37-.32-61.91-30-63.42-32.53-.19-.29,2.38-5.73,6-13.13,8.24-16.74,24.71-45.05,24.71-45.05l35.85,20.15L236,395s6.62,8,12,14.82c0,0,0,0,0,0a91.22,91.22,0,0,1,6.67,9C256,421.75,254.92,428.47,252.56,428.14Z" style="fill: rgb(247, 169, 160);"></path><path d="M252.56,428.14c-2.37-.32-61.91-30-63.42-32.53-.19-.29,2.38-5.73,6-13.13,2.89-5.87,6.79-13.16,10.63-20.15l37.71,18.38L236,395s6.62,8,12,14.82c0,0,0,0,0,0a91.22,91.22,0,0,1,6.67,9C256,421.75,254.92,428.47,252.56,428.14Z" style="fill:#ebebeb"></path><path d="M253.24,429.66c-2.46-.38-62.42-31.2-64-33.82-.71-1.21,5.31-14.24,11.95-27.84l39.07,19.94-3.79,6.94S254.18,417,255.56,420,255.69,430,253.24,429.66Z" style="fill:#FFE2E2"></path><path d="M253.61,426.82c-9.92-5.41-50.47-26.31-60.69-30.91-.08,0-.11,0,0,.06,9.72,5.58,50.43,26.15,60.64,31C253.74,427.09,253.82,426.93,253.61,426.82Z" style="fill:#263238"></path><path d="M239.06,393.38c-3.57-2.78-8.72-4.65-13.2-3.39-.17.05-.1.29,0,.32a62.61,62.61,0,0,1,12.88,3.56A.28.28,0,0,0,239.06,393.38Z" style="fill:#263238"></path><path d="M241,396.56c-3.57-2.77-8.72-4.65-13.19-3.38-.18.05-.11.29,0,.32a62,62,0,0,1,12.88,3.56A.29.29,0,0,0,241,396.56Z" style="fill:#263238"></path><path d="M243,399.75c-3.57-2.77-8.72-4.65-13.19-3.38-.18.05-.1.29,0,.32a62.59,62.59,0,0,1,12.88,3.55A.28.28,0,0,0,243,399.75Z" style="fill:#263238"></path><path d="M245,402.94c-3.58-2.77-8.73-4.65-13.2-3.38-.18,0-.1.29.05.31a62.7,62.7,0,0,1,12.87,3.56A.29.29,0,0,0,245,402.94Z" style="fill:#263238"></path><path d="M251.07,388c-.45-2.94-3.84-3.46-6.21-2.92A23.74,23.74,0,0,0,234.11,391a.12.12,0,0,0,0,.19.56.56,0,0,0,.37.81c3.89.47,8,1.45,11.9.72C248.69,392.28,251.5,390.76,251.07,388Zm-10.53,3.52c-1.92-.19-3.82-.46-5.74-.58,2.1-1.15,4.14-2.38,6.35-3.32a25.57,25.57,0,0,1,3.27-1.19c1.72-.47,7.55-.35,4.63,3.63C247.43,392.24,242.83,391.72,240.54,391.5Z" style="fill:#263238"></path><path d="M224.59,384.79c2.55,3.06,6.33,4.92,9.62,7a.56.56,0,0,0,.81-.4.11.11,0,0,0,.13-.13,23.6,23.6,0,0,0-4.5-11.42c-1.48-1.93-4.42-3.68-6.65-1.71S223.1,383,224.59,384.79Zm-.34-3.74c.29-4.94,4.85-1.31,5.89.15a26.38,26.38,0,0,1,1.75,3,68.32,68.32,0,0,1,2.77,6.61c-1.55-1.14-3.19-2.14-4.78-3.22C228,386.31,224.1,383.77,224.25,381.05Z" style="fill:#263238"></path><path d="M245,388.38l-43.24-21.84s31.51-58.91,30.67-60c-2.9-3.75-38-2-53.15-17.11-16-15.95-3.46-40.81-3.46-40.81h41.92s-.71,13.54,1.1,15c1.19,1,62.83,6.94,65.24,23.21C288.21,315,245,388.38,245,388.38Z" style="fill:#37474f"></path><path d="M246.65,381.63c-5-3-10.11-5.8-15.25-8.57s-10.31-5.46-15.53-8.05c-3-1.46-6-2.78-8.91-4.23a.08.08,0,0,0-.08.14c2.59,1.39,5.1,2.91,7.68,4.31s5.09,2.76,7.65,4.11c5.15,2.74,10.33,5.41,15.5,8.11,2.92,1.52,5.87,3,8.83,4.37A.11.11,0,0,0,246.65,381.63Z" style="fill:#263238"></path><path d="M248.89,299.65c-1-2.13-3.76-2.44-5.8-2.95l-16.72-4.16c-9.88-2.45-20.06-4.76-28.91-10-4.23-2.5-8.33-5.66-10.44-10.22s-2.11-9.42-2.15-14.24c0-1.19.07-2.38.15-3.57,0-.1-.16-.1-.17,0-.31,4.75-.79,9.5.27,14.19a19.15,19.15,0,0,0,2.66,6.4,22.06,22.06,0,0,0,4.82,5.06c7.83,6.14,17.65,9.08,27.14,11.5,5.37,1.37,10.75,2.68,16.13,4l8.31,2a7.63,7.63,0,0,1,3.41,1.35,3.58,3.58,0,0,1,1,3,11.87,11.87,0,0,1-.84,3.3c-.5,1.3-1,2.59-1.55,3.89q-1.53,3.78-3.15,7.53-3.25,7.56-6.77,15c-4.66,9.9-9.64,19.64-14.72,29.33-.63,1.21-1.25,2.42-1.87,3.64,0,.07.08.13.12.06,5.44-9.58,10.52-19.37,15.36-29.27s9.37-19.79,13.26-30C249.13,303.72,249.79,301.5,248.89,299.65Z" style="fill:#263238"></path><path d="M268.55,342.76l-42-23.7c3.59-7.11,6-12.2,5.78-12.51-2.9-3.75-38-2-53.15-17.11-16-15.95-3.46-40.81-3.46-40.81h41.92s-.71,13.54,1.1,15c1.19,1,62.83,6.94,65.24,23.21C286,299.79,277.87,322.25,268.55,342.76Z" style="fill:#263238"></path><path d="M346.69,430.35c-2.26.75-68.81,0-71.26-1.55-.29-.18-.31-14.44-.31-14.44-3.6-18.6-7.33-48.8-7.33-48.8l44.44-.06,5,42.25s9.46,4.32,17.27,8.09l0,0a94.88,94.88,0,0,1,9.95,5.2C347,423.09,349,429.62,346.69,430.35Z" style="fill: rgb(247, 169, 160);"></path><path d="M346.69,430.35c-2.26.75-68.81,0-71.26-1.55-.29-.18-.31-14.44-.31-14.44-1.3-6.7-2.61-14.9-3.76-22.65h44l1.92,16s9.46,4.32,17.27,8.09l0,0a94.88,94.88,0,0,1,9.95,5.2C347,423.09,349,429.62,346.69,430.35Z" style="fill:#ebebeb"></path><path d="M347.62,430.93c-2.36.77-69.79.37-72.35-1.27-.79-.51-1.29-7.12-1.59-16-.15-4.36-1.43-9.26-1.5-14.26l45,.14-.25,7.91s25.75,11.7,28.36,13.8S350,430.16,347.62,430.93Z" style="fill:#FFE2E2"></path><path d="M346.67,428.23c-11.3-.35-56.92-.67-68.11-.15-.09,0-.09.06,0,.07,11.19.58,56.8.54,68.11.26C346.9,428.41,346.91,428.23,346.67,428.23Z" style="fill:#263238"></path><path d="M318.58,405c-4.45-.86-9.89-.21-13.31,2.94-.13.12.05.31.19.26a62.76,62.76,0,0,1,13.1-2.64A.28.28,0,0,0,318.58,405Z" style="fill:#263238"></path><path d="M321.78,406.92c-4.45-.86-9.89-.21-13.31,2.94-.13.12,0,.31.19.27a62.82,62.82,0,0,1,13.09-2.65A.28.28,0,0,0,321.78,406.92Z" style="fill:#263238"></path><path d="M325,408.87c-4.44-.85-9.88-.2-13.3,2.95-.13.12,0,.3.19.26A62,62,0,0,1,325,409.44.29.29,0,0,0,325,408.87Z" style="fill:#263238"></path><path d="M328.17,410.83c-4.44-.86-9.88-.21-13.3,2.94-.13.12,0,.31.19.26a62.67,62.67,0,0,1,13.09-2.64A.28.28,0,0,0,328.17,410.83Z" style="fill:#263238"></path><path d="M326.85,394.73c-1.73-2.42-5-1.35-6.86.19a23.81,23.81,0,0,0-6.91,10.15.12.12,0,0,0,.11.16c0,.34.31.7.69.56,3.68-1.34,7.78-2.31,10.94-4.74C326.67,399.64,328.49,397,326.85,394.73Zm-7.8,7.89c-1.8.7-3.62,1.31-5.38,2.08a70.09,70.09,0,0,1,4.16-5.83,25.9,25.9,0,0,1,2.37-2.54c1.33-1.19,6.59-3.72,5.78,1.15C325.53,400.17,321.18,401.79,319.05,402.62Z" style="fill:#263238"></path><path d="M301.78,403.84c3.66,1.59,7.88,1.53,11.77,1.93.41.05.61-.38.54-.71a.12.12,0,0,0,.06-.18,23.82,23.82,0,0,0-9.17-8.16c-2.19-1-5.61-1.28-6.71,1.49C297.24,400.82,299.65,402.92,301.78,403.84Zm-2-3.18c-2-4.53,3.73-3.36,5.31-2.52A25.47,25.47,0,0,1,308,400a69.07,69.07,0,0,1,5.46,4.65c-1.9-.32-3.81-.47-5.72-.71C305.49,403.67,300.88,403.16,299.8,400.66Z" style="fill:#263238"></path><path d="M318,396.88l-50.24-.36s-9.91-76.27-14-80.64c-2.06-2.21-68.36-2.5-84.62-18s0-49.26,0-49.26H212s1.06,13.2-2.21,21.29c0,0,59.81,1,76.12,13.78C307.75,300.89,318,396.88,318,396.88Z" style="fill:#37474f"></path><path d="M313.93,388.88c-5.82-.43-11.65-.58-17.48-.72S284.79,388,279,388c-3.28,0-6.57.22-9.85.27-.11,0-.11.16,0,.16,2.94.07,5.87.28,8.8.36s5.79.15,8.68.2c5.83.1,11.66.13,17.49.19,3.29,0,6.57,0,9.86-.11A.11.11,0,0,0,313.93,388.88Z" style="fill:#263238"></path><path d="M191,254.87a3.23,3.23,0,0,1-.24.58.08.08,0,0,0,0,.1c-.56,1.74-.79,3.61-1.34,5.36a8.4,8.4,0,0,1-3.25,4.64c-3.31,2.3-7.31,3.35-11.16,4.31a.11.11,0,0,0,0,.21,21.34,21.34,0,0,0,6.59-1,17.25,17.25,0,0,0,5.55-2.66,8.7,8.7,0,0,0,3.18-4.8,26.88,26.88,0,0,0,.56-3.08,24.44,24.44,0,0,0,.39-3.61A.17.17,0,0,0,191,254.87Z" style="fill:#263238"></path><path d="M217.58,267a48.35,48.35,0,0,0-7.69,2.94l-.12.05a1.89,1.89,0,0,0,.11-.47L210,269a5.7,5.7,0,0,0,.06-.58l0-.3v0a2.29,2.29,0,0,0,1.65-.85,6.21,6.21,0,0,0,1-2.42c.29-1.09.55-2.19.79-3.3s.49-2.47.69-3.71a24,24,0,0,0,.42-3.68.17.17,0,0,0-.34,0c-.29,1.13-.42,2.31-.63,3.45s-.47,2.3-.73,3.45-.55,2.28-.86,3.41-.57,2.46-1.73,2.79c-2.4.69-1.32-4.7-1.22-5.76.25-2.44.4-4.93.83-7.35,0-.1-.14-.14-.16,0-.52,2.23-1.12,4.41-1.52,6.66-.19,1.11-.33,2.22-.45,3.33a5.19,5.19,0,0,0,.22,2.87,2.1,2.1,0,0,0,1.59,1.17c0,.09-.05.17-.08.25s-.11.36-.16.54l-.12.55a1.26,1.26,0,0,0-.08.66.29.29,0,0,0,.12.15c-1,.44-2.05.88-3.07,1.35a27.36,27.36,0,0,0-3.69,1.8c-.14.06,0,.25.1.23a27.92,27.92,0,0,0,3.87-1.4c1.28-.5,2.55-1,3.82-1.55a47.69,47.69,0,0,0,7.32-3.4A.12.12,0,0,0,217.58,267Z" style="fill:#263238"></path><path d="M168.29,268.73a65.1,65.1,0,0,1,2.6-12.43c.33-1.05.68-2.09,1.05-3.13a.08.08,0,0,1,.16.05,67.88,67.88,0,0,0-2.85,12.51,49.35,49.35,0,0,0-.39,12.44,22.08,22.08,0,0,0,3.94,10.5,27.38,27.38,0,0,0,7.66,7c6.92,4.33,15.15,5.9,23.07,7.44q13.07,2.55,26.22,4.58c9.86,1.54,29.21,2.6,30.06,4.34,1.65,3.36,4.25,19,5.93,28.58s3.05,19.11,4.08,28.73c.58,5.46,1.09,10.93,1.41,16.41,0,.36-.52.33-.55,0-.93-9.7-1.92-19.38-3.27-29s-3-19.05-4.89-28.5c-1.06-5.25-3.07-14.54-3.7-15.41-1-1.35-17.57-2.54-26.44-3.91s-17.92-2.93-26.84-4.63c-8.15-1.56-16.63-3-24-7-6.32-3.52-11.47-9.06-13-16.22A38.6,38.6,0,0,1,168.29,268.73Z" style="fill:#263238"></path><path d="M229.7,313.17c1.73-.05,21.78,1.81,25.2,2.49.24,0,6.33,34,6.92,40.25.08.82-.24,1.58-.48,0-.46-3.08-7.48-39.36-7.49-39.38-3.43-.39-22.5-2.83-24.19-3.12C229.52,313.38,229.57,313.17,229.7,313.17Z" style="fill:#263238"></path><path d="M211.43,269.83a325.54,325.54,0,0,1,35.15,2.78c5.2.67,10.4,1.43,15.56,2.38a81.48,81.48,0,0,1,13.57,3.51,41.41,41.41,0,0,1,6.94,3.26,37.29,37.29,0,0,1,6.06,4.71c.08.08,0,.19-.12.12A42.32,42.32,0,0,0,276.51,280a79.44,79.44,0,0,0-13.3-3.6c-5-1-10.13-1.67-15.22-2.37q-8.25-1.12-16.52-2c-6.23-.66-13.82-1.19-20.05-1.81A.19.19,0,0,1,211.43,269.83Z" style="fill:#263238"></path><polygon points="199.23 275.44 199.53 276.82 228.7 291.39 288.33 276.05 288.33 274.79 260.04 263.11 199.23 275.44" style="fill:#FFE2E2"></polygon><polygon points="199.23 275.44 199.53 276.82 228.7 291.39 288.33 276.05 288.33 274.79 260.04 263.11 199.23 275.44" style="opacity:0.2"></polygon><polygon points="199.23 275.44 260.04 263.11 288.33 274.79 228.85 290.05 199.23 275.44" style="fill:#FFE2E2"></polygon><path d="M203,275.23l27.12,13.42,55.75-14.27L258.52,263.2s-16.69,1.69-17.46,1.87-8.14,2.54-8.14,2.54-10.32,1.39-11,1.57S203,275.23,203,275.23Z" style="fill:#fff"></path><path d="M232.92,267.61c2.14,1.19,4.28,2.36,6.45,3.51l6.5,3.44,6.56,3.38c2.19,1.12,4.4,2.22,6.61,3.31q-3.19-1.77-6.44-3.51l-6.51-3.44-6.55-3.38C237.35,269.81,235.14,268.7,232.92,267.61Z" style="fill:#dbdbdb"></path><path d="M209,275.11c2-.6,4-1.21,5.92-1.84l5.89-1.89,1.47-.47c.24-.08.49-.16.73-.22s.51-.1.77-.14l3.1-.56q3.09-.57,6.18-1.2-3.14.46-6.26,1l-3.12.52c-.26.05-.52.08-.78.14l-.76.22-1.48.46c-2,.65-3.91,1.29-5.86,2S210.9,274.41,209,275.11Z" style="fill:#dbdbdb"></path><path d="M210.86,276c2-.6,4-1.21,5.92-1.84l5.89-1.89,1.47-.47c.24-.08.49-.16.73-.22s.51-.1.77-.15l3.1-.56q3.09-.57,6.18-1.19-3.13.45-6.26,1l-3.12.52-.78.13c-.27.07-.51.15-.76.23l-1.48.46c-2,.64-3.92,1.29-5.86,2S212.79,275.26,210.86,276Z" style="fill:#dbdbdb"></path><path d="M212.75,276.82q2.91-.87,5.79-1.79l5.75-1.85,1.44-.46a10.63,10.63,0,0,1,1.44-.4l3-.56c2-.37,4-.76,6.06-1.16-2.05.29-4.09.59-6.12.93-1,.15-2,.33-3,.51a11.79,11.79,0,0,0-1.5.41l-1.44.45c-1.91.64-3.82,1.26-5.72,1.92S214.63,276.14,212.75,276.82Z" style="fill:#dbdbdb"></path><path d="M214.64,277.68c1.91-.58,3.81-1.16,5.7-1.77l5.68-1.82c.94-.29,1.89-.64,2.82-.87l3-.56q3-.56,6-1.14-3,.42-6,.91-1.5.24-3,.51c-1,.26-1.93.57-2.89.87-1.88.63-3.76,1.25-5.63,1.89S216.49,277,214.64,277.68Z" style="fill:#dbdbdb"></path><path d="M216.53,278.54c1.9-.58,3.8-1.16,5.68-1.76l5.66-1.82c.93-.29,1.88-.63,2.81-.88l3-.55c2-.37,4-.74,5.94-1.14q-3,.42-6,.9c-1,.16-2,.33-3,.52s-1.92.57-2.87.87c-1.87.63-3.75,1.24-5.61,1.89S218.38,277.86,216.53,278.54Z" style="fill:#dbdbdb"></path><path d="M218.42,279.39q2.85-.86,5.67-1.75l5.63-1.81c.93-.29,1.88-.63,2.8-.88s2-.36,3-.55q3-.56,5.92-1.14-3,.42-6,.9c-1,.16-2,.33-3,.52s-1.91.57-2.85.87c-1.87.62-3.75,1.24-5.6,1.88S220.26,278.72,218.42,279.39Z" style="fill:#dbdbdb"></path><path d="M220.31,280.25c1.87-.57,3.74-1.14,5.59-1.73l5.56-1.78c.93-.29,1.86-.62,2.77-.89s1.94-.36,2.91-.55c2-.37,3.9-.74,5.84-1.13q-3,.4-5.91.89c-1,.16-2,.31-2.95.52s-1.88.58-2.81.88c-1.84.61-3.69,1.21-5.52,1.85S222.13,279.59,220.31,280.25Z" style="fill:#dbdbdb"></path><path d="M222.2,281.11c1.87-.57,3.74-1.14,5.59-1.73l5.56-1.79c.93-.29,1.85-.61,2.77-.88s1.94-.37,2.91-.56q2.92-.54,5.84-1.12c-2,.27-4,.57-5.91.88-1,.17-2,.31-3,.53s-1.88.57-2.81.88c-1.84.61-3.69,1.21-5.53,1.85S224,280.45,222.2,281.11Z" style="fill:#dbdbdb"></path><path d="M223.77,282.09c1.89-.58,3.79-1.16,5.67-1.76l5.64-1.82,2.81-.91c.93-.23,2-.38,2.94-.57q3-.55,5.93-1.15-3,.42-6,.9c-1,.18-2,.31-3,.56s-1.9.58-2.83.89c-1.87.63-3.75,1.24-5.61,1.89S225.61,281.42,223.77,282.09Z" style="fill:#dbdbdb"></path><path d="M225.66,283c1.89-.58,3.78-1.17,5.65-1.77l5.62-1.83,2.81-.91c.91-.24,1.95-.38,2.92-.57q3-.56,5.92-1.15-3,.42-6,.9c-1,.18-2,.3-3,.56s-1.89.58-2.82.9c-1.87.62-3.74,1.24-5.58,1.89S227.5,282.31,225.66,283Z" style="fill:#dbdbdb"></path><path d="M227.56,283.94c1.83-.58,3.66-1.16,5.48-1.76s3.62-1.21,5.44-1.81l2.72-.9a8.72,8.72,0,0,1,1.38-.36l1.44-.26q2.88-.54,5.75-1.12-2.93.39-5.83.87l-1.45.25c-.24,0-.48.08-.73.14l-.7.21q-1.38.44-2.73.9c-1.81.62-3.62,1.23-5.41,1.88S229.34,283.27,227.56,283.94Z" style="fill:#dbdbdb"></path><path d="M229.44,284.74c1.87-.53,3.73-1.05,5.57-1.6s3.7-1.11,5.55-1.65c.92-.26,1.85-.56,2.76-.8l2.85-.65q2.84-.66,5.66-1.38c-1.92.35-3.84.74-5.75,1.13l-2.87.62c-1,.24-1.87.53-2.79.81-1.84.57-3.69,1.12-5.51,1.72S231.26,284.12,229.44,284.74Z" style="fill:#dbdbdb"></path><path d="M256.75,277.79q2.67-.72,5.26-1.53l1.31-.38a11.06,11.06,0,0,1,1.32-.32l2.71-.58,5.41-1.16c1.8-.39,3.6-.81,5.4-1.22-1.82.35-3.65.68-5.46,1l-5.44,1.09-2.71.55a13,13,0,0,0-1.37.32c-.44.12-.87.26-1.3.4Q259.27,276.81,256.75,277.79Z" style="fill:#dbdbdb"></path><path d="M254.92,276.68q2.61-.58,5.19-1.27c.86-.21,1.71-.46,2.57-.65l2.61-.56,5.23-1.17c1.74-.38,3.47-.8,5.21-1.2-1.76.34-3.52.67-5.27,1l-5.26,1.07c-1.73.38-3.53.7-5.21,1.22S256.59,276.13,254.92,276.68Z" style="fill:#dbdbdb"></path><path d="M253.15,275.7c1.73-.39,3.45-.8,5.15-1.25l2.56-.66,2.61-.51,5.23-1c1.74-.34,3.47-.72,5.21-1.08-1.76.3-3.52.58-5.27.9l-5.26.95-2.63.49c-.88.2-1.71.45-2.56.68C256.49,274.65,254.81,275.16,253.15,275.7Z" style="fill:#dbdbdb"></path><path d="M251.64,275c1.71-.46,3.37-1,5.05-1.53a9.21,9.21,0,0,1,1.25-.33l1.32-.23,2.65-.45q5.31-.92,10.58-1.88-5.33.76-10.65,1.62l-2.65.44-1.33.22a8,8,0,0,0-1.32.33C254.87,273.71,253.23,274.29,251.64,275Z" style="fill:#dbdbdb"></path><path d="M250,274.08c1.72-.46,3.38-1,5.05-1.53a9.21,9.21,0,0,1,1.25-.33l1.33-.23,2.65-.45q5.3-.92,10.58-1.88c-3.56.51-7.11,1.06-10.66,1.62l-2.65.44-1.33.22a9,9,0,0,0-1.31.33C253.21,272.82,251.57,273.4,250,274.08Z" style="fill:#dbdbdb"></path><path d="M248.33,273.2c1.71-.47,3.37-1,5-1.54a9.35,9.35,0,0,1,1.26-.33l1.32-.23,2.65-.45q5.29-.91,10.58-1.88-5.34.78-10.65,1.63l-2.66.43-1.33.22a9,9,0,0,0-1.31.34C251.55,271.93,249.91,272.52,248.33,273.2Z" style="fill:#dbdbdb"></path><path d="M246.67,272.31c1.71-.46,3.37-1,5.05-1.53a9.21,9.21,0,0,1,1.25-.33l1.32-.23,2.65-.45q5.3-.91,10.58-1.88-5.34.76-10.65,1.62l-2.66.43-1.32.23a7.72,7.72,0,0,0-1.32.33C249.9,271,248.26,271.63,246.67,272.31Z" style="fill:#dbdbdb"></path><path d="M244.53,271.6c1.71-.47,3.37-1,5.05-1.54a9.21,9.21,0,0,1,1.25-.33l1.32-.23,2.65-.45q5.29-.92,10.58-1.88-5.34.78-10.65,1.63l-2.66.43-1.32.22a9.11,9.11,0,0,0-1.32.34C247.76,270.33,246.12,270.92,244.53,271.6Z" style="fill:#dbdbdb"></path><path d="M242.45,270.89c1.71-.46,3.37-1,5.05-1.53a9.21,9.21,0,0,1,1.25-.33l1.32-.23,2.65-.45q5.29-.92,10.58-1.88-5.34.76-10.65,1.62l-2.66.44-1.32.22a8,8,0,0,0-1.32.33C245.68,269.63,244,270.21,242.45,270.89Z" style="fill:#dbdbdb"></path><path d="M240.79,270c1.71-.46,3.37-1,5-1.53a7.91,7.91,0,0,1,1.25-.32l1.32-.22,2.66-.41q5.31-.84,10.6-1.73-5.34.69-10.67,1.47l-2.66.4-1.33.2a9.11,9.11,0,0,0-1.32.34C244,268.74,242.38,269.33,240.79,270Z" style="fill:#dbdbdb"></path><path d="M239.13,269.12c1.71-.47,3.37-1,5-1.53a8.24,8.24,0,0,1,1.25-.33l1.32-.19,2.67-.38q5.31-.75,10.63-1.55c-3.57.4-7.14.83-10.69,1.29l-2.67.36-1.33.19a7.5,7.5,0,0,0-1.32.33C242.35,267.85,240.72,268.44,239.13,269.12Z" style="fill:#dbdbdb"></path><path d="M237.47,268.23c1.71-.46,3.36-1,5-1.53a9,9,0,0,1,1.24-.32l1.32-.16,2.67-.31q5.34-.62,10.68-1.27-5.37.45-10.73,1l-2.67.29-1.34.16a6.71,6.71,0,0,0-1.32.33C240.69,267,239.05,267.55,237.47,268.23Z" style="fill:#dbdbdb"></path><path d="M231.37,286c1.9-.49,3.8-1,5.68-1.49l5.66-1.55c.94-.26,1.89-.54,2.82-.78l2.86-.7q2.87-.7,5.69-1.48-2.9.6-5.78,1.24l-2.88.67c-1,.24-1.9.5-2.84.76-1.88.54-3.76,1.07-5.63,1.63S233.22,285.39,231.37,286Z" style="fill:#dbdbdb"></path><path d="M258.12,278.87c1.92-.46,3.84-.92,5.75-1.4l5.71-1.46,2.85-.74,2.89-.65q2.9-.67,5.75-1.39c-1.95.36-3.89.75-5.83,1.15l-2.91.62c-1,.23-1.92.47-2.87.72-1.9.51-3.8,1-5.69,1.53S260,278.32,258.12,278.87Z" style="fill:#dbdbdb"></path><path d="M220.07,255.57s-23.76,7.88-57.15,11.34c0,0,6.62-49.43,16.27-64.11,4.4-6.68,9.81-6.71,14.91-3.77,1.27.73,18.08,15.87,20.3,21.77,2,5.21-1.39,11.95-1.39,11.95Z" style="fill:#FFE2E2"></path><path d="M189.18,199a1.28,1.28,0,1,0,1.28,1.28A1.28,1.28,0,0,0,189.18,199Zm0,2.31a1,1,0,1,1,1-1A1,1,0,0,1,189.18,201.32Zm-5,4.46a1.28,1.28,0,1,0,1.28,1.28A1.28,1.28,0,0,0,184.2,205.78Zm0,2.31a1,1,0,1,1,1-1A1,1,0,0,1,184.2,208.09Zm-6.64,23.73a1.28,1.28,0,1,0,1.27,1.28A1.28,1.28,0,0,0,177.56,231.82Zm0,2.31a1,1,0,1,1,1-1A1,1,0,0,1,177.56,234.13Zm0-13a1.28,1.28,0,1,0,1.27,1.27A1.27,1.27,0,0,0,177.56,221.16Zm0,2.3a1,1,0,1,1,1-1A1,1,0,0,1,177.56,223.46Zm-.55-12.7a1.28,1.28,0,1,0,1.28,1.28A1.28,1.28,0,0,0,177,210.76Zm0,2.31a1,1,0,0,1,0-2.06,1,1,0,0,1,0,2.06Zm6.52,2.72a1.28,1.28,0,1,0,1.28,1.27A1.28,1.28,0,0,0,183.53,215.79Zm0,2.3a1,1,0,1,1,1-1A1,1,0,0,1,183.53,218.09Zm25.17-2.62a1.28,1.28,0,1,0,1.28,1.28A1.28,1.28,0,0,0,208.7,215.47Zm0,2.31a1,1,0,1,1,1-1A1,1,0,0,1,208.7,217.78Zm-8.28,39a1.28,1.28,0,1,0,1.28,1.28A1.28,1.28,0,0,0,200.42,256.8Zm0,2.31a1,1,0,1,1,1-1A1,1,0,0,1,200.42,259.11ZM186,257.33a1.28,1.28,0,1,0,1.28,1.28A1.28,1.28,0,0,0,186,257.33Zm0,2.3a1,1,0,1,1,1-1A1,1,0,0,1,186,259.63Zm10-43.84a1.28,1.28,0,1,0,1.28,1.27A1.27,1.27,0,0,0,196.05,215.79Zm0,2.3a1,1,0,1,1,1-1A1,1,0,0,1,196.05,218.09Zm1.15,8.56a1.28,1.28,0,0,0,0,2.56,1.28,1.28,0,0,0,0-2.56Zm0,2.31a1,1,0,1,1,1-1A1,1,0,0,1,197.2,229Zm.46,7.65a1.28,1.28,0,1,0,1.28,1.27A1.27,1.27,0,0,0,197.66,236.61Zm0,2.3a1,1,0,1,1,1-1A1,1,0,0,1,197.66,238.91Zm-2.31-34.28a1.28,1.28,0,1,0,1.28,1.28A1.28,1.28,0,0,0,195.35,204.63Zm0,2.31a1,1,0,1,1,1-1A1,1,0,0,1,195.35,206.94Zm-5,3.37a1.28,1.28,0,0,0,0,2.56,1.28,1.28,0,0,0,0-2.56Zm0,2.31a1,1,0,1,1,1-1A1,1,0,0,1,190.33,212.62Zm-.31,9a1.28,1.28,0,1,0,1.28,1.28A1.27,1.27,0,0,0,190,221.59Zm0,2.31a1,1,0,1,1,1-1A1,1,0,0,1,190,223.9Zm-18.86,3.23a1.28,1.28,0,0,0-.85.32c-.12.47-.23.93-.34,1.4h0a1.26,1.26,0,0,0,1.19.83,1.28,1.28,0,0,0,0-2.56Zm0,2.31a1,1,0,1,1,1-1A1,1,0,0,1,171.16,229.44Zm7,13a1.28,1.28,0,1,0,0,2.56,1.28,1.28,0,1,0,0-2.56Zm0,2.31a1,1,0,1,1,1-1A1,1,0,0,1,178.16,244.71Zm6.7,3.23a1.28,1.28,0,1,0,1.28,1.28A1.28,1.28,0,0,0,184.86,247.94Zm0,2.31a1,1,0,1,1,1-1A1,1,0,0,1,184.86,250.25Zm7.15,2.39a1.28,1.28,0,1,0,1.28,1.27A1.28,1.28,0,0,0,192,252.64Zm0,2.3a1,1,0,1,1,1-1A1,1,0,0,1,192,254.94Zm-14.45,6.9a1.28,1.28,0,1,0,1.27,1.27A1.27,1.27,0,0,0,177.56,261.84Zm0,2.3a1,1,0,1,1,1-1A1,1,0,0,1,177.56,264.14Zm13.3-32.32a1.28,1.28,0,1,0,1.28,1.28A1.28,1.28,0,0,0,190.86,231.82Zm0,2.31a1,1,0,1,1,1-1A1,1,0,0,1,190.86,234.13Zm-5.51,3.06a1.28,1.28,0,1,0,1.28,1.28A1.28,1.28,0,0,0,185.35,237.19Zm0,2.31a1,1,0,1,1,1-1A1,1,0,0,1,185.35,239.5ZM178,252.64a1.28,1.28,0,1,0,1.28,1.27A1.27,1.27,0,0,0,178,252.64Zm0,2.3a1,1,0,1,1,1-1A1,1,0,0,1,178,254.94Zm-13.47,6.9a1.28,1.28,0,0,0-.89.36c0,.23-.07.45-.1.66a1,1,0,1,1,0,.25c0,.21-.06.41-.1.6h0a1.3,1.3,0,0,0,1.13.67,1.28,1.28,0,1,0,0-2.55Zm34.76-14.19a1.28,1.28,0,1,0,1.28,1.28A1.28,1.28,0,0,0,199.26,247.65Zm0,2.3a1,1,0,1,1,1-1A1,1,0,0,1,199.26,250Zm7.74,1.2a1.28,1.28,0,1,0,1.28,1.28A1.28,1.28,0,0,0,207,251.15Zm0,2.31a1,1,0,1,1,1-1A1,1,0,0,1,207,253.46Zm-4.42-43.15a1.28,1.28,0,1,0,1.28,1.28A1.28,1.28,0,0,0,202.58,210.31Zm0,2.31a1,1,0,1,1,1-1A1,1,0,0,1,202.58,212.62Zm.37,7.81a1.28,1.28,0,1,0,1.28,1.28A1.28,1.28,0,0,0,203,220.43Zm0,2.31a1,1,0,1,1,1-1A1,1,0,0,1,203,222.74Zm-19.42,4.39a1.28,1.28,0,1,0,1.28,1.28A1.28,1.28,0,0,0,183.53,227.13Zm0,2.31a1,1,0,0,1,0-2.06,1,1,0,0,1,0,2.06Zm-12.71,8.32A1.28,1.28,0,1,0,172.1,239,1.28,1.28,0,0,0,170.82,237.76Zm0,2.31a1,1,0,1,1,1-1A1,1,0,0,1,170.82,240.07Zm0,7.72a1.28,1.28,0,1,0,1.28,1.28A1.28,1.28,0,0,0,170.82,247.79Zm0,2.31a1,1,0,0,1,0-2.06,1,1,0,0,1,0,2.06Zm-.49,6.7a1.28,1.28,0,1,0,1.28,1.28A1.27,1.27,0,0,0,170.33,256.8Zm0,2.31a1,1,0,1,1,1-1A1,1,0,0,1,170.33,259.11Zm39.87-34.29a1.28,1.28,0,1,0,1.27,1.28A1.28,1.28,0,0,0,210.2,224.82Zm0,2.31a1,1,0,1,1,1-1A1,1,0,0,1,210.2,227.13Zm1.15,8.32a1.28,1.28,0,1,0,1.28,1.28A1.28,1.28,0,0,0,211.35,235.45Zm0,2.31a1,1,0,1,1,1-1A1,1,0,0,1,211.35,237.76Zm-6.46-6.31a1.28,1.28,0,1,0,0,2.56,1.28,1.28,0,0,0,0-2.56Zm0,2.31a1,1,0,1,1,1-1A1,1,0,0,1,204.89,233.76ZM192,242.4a1.28,1.28,0,0,0,0,2.56,1.28,1.28,0,0,0,0-2.56Zm0,2.31a1,1,0,1,1,1-1A1,1,0,0,1,192,244.71Zm12.88-3.46a1.28,1.28,0,1,0,0,2.56,1.28,1.28,0,0,0,0-2.56Zm0,2.31a1,1,0,1,1,1-1A1,1,0,0,1,204.89,243.56Zm9.87,11.05a1.28,1.28,0,0,0,0,2.56h0l.62-.18h.05a1.24,1.24,0,0,0,.61-1.08A1.28,1.28,0,0,0,214.76,254.61Zm0,2.31a1,1,0,1,1,1-1A1,1,0,0,1,214.76,256.92Zm-2-12a1.28,1.28,0,1,0,1.28,1.28A1.28,1.28,0,0,0,212.79,244.89Zm0,2.31a1,1,0,0,1,0-2.06,1,1,0,0,1,0,2.06Z" style="fill:#fff"></path><path d="M214.34,220.22a26.38,26.38,0,0,0-4-5.88,20,20,0,0,0-2.26-3.21s-.06,0,0,0a23.27,23.27,0,0,1,1.74,2.54c-1.21-1.33-2.5-2.6-3.78-3.8a0,0,0,0,0,0,0c2.72,3.17,5.67,6.23,7.6,10a9.46,9.46,0,0,1,1.07,3.23,16.68,16.68,0,0,1,0,3.16,20,20,0,0,1-1.59,6.5c0,.09.1.17.14.07C215,229,216.29,224.29,214.34,220.22Z" style="fill:#263238"></path><path d="M185.7,200.23c.31,1,5.62,7.35,10.29,6.83,1.52-.18.95-8.51.95-8.51l.1-.63,1.37-8.75-10.55-5.85-1.52-.77s-.22,2.42-.46,5.44l0,.43c0,.17,0,.33,0,.49,0,.45-.08.91-.11,1.36s-.05.69-.07,1.06,0,.73-.06,1.09A58.07,58.07,0,0,0,185.7,200.23Z" style="fill: rgb(247, 169, 160);"></path><path d="M185.88,188A17.8,17.8,0,0,0,197,197.92l1.37-8.75-10.55-5.85-1.52-.77S186.12,185,185.88,188Z" style="fill:#263238"></path><path d="M209.68,173.69c3.89,15.06-4.69,19.09-7.93,19.92-2.95.76-13.09,3-18.51-11.61s.35-21.14,7-23.23S205.8,158.64,209.68,173.69Z" style="fill: rgb(247, 169, 160);"></path><path d="M206.68,171.87a9.47,9.47,0,0,1-1.06.09,1.7,1.7,0,0,1-1.09-.12.53.53,0,0,1-.19-.64,1.37,1.37,0,0,1,1.19-.69,2,2,0,0,1,1.4.33A.58.58,0,0,1,206.68,171.87Z" style="fill:#263238"></path><path d="M197.11,174.68a10.36,10.36,0,0,0,.93-.5,1.7,1.7,0,0,0,.87-.69.55.55,0,0,0-.19-.64,1.37,1.37,0,0,0-1.37.06,2,2,0,0,0-1,1A.59.59,0,0,0,197.11,174.68Z" style="fill:#263238"></path><path d="M201.29,185.82c.29.2.59.49,1,.46a2.72,2.72,0,0,0,1.06-.46,0,0,0,0,1,.06.05,1.42,1.42,0,0,1-1.21.79,1.12,1.12,0,0,1-1-.77C201.17,185.83,201.24,185.79,201.29,185.82Z" style="fill:#263238"></path><path d="M205.36,176s.09,0,.1.06c.25,1,.69,2.13,1.69,2.21,0,0,0,.06,0,.06C206,178.44,205.43,177,205.36,176Z" style="fill:#263238"></path><path d="M207.5,175.89a1,1,0,0,0,.33.17.7.7,0,0,0,.58,0c.55-.31.55-1,.34-1.61,0,0-.05-.06-.06,0-.12.4-.27.83-.62.91a1.3,1.3,0,0,1-.75-.16A3.28,3.28,0,0,1,207.5,175.89Z" style="fill:#263238"></path><path d="M205.7,177.29a1.63,1.63,0,0,0,.56.65,1.18,1.18,0,0,0,.92.12,1,1,0,0,0,.69-.65,1.92,1.92,0,0,0,.07-.85,2.78,2.78,0,0,0-.11-.5,2.37,2.37,0,0,0-.51-.92,3.28,3.28,0,0,1,.18.75,5.32,5.32,0,0,1,0,.69c0,.47-.16.91-.51,1s-.72-.1-1-.49a7.35,7.35,0,0,1-.68-1.31A3.18,3.18,0,0,0,205.7,177.29Z" style="fill:#263238"></path><path d="M199.92,177.21s-.06.07,0,.11c.33,1,.55,2.17-.25,2.77,0,0,0,.07,0,0C200.7,179.66,200.4,178.09,199.92,177.21Z" style="fill:#263238"></path><path d="M198.08,178.29a1.13,1.13,0,0,1-.19.32.67.67,0,0,1-.52.27c-.62,0-1-.55-1.14-1.18,0,0,0-.07,0,0,.31.28.67.56,1,.45s.4-.33.55-.54A3.49,3.49,0,0,0,198.08,178.29Z" style="fill:#263238"></path><path d="M200.35,178.51a1.65,1.65,0,0,1-.13.86,1.18,1.18,0,0,1-.72.59,1,1,0,0,1-.92-.19,1.77,1.77,0,0,1-.52-.68,3.39,3.39,0,0,1-.17-.48,2.34,2.34,0,0,1-.06-1.05,3.49,3.49,0,0,0,.25.73,5,5,0,0,0,.33.61c.26.39.62.69,1,.57s.56-.47.58-.95a7.47,7.47,0,0,0-.12-1.47A3.32,3.32,0,0,1,200.35,178.51Z" style="fill:#263238"></path><path d="M204.64,181.16s.57,1.48.74,2.2c0,.06-.15.14-.39.21,0,0,0,0,0,0a3.5,3.5,0,0,1-3.62-.5.08.08,0,0,1,.09-.12,5.25,5.25,0,0,0,3.32.16c0-.21-1.05-2.49-.94-2.52a6.53,6.53,0,0,1,1.72,0c-1.09-3.1-2.67-6-3.71-9.11a.1.1,0,0,1,.18-.09,53.11,53.11,0,0,1,4.41,9.65C206.57,181.41,205,181.22,204.64,181.16Z" style="fill:#263238"></path><path d="M184.66,182.88c1.59-.58,4.49-6.29,2.29-14.16,0,0,1.49,7.2,1.26,8.39s1.62-3.21-.07-9.58a26.63,26.63,0,0,0,7.48,1.44c3.23-.05,5-.62,5.19-.9s-4.65-.36-6.24-1.38c0,0,9,1.33,12.76.53.43-.1-1.65-8.94-8.39-10.95s-14.51,4.63-16.23,7.67c0,0-2.7,1.24-4.53,6.33S183,183.5,184.66,182.88Z" style="fill:#263238"></path><path d="M184.65,187.56a3.25,3.25,0,0,0,.74.06,2.12,2.12,0,0,0,.73-.1,2.18,2.18,0,0,0,.83-.43,2.6,2.6,0,0,0,.51-.55,3.05,3.05,0,0,0,.43-1l-1.53-4s-4.16-4.22-6.12-2.67S181.94,187,184.65,187.56Z" style="fill: rgb(247, 169, 160);"></path><path d="M181.33,180.8a0,0,0,0,0,0,.07c1.91.43,3.13,1.93,4.08,3.54a1.45,1.45,0,0,0-2.21,0s0,.11.07.09a1.61,1.61,0,0,1,1.84.26,7.79,7.79,0,0,1,1.08,1.28c.11.15.39,0,.3-.16l0,0C186.13,183.51,183.82,180.62,181.33,180.8Z" style="fill:#263238"></path><path d="M184.75,186.88a.72.72,0,1,0,.42-.93A.72.72,0,0,0,184.75,186.88Z" style="fill:#fff"></path><path d="M183.11,186.05a.51.51,0,0,0,.66.29.51.51,0,0,0,.3-.65.51.51,0,1,0-1,.36Z" style="fill:#fff"></path><path d="M174.79,207.9c-10,16.8-21.58,49.86-14.17,55.37,12.19,9.06,44.56,13.11,52.46,13.68,3.41.25,9.15-22.24,6.74-25s-38.7-3-39.06-5.26c-.21-1.26,2.42-20.52,4-33.7C186.65,197.05,179.7,199.64,174.79,207.9Z" style="fill: rgb(247, 169, 160);"></path><path d="M213.8,250.41s10.39-.58,17.2-.64c3.8,0,10.32.5,13.12,1.75,4.19,1.88,20.53,12.39,18.06,16.41-2.23,3.63-15.11-7.19-15.11-7.19s14,9.77,10.47,13.65-16.42-10.27-16.42-10.27,14.12,10.35,9.89,13.79c-3.2,2.59-15.63-9.57-15.63-9.57s12.07,9,8.9,11.79c-3.51,3.11-15.69-7.4-15.69-7.4-9.28,5.79-16.06,4.75-20.79,3.44C206.65,275.85,213.8,250.41,213.8,250.41Z" style="fill: rgb(247, 169, 160);"></path><path d="M242.45,257.06c1.69,1.08,3.4,2.17,5,3.41s3.12,2.52,4.58,3.9a33.21,33.21,0,0,1,5.16,5.89c-2.92-3.63-8.51-8.14-10.09-9.37s-3.09-2.54-4.67-3.77A0,0,0,1,1,242.45,257.06Z" style="fill:#263238"></path><path d="M237.9,262.68c2.08,1.48,4.21,2.88,6.23,4.45s3.79,3.23,5.69,4.93c.14.13,0,.17-.13,0-2-1.62-3.91-3-5.89-4.57s-3.91-3.28-5.94-4.8C237.82,262.7,237.86,262.66,237.9,262.68Z" style="fill:#263238"></path><path d="M233.12,266.8a56.92,56.92,0,0,1,9,7.54c.14.13,0,.16-.17,0-3-2.56-5.24-4.59-8.92-7.45C233,266.87,233.05,266.76,233.12,266.8Z" style="fill:#263238"></path><path d="M162.36,232.22l21.07,3a228.34,228.34,0,0,0,2.08-26.79c0-12.19-5.74-9.57-11.28-.59S162.36,232.22,162.36,232.22Z" style="fill:#FFE2E2"></path><path d="M185.47,207a1.27,1.27,0,0,0-1.27-1.21,1.28,1.28,0,1,0,1.28,1.37v-.09A.17.17,0,0,0,185.47,207Zm-1.27,1.1a1,1,0,1,1,1-1A1,1,0,0,1,184.2,208.09Zm-13.87,8.4a1.28,1.28,0,1,0,1.28,1.28A1.27,1.27,0,0,0,170.33,216.49Zm0,2.31a1,1,0,1,1,1-1A1,1,0,0,1,170.33,218.8Zm7.23,13a1.28,1.28,0,1,0,1.27,1.28A1.28,1.28,0,0,0,177.56,231.82Zm0,2.31a1,1,0,1,1,1-1A1,1,0,0,1,177.56,234.13Zm.11-31-.26.29a1,1,0,0,1-.61.74l-.25.31a1.25,1.25,0,0,0,1.13-1.25A.28.28,0,0,0,177.67,203.17Zm-.11,18a1.28,1.28,0,1,0,1.27,1.27A1.27,1.27,0,0,0,177.56,221.16Zm0,2.3a1,1,0,1,1,1-1A1,1,0,0,1,177.56,223.46Zm-11.78.94a1.22,1.22,0,0,0,.27-.6Q165.9,224.1,165.78,224.4Zm-1.57,7.77a1.18,1.18,0,0,0-.69.22l.44.06a1.07,1.07,0,0,1,.25,0,1,1,0,0,1,.51.14l.46.07A1.22,1.22,0,0,0,164.21,232.17ZM177,210.76a1.28,1.28,0,1,0,1.28,1.28A1.28,1.28,0,0,0,177,210.76Zm0,2.31a1,1,0,0,1,0-2.06,1,1,0,0,1,0,2.06Zm6.52,2.72a1.28,1.28,0,1,0,1.28,1.27A1.28,1.28,0,0,0,183.53,215.79Zm0,2.3a1,1,0,1,1,1-1A1,1,0,0,1,183.53,218.09Zm-12.37,9a1.28,1.28,0,0,0,0,2.56,1.28,1.28,0,0,0,0-2.56Zm0,2.31a1,1,0,1,1,1-1A1,1,0,0,1,171.16,229.44Zm12.37-2.06a1,1,0,0,1,.8.39c0-.11,0-.22,0-.33a1.22,1.22,0,0,0-.83-.31,1.28,1.28,0,0,0,0,2.56,1.26,1.26,0,0,0,.61-.16l0-.32a1,1,0,0,1-.64.23,1,1,0,0,1,0-2.06Z" style="fill:#fff"></path><path d="M186.07,218.88s-.07-.07-.08,0c-.2.71-.39,1.42-.58,2.12.06-1.36.09-2.73.1-4.1,0,0-.08,0-.08,0q-.54,4.53-1,9.07c-.3,3-.75,6.05-1,9.09-.58,0-.9,0-1.34,0-.09,0-.13.13,0,.15a6.49,6.49,0,0,0,1.72.25,93,93,0,0,0,1.27-9.27c.17-1.49.28-3,.36-4.47A24.88,24.88,0,0,0,186.07,218.88Z" style="fill:#263238"></path><path d="M182.76,231.47a171.6,171.6,0,0,0-17.63-2.53.08.08,0,0,0,0,.16,174.43,174.43,0,0,0,17.63,2.54C182.84,231.65,182.86,231.49,182.76,231.47Z" style="fill:#263238"></path><path d="M235.81,250a11.69,11.69,0,0,0-2.28-.39c-.71-.09-1.43-.17-2.14-.21-1.59-.09-3.2-.08-4.79,0s-3.11.16-4.67.32-3.18.45-4.78.53c-.1,0-.09.16,0,.15,1.53-.18,3.11-.16,4.66-.22s3.12-.12,4.67-.16,3-.05,4.54,0l2.33,0a22.09,22.09,0,0,0,2.44.06S235.85,250,235.81,250Z" style="fill:#263238"></path><path d="M198.91,202.34s0,0,0,0c.16,2,.31,4.29-.76,6.08-.63,1-2,.88-3,.77a11.58,11.58,0,0,1-2.89-.68c-3.65-1.37-6.72-4.45-8.92-7.74-.05-.08-.17,0-.12.08,2,2.86,4.1,5.66,7.16,7.33a11.87,11.87,0,0,0,4.69,1.48,5.84,5.84,0,0,0,2.39-.16,2.49,2.49,0,0,0,1.29-1.63A11.05,11.05,0,0,0,198.91,202.34Z" style="fill:#263238"></path></g></svg>