<svg xmlns="http://www.w3.org/2000/svg" viewBox="0 0 500 500"><g id="freepik--Floor--inject-21"><path id="freepik--floor--inject-21" d="M84.48,444.1c-91.42-47.34-91.42-124.1,0-171.44s239.63-47.34,331,0,91.41,124.1,0,171.44S175.89,491.44,84.48,444.1Z" style="fill:#fafafa"></path></g><g id="freepik--Clouds--inject-21"><g id="freepik--clouds--inject-21"><path id="freepik--Cloud--inject-21" d="M146.27,51h6.22a26.11,26.11,0,0,1,49.88-5.84h6.23a16.32,16.32,0,0,1,16.32,16.32v3.6h3.38a8.72,8.72,0,1,1,0,17.44h-82a15.76,15.76,0,0,1,0-31.52Z" style="fill:#e0e0e0"></path><path id="freepik--cloud--inject-21" d="M56.61,90.12h4.25a17.85,17.85,0,0,1,34.09-4H99.2a11.15,11.15,0,0,1,11.15,11.14v2.46h2.31a6,6,0,1,1,0,11.92h-56a10.77,10.77,0,0,1,0-21.53Z" style="fill:#e0e0e0"></path><g id="freepik--Rain--inject-21"><path d="M52.32,120.18a.5.5,0,0,1-.5-.5v-2.5a.5.5,0,0,1,1,0v2.5A.5.5,0,0,1,52.32,120.18Z" style="fill:#f0f0f0"></path><path d="M52.32,381.68a.5.5,0,0,1-.5-.5v-5a.5.5,0,0,1,1,0v5A.5.5,0,0,1,52.32,381.68Zm0-7.93a.5.5,0,0,1-.5-.5V368.3a.5.5,0,0,1,1,0v4.95A.5.5,0,0,1,52.32,373.75Zm0-7.92a.5.5,0,0,1-.5-.5v-4.95a.5.5,0,0,1,1,0v4.95A.5.5,0,0,1,52.32,365.83Zm0-7.93a.5.5,0,0,1-.5-.5v-4.95a.5.5,0,0,1,1,0v4.95A.5.5,0,0,1,52.32,357.9Zm0-7.92a.5.5,0,0,1-.5-.5v-5a.5.5,0,0,1,1,0v5A.5.5,0,0,1,52.32,350Zm0-7.92a.5.5,0,0,1-.5-.5v-5a.5.5,0,0,1,1,0v5A.5.5,0,0,1,52.32,342.06Zm0-7.93a.5.5,0,0,1-.5-.5v-4.95a.5.5,0,0,1,1,0v4.95A.5.5,0,0,1,52.32,334.13Zm0-7.92a.5.5,0,0,1-.5-.5v-4.95a.5.5,0,0,1,1,0v4.95A.5.5,0,0,1,52.32,326.21Zm0-7.93a.5.5,0,0,1-.5-.5v-4.95a.5.5,0,0,1,1,0v4.95A.5.5,0,0,1,52.32,318.28Zm0-7.92a.5.5,0,0,1-.5-.5v-4.95a.5.5,0,0,1,1,0v4.95A.5.5,0,0,1,52.32,310.36Zm0-7.93a.5.5,0,0,1-.5-.5V297a.5.5,0,0,1,1,0v4.95A.5.5,0,0,1,52.32,302.43Zm0-7.92a.5.5,0,0,1-.5-.5v-4.95a.5.5,0,0,1,1,0V294A.5.5,0,0,1,52.32,294.51Zm0-7.92a.5.5,0,0,1-.5-.5v-5a.5.5,0,0,1,1,0v5A.5.5,0,0,1,52.32,286.59Zm0-7.93a.5.5,0,0,1-.5-.5v-5a.5.5,0,0,1,1,0v5A.5.5,0,0,1,52.32,278.66Zm0-7.92a.5.5,0,0,1-.5-.5v-4.95a.5.5,0,0,1,1,0v4.95A.5.5,0,0,1,52.32,270.74Zm0-7.93a.5.5,0,0,1-.5-.5v-4.95a.5.5,0,0,1,1,0v4.95A.5.5,0,0,1,52.32,262.81Zm0-7.92a.5.5,0,0,1-.5-.5v-4.95a.5.5,0,0,1,1,0v4.95A.5.5,0,0,1,52.32,254.89Zm0-7.92a.5.5,0,0,1-.5-.5v-5a.5.5,0,0,1,1,0v5A.5.5,0,0,1,52.32,247Zm0-7.93a.5.5,0,0,1-.5-.5v-4.95a.5.5,0,0,1,1,0v4.95A.5.5,0,0,1,52.32,239Zm0-7.92a.5.5,0,0,1-.5-.5v-5a.5.5,0,0,1,1,0v5A.5.5,0,0,1,52.32,231.12Zm0-7.93a.5.5,0,0,1-.5-.5v-4.95a.5.5,0,0,1,1,0v4.95A.5.5,0,0,1,52.32,223.19Zm0-7.92a.5.5,0,0,1-.5-.5v-5a.5.5,0,0,1,1,0v5A.5.5,0,0,1,52.32,215.27Zm0-7.92a.5.5,0,0,1-.5-.5v-5a.5.5,0,0,1,1,0v5A.5.5,0,0,1,52.32,207.35Zm0-7.93a.5.5,0,0,1-.5-.5V194a.5.5,0,0,1,1,0v4.95A.5.5,0,0,1,52.32,199.42Zm0-7.92a.5.5,0,0,1-.5-.5v-5a.5.5,0,0,1,1,0v5A.5.5,0,0,1,52.32,191.5Zm0-7.93a.5.5,0,0,1-.5-.5v-4.95a.5.5,0,0,1,1,0v4.95A.5.5,0,0,1,52.32,183.57Zm0-7.92a.5.5,0,0,1-.5-.5v-5a.5.5,0,0,1,1,0v5A.5.5,0,0,1,52.32,175.65Zm0-7.93a.5.5,0,0,1-.5-.5v-4.95a.5.5,0,0,1,1,0v4.95A.5.5,0,0,1,52.32,167.72Zm0-7.92a.5.5,0,0,1-.5-.5v-5a.5.5,0,0,1,1,0v5A.5.5,0,0,1,52.32,159.8Zm0-7.92a.5.5,0,0,1-.5-.5v-5a.5.5,0,0,1,1,0v5A.5.5,0,0,1,52.32,151.88Zm0-7.93a.5.5,0,0,1-.5-.5V138.5a.5.5,0,0,1,1,0v4.95A.5.5,0,0,1,52.32,144Zm0-7.92a.5.5,0,0,1-.5-.5v-4.95a.5.5,0,0,1,1,0v4.95A.5.5,0,0,1,52.32,136Zm0-7.93a.5.5,0,0,1-.5-.5v-4.95a.5.5,0,0,1,1,0v4.95A.5.5,0,0,1,52.32,128.1Z" style="fill:#f0f0f0"></path><path d="M52.32,387.15a.5.5,0,0,1-.5-.5v-2.5a.5.5,0,0,1,1,0v2.5A.5.5,0,0,1,52.32,387.15Z" style="fill:#f0f0f0"></path><path d="M60.87,120.18a.5.5,0,0,1-.5-.5v-2.5a.5.5,0,0,1,.5-.5.5.5,0,0,1,.5.5v2.5A.5.5,0,0,1,60.87,120.18Z" style="fill:#f0f0f0"></path><path d="M60.87,363.69a.5.5,0,0,1-.5-.5v-5.07a.5.5,0,0,1,.5-.5.5.5,0,0,1,.5.5v5.07A.5.5,0,0,1,60.87,363.69Zm0-8.11a.5.5,0,0,1-.5-.5V350a.5.5,0,0,1,.5-.5.51.51,0,0,1,.5.5v5.08A.51.51,0,0,1,60.87,355.58Zm0-8.12a.5.5,0,0,1-.5-.5v-5.07a.5.5,0,0,1,.5-.5.5.5,0,0,1,.5.5V347A.5.5,0,0,1,60.87,347.46Zm0-8.12a.5.5,0,0,1-.5-.5v-5.07a.5.5,0,0,1,.5-.5.5.5,0,0,1,.5.5v5.07A.5.5,0,0,1,60.87,339.34Zm0-8.11a.5.5,0,0,1-.5-.5v-5.08a.5.5,0,0,1,.5-.5.51.51,0,0,1,.5.5v5.08A.51.51,0,0,1,60.87,331.23Zm0-8.12a.5.5,0,0,1-.5-.5v-5.07a.5.5,0,0,1,.5-.5.5.5,0,0,1,.5.5v5.07A.5.5,0,0,1,60.87,323.11Zm0-8.12a.5.5,0,0,1-.5-.5v-5.07a.5.5,0,0,1,.5-.5.5.5,0,0,1,.5.5v5.07A.5.5,0,0,1,60.87,315Zm0-8.12a.5.5,0,0,1-.5-.5V301.3a.5.5,0,0,1,.5-.5.5.5,0,0,1,.5.5v5.07A.5.5,0,0,1,60.87,306.87Zm0-8.11a.5.5,0,0,1-.5-.5v-5.08a.5.5,0,0,1,.5-.5.51.51,0,0,1,.5.5v5.08A.51.51,0,0,1,60.87,298.76Zm0-8.12a.5.5,0,0,1-.5-.5v-5.07a.5.5,0,0,1,.5-.5.5.5,0,0,1,.5.5v5.07A.5.5,0,0,1,60.87,290.64Zm0-8.12a.5.5,0,0,1-.5-.5V277a.5.5,0,0,1,.5-.5.5.5,0,0,1,.5.5V282A.5.5,0,0,1,60.87,282.52Zm0-8.11a.5.5,0,0,1-.5-.5v-5.08a.5.5,0,0,1,.5-.5.51.51,0,0,1,.5.5v5.08A.51.51,0,0,1,60.87,274.41Zm0-8.12a.5.5,0,0,1-.5-.5v-5.07a.5.5,0,0,1,.5-.5.5.5,0,0,1,.5.5v5.07A.5.5,0,0,1,60.87,266.29Zm0-8.12a.5.5,0,0,1-.5-.5V252.6a.5.5,0,0,1,.5-.5.5.5,0,0,1,.5.5v5.07A.5.5,0,0,1,60.87,258.17Zm0-8.12a.5.5,0,0,1-.5-.5v-5.07a.5.5,0,0,1,.5-.5.51.51,0,0,1,.5.5v5.07A.5.5,0,0,1,60.87,250.05Zm0-8.11a.5.5,0,0,1-.5-.5v-5.08a.5.5,0,0,1,.5-.5.51.51,0,0,1,.5.5v5.08A.51.51,0,0,1,60.87,241.94Zm0-8.12a.5.5,0,0,1-.5-.5v-5.07a.5.5,0,0,1,.5-.5.5.5,0,0,1,.5.5v5.07A.5.5,0,0,1,60.87,233.82Zm0-8.12a.5.5,0,0,1-.5-.5v-5.07a.5.5,0,0,1,.5-.5.5.5,0,0,1,.5.5v5.07A.5.5,0,0,1,60.87,225.7Zm0-8.11a.5.5,0,0,1-.5-.5V212a.5.5,0,0,1,.5-.5.51.51,0,0,1,.5.5v5.08A.51.51,0,0,1,60.87,217.59Zm0-8.12a.5.5,0,0,1-.5-.5V203.9a.5.5,0,0,1,.5-.5.5.5,0,0,1,.5.5V209A.5.5,0,0,1,60.87,209.47Zm0-8.12a.5.5,0,0,1-.5-.5v-5.07a.5.5,0,0,1,.5-.5.5.5,0,0,1,.5.5v5.07A.5.5,0,0,1,60.87,201.35Zm0-8.12a.5.5,0,0,1-.5-.5v-5.07a.5.5,0,0,1,.5-.5.51.51,0,0,1,.5.5v5.07A.5.5,0,0,1,60.87,193.23Zm0-8.11a.5.5,0,0,1-.5-.5v-5.08a.5.5,0,0,1,.5-.5.51.51,0,0,1,.5.5v5.08A.51.51,0,0,1,60.87,185.12Zm0-8.12a.5.5,0,0,1-.5-.5v-5.07a.5.5,0,0,1,.5-.5.5.5,0,0,1,.5.5v5.07A.5.5,0,0,1,60.87,177Zm0-8.12a.5.5,0,0,1-.5-.5v-5.07a.5.5,0,0,1,.5-.5.5.5,0,0,1,.5.5v5.07A.5.5,0,0,1,60.87,168.88Zm0-8.11a.5.5,0,0,1-.5-.5v-5.08a.5.5,0,0,1,.5-.5.51.51,0,0,1,.5.5v5.08A.51.51,0,0,1,60.87,160.77Zm0-8.12a.5.5,0,0,1-.5-.5v-5.07a.5.5,0,0,1,.5-.5.5.5,0,0,1,.5.5v5.07A.5.5,0,0,1,60.87,152.65Zm0-8.12a.5.5,0,0,1-.5-.5V139a.5.5,0,0,1,.5-.5.5.5,0,0,1,.5.5V144A.5.5,0,0,1,60.87,144.53Zm0-8.11a.5.5,0,0,1-.5-.5v-5.08a.5.5,0,0,1,.5-.5.51.51,0,0,1,.5.5v5.08A.51.51,0,0,1,60.87,136.42Zm0-8.12a.5.5,0,0,1-.5-.5v-5.08a.5.5,0,0,1,.5-.5.51.51,0,0,1,.5.5v5.08A.51.51,0,0,1,60.87,128.3Z" style="fill:#f0f0f0"></path><path d="M60.87,369.24a.5.5,0,0,1-.5-.5v-2.5a.5.5,0,0,1,.5-.5.5.5,0,0,1,.5.5v2.5A.51.51,0,0,1,60.87,369.24Z" style="fill:#f0f0f0"></path><path d="M69.41,120.18a.5.5,0,0,1-.5-.5v-2.5a.5.5,0,0,1,.5-.5.5.5,0,0,1,.5.5v2.5A.5.5,0,0,1,69.41,120.18Z" style="fill:#f0f0f0"></path><path d="M69.41,327.39a.5.5,0,0,1-.5-.5v-5a.51.51,0,0,1,.5-.5.5.5,0,0,1,.5.5v5A.5.5,0,0,1,69.41,327.39Zm0-8a.51.51,0,0,1-.5-.5v-5a.51.51,0,0,1,.5-.5.5.5,0,0,1,.5.5v5A.5.5,0,0,1,69.41,319.43Zm0-8a.51.51,0,0,1-.5-.5v-5a.51.51,0,0,1,.5-.5.5.5,0,0,1,.5.5v5A.5.5,0,0,1,69.41,311.46Zm0-8a.51.51,0,0,1-.5-.5v-5a.51.51,0,0,1,.5-.5.5.5,0,0,1,.5.5v5A.5.5,0,0,1,69.41,303.49Zm0-8a.51.51,0,0,1-.5-.5v-5a.51.51,0,0,1,.5-.5.5.5,0,0,1,.5.5v5A.5.5,0,0,1,69.41,295.52Zm0-8a.51.51,0,0,1-.5-.5v-5a.51.51,0,0,1,.5-.5.5.5,0,0,1,.5.5v5A.5.5,0,0,1,69.41,287.55Zm0-8a.51.51,0,0,1-.5-.5v-5a.51.51,0,0,1,.5-.5.5.5,0,0,1,.5.5v5A.5.5,0,0,1,69.41,279.58Zm0-8a.51.51,0,0,1-.5-.5v-5a.5.5,0,0,1,.5-.5.5.5,0,0,1,.5.5v5A.5.5,0,0,1,69.41,271.61Zm0-8a.51.51,0,0,1-.5-.5v-5a.5.5,0,0,1,.5-.5.5.5,0,0,1,.5.5v5A.5.5,0,0,1,69.41,263.64Zm0-8a.51.51,0,0,1-.5-.5v-5a.5.5,0,0,1,.5-.5.5.5,0,0,1,.5.5v5A.5.5,0,0,1,69.41,255.67Zm0-8a.51.51,0,0,1-.5-.5v-5a.5.5,0,0,1,.5-.5.5.5,0,0,1,.5.5v5A.5.5,0,0,1,69.41,247.7Zm0-8a.51.51,0,0,1-.5-.5v-5a.5.5,0,0,1,.5-.5.5.5,0,0,1,.5.5v5A.5.5,0,0,1,69.41,239.73Zm0-8a.51.51,0,0,1-.5-.5v-5a.5.5,0,0,1,.5-.5.5.5,0,0,1,.5.5v5A.5.5,0,0,1,69.41,231.76Zm0-8a.51.51,0,0,1-.5-.5v-5a.5.5,0,0,1,.5-.5.5.5,0,0,1,.5.5v5A.5.5,0,0,1,69.41,223.79Zm0-8a.51.51,0,0,1-.5-.5v-5a.5.5,0,0,1,.5-.5.5.5,0,0,1,.5.5v5A.5.5,0,0,1,69.41,215.82Zm0-8a.51.51,0,0,1-.5-.5v-5a.5.5,0,0,1,.5-.5.5.5,0,0,1,.5.5v5A.5.5,0,0,1,69.41,207.85Zm0-8a.51.51,0,0,1-.5-.5v-5a.5.5,0,0,1,.5-.5.5.5,0,0,1,.5.5v5A.5.5,0,0,1,69.41,199.88Zm0-8a.51.51,0,0,1-.5-.5v-5a.5.5,0,0,1,.5-.5.5.5,0,0,1,.5.5v5A.5.5,0,0,1,69.41,191.91Zm0-8a.5.5,0,0,1-.5-.5v-5a.5.5,0,0,1,.5-.5.5.5,0,0,1,.5.5v5A.5.5,0,0,1,69.41,183.94Zm0-8a.5.5,0,0,1-.5-.5v-5a.5.5,0,0,1,.5-.5.5.5,0,0,1,.5.5v5A.5.5,0,0,1,69.41,176Zm0-8a.5.5,0,0,1-.5-.5v-5a.5.5,0,0,1,.5-.5.5.5,0,0,1,.5.5v5A.5.5,0,0,1,69.41,168Zm0-8a.5.5,0,0,1-.5-.5v-5a.5.5,0,0,1,.5-.5.5.5,0,0,1,.5.5v5A.5.5,0,0,1,69.41,160Zm0-8a.5.5,0,0,1-.5-.5v-5a.5.5,0,0,1,.5-.5.5.5,0,0,1,.5.5v5A.5.5,0,0,1,69.41,152.06Zm0-8a.5.5,0,0,1-.5-.5v-5a.5.5,0,0,1,.5-.5.5.5,0,0,1,.5.5v5A.5.5,0,0,1,69.41,144.09Zm0-8a.5.5,0,0,1-.5-.5v-5a.5.5,0,0,1,.5-.5.5.5,0,0,1,.5.5v5A.5.5,0,0,1,69.41,136.12Zm0-8a.5.5,0,0,1-.5-.5v-5a.5.5,0,0,1,.5-.5.5.5,0,0,1,.5.5v5A.5.5,0,0,1,69.41,128.15Z" style="fill:#f0f0f0"></path><path d="M69.41,332.88a.5.5,0,0,1-.5-.5v-2.5a.51.51,0,0,1,.5-.5.5.5,0,0,1,.5.5v2.5A.5.5,0,0,1,69.41,332.88Z" style="fill:#f0f0f0"></path><path d="M78,120.18a.5.5,0,0,1-.5-.5v-2.5a.5.5,0,0,1,1,0v2.5A.5.5,0,0,1,78,120.18Z" style="fill:#f0f0f0"></path><path d="M78,288.15a.5.5,0,0,1-.5-.5v-5a.5.5,0,0,1,1,0v5A.5.5,0,0,1,78,288.15Zm0-8a.5.5,0,0,1-.5-.5v-5a.5.5,0,0,1,1,0v5A.5.5,0,0,1,78,280.15Zm0-8a.5.5,0,0,1-.5-.5v-5a.5.5,0,0,1,1,0v5A.5.5,0,0,1,78,272.15Zm0-8a.5.5,0,0,1-.5-.5v-5a.5.5,0,0,1,1,0v5A.5.5,0,0,1,78,264.15Zm0-8a.5.5,0,0,1-.5-.5v-5a.5.5,0,0,1,1,0v5A.5.5,0,0,1,78,256.15Zm0-8a.5.5,0,0,1-.5-.5v-5a.5.5,0,0,1,1,0v5A.5.5,0,0,1,78,248.16Zm0-8a.5.5,0,0,1-.5-.5v-5a.5.5,0,0,1,1,0v5A.5.5,0,0,1,78,240.16Zm0-8a.5.5,0,0,1-.5-.5v-5a.5.5,0,0,1,1,0v5A.5.5,0,0,1,78,232.16Zm0-8a.5.5,0,0,1-.5-.5v-5a.5.5,0,0,1,1,0v5A.5.5,0,0,1,78,224.16Zm0-8a.5.5,0,0,1-.5-.5v-5a.5.5,0,0,1,1,0v5A.5.5,0,0,1,78,216.16Zm0-8a.5.5,0,0,1-.5-.5v-5a.5.5,0,0,1,1,0v5A.5.5,0,0,1,78,208.16Zm0-8a.5.5,0,0,1-.5-.5v-5a.5.5,0,0,1,1,0v5A.5.5,0,0,1,78,200.17Zm0-8a.5.5,0,0,1-.5-.5v-5a.5.5,0,0,1,1,0v5A.5.5,0,0,1,78,192.17Zm0-8a.5.5,0,0,1-.5-.5v-5a.5.5,0,0,1,1,0v5A.5.5,0,0,1,78,184.17Zm0-8a.5.5,0,0,1-.5-.5v-5a.5.5,0,0,1,1,0v5A.5.5,0,0,1,78,176.17Zm0-8a.5.5,0,0,1-.5-.5v-5a.5.5,0,0,1,1,0v5A.5.5,0,0,1,78,168.17Zm0-8a.5.5,0,0,1-.5-.5v-5a.5.5,0,0,1,1,0v5A.5.5,0,0,1,78,160.17Zm0-8a.5.5,0,0,1-.5-.5v-5a.5.5,0,0,1,1,0v5A.5.5,0,0,1,78,152.17Zm0-8a.5.5,0,0,1-.5-.5v-5a.5.5,0,0,1,1,0v5A.5.5,0,0,1,78,144.18Zm0-8a.5.5,0,0,1-.5-.5v-5a.5.5,0,0,1,1,0v5A.5.5,0,0,1,78,136.18Zm0-8a.5.5,0,0,1-.5-.5v-5a.5.5,0,0,1,1,0v5A.5.5,0,0,1,78,128.18Z" style="fill:#f0f0f0"></path><path d="M78,293.65a.5.5,0,0,1-.5-.5v-2.5a.5.5,0,0,1,1,0v2.5A.5.5,0,0,1,78,293.65Z" style="fill:#f0f0f0"></path><path d="M86.51,120.18a.5.5,0,0,1-.5-.5v-2.5a.5.5,0,0,1,.5-.5.5.5,0,0,1,.5.5v2.5A.5.5,0,0,1,86.51,120.18Z" style="fill:#f0f0f0"></path><path d="M86.51,226.88a.5.5,0,0,1-.5-.5v-5.13a.5.5,0,0,1,.5-.5.5.5,0,0,1,.5.5v5.13A.51.51,0,0,1,86.51,226.88Zm0-8.21a.5.5,0,0,1-.5-.5V213a.5.5,0,0,1,.5-.5.5.5,0,0,1,.5.5v5.13A.5.5,0,0,1,86.51,218.67Zm0-8.21a.5.5,0,0,1-.5-.5v-5.13a.5.5,0,0,1,.5-.5.51.51,0,0,1,.5.5V210A.5.5,0,0,1,86.51,210.46Zm0-8.21a.5.5,0,0,1-.5-.5v-5.13a.5.5,0,0,1,.5-.5.51.51,0,0,1,.5.5v5.13A.5.5,0,0,1,86.51,202.25Zm0-8.2a.5.5,0,0,1-.5-.5v-5.13a.5.5,0,0,1,.5-.5.5.5,0,0,1,.5.5v5.13A.51.51,0,0,1,86.51,194.05Zm0-8.21a.5.5,0,0,1-.5-.5v-5.13a.5.5,0,0,1,.5-.5.5.5,0,0,1,.5.5v5.13A.5.5,0,0,1,86.51,185.84Zm0-8.21a.5.5,0,0,1-.5-.5V172a.5.5,0,0,1,.5-.5.51.51,0,0,1,.5.5v5.13A.5.5,0,0,1,86.51,177.63Zm0-8.2a.5.5,0,0,1-.5-.5V163.8a.5.5,0,0,1,.5-.5.5.5,0,0,1,.5.5v5.13A.51.51,0,0,1,86.51,169.43Zm0-8.21a.5.5,0,0,1-.5-.5v-5.13a.5.5,0,0,1,.5-.5.5.5,0,0,1,.5.5v5.13A.51.51,0,0,1,86.51,161.22Zm0-8.21a.5.5,0,0,1-.5-.5v-5.13a.5.5,0,0,1,.5-.5.5.5,0,0,1,.5.5v5.13A.5.5,0,0,1,86.51,153Zm0-8.21a.5.5,0,0,1-.5-.5v-5.13a.5.5,0,0,1,.5-.5.51.51,0,0,1,.5.5v5.13A.5.5,0,0,1,86.51,144.8Zm0-8.21a.5.5,0,0,1-.5-.5V131a.5.5,0,0,1,.5-.5.5.5,0,0,1,.5.5v5.12A.5.5,0,0,1,86.51,136.59Zm0-8.2a.5.5,0,0,1-.5-.5v-5.13a.5.5,0,0,1,.5-.5.5.5,0,0,1,.5.5v5.13A.51.51,0,0,1,86.51,128.39Z" style="fill:#f0f0f0"></path><path d="M86.51,232.45a.5.5,0,0,1-.5-.5v-2.5a.5.5,0,0,1,.5-.5.51.51,0,0,1,.5.5V232A.5.5,0,0,1,86.51,232.45Z" style="fill:#f0f0f0"></path><path d="M95.05,120.18a.5.5,0,0,1-.5-.5v-2.5a.5.5,0,0,1,.5-.5.5.5,0,0,1,.5.5v2.5A.5.5,0,0,1,95.05,120.18Z" style="fill:#f0f0f0"></path><path d="M95.05,222.27a.51.51,0,0,1-.5-.5v-4.91a.5.5,0,0,1,.5-.5.5.5,0,0,1,.5.5v4.91A.5.5,0,0,1,95.05,222.27Zm0-7.85a.51.51,0,0,1-.5-.5V209a.5.5,0,0,1,.5-.5.5.5,0,0,1,.5.5v4.91A.5.5,0,0,1,95.05,214.42Zm0-7.86a.5.5,0,0,1-.5-.5v-4.91a.51.51,0,0,1,.5-.5.5.5,0,0,1,.5.5v4.91A.5.5,0,0,1,95.05,206.56Zm0-7.85a.5.5,0,0,1-.5-.5V193.3a.5.5,0,0,1,.5-.5.5.5,0,0,1,.5.5v4.91A.5.5,0,0,1,95.05,198.71Zm0-7.85a.51.51,0,0,1-.5-.5v-4.91a.5.5,0,0,1,.5-.5.5.5,0,0,1,.5.5v4.91A.5.5,0,0,1,95.05,190.86Zm0-7.86a.5.5,0,0,1-.5-.5v-4.9a.5.5,0,0,1,.5-.5.5.5,0,0,1,.5.5v4.9A.5.5,0,0,1,95.05,183Zm0-7.85a.5.5,0,0,1-.5-.5v-4.91a.51.51,0,0,1,.5-.5.5.5,0,0,1,.5.5v4.91A.5.5,0,0,1,95.05,175.15Zm0-7.85a.51.51,0,0,1-.5-.5v-4.91a.5.5,0,0,1,.5-.5.5.5,0,0,1,.5.5v4.91A.5.5,0,0,1,95.05,167.3Zm0-7.86a.5.5,0,0,1-.5-.5V154a.5.5,0,0,1,.5-.5.5.5,0,0,1,.5.5v4.9A.5.5,0,0,1,95.05,159.44Zm0-7.85a.5.5,0,0,1-.5-.5v-4.91a.51.51,0,0,1,.5-.5.5.5,0,0,1,.5.5v4.91A.5.5,0,0,1,95.05,151.59Zm0-7.85a.5.5,0,0,1-.5-.5v-4.91a.5.5,0,0,1,.5-.5.5.5,0,0,1,.5.5v4.91A.5.5,0,0,1,95.05,143.74Zm0-7.85a.51.51,0,0,1-.5-.5v-4.91a.5.5,0,0,1,.5-.5.5.5,0,0,1,.5.5v4.91A.5.5,0,0,1,95.05,135.89Zm0-7.86a.5.5,0,0,1-.5-.5v-4.9a.5.5,0,0,1,.5-.5.5.5,0,0,1,.5.5v4.9A.5.5,0,0,1,95.05,128Z" style="fill:#f0f0f0"></path><path d="M95.05,227.71a.5.5,0,0,1-.5-.5v-2.5a.51.51,0,0,1,.5-.5.5.5,0,0,1,.5.5v2.5A.5.5,0,0,1,95.05,227.71Z" style="fill:#f0f0f0"></path><path d="M103.6,120.18a.5.5,0,0,1-.5-.5v-2.5a.5.5,0,0,1,1,0v2.5A.5.5,0,0,1,103.6,120.18Z" style="fill:#f0f0f0"></path><path d="M103.6,217.65a.5.5,0,0,1-.5-.5v-5.08a.5.5,0,0,1,1,0v5.08A.5.5,0,0,1,103.6,217.65Zm0-8.12a.5.5,0,0,1-.5-.5V204a.5.5,0,0,1,1,0V209A.5.5,0,0,1,103.6,209.53Zm0-8.13a.5.5,0,0,1-.5-.5v-5.07a.5.5,0,0,1,1,0v5.07A.5.5,0,0,1,103.6,201.4Zm0-8.12a.5.5,0,0,1-.5-.5v-5.07a.5.5,0,0,1,1,0v5.07A.5.5,0,0,1,103.6,193.28Zm0-8.12a.5.5,0,0,1-.5-.5v-5.08a.5.5,0,0,1,1,0v5.08A.5.5,0,0,1,103.6,185.16Zm0-8.12a.5.5,0,0,1-.5-.5v-5.08a.5.5,0,0,1,1,0v5.08A.5.5,0,0,1,103.6,177Zm0-8.12a.5.5,0,0,1-.5-.5v-5.08a.5.5,0,0,1,1,0v5.08A.5.5,0,0,1,103.6,168.92Zm0-8.13a.5.5,0,0,1-.5-.5v-5.07a.5.5,0,0,1,1,0v5.07A.5.5,0,0,1,103.6,160.79Zm0-8.12a.5.5,0,0,1-.5-.5v-5.08a.5.5,0,0,1,1,0v5.08A.5.5,0,0,1,103.6,152.67Zm0-8.12a.5.5,0,0,1-.5-.5V139a.5.5,0,0,1,1,0v5.08A.5.5,0,0,1,103.6,144.55Zm0-8.12a.5.5,0,0,1-.5-.5v-5.08a.5.5,0,0,1,1,0v5.08A.5.5,0,0,1,103.6,136.43Zm0-8.13a.5.5,0,0,1-.5-.5v-5.07a.5.5,0,1,1,1,0v5.07A.5.5,0,0,1,103.6,128.3Z" style="fill:#f0f0f0"></path><path d="M103.6,223.19a.5.5,0,0,1-.5-.5v-2.5a.5.5,0,0,1,1,0v2.5A.5.5,0,0,1,103.6,223.19Z" style="fill:#f0f0f0"></path><path d="M112.15,120.18a.5.5,0,0,1-.5-.5v-2.5a.5.5,0,0,1,.5-.5.5.5,0,0,1,.5.5v2.5A.5.5,0,0,1,112.15,120.18Z" style="fill:#f0f0f0"></path><path d="M112.15,212.73a.5.5,0,0,1-.5-.5v-4.82a.5.5,0,0,1,.5-.5.51.51,0,0,1,.5.5v4.82A.5.5,0,0,1,112.15,212.73Zm0-7.71a.5.5,0,0,1-.5-.5V199.7a.5.5,0,0,1,.5-.5.51.51,0,0,1,.5.5v4.82A.5.5,0,0,1,112.15,205Zm0-7.71a.5.5,0,0,1-.5-.5V192a.5.5,0,0,1,.5-.5.5.5,0,0,1,.5.5v4.82A.5.5,0,0,1,112.15,197.31Zm0-7.71a.5.5,0,0,1-.5-.5v-4.82a.5.5,0,0,1,.5-.5.5.5,0,0,1,.5.5v4.82A.51.51,0,0,1,112.15,189.6Zm0-7.72a.5.5,0,0,1-.5-.5v-4.82a.5.5,0,0,1,.5-.5.51.51,0,0,1,.5.5v4.82A.5.5,0,0,1,112.15,181.88Zm0-7.71a.5.5,0,0,1-.5-.5v-4.82a.5.5,0,0,1,.5-.5.5.5,0,0,1,.5.5v4.82A.5.5,0,0,1,112.15,174.17Zm0-7.71a.5.5,0,0,1-.5-.5v-4.82a.5.5,0,0,1,.5-.5.5.5,0,0,1,.5.5V166A.51.51,0,0,1,112.15,166.46Zm0-7.72a.5.5,0,0,1-.5-.5v-4.82a.5.5,0,0,1,.5-.5.51.51,0,0,1,.5.5v4.82A.5.5,0,0,1,112.15,158.74Zm0-7.71a.5.5,0,0,1-.5-.5v-4.82a.5.5,0,0,1,.5-.5.5.5,0,0,1,.5.5v4.82A.5.5,0,0,1,112.15,151Zm0-7.71a.5.5,0,0,1-.5-.5V138a.5.5,0,0,1,.5-.5.5.5,0,0,1,.5.5v4.82A.51.51,0,0,1,112.15,143.32Zm0-7.71a.5.5,0,0,1-.5-.5v-4.82a.5.5,0,0,1,.5-.5.5.5,0,0,1,.5.5v4.82A.51.51,0,0,1,112.15,135.61Zm0-7.72a.5.5,0,0,1-.5-.5v-4.82a.5.5,0,0,1,.5-.5.51.51,0,0,1,.5.5v4.82A.5.5,0,0,1,112.15,127.89Z" style="fill:#f0f0f0"></path><path d="M112.15,218.13a.5.5,0,0,1-.5-.5v-2.5a.5.5,0,0,1,.5-.5.5.5,0,0,1,.5.5v2.5A.51.51,0,0,1,112.15,218.13Z" style="fill:#f0f0f0"></path></g><g id="freepik--rain--inject-21"><path d="M137.42,91a.51.51,0,0,1-.5-.5V88a.5.5,0,0,1,.5-.5.5.5,0,0,1,.5.5v2.5A.5.5,0,0,1,137.42,91Z" style="fill:#f0f0f0"></path><path d="M137.42,198.36a.5.5,0,0,1-.5-.5V192.7a.5.5,0,0,1,.5-.5.5.5,0,0,1,.5.5v5.16A.5.5,0,0,1,137.42,198.36Zm0-8.26a.5.5,0,0,1-.5-.5v-5.16a.5.5,0,0,1,.5-.5.5.5,0,0,1,.5.5v5.16A.5.5,0,0,1,137.42,190.1Zm0-8.26a.5.5,0,0,1-.5-.5v-5.16a.5.5,0,0,1,.5-.5.5.5,0,0,1,.5.5v5.16A.5.5,0,0,1,137.42,181.84Zm0-8.26a.5.5,0,0,1-.5-.5v-5.16a.5.5,0,0,1,.5-.5.5.5,0,0,1,.5.5v5.16A.5.5,0,0,1,137.42,173.58Zm0-8.26a.5.5,0,0,1-.5-.5v-5.16a.5.5,0,0,1,.5-.5.5.5,0,0,1,.5.5v5.16A.5.5,0,0,1,137.42,165.32Zm0-8.26a.5.5,0,0,1-.5-.5V151.4a.5.5,0,0,1,.5-.5.5.5,0,0,1,.5.5v5.16A.5.5,0,0,1,137.42,157.06Zm0-8.26a.5.5,0,0,1-.5-.5v-5.16a.5.5,0,0,1,.5-.5.5.5,0,0,1,.5.5v5.16A.5.5,0,0,1,137.42,148.8Zm0-8.26a.5.5,0,0,1-.5-.5v-5.16a.51.51,0,0,1,.5-.5.5.5,0,0,1,.5.5V140A.5.5,0,0,1,137.42,140.54Zm0-8.26a.5.5,0,0,1-.5-.5v-5.16a.51.51,0,0,1,.5-.5.5.5,0,0,1,.5.5v5.16A.5.5,0,0,1,137.42,132.28Zm0-8.26a.5.5,0,0,1-.5-.5v-5.16a.51.51,0,0,1,.5-.5.5.5,0,0,1,.5.5v5.16A.5.5,0,0,1,137.42,124Zm0-8.25a.51.51,0,0,1-.5-.5V110.1a.51.51,0,0,1,.5-.5.5.5,0,0,1,.5.5v5.17A.5.5,0,0,1,137.42,115.77Zm0-8.26a.51.51,0,0,1-.5-.5v-5.17a.51.51,0,0,1,.5-.5.5.5,0,0,1,.5.5V107A.5.5,0,0,1,137.42,107.51Zm0-8.26a.51.51,0,0,1-.5-.5V93.58a.51.51,0,0,1,.5-.5.5.5,0,0,1,.5.5v5.17A.5.5,0,0,1,137.42,99.25Z" style="fill:#f0f0f0"></path><path d="M137.42,204a.51.51,0,0,1-.5-.5V201a.5.5,0,0,1,.5-.5.5.5,0,0,1,.5.5v2.5A.5.5,0,0,1,137.42,204Z" style="fill:#f0f0f0"></path><path d="M146,91a.5.5,0,0,1-.5-.5V88a.5.5,0,1,1,1,0v2.5A.5.5,0,0,1,146,91Z" style="fill:#f0f0f0"></path><path d="M146,193.7a.5.5,0,0,1-.5-.5v-4.93a.5.5,0,0,1,1,0v4.93A.5.5,0,0,1,146,193.7Zm0-7.9a.5.5,0,0,1-.5-.5v-4.94a.5.5,0,0,1,1,0v4.94A.5.5,0,0,1,146,185.8Zm0-7.9a.5.5,0,0,1-.5-.5v-4.94a.5.5,0,0,1,1,0v4.94A.5.5,0,0,1,146,177.9Zm0-7.9a.5.5,0,0,1-.5-.5v-4.94a.5.5,0,0,1,1,0v4.94A.5.5,0,0,1,146,170Zm0-7.9a.5.5,0,0,1-.5-.5v-4.94a.5.5,0,0,1,1,0v4.94A.5.5,0,0,1,146,162.1Zm0-7.9a.5.5,0,0,1-.5-.5v-4.94a.5.5,0,0,1,1,0v4.94A.5.5,0,0,1,146,154.2Zm0-7.9a.5.5,0,0,1-.5-.5v-4.94a.5.5,0,0,1,1,0v4.94A.5.5,0,0,1,146,146.3Zm0-7.91a.5.5,0,0,1-.5-.5V133a.5.5,0,0,1,1,0v4.93A.5.5,0,0,1,146,138.39Zm0-7.9a.5.5,0,0,1-.5-.5v-4.94a.5.5,0,1,1,1,0V130A.5.5,0,0,1,146,130.49Zm0-7.9a.5.5,0,0,1-.5-.5v-4.94a.5.5,0,0,1,1,0v4.94A.5.5,0,0,1,146,122.59Zm0-7.9a.5.5,0,0,1-.5-.5v-4.94a.5.5,0,0,1,1,0v4.94A.5.5,0,0,1,146,114.69Zm0-7.9a.5.5,0,0,1-.5-.5v-4.94a.5.5,0,0,1,1,0v4.94A.5.5,0,0,1,146,106.79Zm0-7.9a.5.5,0,0,1-.5-.5V93.45a.5.5,0,0,1,1,0v4.94A.5.5,0,0,1,146,98.89Z" style="fill:#f0f0f0"></path><path d="M146,199.17a.5.5,0,0,1-.5-.5v-2.5a.5.5,0,0,1,1,0v2.5A.5.5,0,0,1,146,199.17Z" style="fill:#f0f0f0"></path><path d="M154.52,91a.5.5,0,0,1-.5-.5V88a.5.5,0,0,1,.5-.5.5.5,0,0,1,.5.5v2.5A.51.51,0,0,1,154.52,91Z" style="fill:#f0f0f0"></path><path d="M154.52,188.82a.5.5,0,0,1-.5-.5v-5.1a.5.5,0,0,1,.5-.5.51.51,0,0,1,.5.5v5.1A.5.5,0,0,1,154.52,188.82Zm0-8.15a.5.5,0,0,1-.5-.5v-5.1a.5.5,0,0,1,.5-.5.51.51,0,0,1,.5.5v5.1A.51.51,0,0,1,154.52,180.67Zm0-8.16a.5.5,0,0,1-.5-.5v-5.09a.5.5,0,0,1,.5-.5.5.5,0,0,1,.5.5V172A.5.5,0,0,1,154.52,172.51Zm0-8.15a.5.5,0,0,1-.5-.5v-5.09a.5.5,0,0,1,.5-.5.5.5,0,0,1,.5.5v5.09A.5.5,0,0,1,154.52,164.36Zm0-8.15a.5.5,0,0,1-.5-.5v-5.1a.5.5,0,0,1,.5-.5.51.51,0,0,1,.5.5v5.1A.51.51,0,0,1,154.52,156.21Zm0-8.15a.5.5,0,0,1-.5-.5v-5.1a.5.5,0,0,1,.5-.5.5.5,0,0,1,.5.5v5.1A.51.51,0,0,1,154.52,148.06Zm0-8.16a.5.5,0,0,1-.5-.5v-5.09a.5.5,0,0,1,.5-.5.5.5,0,0,1,.5.5v5.09A.5.5,0,0,1,154.52,139.9Zm0-8.15a.5.5,0,0,1-.5-.5v-5.1a.5.5,0,0,1,.5-.5.51.51,0,0,1,.5.5v5.1A.5.5,0,0,1,154.52,131.75Zm0-8.15a.5.5,0,0,1-.5-.5V118a.5.5,0,0,1,.5-.5.51.51,0,0,1,.5.5v5.1A.51.51,0,0,1,154.52,123.6Zm0-8.16a.5.5,0,0,1-.5-.5v-5.09a.5.5,0,0,1,.5-.5.5.5,0,0,1,.5.5v5.09A.5.5,0,0,1,154.52,115.44Zm0-8.15a.5.5,0,0,1-.5-.5V101.7a.5.5,0,0,1,.5-.5.5.5,0,0,1,.5.5v5.09A.5.5,0,0,1,154.52,107.29Zm0-8.15a.5.5,0,0,1-.5-.5v-5.1a.5.5,0,0,1,.5-.5.51.51,0,0,1,.5.5v5.1A.5.5,0,0,1,154.52,99.14Z" style="fill:#f0f0f0"></path><path d="M154.52,194.38a.5.5,0,0,1-.5-.5v-2.5a.5.5,0,0,1,.5-.5.5.5,0,0,1,.5.5v2.5A.51.51,0,0,1,154.52,194.38Z" style="fill:#f0f0f0"></path><path d="M163.06,91a.51.51,0,0,1-.5-.5V88a.5.5,0,0,1,.5-.5.5.5,0,0,1,.5.5v2.5A.5.5,0,0,1,163.06,91Z" style="fill:#f0f0f0"></path><path d="M163.06,184.64a.5.5,0,0,1-.5-.5v-4.88a.51.51,0,0,1,.5-.5.5.5,0,0,1,.5.5v4.88A.5.5,0,0,1,163.06,184.64Zm0-7.8a.51.51,0,0,1-.5-.5v-4.88a.5.5,0,0,1,.5-.5.5.5,0,0,1,.5.5v4.88A.5.5,0,0,1,163.06,176.84Zm0-7.81a.5.5,0,0,1-.5-.5v-4.88a.51.51,0,0,1,.5-.5.5.5,0,0,1,.5.5v4.88A.5.5,0,0,1,163.06,169Zm0-7.8a.51.51,0,0,1-.5-.5v-4.88a.5.5,0,0,1,.5-.5.5.5,0,0,1,.5.5v4.88A.5.5,0,0,1,163.06,161.23Zm0-7.81a.5.5,0,0,1-.5-.5V148a.51.51,0,0,1,.5-.5.5.5,0,0,1,.5.5v4.88A.5.5,0,0,1,163.06,153.42Zm0-7.8a.51.51,0,0,1-.5-.5v-4.88a.5.5,0,0,1,.5-.5.5.5,0,0,1,.5.5v4.88A.5.5,0,0,1,163.06,145.62Zm0-7.81a.5.5,0,0,1-.5-.5v-4.87a.5.5,0,0,1,.5-.5.5.5,0,0,1,.5.5v4.87A.5.5,0,0,1,163.06,137.81Zm0-7.8a.5.5,0,0,1-.5-.5v-4.88a.5.5,0,0,1,.5-.5.5.5,0,0,1,.5.5v4.88A.5.5,0,0,1,163.06,130Zm0-7.81a.5.5,0,0,1-.5-.5v-4.87a.5.5,0,0,1,.5-.5.5.5,0,0,1,.5.5v4.87A.5.5,0,0,1,163.06,122.2Zm0-7.8a.5.5,0,0,1-.5-.5V109a.51.51,0,0,1,.5-.5.5.5,0,0,1,.5.5v4.88A.5.5,0,0,1,163.06,114.4Zm0-7.8a.51.51,0,0,1-.5-.5v-4.88a.5.5,0,0,1,.5-.5.5.5,0,0,1,.5.5v4.88A.5.5,0,0,1,163.06,106.6Zm0-7.81a.5.5,0,0,1-.5-.5V93.41a.51.51,0,0,1,.5-.5.5.5,0,0,1,.5.5v4.88A.5.5,0,0,1,163.06,98.79Z" style="fill:#f0f0f0"></path><path d="M163.06,190.07a.51.51,0,0,1-.5-.5v-2.5a.5.5,0,0,1,.5-.5.5.5,0,0,1,.5.5v2.5A.5.5,0,0,1,163.06,190.07Z" style="fill:#f0f0f0"></path><path d="M171.61,91a.5.5,0,0,1-.5-.5V88a.5.5,0,0,1,1,0v2.5A.5.5,0,0,1,171.61,91Z" style="fill:#f0f0f0"></path><path d="M171.61,179.28a.5.5,0,0,1-.5-.5v-5a.5.5,0,1,1,1,0v5A.5.5,0,0,1,171.61,179.28Zm0-8a.5.5,0,0,1-.5-.5v-5a.5.5,0,0,1,1,0v5A.5.5,0,0,1,171.61,171.26Zm0-8a.5.5,0,0,1-.5-.5v-5a.5.5,0,0,1,1,0v5A.5.5,0,0,1,171.61,163.23Zm0-8a.5.5,0,0,1-.5-.5v-5a.5.5,0,0,1,1,0v5A.5.5,0,0,1,171.61,155.2Zm0-8a.5.5,0,0,1-.5-.5v-5a.5.5,0,1,1,1,0v5A.5.5,0,0,1,171.61,147.18Zm0-8a.5.5,0,0,1-.5-.5v-5a.5.5,0,0,1,1,0v5A.5.5,0,0,1,171.61,139.15Zm0-8a.5.5,0,0,1-.5-.5v-5a.5.5,0,0,1,1,0v5A.5.5,0,0,1,171.61,131.12Zm0-8a.5.5,0,0,1-.5-.5v-5a.5.5,0,1,1,1,0v5A.5.5,0,0,1,171.61,123.09Zm0-8a.5.5,0,0,1-.5-.5v-5a.5.5,0,0,1,1,0v5A.5.5,0,0,1,171.61,115.07Zm0-8a.5.5,0,0,1-.5-.5v-5a.5.5,0,1,1,1,0v5A.5.5,0,0,1,171.61,107Zm0-8a.5.5,0,0,1-.5-.5v-5a.5.5,0,0,1,1,0v5A.5.5,0,0,1,171.61,99Z" style="fill:#f0f0f0"></path><path d="M171.61,184.79a.5.5,0,0,1-.5-.5v-2.5a.5.5,0,1,1,1,0v2.5A.5.5,0,0,1,171.61,184.79Z" style="fill:#f0f0f0"></path><path d="M180.16,91a.5.5,0,0,1-.5-.5V88a.5.5,0,0,1,.5-.5.5.5,0,0,1,.5.5v2.5A.51.51,0,0,1,180.16,91Z" style="fill:#f0f0f0"></path><path d="M180.16,174.38a.5.5,0,0,1-.5-.5v-5.22a.5.5,0,0,1,.5-.5.51.51,0,0,1,.5.5v5.22A.51.51,0,0,1,180.16,174.38Zm0-8.34a.5.5,0,0,1-.5-.5v-5.21a.5.5,0,0,1,.5-.5.5.5,0,0,1,.5.5v5.21A.51.51,0,0,1,180.16,166Zm0-8.34a.5.5,0,0,1-.5-.5V152a.5.5,0,0,1,.5-.5.5.5,0,0,1,.5.5v5.21A.51.51,0,0,1,180.16,157.7Zm0-8.34a.5.5,0,0,1-.5-.5v-5.21a.5.5,0,0,1,.5-.5.5.5,0,0,1,.5.5v5.21A.5.5,0,0,1,180.16,149.36Zm0-8.34a.5.5,0,0,1-.5-.5v-5.21a.5.5,0,0,1,.5-.5.5.5,0,0,1,.5.5v5.21A.5.5,0,0,1,180.16,141Zm0-8.34a.5.5,0,0,1-.5-.5V127a.5.5,0,0,1,.5-.5.5.5,0,0,1,.5.5v5.21A.5.5,0,0,1,180.16,132.68Zm0-8.34a.5.5,0,0,1-.5-.5v-5.21a.5.5,0,0,1,.5-.5.5.5,0,0,1,.5.5v5.21A.5.5,0,0,1,180.16,124.34Zm0-8.34a.5.5,0,0,1-.5-.5v-5.21a.5.5,0,0,1,.5-.5.5.5,0,0,1,.5.5v5.21A.5.5,0,0,1,180.16,116Zm0-8.34a.5.5,0,0,1-.5-.5V102a.5.5,0,0,1,.5-.5.51.51,0,0,1,.5.5v5.21A.5.5,0,0,1,180.16,107.66Zm0-8.33a.5.5,0,0,1-.5-.5V93.61a.5.5,0,0,1,.5-.5.51.51,0,0,1,.5.5v5.22A.51.51,0,0,1,180.16,99.33Z" style="fill:#f0f0f0"></path><path d="M180.16,180a.5.5,0,0,1-.5-.5V177a.5.5,0,0,1,.5-.5.51.51,0,0,1,.5.5v2.5A.5.5,0,0,1,180.16,180Z" style="fill:#f0f0f0"></path><path d="M188.7,91a.51.51,0,0,1-.5-.5V88a.5.5,0,0,1,.5-.5.5.5,0,0,1,.5.5v2.5A.5.5,0,0,1,188.7,91Z" style="fill:#f0f0f0"></path><path d="M188.7,169.82a.51.51,0,0,1-.5-.5v-4.93a.5.5,0,0,1,.5-.5.5.5,0,0,1,.5.5v4.93A.5.5,0,0,1,188.7,169.82Zm0-7.89a.5.5,0,0,1-.5-.5v-4.92a.5.5,0,0,1,.5-.5.5.5,0,0,1,.5.5v4.92A.5.5,0,0,1,188.7,161.93Zm0-7.88a.5.5,0,0,1-.5-.5v-4.92a.5.5,0,0,1,.5-.5.5.5,0,0,1,.5.5v4.92A.5.5,0,0,1,188.7,154.05Zm0-7.88a.5.5,0,0,1-.5-.5v-4.93a.51.51,0,0,1,.5-.5.5.5,0,0,1,.5.5v4.93A.5.5,0,0,1,188.7,146.17Zm0-7.88a.51.51,0,0,1-.5-.5v-4.93a.5.5,0,0,1,.5-.5.5.5,0,0,1,.5.5v4.93A.5.5,0,0,1,188.7,138.29Zm0-7.89a.5.5,0,0,1-.5-.5V125a.5.5,0,0,1,.5-.5.5.5,0,0,1,.5.5v4.92A.5.5,0,0,1,188.7,130.4Zm0-7.88a.5.5,0,0,1-.5-.5v-4.93a.51.51,0,0,1,.5-.5.5.5,0,0,1,.5.5V122A.5.5,0,0,1,188.7,122.52Zm0-7.88a.51.51,0,0,1-.5-.5v-4.93a.5.5,0,0,1,.5-.5.5.5,0,0,1,.5.5v4.93A.5.5,0,0,1,188.7,114.64Zm0-7.89a.5.5,0,0,1-.5-.5v-4.92a.5.5,0,0,1,.5-.5.5.5,0,0,1,.5.5v4.92A.5.5,0,0,1,188.7,106.75Zm0-7.88a.5.5,0,0,1-.5-.5V93.44a.51.51,0,0,1,.5-.5.5.5,0,0,1,.5.5v4.93A.5.5,0,0,1,188.7,98.87Z" style="fill:#f0f0f0"></path><path d="M188.7,175.27a.5.5,0,0,1-.5-.5v-2.5a.51.51,0,0,1,.5-.5.5.5,0,0,1,.5.5v2.5A.5.5,0,0,1,188.7,175.27Z" style="fill:#f0f0f0"></path><path d="M197.25,91a.5.5,0,0,1-.5-.5V88a.5.5,0,0,1,1,0v2.5A.5.5,0,0,1,197.25,91Z" style="fill:#f0f0f0"></path><path d="M197.25,164.84a.5.5,0,0,1-.5-.5v-5.12a.5.5,0,0,1,1,0v5.12A.5.5,0,0,1,197.25,164.84Zm0-8.2a.5.5,0,0,1-.5-.5V151a.5.5,0,0,1,1,0v5.13A.5.5,0,0,1,197.25,156.64Zm0-8.21a.5.5,0,0,1-.5-.5V142.8a.5.5,0,0,1,1,0v5.13A.5.5,0,0,1,197.25,148.43Zm0-8.21a.5.5,0,0,1-.5-.5V134.6a.5.5,0,0,1,1,0v5.12A.5.5,0,0,1,197.25,140.22Zm0-8.2a.5.5,0,0,1-.5-.5v-5.13a.5.5,0,1,1,1,0v5.13A.5.5,0,0,1,197.25,132Zm0-8.21a.5.5,0,0,1-.5-.5v-5.13a.5.5,0,0,1,1,0v5.13A.5.5,0,0,1,197.25,123.81Zm0-8.2a.5.5,0,0,1-.5-.5V110a.5.5,0,0,1,1,0v5.13A.5.5,0,0,1,197.25,115.61Zm0-8.21a.5.5,0,0,1-.5-.5v-5.13a.5.5,0,1,1,1,0v5.13A.5.5,0,0,1,197.25,107.4Zm0-8.21a.5.5,0,0,1-.5-.5V93.56a.5.5,0,0,1,1,0v5.13A.5.5,0,0,1,197.25,99.19Z" style="fill:#f0f0f0"></path><path d="M197.25,170.42a.5.5,0,0,1-.5-.5v-2.5a.5.5,0,1,1,1,0v2.5A.5.5,0,0,1,197.25,170.42Z" style="fill:#f0f0f0"></path><path d="M205.8,91a.5.5,0,0,1-.5-.5V88a.5.5,0,0,1,.5-.5.5.5,0,0,1,.5.5v2.5A.51.51,0,0,1,205.8,91Z" style="fill:#f0f0f0"></path><path d="M205.8,160.25a.5.5,0,0,1-.5-.5v-4.81a.5.5,0,0,1,.5-.5.5.5,0,0,1,.5.5v4.81A.51.51,0,0,1,205.8,160.25Zm0-7.7a.5.5,0,0,1-.5-.5v-4.81a.5.5,0,0,1,.5-.5.5.5,0,0,1,.5.5v4.81A.5.5,0,0,1,205.8,152.55Zm0-7.7a.5.5,0,0,1-.5-.5v-4.8a.5.5,0,0,1,.5-.5.5.5,0,0,1,.5.5v4.8A.5.5,0,0,1,205.8,144.85Zm0-7.69a.5.5,0,0,1-.5-.5v-4.81a.5.5,0,0,1,.5-.5.5.5,0,0,1,.5.5v4.81A.5.5,0,0,1,205.8,137.16Zm0-7.7a.5.5,0,0,1-.5-.5v-4.81a.5.5,0,0,1,.5-.5.51.51,0,0,1,.5.5V129A.5.5,0,0,1,205.8,129.46Zm0-7.69a.5.5,0,0,1-.5-.5v-4.81a.5.5,0,0,1,.5-.5.5.5,0,0,1,.5.5v4.81A.5.5,0,0,1,205.8,121.77Zm0-7.7a.5.5,0,0,1-.5-.5v-4.81a.5.5,0,0,1,.5-.5.51.51,0,0,1,.5.5v4.81A.5.5,0,0,1,205.8,114.07Zm0-7.69a.5.5,0,0,1-.5-.5v-4.81a.5.5,0,0,1,.5-.5.5.5,0,0,1,.5.5v4.81A.51.51,0,0,1,205.8,106.38Zm0-7.7a.5.5,0,0,1-.5-.5V93.37a.5.5,0,0,1,.5-.5.51.51,0,0,1,.5.5v4.81A.5.5,0,0,1,205.8,98.68Z" style="fill:#f0f0f0"></path><path d="M205.8,165.63a.5.5,0,0,1-.5-.5v-2.5a.5.5,0,0,1,.5-.5.51.51,0,0,1,.5.5v2.5A.5.5,0,0,1,205.8,165.63Z" style="fill:#f0f0f0"></path><path d="M214.34,91a.51.51,0,0,1-.5-.5V88a.5.5,0,0,1,.5-.5.5.5,0,0,1,.5.5v2.5A.5.5,0,0,1,214.34,91Z" style="fill:#f0f0f0"></path><path d="M214.34,154.51a.5.5,0,0,1-.5-.5v-5a.5.5,0,0,1,.5-.5.5.5,0,0,1,.5.5v5A.5.5,0,0,1,214.34,154.51Zm0-7.94a.5.5,0,0,1-.5-.5v-5a.5.5,0,0,1,.5-.5.5.5,0,0,1,.5.5v5A.5.5,0,0,1,214.34,146.57Zm0-7.94a.5.5,0,0,1-.5-.5v-5a.5.5,0,0,1,.5-.5.5.5,0,0,1,.5.5v5A.5.5,0,0,1,214.34,138.63Zm0-7.94a.5.5,0,0,1-.5-.5v-5a.5.5,0,0,1,.5-.5.5.5,0,0,1,.5.5v5A.5.5,0,0,1,214.34,130.69Zm0-7.94a.51.51,0,0,1-.5-.5v-5a.5.5,0,0,1,.5-.5.5.5,0,0,1,.5.5v5A.5.5,0,0,1,214.34,122.75Zm0-7.94a.51.51,0,0,1-.5-.5v-5a.51.51,0,0,1,.5-.5.5.5,0,0,1,.5.5v5A.5.5,0,0,1,214.34,114.81Zm0-7.94a.51.51,0,0,1-.5-.5v-5a.51.51,0,0,1,.5-.5.5.5,0,0,1,.5.5v5A.5.5,0,0,1,214.34,106.87Zm0-7.94a.51.51,0,0,1-.5-.5v-5a.51.51,0,0,1,.5-.5.5.5,0,0,1,.5.5v5A.5.5,0,0,1,214.34,98.93Z" style="fill:#f0f0f0"></path><path d="M214.34,160a.51.51,0,0,1-.5-.5V157a.5.5,0,0,1,.5-.5.5.5,0,0,1,.5.5v2.5A.5.5,0,0,1,214.34,160Z" style="fill:#f0f0f0"></path><path d="M222.89,91a.5.5,0,0,1-.5-.5V88a.5.5,0,0,1,1,0v2.5A.5.5,0,0,1,222.89,91Z" style="fill:#f0f0f0"></path><path d="M222.89,150.37a.5.5,0,0,1-.5-.5v-5.3a.5.5,0,0,1,1,0v5.3A.5.5,0,0,1,222.89,150.37Zm0-8.48a.5.5,0,0,1-.5-.5v-5.31a.5.5,0,0,1,1,0v5.31A.5.5,0,0,1,222.89,141.89Zm0-8.49a.5.5,0,0,1-.5-.5v-5.3a.5.5,0,0,1,1,0v5.3A.5.5,0,0,1,222.89,133.4Zm0-8.48a.5.5,0,0,1-.5-.5v-5.3a.5.5,0,0,1,1,0v5.3A.5.5,0,0,1,222.89,124.92Zm0-8.48a.5.5,0,0,1-.5-.5v-5.3a.5.5,0,1,1,1,0v5.3A.5.5,0,0,1,222.89,116.44Zm0-8.49a.5.5,0,0,1-.5-.5v-5.3a.5.5,0,1,1,1,0v5.3A.5.5,0,0,1,222.89,108Zm0-8.48a.5.5,0,0,1-.5-.5v-5.3a.5.5,0,0,1,1,0V99A.5.5,0,0,1,222.89,99.47Z" style="fill:#f0f0f0"></path><path d="M222.89,156.05a.5.5,0,0,1-.5-.5v-2.5a.5.5,0,0,1,1,0v2.5A.5.5,0,0,1,222.89,156.05Z" style="fill:#f0f0f0"></path><path d="M231.44,91a.5.5,0,0,1-.5-.5V88a.5.5,0,0,1,.5-.5.5.5,0,0,1,.5.5v2.5A.51.51,0,0,1,231.44,91Z" style="fill:#f0f0f0"></path><path d="M231.44,145.82a.5.5,0,0,1-.5-.5v-4.89a.5.5,0,0,1,.5-.5.5.5,0,0,1,.5.5v4.89A.5.5,0,0,1,231.44,145.82Zm0-7.83a.5.5,0,0,1-.5-.5v-4.9a.5.5,0,0,1,.5-.5.51.51,0,0,1,.5.5v4.9A.51.51,0,0,1,231.44,138Zm0-7.84a.5.5,0,0,1-.5-.5v-4.89a.5.5,0,0,1,.5-.5.5.5,0,0,1,.5.5v4.89A.5.5,0,0,1,231.44,130.15Zm0-7.83a.5.5,0,0,1-.5-.5v-4.89a.5.5,0,0,1,.5-.5.5.5,0,0,1,.5.5v4.89A.5.5,0,0,1,231.44,122.32Zm0-7.83a.5.5,0,0,1-.5-.5v-4.9a.5.5,0,0,1,.5-.5.5.5,0,0,1,.5.5V114A.51.51,0,0,1,231.44,114.49Zm0-7.84a.5.5,0,0,1-.5-.5v-4.89a.5.5,0,0,1,.5-.5.5.5,0,0,1,.5.5v4.89A.5.5,0,0,1,231.44,106.65Zm0-7.83a.5.5,0,0,1-.5-.5v-4.9a.5.5,0,0,1,.5-.5.51.51,0,0,1,.5.5v4.9A.5.5,0,0,1,231.44,98.82Z" style="fill:#f0f0f0"></path><path d="M231.44,151.26a.5.5,0,0,1-.5-.5v-2.5a.5.5,0,0,1,.5-.5.5.5,0,0,1,.5.5v2.5A.5.5,0,0,1,231.44,151.26Z" style="fill:#f0f0f0"></path></g></g></g><g id="freepik--Plants--inject-21"><g id="freepik--plants--inject-21"><path d="M460.94,299.51c-5.17,5.92-12.77,13.87-19.73,24-7.49,10.9-14.25,24.35-16.45,40.54l-6.55-4.26-1.44-.94-2.4-1.55h0c-.14-8.48-.16-24,2.73-35.32,5.11-20,14.06-33.56,27.24-39.11S472.58,286.15,460.94,299.51Z" style="fill:#e0e0e0"></path><path d="M453,288.59c-14.74,9-27.93,25.8-33.13,57.94-.67,4.17-1.22,8.59-1.61,13.28l-1.44-.94q.5-5.76,1.3-11h0c5.11-33.74,18.88-51.34,34.07-60.58a.76.76,0,0,1,1,.25A.75.75,0,0,1,453,288.59Z" style="fill:#fff"></path><path d="M483,323c-.24,2.63-2.32,4.68-4.34,6.41S474.5,333,474,335.59c-1,5.22,5.22,10,3.95,15.12a8.18,8.18,0,0,1-4.29,4.93,52.62,52.62,0,0,1-5.08,2.26,24.71,24.71,0,0,1-2.56.66c-2.53.47-5.17,1.25-7,3.23-2.79,3.14-.74,6.54-3.17,11.82s-6.79,6.09-13.72,5.17l-25.69-20a14.71,14.71,0,0,1,2.88-9.7,7.08,7.08,0,0,1,.57-.68h0a10.67,10.67,0,0,1,1.8-1.56c3.13-2.26,7.2-3.32,9.47-6.49,2.59-3.68,1-8.88,2.56-13.08s5.71-5.68,9.73-6.44l.23-.06c4.21-.79,8.44.85,12.42-.66s7.65-3.93,11.77-5,8.57-.78,12,1.83A7.3,7.3,0,0,1,483,323Z" style="fill:#f0f0f0"></path><path d="M474.1,321c-5.36,1.27-20.85,8.17-31.15,22.25a32.9,32.9,0,0,1,26.17,1.88.59.59,0,0,1,.18.83.57.57,0,0,1-.47.28.58.58,0,0,1-.34-.09c-.12-.07-11.68-7.1-26.73-1.22a49.26,49.26,0,0,0-8.33,23.64l-1.12-.64a50.27,50.27,0,0,1,8.5-23.69.84.84,0,0,1,.17-.26c10.51-15.34,27.19-22.79,32.85-24.13a.58.58,0,0,1,.71.44A.59.59,0,0,1,474.1,321Z" style="fill:#fff"></path></g><g id="freepik--plants--inject-21"><path d="M77.74,377.49l-2.42,1.38-1.28.74-1.75,1-3.68,2.12c-2.89-27.55-12.28-36.26-21.16-44.48-5.4-5-16.78-12.54-19.77-15.82-10.31-11.24-6.62-21.93,4.18-21.94,14.79,0,30.06,14.47,38.73,34.05C77.74,350.68,77.41,364,77.74,377.49Z" style="fill:#e0e0e0"></path><path d="M75.19,379a14.8,14.8,0,0,1-1.34.77c-3-30.79-14.61-55.53-42.4-70.75-.54-.3-.53-.55-.37-.9s.33-.68.91-.37C60,323,72,347.87,75.19,379Z" style="fill:#fff"></path><path d="M72.29,380.62l-4.61,2.66-1.06.61-.17.1-4.62,2.66a52.45,52.45,0,0,0-10.9-16C40.2,359.81,31.7,357.39,26.35,352.7c-7.49-6.57-4.85-15.28,2.46-16.83,8.78-1.86,14,1.17,19.65,5S67.34,356.07,72.29,380.62Z" style="fill:#f0f0f0"></path><path d="M67.68,383.28l-1.06.61-.17.1c-8.09-24.27-25.92-37.15-34.81-39.27a.69.69,0,0,1,.32-1.35c7,1.65,17.85,9.92,26.56,21.88l0,.06A66.28,66.28,0,0,1,67.68,383.28Z" style="fill:#fff"></path></g><g id="freepik--plants--inject-21"><path d="M252.26,355.08l2.51,1.45,1.25.73,1.75,1,3.64,2.1c2.89-27.55,12.27-36.14,21.14-44.36,5.41-5,16.78-12.54,19.78-15.82,10.3-11.24,6.61-21.93-4.18-21.94-14.79,0-30.06,14.47-38.74,34.05C252.26,328.43,252.6,341.58,252.26,355.08Z" style="fill:#e0e0e0"></path><path d="M254.81,356.56l1.28.74c3-30.8,14.68-55.36,42.46-70.58.55-.3.54-.55.38-.9s-.33-.68-.91-.37C270,300.77,258,325.47,254.81,356.56Z" style="fill:#fff"></path><path d="M257.77,358.27l4.62,2.66,3.83,2.21c1.84-3.73,6.34-9.57,13.5-15.71,10.72-9.2,23.94-12.44,28.33-18,6.17-7.88.91-14.68-7.56-15.07A30.41,30.41,0,0,0,283.35,318C273.51,322.81,262.72,333.72,257.77,358.27Z" style="fill:#f0f0f0"></path><path d="M261,360.12l1.06.61.17.1c8.08-24.27,25.91-36.12,34.8-38.24a.69.69,0,0,0,.51-.85.67.67,0,0,0-.83-.5c-6.95,1.65-17.84,8.89-26.55,20.85,0,0,0,0,0,.06A66,66,0,0,0,261,360.12Z" style="fill:#fff"></path></g></g><g id="freepik--Shadows--inject-21"><path id="freepik--Shadow--inject-21" d="M133.13,443,52.49,396.39c-2.08-1.2-2.08-3.14,0-4.34l128.25-73.92a8.28,8.28,0,0,1,7.51,0l80.64,46.56c2.08,1.2,2.08,3.14,0,4.34L140.64,443A8.28,8.28,0,0,1,133.13,443Z" style="fill:#e0e0e0"></path><path id="freepik--shadow--inject-21" d="M334.85,414.6c-25.35-14.63-25.35-38.36,0-53s66.43-14.63,91.77,0,25.34,38.36,0,53S360.19,429.23,334.85,414.6Z" style="fill:#e0e0e0"></path></g><g id="freepik--Calendar--inject-21"><g id="freepik--calendar--inject-21"><path d="M69.19,399.45A3.34,3.34,0,0,1,67.77,396l33.9-150a6.21,6.21,0,0,1,2.6-3.53L226.62,171.9a4.45,4.45,0,0,1,4-.07,3.34,3.34,0,0,1,1.41,3.45l-33.9,150a6.24,6.24,0,0,1-2.59,3.53L73.2,399.38A4.43,4.43,0,0,1,69.19,399.45Z" style="fill:#95E1D3"></path><path d="M69.19,399.45A3.34,3.34,0,0,1,67.77,396l33.9-150a6.21,6.21,0,0,1,2.6-3.53L226.62,171.9a4.45,4.45,0,0,1,4-.07,3.34,3.34,0,0,1,1.41,3.45l-33.9,150a6.24,6.24,0,0,1-2.59,3.53L73.2,399.38A4.43,4.43,0,0,1,69.19,399.45Z" style="fill:#fff;opacity:0.8"></path><path d="M105.55,248.19,71.65,398.24c-.29,1.29.4,1.8,1.55,1.14l122.36-70.52a6.24,6.24,0,0,0,2.59-3.53l33.9-150c.29-1.29-.4-1.8-1.54-1.14L108.15,244.66A6.25,6.25,0,0,0,105.55,248.19Z" style="fill:#95E1D3"></path><path d="M105.55,248.19,71.65,398.24c-.29,1.29.4,1.8,1.55,1.14l122.36-70.52a6.24,6.24,0,0,0,2.59-3.53l33.9-150c.29-1.29-.4-1.8-1.54-1.14L108.15,244.66A6.25,6.25,0,0,0,105.55,248.19Z" style="fill:#fff;opacity:0.6000000000000001"></path><path d="M105.55,248.19,71.65,398.24c-.29,1.29.4,1.8,1.55,1.14l122.36-70.52a6.24,6.24,0,0,0,2.59-3.53l33.9-150c.29-1.29-.4-1.8-1.54-1.14L108.15,244.66A6.25,6.25,0,0,0,105.55,248.19Z" style="opacity:0.05"></path><path d="M234.52,174.07a4.43,4.43,0,0,0-4,.07L108.15,244.66a3.81,3.81,0,0,0-1.73,3.56l26.51,185.86a5.41,5.41,0,0,0,2.28,3.49,4.43,4.43,0,0,0,4-.08L261.58,367a3.81,3.81,0,0,0,1.73-3.56L236.8,177.56A5.41,5.41,0,0,0,234.52,174.07Z" style="fill:#95E1D3"></path><path d="M234.52,174.07a4.43,4.43,0,0,0-4,.07L108.15,244.66a3.81,3.81,0,0,0-1.73,3.56l26.51,185.86a5.41,5.41,0,0,0,2.28,3.49,4.43,4.43,0,0,0,4-.08L261.58,367a3.81,3.81,0,0,0,1.73-3.56L236.8,177.56A5.41,5.41,0,0,0,234.52,174.07Z" style="fill:#fff;opacity:0.8"></path><path d="M110.3,250.47l26.51,185.85a1.5,1.5,0,0,0,2.41,1.17L261.58,367a3.81,3.81,0,0,0,1.73-3.56L236.8,177.56a1.51,1.51,0,0,0-2.41-1.18L112,246.9A3.82,3.82,0,0,0,110.3,250.47Z" style="fill:#95E1D3"></path><path d="M110.3,250.47l26.51,185.85a1.5,1.5,0,0,0,2.41,1.17L261.58,367a3.81,3.81,0,0,0,1.73-3.56L236.8,177.56a1.51,1.51,0,0,0-2.41-1.18L112,246.9A3.82,3.82,0,0,0,110.3,250.47Z" style="fill:#fff;opacity:0.9500000000000001"></path><path d="M125,378.44l-23.69,13.67h0a3.63,3.63,0,0,0-1.46-.06l-27.94,5.39h-.08l51.62-29.82Z" style="fill:#95E1D3"></path><path d="M125,378.44l-23.69,13.67h0a3.63,3.63,0,0,0-1.46-.06l-27.94,5.39h-.08l51.62-29.82Z" style="fill:#fff;opacity:0.5"></path><path d="M125,378.44l-23.69,13.67h0a3.63,3.63,0,0,0-1.46-.06l-27.94,5.39h-.08l51.62-29.82Z" style="opacity:0.2"></path><path d="M132.72,432.63l-29.1-39.2a3.93,3.93,0,0,0-2.2-1.38L125,378.44Z" style="fill:#95E1D3"></path><path d="M132.72,432.63l-29.1-39.2a3.93,3.93,0,0,0-2.2-1.38L125,378.44Z" style="fill:#fff;opacity:0.6000000000000001"></path><path d="M132.72,432.63l-29.1-39.2a3.93,3.93,0,0,0-2.2-1.38L125,378.44Z" style="opacity:0.1"></path><path d="M131.81,434.46l-28.16-36.57a4.48,4.48,0,0,0-3.82-1.55l-26.34,3.8a7.75,7.75,0,0,1-4.3-.78c-1.08-.62-.9-1.33.4-1.58L99.85,392a4.15,4.15,0,0,1,3.77,1.47l32.1,43.25c.79,1.06.56,1.41-.51.8A13.86,13.86,0,0,1,131.81,434.46Z" style="fill:#95E1D3"></path><path d="M131.81,434.46l-28.16-36.57a4.48,4.48,0,0,0-3.82-1.55l-26.34,3.8a7.75,7.75,0,0,1-4.3-.78c-1.08-.62-.9-1.33.4-1.58L99.85,392a4.15,4.15,0,0,1,3.77,1.47l32.1,43.25c.79,1.06.56,1.41-.51.8A13.86,13.86,0,0,1,131.81,434.46Z" style="fill:#fff;opacity:0.8"></path><path d="M232.11,174.54a3.29,3.29,0,0,0-1.47-2.72,4.46,4.46,0,0,0-4,.08L104.27,242.43a5.57,5.57,0,0,0-1.58,1.47,5.9,5.9,0,0,0-1,2l-4.78,21.2,3.89,2.23,126.5-72.91,4.78-21.19a3.3,3.3,0,0,0,.06-.74Z" style="fill:#95E1D3"></path><path d="M232.05,175.28c.29-1.29-.4-1.8-1.54-1.14L108.15,244.66a6.25,6.25,0,0,0-2.6,3.53l-4.78,21.19,126.49-72.91Z" style="opacity:0.6000000000000001"></path><path d="M106.57,246.14a5.7,5.7,0,0,0-1,2.05l-4.78,21.19-3.89-2.23,4.78-21.2a5.9,5.9,0,0,1,1-2Z" style="opacity:0.5"></path><path d="M232.11,174.54c-.09-.72-.71-.91-1.6-.39L108.15,244.66a5.48,5.48,0,0,0-1.58,1.48l-3.88-2.24a5.58,5.58,0,0,1,1.57-1.48L226.62,171.9a4.49,4.49,0,0,1,4-.08A3.29,3.29,0,0,1,232.11,174.54Z" style="opacity:0.2"></path><path d="M237.05,179.34h0l-.25-1.77a2,2,0,0,0-.06-.26.15.15,0,0,0,0-.07h0a5.45,5.45,0,0,0-2.21-3.15,4.43,4.43,0,0,0-4,.07L108.15,244.66a3.67,3.67,0,0,0-1.39,1.59h0a3.52,3.52,0,0,0-.34,2l3.8,26.62,3.88,2.25,126.5-72.9Z" style="fill:#95E1D3"></path><path d="M240.6,204.2,114.1,277.1l-3.8-26.63a3.45,3.45,0,0,1,.35-2,3.55,3.55,0,0,1,1.39-1.59L234.4,176.39a1.47,1.47,0,0,1,2.31.76l0,.08s0,0,0,.07a2,2,0,0,1,.06.26l.25,1.77h0Z" style="opacity:0.2"></path><path d="M114.1,277.1l-3.88-2.25-3.8-26.62a3.52,3.52,0,0,1,.34-2l3.89,2.23a3.47,3.47,0,0,0-.35,2Z" style="opacity:0.5"></path><path d="M236.73,177.23a1.47,1.47,0,0,0-2.33-.85L112,246.91a3.53,3.53,0,0,0-1.39,1.58l-3.89-2.23a3.63,3.63,0,0,1,1.39-1.6l122.36-70.51a4.43,4.43,0,0,1,4-.08A5.35,5.35,0,0,1,236.73,177.23Z" style="opacity:0.30000000000000004"></path><g style="opacity:0.2"><path d="M128.79,250.68a6.94,6.94,0,0,1,3.29-6.38c2.15-1.24,4.15-.39,4.48,1.9a6.93,6.93,0,0,1-3.29,6.38C131.12,253.82,129.12,253,128.79,250.68Z"></path><path d="M156,235a7,7,0,0,1,3.29-6.39c2.15-1.24,4.15-.39,4.48,1.9a7,7,0,0,1-3.29,6.39C158.33,238.12,156.33,237.27,156,235Z"></path><path d="M183.17,219.29a6.93,6.93,0,0,1,3.29-6.39c2.14-1.24,4.14-.38,4.47,1.9a6.93,6.93,0,0,1-3.29,6.39C185.5,222.43,183.5,221.58,183.17,219.29Z"></path><path d="M210.38,203.71a6.93,6.93,0,0,1,3.29-6.39c2.14-1.24,4.15-.39,4.47,1.9a6.91,6.91,0,0,1-3.29,6.39C212.71,206.85,210.71,206,210.38,203.71Z"></path></g><path d="M137,242.49a12.84,12.84,0,0,1-.21,2.35,10.18,10.18,0,0,1-.29,1.18,7.21,7.21,0,0,1-3.25,4.33,6.72,6.72,0,0,1-3.44.91,7.82,7.82,0,0,1-1-.06c0-.17-.07-.33-.1-.52a5.93,5.93,0,0,1,.5-3.11,3.45,3.45,0,0,0,2.17-.38,4.49,4.49,0,0,0,1.84-3.38c0-.06,0-.12,0-.17a9.88,9.88,0,0,0,.06-1.15,18.84,18.84,0,0,0-3.63-10.31,20.19,20.19,0,0,0-2.57-3,14.53,14.53,0,0,0-2.59-1.95c-2-1.13-3.81-1.38-5-.67s-1.94,2.39-1.94,4.7a14.37,14.37,0,0,0,.4,3.21l-3.27,1.89-.06-.22a18.55,18.55,0,0,1-.72-4.88c0-3.67,1.34-6.47,3.76-7.86s5.5-1.16,8.69.68a18.19,18.19,0,0,1,4,3.22,24.76,24.76,0,0,1,2.46,3.06A22.6,22.6,0,0,1,137,242.49Z" style="fill:#263238"></path><path d="M164.24,226.78a14,14,0,0,1-.2,2.36,11.07,11.07,0,0,1-.3,1.2,7.17,7.17,0,0,1-3.26,4.31,6.63,6.63,0,0,1-3.43.9,7.26,7.26,0,0,1-.93-.06A2.71,2.71,0,0,1,156,235a6,6,0,0,1,.49-3.12,3.4,3.4,0,0,0,2.16-.37,4.44,4.44,0,0,0,1.84-3.39l0-.16a9.82,9.82,0,0,0,.06-1.16,20.12,20.12,0,0,0-6.21-13.29,14.17,14.17,0,0,0-2.58-1.94c-2-1.13-3.82-1.38-5.05-.68s-1.93,2.39-1.93,4.71a13.8,13.8,0,0,0,.4,3.2L142,220.66l-.06-.21a18.07,18.07,0,0,1-.72-4.87c0-3.68,1.34-6.47,3.77-7.87s5.49-1.15,8.68.68a18,18,0,0,1,4,3.23,25.42,25.42,0,0,1,2.46,3A22.6,22.6,0,0,1,164.24,226.78Z" style="fill:#263238"></path><path d="M191.4,211.1a14,14,0,0,1-.2,2.35,10.52,10.52,0,0,1-.3,1.2,7.2,7.2,0,0,1-3.25,4.31,6.7,6.7,0,0,1-3.44.91,5.91,5.91,0,0,1-.93-.07,2.55,2.55,0,0,1-.11-.51,5.92,5.92,0,0,1,.49-3.11,3.44,3.44,0,0,0,2.16-.38,4.4,4.4,0,0,0,1.85-3.39s0-.11,0-.16a9.88,9.88,0,0,0,.06-1.15,18.81,18.81,0,0,0-3.63-10.3,19.15,19.15,0,0,0-2.57-3,14.18,14.18,0,0,0-2.59-1.95c-2-1.13-3.81-1.38-5.05-.67s-1.93,2.38-1.93,4.7a14.37,14.37,0,0,0,.4,3.21L169.11,205l-.06-.23a18.42,18.42,0,0,1-.72-4.87c0-3.67,1.34-6.47,3.76-7.86s5.51-1.16,8.69.68a18.19,18.19,0,0,1,4,3.22,24.1,24.1,0,0,1,2.47,3.06A22.67,22.67,0,0,1,191.4,211.1Z" style="fill:#263238"></path><path d="M218.62,195.56a12.92,12.92,0,0,1-.2,2.35,9.06,9.06,0,0,1-.3,1.22,7.21,7.21,0,0,1-3.25,4.29,6.75,6.75,0,0,1-3.43.9,7.54,7.54,0,0,1-.94-.06,4.88,4.88,0,0,1-.12-.55,5.9,5.9,0,0,1,.48-3.08,3.54,3.54,0,0,0,2.2-.37,4.49,4.49,0,0,0,1.84-3.43.57.57,0,0,1,0-.13,7.85,7.85,0,0,0,.06-1.14,18.89,18.89,0,0,0-3.64-10.34,19.24,19.24,0,0,0-2.6-3,15.14,15.14,0,0,0-2.55-1.91c-2-1.13-3.81-1.38-5-.67s-1.93,2.38-1.93,4.7a14,14,0,0,0,.38,3.16l-3.26,1.89-.06-.18a18.53,18.53,0,0,1-.72-4.87c0-3.68,1.34-6.47,3.77-7.86s5.5-1.17,8.68.67a17.93,17.93,0,0,1,4,3.2,23.77,23.77,0,0,1,2.46,3A22.56,22.56,0,0,1,218.62,195.56Z" style="fill:#263238"></path><polygon points="118.59 308.4 245.08 235.59 240.6 204.2 114.1 277.01 118.59 308.4" style="fill:#95E1D3"></polygon><g style="opacity:0.65"><polygon points="118.59 308.4 245.08 235.59 240.6 204.2 114.1 277.01 118.59 308.4" style="fill:#fff"></polygon></g><path d="M151.86,275.21a8.05,8.05,0,0,1,.19,2.69,8,8,0,0,1-.62,2.37,6.9,6.9,0,0,1-1.26,1.94,7.3,7.3,0,0,1-1.71,1.39,5.6,5.6,0,0,1-2,.72,3.41,3.41,0,0,1-1.7-.17,3.13,3.13,0,0,1-1.34-1,5,5,0,0,1-.85-1.88.74.74,0,0,1,0-.39.52.52,0,0,1,.21-.28l2-1.17c.2-.11.34-.14.42-.1a1,1,0,0,1,.3.39,1.5,1.5,0,0,0,.85.76,1.62,1.62,0,0,0,1.24-.29,2.62,2.62,0,0,0,1.21-1.39,3.63,3.63,0,0,0,0-2l-1.36-6-5.38,3.11a.3.3,0,0,1-.34,0,.5.5,0,0,1-.22-.33l-.52-2.28a.89.89,0,0,1,0-.48.61.61,0,0,1,.26-.34l7.86-4.54a.34.34,0,0,1,.34,0,.53.53,0,0,1,.22.33Z" style="fill:#455a64"></path><path d="M157.33,261.25a.51.51,0,0,1,.54,0,1.18,1.18,0,0,1,.33.34l6.51,11.53a1.43,1.43,0,0,1,.14.28.74.74,0,0,1,0,.39.46.46,0,0,1-.22.28l-2,1.15c-.21.12-.37.15-.49.08a.62.62,0,0,1-.25-.26l-.84-1.53-4.19,2.42,0,2a1.19,1.19,0,0,1-.08.45.9.9,0,0,1-.41.44l-2,1.14a.24.24,0,0,1-.27,0,.43.43,0,0,1-.18-.28,1.22,1.22,0,0,1,0-.35l.36-15.49a2.43,2.43,0,0,1,.12-.61.94.94,0,0,1,.43-.51Zm-.42,10.85,2.55-1.48-2.44-4.4Z" style="fill:#455a64"></path><path d="M173.4,269a.53.53,0,0,1-.48.06,1,1,0,0,1-.28-.18l-5.28-5.25,1.65,7.25a.8.8,0,0,1,0,.48.66.66,0,0,1-.26.34l-2.07,1.19a.29.29,0,0,1-.33,0,.43.43,0,0,1-.22-.33L163,258.67a.79.79,0,0,1,0-.48.69.69,0,0,1,.26-.35l1.64-.94a.53.53,0,0,1,.48-.06.89.89,0,0,1,.28.18l5.27,5.25L169.26,255a.88.88,0,0,1,0-.48.58.58,0,0,1,.26-.34l2.06-1.19a.32.32,0,0,1,.34,0,.53.53,0,0,1,.22.34l3.15,13.85a.88.88,0,0,1,0,.48.54.54,0,0,1-.26.34Z" style="fill:#455a64"></path><path d="M183.3,246.27a.29.29,0,0,1,.33,0,.45.45,0,0,1,.22.33l2,8.55A9.91,9.91,0,0,1,186,258a7.68,7.68,0,0,1-.55,2.48,6.87,6.87,0,0,1-1.25,2,7.16,7.16,0,0,1-1.85,1.52,5.42,5.42,0,0,1-2,.73,3,3,0,0,1-1.78-.3,3.66,3.66,0,0,1-1.41-1.34,7.45,7.45,0,0,1-.94-2.42l-1.95-8.55a.88.88,0,0,1,0-.48.64.64,0,0,1,.26-.35l2.06-1.19a.34.34,0,0,1,.34,0,.53.53,0,0,1,.22.34l1.92,8.47a2.89,2.89,0,0,0,.93,1.74,1.36,1.36,0,0,0,1.57-.08,2.62,2.62,0,0,0,1.25-1.55,4.39,4.39,0,0,0,0-2.28l-1.92-8.47a.8.8,0,0,1,0-.48.62.62,0,0,1,.26-.34Z" style="fill:#455a64"></path><path d="M191.35,241.62a.47.47,0,0,1,.53,0,.83.83,0,0,1,.33.34l6.51,11.52a1.23,1.23,0,0,1,.14.29.75.75,0,0,1,0,.39.56.56,0,0,1-.21.28l-2,1.14c-.21.13-.37.15-.49.08a.57.57,0,0,1-.25-.26l-.84-1.52-4.19,2.42,0,2a1.13,1.13,0,0,1-.08.45.86.86,0,0,1-.41.44l-2,1.15a.28.28,0,0,1-.28,0,.39.39,0,0,1-.18-.27,1.29,1.29,0,0,1,0-.36l.37-15.49a1.77,1.77,0,0,1,.12-.6.87.87,0,0,1,.42-.52Zm-.43,10.84,2.56-1.47L191,246.58Z" style="fill:#455a64"></path><path d="M201.52,235.74a6.46,6.46,0,0,1,1.93-.77,2.94,2.94,0,0,1,1.6.1,2.69,2.69,0,0,1,1.23,1,5.91,5.91,0,0,1,.8,2,7.46,7.46,0,0,1,.12,2.95,6.13,6.13,0,0,1-1,2.42l3.11,4a.53.53,0,0,1,.11.21.74.74,0,0,1,0,.39.49.49,0,0,1-.21.28L207,249.55c-.21.12-.37.14-.49.07a1.31,1.31,0,0,1-.3-.27l-2.79-3.57-1.45.83,1,4.59a.79.79,0,0,1,0,.48.62.62,0,0,1-.26.34l-2.07,1.2a.32.32,0,0,1-.33,0,.49.49,0,0,1-.22-.34L197,239a.8.8,0,0,1,0-.48.62.62,0,0,1,.26-.34Zm-.3,7.53,1.78-1a2.83,2.83,0,0,0,1-1,2,2,0,0,0,.15-1.49q-.21-.9-.72-1a1.73,1.73,0,0,0-1.17.29l-1.78,1Z" style="fill:#455a64"></path><path d="M216.4,243.48a.89.89,0,0,1,0,.48.58.58,0,0,1-.26.34L214,245.49a.32.32,0,0,1-.34,0,.53.53,0,0,1-.22-.34l-1-4.57-5.71-7a.55.55,0,0,1-.12-.24.74.74,0,0,1,0-.39.49.49,0,0,1,.22-.28l2.15-1.25a.5.5,0,0,1,.53,0,.89.89,0,0,1,.26.21l3.18,4.13.8-6.43a2.26,2.26,0,0,1,.12-.43.87.87,0,0,1,.42-.49l2.16-1.25a.28.28,0,0,1,.28,0,.41.41,0,0,1,.18.27,1.18,1.18,0,0,1,0,.32l-1.56,11.21Z" style="fill:#455a64"></path><g style="opacity:0.46"><path d="M171.43,401.93a.5.5,0,0,1-.74-.19l-6.13-8,3.35,14.7a.69.69,0,0,1-.31.85l-.36.21c-.3.18-.5.07-.59-.33l-4-17.77a.73.73,0,0,1,.32-.89l.5-.29a.32.32,0,0,1,.32,0l.17.14,7.26,9.38L173,385.1c0-.07,0-.17.08-.29a.56.56,0,0,1,.26-.31l.48-.27q.47-.27.6.36l4,17.77a.72.72,0,0,1-.32.86l-.36.2c-.29.17-.48.06-.58-.34l-3.34-14.7-1.49,12.4a1,1,0,0,1-.49.89Z" style="fill:#95E1D3"></path><path d="M182.68,378.8a5.44,5.44,0,0,1,2.22-.76,3.2,3.2,0,0,1,2,.45,5,5,0,0,1,1.61,1.71,11.17,11.17,0,0,1,1.17,3.05c.21.8.4,1.55.56,2.26s.32,1.47.48,2.3a12.06,12.06,0,0,1-.15,6.5,7.46,7.46,0,0,1-3.41,4q-2.49,1.44-4.25.4t-2.72-4.85c-.21-.79-.39-1.55-.55-2.25s-.32-1.48-.48-2.3a14.59,14.59,0,0,1-.32-3.55,10.38,10.38,0,0,1,.54-2.95,7.64,7.64,0,0,1,1.32-2.34A7.52,7.52,0,0,1,182.68,378.8Zm.37,1.63a5.47,5.47,0,0,0-1.48,1.24,5.67,5.67,0,0,0-1,1.79,7.75,7.75,0,0,0-.42,2.36,11.88,11.88,0,0,0,.27,2.92c.08.42.15.81.22,1.15s.15.69.22,1l.24,1c.09.34.19.71.29,1.1a9.49,9.49,0,0,0,1,2.53,3.76,3.76,0,0,0,1.26,1.37,2.26,2.26,0,0,0,1.49.35,3.93,3.93,0,0,0,1.65-.57,5.77,5.77,0,0,0,1.5-1.24,5.65,5.65,0,0,0,1-1.79,8.07,8.07,0,0,0,.41-2.35,12,12,0,0,0-.27-2.92c-.07-.41-.15-.79-.23-1.14s-.16-.69-.23-1-.16-.66-.23-1-.17-.72-.28-1.13a9.89,9.89,0,0,0-1-2.51,3.82,3.82,0,0,0-1.27-1.38,2.42,2.42,0,0,0-1.5-.35A4.07,4.07,0,0,0,183.05,380.43Z" style="fill:#95E1D3"></path><path d="M193.24,376.87l3.41,15a.72.72,0,0,1-.32.86l-.36.21c-.29.17-.49.05-.58-.35l-4-17.76a.73.73,0,0,1,.3-.88l.42-.24c.13-.08.24-.09.32,0l.17.11,10.83,11.05-3.41-15a.74.74,0,0,1,.3-.88l.36-.2q.47-.27.6.36l4,17.74a.72.72,0,0,1-.29.88l-.44.25c-.13.08-.24.09-.32,0l-.17-.12Z" style="fill:#95E1D3"></path><path d="M209.53,363.61a7.36,7.36,0,0,1,2.74-1.05,3,3,0,0,1,2,.43,4.38,4.38,0,0,1,1.44,1.78,14.16,14.16,0,0,1,1,3c.2.81.37,1.52.51,2.15s.3,1.34.48,2.16a21.21,21.21,0,0,1,.43,3.44,8.17,8.17,0,0,1-.38,2.81,6.45,6.45,0,0,1-1.36,2.32,9.91,9.91,0,0,1-2.47,1.93l-4.34,2.51c-.29.16-.48.05-.57-.35l-4-17.77a.71.71,0,0,1,.29-.87Zm6,5a11.07,11.07,0,0,0-.85-2.44,3.26,3.26,0,0,0-1.17-1.38,2.29,2.29,0,0,0-1.59-.29,6,6,0,0,0-2.1.81l-3.33,1.92L210.05,383l3.43-2a8.28,8.28,0,0,0,1.92-1.48,5,5,0,0,0,1.08-1.78,6.41,6.41,0,0,0,.32-2.22,15.69,15.69,0,0,0-.37-2.86c-.09-.39-.17-.76-.24-1.09s-.13-.64-.2-.94-.14-.6-.22-.92S215.6,369,215.51,368.59Z" style="fill:#95E1D3"></path><path d="M229.49,368.19l-7.06,4.08-.25,5.05a1.46,1.46,0,0,1-.08.34.55.55,0,0,1-.26.32l-.4.23a.31.31,0,0,1-.32,0,.46.46,0,0,1-.2-.31,1.51,1.51,0,0,1,0-.32l1-20.52a1.34,1.34,0,0,1,.12-.53.85.85,0,0,1,.33-.35l.68-.39a.53.53,0,0,1,.4-.08.63.63,0,0,1,.3.29l9.05,14.7a1,1,0,0,1,.11.27.78.78,0,0,1,0,.45.54.54,0,0,1-.24.32l-.4.23a.29.29,0,0,1-.33,0,.72.72,0,0,1-.2-.18Zm-7,2.17,6.1-3.52-5.48-8.93Z" style="fill:#95E1D3"></path><path d="M236.41,359.38l2.15-12.08a.9.9,0,0,1,.37-.67l.4-.23a.29.29,0,0,1,.31,0,.46.46,0,0,1,.21.31,1.31,1.31,0,0,1,0,.4l-2.4,13.66,1.51,6.65a.69.69,0,0,1-.32.86l-.38.22c-.29.17-.48.05-.57-.35l-1.51-6.64-7.33-8.05a.74.74,0,0,1-.16-.3.86.86,0,0,1,0-.45.59.59,0,0,1,.24-.32l.4-.23c.19-.11.37-.06.55.14Z" style="fill:#95E1D3"></path></g><path d="M159.3,302.46a10.17,10.17,0,0,1,.34-3.81,7.21,7.21,0,0,1,1.42-2.64,5.43,5.43,0,0,1,2.12-1.46,4.89,4.89,0,0,1,2.41-.29,5,5,0,0,1,2.26.92,5.64,5.64,0,0,1,1.72,2.12,8.42,8.42,0,0,1,.75,3.32,14.7,14.7,0,0,1-.6,4.5c.65-.05,1.26-.07,1.83-.08a3.35,3.35,0,0,1,1.51.33,2.88,2.88,0,0,1,1.16,1.05,6,6,0,0,1,.8,2.05,11,11,0,0,1,.23,2.48,18.35,18.35,0,0,1-.26,2.89,24,24,0,0,1-.7,3,19.67,19.67,0,0,1-1.06,2.77,12.64,12.64,0,0,1-1.35,2.25,5.2,5.2,0,0,1-1.53,1.43c-.36.21-.78.1-1.26-.32a9.85,9.85,0,0,1-1.55-1.88,32.6,32.6,0,0,1-1.74-2.95c-.61-1.15-1.21-2.36-1.79-3.63s-1.14-2.55-1.67-3.83-1-2.47-1.43-3.57-.78-2.06-1.07-2.88A16.29,16.29,0,0,1,159.3,302.46Zm3.47,1.48c.09.39.19.89.31,1.48s.25,1.2.41,1.81a15.06,15.06,0,0,0,.57,1.76,3.86,3.86,0,0,0,.79,1.34,8.1,8.1,0,0,0,1.83-2.32,10.69,10.69,0,0,0,1-2.77,11.79,11.79,0,0,0,.25-2.82,10,10,0,0,0-.37-2.55,6.07,6.07,0,0,0-.91-1.95,2.31,2.31,0,0,0-1.33-1,2.23,2.23,0,0,0-1.66.34,6.39,6.39,0,0,0-1.89,2c0,.17.11.48.2.93s.19.91.29,1.4.21,1,.31,1.4Zm4.11,10.35a6.68,6.68,0,0,0,.53,1.37,14.34,14.34,0,0,0,.92,1.57,11.52,11.52,0,0,0,1.06,1.32,1.66,1.66,0,0,0,1,.59c.26.05.53-.13.79-.51a6.77,6.77,0,0,0,.71-1.54,17.39,17.39,0,0,0,.55-2.08c.16-.75.3-1.48.4-2.19a18.71,18.71,0,0,0,.19-1.93,5.06,5.06,0,0,0-.05-1.26,4,4,0,0,0-.49-1.31,1.44,1.44,0,0,0-.7-.59,1.54,1.54,0,0,0-.88,0,4.13,4.13,0,0,0-1,.44,5.41,5.41,0,0,0-1.23,1,7,7,0,0,0-1.08,1.49,7.1,7.1,0,0,0-.7,1.78A4.18,4.18,0,0,0,166.88,314.29Z" style="fill:#37474f"></path><path d="M175.48,299.85A15.36,15.36,0,0,0,175,298a9.43,9.43,0,0,1-.42-1.59,2.78,2.78,0,0,1,.12-1.36,2.36,2.36,0,0,1,1.1-1.13,10.8,10.8,0,0,1,1.05,2c.41.94.85,2,1.31,3.28s1,2.63,1.46,4.12,1,3,1.48,4.52.95,3,1.38,4.49.83,2.84,1.16,4.07c-.42.79-.85,1.08-1.26.84a3.77,3.77,0,0,1-1.29-1.67,24.13,24.13,0,0,1-1.32-3.39c-.44-1.38-.89-2.81-1.35-4.31s-.94-2.95-1.43-4.38A36.55,36.55,0,0,0,175.48,299.85Z" style="fill:#37474f"></path><path d="M181.77,302.13c0-.13-.08-.37-.14-.72s-.15-.7-.24-1.08-.16-.72-.22-1.05-.11-.55-.14-.68a7.63,7.63,0,0,1,.22-1,2.55,2.55,0,0,1,.37-.81.9.9,0,0,1,.54-.37.92.92,0,0,1,.77.3l.06.26.1.43c0,.13,0,.4.08.84s.09.91.14,1.44.08,1,.12,1.44a8.28,8.28,0,0,0,.09.83c.1.42.25.92.45,1.51s.46,1.2.73,1.81.59,1.21.93,1.79a7.42,7.42,0,0,0,1.09,1.45,3.73,3.73,0,0,0,1.16.84,1.33,1.33,0,0,0,1.23-.11,3.25,3.25,0,0,0,1.25-1.36,8,8,0,0,0,.7-2.05,14.25,14.25,0,0,0,.26-2.43c0-.86,0-1.7-.07-2.53s-.14-1.6-.26-2.34-.22-1.36-.34-1.89a14.23,14.23,0,0,0-.43-1.46c-.17-.44-.34-.87-.53-1.29s-.36-.83-.52-1.25a9.18,9.18,0,0,1-.39-1.32,1.43,1.43,0,0,1,.12-1.09,2,2,0,0,1,.68-.69.86.86,0,0,1,.92-.06,2,2,0,0,1,.74.75,6.39,6.39,0,0,1,.57,1.3c.16.52.3,1,.42,1.57s.23,1,.32,1.52.17.87.24,1.15c.17.75.32,1.63.45,2.62a26.35,26.35,0,0,1,.24,3.18c0,1.12,0,2.25-.08,3.39a17.05,17.05,0,0,1-.5,3.23,10.71,10.71,0,0,1-1.06,2.69,4.81,4.81,0,0,1-1.73,1.79,2.77,2.77,0,0,1-2.08.39A3.72,3.72,0,0,1,186.2,312a10.26,10.26,0,0,1-1.57-2.1,22.12,22.12,0,0,1-1.27-2.64c-.36-.91-.68-1.82-1-2.72S181.93,302.82,181.77,302.13Z" style="fill:#37474f"></path><path d="M195.25,299.22a21.32,21.32,0,0,1-.5-3.76,15.3,15.3,0,0,1,.28-3.79,10.91,10.91,0,0,1,1.27-3.35,6.73,6.73,0,0,1,2.49-2.45,3,3,0,0,1,1.68-.46,2.66,2.66,0,0,1,1.41.51,4,4,0,0,1,1.08,1.31,7.48,7.48,0,0,1,.69,1.9,10.7,10.7,0,0,1,.17,3.6,14.25,14.25,0,0,1-.89,3.68,10.89,10.89,0,0,1-1.79,3.09,5.06,5.06,0,0,1-2.46,1.74,1.87,1.87,0,0,0,.82,1.27,2.16,2.16,0,0,0,1.28.25,4.24,4.24,0,0,0,1.4-.38,13.08,13.08,0,0,0,1.24-.61,5.84,5.84,0,0,0,1-.74c.31-.28.61-.56.91-.86s.6-.59.91-.87a6.42,6.42,0,0,1,1-.74,3.74,3.74,0,0,1,.45-.22,1.15,1.15,0,0,1,.44-.09.55.55,0,0,1,.4.18,1,1,0,0,1,.26.55,2,2,0,0,1-.1,1.23,5.56,5.56,0,0,1-.7,1.21,8,8,0,0,1-1.06,1.12c-.4.34-.79.65-1.17.94s-.74.52-1.07.73l-.74.44a6.34,6.34,0,0,1-3,.94,4.39,4.39,0,0,1-2.52-.68,6.19,6.19,0,0,1-2-2.16A12.33,12.33,0,0,1,195.25,299.22Zm2.09-3.64a3.82,3.82,0,0,0,.61,1.56c.23.26.65.22,1.25-.13a4.13,4.13,0,0,0,1.17-1,6.66,6.66,0,0,0,.91-1.51,6.81,6.81,0,0,0,.49-1.78,5.35,5.35,0,0,0-.09-1.83,7.4,7.4,0,0,0-.29-1,2.54,2.54,0,0,0-.48-.82,1.48,1.48,0,0,0-.66-.45,1.16,1.16,0,0,0-.86.18,3.61,3.61,0,0,0-1.22,1.21,6.45,6.45,0,0,0-.75,1.74,8,8,0,0,0-.27,1.95A7.76,7.76,0,0,0,197.34,295.58Z" style="fill:#37474f"></path><path d="M143.65,366.66c-.06-.27-.16-.7-.29-1.32s-.27-1.25-.42-1.92-.3-1.31-.42-1.91-.22-1-.28-1.27,0-.42,0-.78,0-.71,0-1.07a4.19,4.19,0,0,1,.18-1,1.16,1.16,0,0,1,.49-.68,2.26,2.26,0,0,1,1.65-.28,5,5,0,0,1,1.71.79,13.19,13.19,0,0,1,1.75,1.44l1.72,1.69c.56.56,1.11,1.08,1.64,1.56a5.54,5.54,0,0,0,1.5,1,3.78,3.78,0,0,0,.64-1.89,16.54,16.54,0,0,0,.05-2.57c-.05-.93-.11-1.89-.2-2.88a22.55,22.55,0,0,1-.08-2.82,8.5,8.5,0,0,1,.41-2.38,2.77,2.77,0,0,1,1.28-1.58,2.13,2.13,0,0,1,2.24,0,8,8,0,0,1,2.26,2,20.07,20.07,0,0,1,2.11,3.27c.66,1.27,1.26,2.51,1.79,3.72s1,2.33,1.34,3.34.59,1.76.7,2.22q.06.3.12.66a2.76,2.76,0,0,1,0,.7,1.19,1.19,0,0,1-.22.61.86.86,0,0,1-.63.35.51.51,0,0,1-.32,0,1.9,1.9,0,0,1-.42-.19,2.44,2.44,0,0,1-.39-.28.56.56,0,0,1-.21-.31L162,361.58c-.47-1.22-1-2.44-1.58-3.64a26.77,26.77,0,0,0-1.91-3.37,9.22,9.22,0,0,0-2.25-2.44,5.49,5.49,0,0,0-.75,2.25,20.15,20.15,0,0,0-.13,2.73c0,.95.05,1.91.1,2.88a17.59,17.59,0,0,1,0,2.73A8.33,8.33,0,0,1,155,365a3,3,0,0,1-1.34,1.56,1.7,1.7,0,0,1-1.41.16,4.81,4.81,0,0,1-1.55-.83,14.65,14.65,0,0,1-1.61-1.43l-1.58-1.63c-.51-.54-1-1-1.49-1.48a4.81,4.81,0,0,0-1.35-.94c0,.76.06,1.42.1,2s.1,1.1.17,1.6.16,1,.27,1.53.23,1.08.37,1.7a20.05,20.05,0,0,0,.8,2.66q.48,1.27,1,2.52l1,2.51a19.09,19.09,0,0,1,.81,2.66l.06.27a4,4,0,0,1-.12.42c-.06.2-.13.41-.2.63a5.36,5.36,0,0,1-.24.6c-.08.19-.14.31-.18.39a.25.25,0,0,1-.09.09.45.45,0,0,1-.14.11.4.4,0,0,1-.13,0,.4.4,0,0,0-.13,0c-.4-1.22-.8-2.36-1.19-3.43s-.77-2.14-1.13-3.21-.71-2.14-1-3.25S144,368,143.65,366.66Z" style="fill:#37474f"></path><path d="M165.78,355.7a22,22,0,0,1-.31-7.9,28.81,28.81,0,0,1,6.2-14.24,18.78,18.78,0,0,1,5.16-4.52,3.22,3.22,0,0,1,3.06-.23,7.77,7.77,0,0,1,2.77,2.14,15.68,15.68,0,0,1,2.19,3.39,17.61,17.61,0,0,1,1.29,3.52,21.46,21.46,0,0,1,.29,7.42,32.43,32.43,0,0,1-1.87,7.59,29.28,29.28,0,0,1-3.48,6.59,15,15,0,0,1-4.56,4.38,6.69,6.69,0,0,1-3.91,1.1,5,5,0,0,1-3-1.33,10,10,0,0,1-2.25-3.24A23.25,23.25,0,0,1,165.78,355.7Zm2.8-.19a17.41,17.41,0,0,0,1,3.2,5,5,0,0,0,1.42,2,3,3,0,0,0,2,.63,5.91,5.91,0,0,0,2.67-.92,11,11,0,0,0,3.66-3.82,27.12,27.12,0,0,0,2.73-5.91,30.93,30.93,0,0,0,1.41-6.61,18.69,18.69,0,0,0-.26-6,20.85,20.85,0,0,0-.75-2.49,10.59,10.59,0,0,0-1.13-2.26,3.76,3.76,0,0,0-1.54-1.37c-1.16-.53-2.85.5-4,1.3a14.21,14.21,0,0,0-3.6,4,29.8,29.8,0,0,0-3.62,9.39,22,22,0,0,0-.53,3.41A20.33,20.33,0,0,0,168.58,355.51Z" style="fill:#37474f"></path><path d="M187.52,337.25a2.39,2.39,0,0,1,0-1.42,2,2,0,0,1,.93-1l.25-.14c.13.32.27.7.44,1.13a9.68,9.68,0,0,0,.62,1.25,6,6,0,0,0,.77,1.07,1.86,1.86,0,0,0,.87.6,7.85,7.85,0,0,1-.08-2.48,12.53,12.53,0,0,1,.56-2.49,11.75,11.75,0,0,1,1-2.18,6.69,6.69,0,0,1,1.25-1.6l.53-.31a2.91,2.91,0,0,1,2.16-.44,3.71,3.71,0,0,1,1.79,1.06,7.72,7.72,0,0,1,1.43,2.11,25,25,0,0,1,1.12,2.7c.34.95.62,1.88.86,2.8s.43,1.72.58,2.38l-1.77,1q-.6-1.91-1.23-3.6c-.16-.46-.34-.93-.55-1.43s-.4-.94-.61-1.36a11.93,11.93,0,0,0-.62-1.14,3.57,3.57,0,0,0-.62-.82l-.34-.22-.43-.27-.41-.22q-.18-.07-.21-.06a1.63,1.63,0,0,0-1.18,1.11,9.3,9.3,0,0,0-.55,2.28,17.77,17.77,0,0,0-.1,2.87q.06,1.53.18,2.91c.08.91.16,1.7.26,2.35s.15,1.06.16,1.2c-.32.63-.67,1-1.06,1a1.73,1.73,0,0,1-1.25-.46A6.57,6.57,0,0,1,191,344c-.43-.65-.86-1.36-1.27-2.13s-.81-1.57-1.18-2.37S187.83,338,187.52,337.25Z" style="fill:#37474f"></path><path d="M202.71,336.68a9.24,9.24,0,0,1-.07-3.81,15.7,15.7,0,0,1,1.16-3.61,20.68,20.68,0,0,1,1.83-3.19c.7-1,1.35-1.85,2-2.6l1.56-1.84c.43-.48.62-.78.59-.92-.17-.77-.37-1.51-.6-2.21s-.45-1.42-.69-2.13l-.69-2.13c-.22-.7-.42-1.42-.58-2.15l-.49-2.15q.88-1.06,1.44-.72c.38.23.58.89.6,2,.18.45.44,1.16.79,2.13s.74,2.07,1.17,3.29.89,2.51,1.37,3.85l1.38,3.87c.43,1.23.82,2.33,1.15,3.3s.58,1.69.74,2.17a5.66,5.66,0,0,1,.19.62c.09.31.18.65.27,1s.18.7.26,1,.13.52.16.65a6.58,6.58,0,0,1-1.27.63.41.41,0,0,1-.51-.16,3.2,3.2,0,0,1-.28-.81,5.32,5.32,0,0,0-.6-1.42,24.07,24.07,0,0,1-1.34,2.57,14.39,14.39,0,0,1-1.37,1.94,10.81,10.81,0,0,1-1.5,1.46,14.09,14.09,0,0,1-1.7,1.16,8.24,8.24,0,0,1-1.54.68,2.9,2.9,0,0,1-1.42.09,2.22,2.22,0,0,1-1.19-.74A4.15,4.15,0,0,1,202.71,336.68Zm2-1.91a1.54,1.54,0,0,0,.36.76,1.33,1.33,0,0,0,.57.31,1.26,1.26,0,0,0,.64,0,2.81,2.81,0,0,0,.62-.26,7.2,7.2,0,0,0,1.73-1.51,10.94,10.94,0,0,0,1.54-2.31,10.38,10.38,0,0,0,.94-2.73,6.26,6.26,0,0,0,0-2.76,2.09,2.09,0,0,0-.59-1.27c-.23-.17-.61-.1-1.11.19a6.92,6.92,0,0,0-1.7,1.54,16.08,16.08,0,0,0-1.69,2.48,12.85,12.85,0,0,0-1.17,2.86A5.55,5.55,0,0,0,204.67,334.77Z" style="fill:#37474f"></path><path d="M227.18,322.14c-.48.93-.9,1.75-1.24,2.46a18,18,0,0,1-1,1.89,8.3,8.3,0,0,1-1.19,1.48,9.47,9.47,0,0,1-1.71,1.25c-1.51.87-2.75,1-3.73.29s-1.71-2.08-2.2-4.24a15.28,15.28,0,0,1-.35-2.76,20.53,20.53,0,0,1,.1-3.11,24.89,24.89,0,0,1,.55-3.2,18.4,18.4,0,0,1,1-3,12.68,12.68,0,0,1,1.43-2.49,6.26,6.26,0,0,1,1.85-1.69,4.5,4.5,0,0,1,3-.41,3.87,3.87,0,0,1,2.05,1.54,11.49,11.49,0,0,1,1.45,2.87c.41,1.13.79,2.31,1.15,3.55s.75,2.46,1.16,3.68a12.14,12.14,0,0,0,1.51,3.13,9.06,9.06,0,0,1-.25,1.88c-.12.41-.31.58-.59.51a2.81,2.81,0,0,1-1.12-1C228.56,324.18,227.94,323.3,227.18,322.14Zm-9,2a4.38,4.38,0,0,0,1.15,2.46c.48.38,1.17.32,2.06-.2a6.49,6.49,0,0,0,1.8-1.58,9,9,0,0,0,1.29-2.24,10,10,0,0,0,.63-2.67,8.79,8.79,0,0,0-.19-2.88c-.09-.4-.21-1-.35-1.69a13.86,13.86,0,0,0-.59-2.08,4.86,4.86,0,0,0-.88-1.57.86.86,0,0,0-1.19-.18,5.8,5.8,0,0,0-2.14,2.22,13.43,13.43,0,0,0-1.34,3.3,16.94,16.94,0,0,0-.53,3.7A13.09,13.09,0,0,0,218.15,324.14Z" style="fill:#37474f"></path><path d="M228.49,306.86c0-.2-.08-.4-.12-.62a2.35,2.35,0,0,1,0-.65,1.41,1.41,0,0,1,.14-.57,1.12,1.12,0,0,1,.44-.42l.06,0,.09,0a.4.4,0,0,0,.13,0,6.75,6.75,0,0,1,1.3,1.73c.43.77.87,1.59,1.3,2.47s.9,1.77,1.38,2.65a9.69,9.69,0,0,0,1.57,2.22,3.87,3.87,0,0,0,1.88,1.12,2.9,2.9,0,0,0,2.26-.59,1.3,1.3,0,0,0,.54-1.25,11.38,11.38,0,0,0-.3-2.22q-.28-1.31-.69-2.82c-.28-1-.51-2-.68-3a11.46,11.46,0,0,1-.19-2.68,3.29,3.29,0,0,1,.73-2,10,10,0,0,1,1.14,2.4c.41,1.14.83,2.49,1.26,4.06s.86,3.27,1.28,5.13.81,3.74,1.17,5.62.66,3.7.91,5.48.45,3.34.58,4.71a23.07,23.07,0,0,1,.12,3.36c-.05.87-.21,1.32-.48,1.34a3.15,3.15,0,0,1-1.18-1.26,11.33,11.33,0,0,1-.93-2.12,27.36,27.36,0,0,1-.7-2.68c-.2-1-.39-2-.57-3s-.35-2-.5-2.93-.32-1.82-.5-2.59a3.56,3.56,0,0,1-1.87.66,4.52,4.52,0,0,1-2.11-.4,9.28,9.28,0,0,1-2.21-1.41,12.77,12.77,0,0,1-2.1-2.34,18.1,18.1,0,0,1-1.79-3.25A22.3,22.3,0,0,1,228.49,306.86Z" style="fill:#37474f"></path><path d="M173.56,344.71c-.17-.61-.41-1.17-.62-1.74-.13-.35-.55-.69-.93-.45s-.38.85-.31,1.23a5.84,5.84,0,0,0,.22.82c.19.57.38,1.15.58,1.73a1.83,1.83,0,0,0,.3.63c.25.28.85.34,1-.06a.79.79,0,0,0,.06-.22c0,.08,0,.05,0-.14s0-.14,0-.2v0l0-.22-.09-.47Q173.68,345.13,173.56,344.71Z" style="fill:#37474f"></path><path d="M178.36,342.64a.86.86,0,0,0,0-.16,7.47,7.47,0,0,0-.31-1.55c-.14-.55-.32-1.09-.44-1.65,0-.15-.07-.3-.11-.45a.67.67,0,0,0-.86-.52.8.8,0,0,0-.49.64,2.18,2.18,0,0,0,.06.84c0,.3.12.59.19.89a14.67,14.67,0,0,0,.44,1.57c.14.36.42,1.07.92,1a.84.84,0,0,0,.43-.26.78.78,0,0,0,.15-.22A.36.36,0,0,0,178.36,342.64Z" style="fill:#37474f"></path><path d="M181.41,347.31a2.73,2.73,0,0,0-2.93-.54,7.18,7.18,0,0,0-2.95,1.79,13.14,13.14,0,0,0-2.46,3.16,14,14,0,0,0-1.44,4c-.12.57.56,1.46.86.79a20.79,20.79,0,0,1,4-6.16,8.42,8.42,0,0,1,2.24-1.69,3.53,3.53,0,0,1,1.16-.35,4.79,4.79,0,0,1,1.3.22C181.68,348.6,181.72,347.67,181.41,347.31Z" style="fill:#37474f"></path></g></g><g id="freepik--Character--inject-21"><g id="freepik--character--inject-21"><g id="freepik--Bottom--inject-21"><path d="M354.6,361.75c0-5.36-2.26-48.79-2.26-48.79l20.82,12.53c-2.5,23.94-4.8,35.27-5,39.41h0a4.72,4.72,0,0,0-.12.84c.08,4.73-5.3,7.4-9.47,10.64a79,79,0,0,1-11.31,7.6c-3,1.59-9.29,1.87-10.1-.06,5.07-4,10.95-8.33,15-12.84C354,368.93,354.62,366.72,354.6,361.75Z" style="fill:#ffa8a7"></path><path d="M328.45,389.21c-.26,0-.6,2.87.86,4.05,1.68,1.37,6.6,3.56,13,2.6s9.85-3,12.37-5.16,6.08-5.24,9-5.93c2.69-.65,5.6-1.92,6.44-2.76s.66-4.48.66-4.48Z" style="fill:#263238"></path><path d="M368.25,363.57a.82.82,0,0,1,.79.81,39.09,39.09,0,0,0,.81,5.57,28.72,28.72,0,0,1,.81,8.84c-.31,1.88-4.69,3.27-7.48,4.39a36,36,0,0,0-9,5.86c-3,2.51-9.27,5.11-13.46,5.26-6.39.24-10.57-1.37-11.89-3.6-1.64-2.75-.43-4.4,6.85-7.91a64.67,64.67,0,0,0,7.51-5.26c5.11-4.33,9-8.11,9.89-13.48.1-.62,1.1-1.21,5-.43,1.07.21,4.9,1.27,4.9,2.51a17.65,17.65,0,0,1-.42,2.1c-.05.26-.24,1.37,0,1.51s.68-.7.81-.93a16.19,16.19,0,0,1,1.48-2.43c.34-.43,2.79-.68,3.27-1.48C368.14,364.9,368.16,364.23,368.25,363.57Z" style="fill:#37474f"></path><path d="M335.68,382.79c9.27.42,12.26,6.3,11.59,10a22.26,22.26,0,0,1-6.55,1.5c-6.39.24-10.83-1.36-12.16-3.59C327,388.11,329.16,385.39,335.68,382.79Z" style="fill:#fafafa"></path><path d="M347.88,382.63a.5.5,0,0,0,.28-.12.44.44,0,0,0,0-.63,10.92,10.92,0,0,0-8.6-2.52.44.44,0,1,0,.17.87,10.14,10.14,0,0,1,7.78,2.27A.44.44,0,0,0,347.88,382.63Z" style="fill:#f0f0f0"></path><path d="M351.77,379.62a.5.5,0,0,0,.28-.12.43.43,0,0,0,0-.63,10.87,10.87,0,0,0-8.58-2.57.44.44,0,0,0-.36.52.43.43,0,0,0,.52.35,10.09,10.09,0,0,1,7.77,2.32A.44.44,0,0,0,351.77,379.62Z" style="fill:#f0f0f0"></path><path d="M355,376.87a.44.44,0,0,0,.29-.11.44.44,0,0,0,0-.63,10.93,10.93,0,0,0-8.51-2.82.45.45,0,1,0,.14.88,10.13,10.13,0,0,1,7.7,2.54A.43.43,0,0,0,355,376.87Z" style="fill:#f0f0f0"></path><path d="M358.69,373.6a.4.4,0,0,0,.27-.11.44.44,0,0,0,0-.63c-1.9-2.08-6-3.27-9.32-2.7a.44.44,0,1,0,.15.87c3-.51,6.81.58,8.5,2.43A.45.45,0,0,0,358.69,373.6Z" style="fill:#f0f0f0"></path><path d="M412.22,325.52c.74,14.14-1.71,30-1.09,43.25.12,2.5,1.52,19.37.95,24.57-.86,7.81-10.25,7.42-11.09,2.84s-2.65-24.52-2.83-26.55c-.56-8.5-7.56-37.51-7.56-37.51Z" style="fill:#ffa8a7"></path><path d="M397.72,399.64c.14,4.54.78,7.57,2.35,10.28s4.64,3.63,7.79,2.94,7.22-2.66,8.22-6.55.9-6.57.3-10.8Z" style="fill:#263238"></path><path d="M411.06,367.15c1.29.13,1.51,6.23,2.09,12.35.62,6.56,2.54,9.32,3.1,14.7.65,6.15.25,8.88-2,12.52s-10.12,7-13.79,1.64c-3-4.42-3-9.21-2.55-15.32a133.27,133.27,0,0,0,0-15.51c-.13-4.59-1-9.24.09-9.72.07.68.13,1.53.21,2.2.05.51.11,3,.84,3a10,10,0,0,0,.06-1.73,2,2,0,0,1,.39-1.47,2.38,2.38,0,0,1,1.45-.58c1.28-.22,4-.25,5.27-.33a17.75,17.75,0,0,1,1.93,0,5.3,5.3,0,0,1,1.63.27,1.12,1.12,0,0,1,.68.65,1.82,1.82,0,0,1,.05.7,4.86,4.86,0,0,0,.13,1.26c0,.18.16.4.35.37s.21-.22.22-.37c0-.74-.06-1.28-.07-2.14,0-.39-.06-.94-.05-1.34S411.08,367.54,411.06,367.15Z" style="fill:#37474f"></path><path d="M416.52,397.76c.12,3.81-.17,6.41-2,9.26-2.29,3.64-10.74,7-14.41,1.63-1.83-2.69-2.26-5.83-2.43-9C400.11,395.61,413,394.18,416.52,397.76Z" style="fill:#fafafa"></path><path d="M401.21,393.07a.32.32,0,0,0,.16,0,19.23,19.23,0,0,1,11.16-.81.47.47,0,1,0,.24-.91,19.81,19.81,0,0,0-11.79.86.47.47,0,0,0-.24.62A.46.46,0,0,0,401.21,393.07Z" style="fill:#f0f0f0"></path><path d="M412.34,387.65a.47.47,0,0,0,.41-.3.46.46,0,0,0-.28-.61c-5.73-2.09-11.53.64-11.77.75a.47.47,0,0,0-.22.63.49.49,0,0,0,.64.22c.05,0,5.68-2.67,11-.72A.46.46,0,0,0,412.34,387.65Z" style="fill:#f0f0f0"></path><path d="M412.12,383.34a.48.48,0,0,0,.41-.3.46.46,0,0,0-.27-.61,15.07,15.07,0,0,0-12,.71.46.46,0,0,0-.17.64.48.48,0,0,0,.65.18,14.36,14.36,0,0,1,11.19-.65A.69.69,0,0,0,412.12,383.34Z" style="fill:#f0f0f0"></path><path d="M411.86,378.49a.47.47,0,0,0,.15-.9c-5.91-2.36-11.85.7-12.1.84a.45.45,0,0,0-.19.63.47.47,0,0,0,.64.19c.06,0,5.8-3,11.29-.79A.39.39,0,0,0,411.86,378.49Z" style="fill:#ebebeb"></path><path d="M399.31,191.4a10,10,0,0,0,1.89,4.7c5.18,7.54,9.22,14.8,9.64,28.5,1,33.87-.61,69-.61,69,.23,3,1.46,6.37,2.57,21.85,1,13.55-1.28,35.24-1.28,35.24s-8.64,4.56-16.77,1.31c-3.24-11-8.3-39.3-11-54.23-2.55-14.13-4.75-34.42-4.75-34.42l-2.78,30.25s1.27,7.27-.15,19.32c-1.07,9.06-5.31,35.41-5.31,35.41s-9.81,4.85-16.81-.24c0,0-3.33-47.28-3.41-58.25-.14-20.41-1.38-66.8,4.37-92.9.27-1.21.38-6.06.38-6.06C362.14,196.86,390.11,197.76,399.31,191.4Z" style="fill:#37474f"></path><path d="M391.06,212.23a.38.38,0,0,1,.45.29c.34,1.58.59,3,.83,4.39.88,5,1.51,8.57,5,12.52a12.34,12.34,0,0,0,9,4c-1.28-10.18-4.36-18.36-9.42-25.19a.37.37,0,0,1,.08-.53.38.38,0,0,1,.53.09c5.21,7,8.35,15.44,9.62,25.92,0,0,0,0,0,.05v0a100.19,100.19,0,0,1,.64,12.61c-.19,19.06-1.33,39.66-1.26,47.23,0,4,.94,8.5,1.44,15.36.29,3.94.07,11.58.39,18.68.16,3.51.19,7,.18,10.53,0,2.82,0,5.63-.1,8.44q0,2-.09,4c0,.64,0,1.27,0,1.9,0,.33.15,1.38-.06,1.61a.37.37,0,0,1-.12.07c-1,.4-.69-1.33-.68-1.8l.06-2.7c0-1.94.07-3.89.1-5.84.08-5.38.12-10.76,0-16.14-.16-7.21-.07-14.68-.38-18.62-.55-7.27-1.42-11.38-1.46-15.51-.07-7.57,1.07-28.18,1.26-47.24a98.06,98.06,0,0,0-.6-12.21H406a12.91,12.91,0,0,1-9.24-4.26c-3.64-4.1-4.29-7.79-5.19-12.89-.24-1.37-.49-2.79-.82-4.36A.37.37,0,0,1,391.06,212.23Z" style="fill:#455a64"></path><path d="M412,346.87c-2.79,2.73-14.13,4.12-18.4,1.73l1.85,6.76a15.73,15.73,0,0,0,8.36,1.18c6.25-.58,7.72-2.61,7.72-2.61Z" style="fill:#455a64"></path><path d="M371.42,344.9c-3.7,1.27-14,1.28-18-1.94l.46,6.35s1.49,1.95,7.95,2.49c6.24.51,8.71-1.07,8.71-1.07Z" style="fill:#455a64"></path><path d="M379,263.39l-4-33.45a20,20,0,0,1-16.26-8.15s-.27,8.37,13,12.21l4.85,30.84-.29,28.8Z" style="fill:#263238"></path></g><g id="freepik--Top--inject-21"><g id="freepik--arm-umbrella--inject-21"><path d="M319.91,206.05s14.73-4.68,20.72-6.69c8.06-2.69,8.82-2.66,12.55-8.94,4.15-7,9.73-16.56,9.73-16.56s3.25-32.83.6-32.17c-3.86,1-9.72,2.22-13.35,10.29-5.13,11.41-11.89,28.82-11.89,28.82l-16.7,9.46Z" style="fill:#95E1D3"></path><path d="M319.91,206.05s14.73-4.68,20.72-6.69c8.06-2.69,8.82-2.66,12.55-8.94,4.15-7,9.73-16.56,9.73-16.56s3.25-32.83.6-32.17c-3.86,1-9.72,2.22-13.35,10.29-5.13,11.41-11.89,28.82-11.89,28.82l-16.7,9.46Z" style="opacity:0.25"></path><path d="M347.5,182s-1.1-4-8.36-3.46l-.87,2.23A10.21,10.21,0,0,1,347.5,182Z" style="opacity:0.1"></path><path d="M322.66,200.8c1.41-1.73,2-4.34,2.93-6.38s2.87-3.35,2.46-4.39-2.15-1.84-4.08-.74-5.56,9-5.56,9Z" style="fill:#f28f8f"></path><path d="M321.33,182.47,316,197.42c-1.84,5-6.42,7.23-10.23,5.88s-3.53-7.32-2.61-9.87a2.59,2.59,0,0,0-4.88-1.72c-1.84,3.43-3.4,13.85,6.06,17.27a13.47,13.47,0,0,0,13.44-2.79,12.52,12.52,0,0,0,3.44-5.47L327,184.5Z" style="fill:#95E1D3"></path><path d="M268.58,56.65c8.94,2.15,17.21,10.17,21.59,18.47,18.46-.07,41.25,7.28,62.28,19.19l19.17-62.2C336.74,23.83,302.27,28,268.58,56.65Z" style="fill:#37474f"></path><path d="M443,110.39c-8.59-3.25-20-1.28-28.23,3.11-15.22-10.44-38.2-17.2-62.29-19.19l19.17-62.2C405.11,44.9,431.24,67.78,443,110.39Z" style="fill:#37474f"></path><path d="M290.17,75.11c18.45-.06,41.26,7.29,62.28,19.2l19.17-62.19C347.38,29.75,312.19,45.69,290.17,75.11Z" style="opacity:0.35000000000000003"></path><path d="M268.58,56.65c33.69-28.61,68.16-32.82,103-24.54-24.24-2.36-59.43,13.58-81.45,43C285.79,66.82,277.52,58.8,268.58,56.65Z" style="opacity:0.25"></path><path d="M414.74,113.5c-15.22-10.44-38.2-17.2-62.29-19.19l19.17-62.19C393,43.8,413.1,76.79,414.74,113.5Z" style="opacity:0.45"></path><path d="M443,110.39c-11.73-42.61-37.86-65.49-71.35-78.28C393,43.8,413.1,76.79,414.74,113.5,423,109.11,434.38,107.14,443,110.39Z" style="opacity:0.55"></path><path d="M368,44.35l.43,0,.51.06a3.45,3.45,0,0,0,.45,0c.66,0,.5-.33.65-.65l.83-2.79c.68-2.32,1.53-5.42,2.28-8.56.39-1.56.74-3.14,1-4.62.15-.74.31-1.46.43-2.14s.25-1.33.36-1.93.18-1.15.27-1.64.14-.92.18-1.27c.1-.71.14-1.11.14-1.11s-.19.36-.51,1c-.16.31-.35.7-.56,1.15s-.46.95-.7,1.51L373,25.21c-.29.63-.55,1.32-.85,2-.58,1.4-1.18,2.9-1.75,4.41-1.14,3-2.18,6.06-2.93,8.35-.36,1.15-.67,2.11-.88,2.78,0,.35-.38.54.17.91l.38.24.46.24Z" style="fill:#e0e0e0"></path><path d="M322.47,181.69a4.73,4.73,0,0,1,4.09,1.24c.93,1,.61,2-.72,2.35a4.68,4.68,0,0,1-4.08-1.23A1.3,1.3,0,0,1,322.47,181.69Z" style="fill:#95E1D3"></path><g style="opacity:0.25"><path d="M322.47,181.69a4.73,4.73,0,0,1,4.09,1.24c.93,1,.61,2-.72,2.35a4.68,4.68,0,0,1-4.08-1.23A1.3,1.3,0,0,1,322.47,181.69Z"></path></g><path d="M322.68,182.94,361.91,55.08a1.68,1.68,0,0,1,3.21,1L325.89,183.93C325,184.58,322.87,183.88,322.68,182.94Z" style="fill:#e0e0e0"></path><path d="M361,66.61a96.47,96.47,0,0,1,51.57,22.81c15.75,3.51,25.21,10.92,30.41,21-10.22-43.26-39.07-68.33-71.35-78.28s-70.24-5.47-103,24.54c10-5.38,21.95-6.18,36.95-.22A96.54,96.54,0,0,1,361,66.61Z" style="fill:#455a64"></path><path d="M305.52,56.43A96.47,96.47,0,0,1,361,66.61l10.63-34.49C334.74,20.75,305.52,56.43,305.52,56.43Z" style="opacity:0.15"></path><path d="M412.56,89.42A96.43,96.43,0,0,0,361,66.61l10.63-34.49C408.5,43.48,412.56,89.42,412.56,89.42Z" style="opacity:0.2"></path><path d="M443,110.39c-10.22-43.26-39.07-68.33-71.35-78.28,36.87,11.37,40.94,57.31,40.94,57.31C428.31,92.93,437.77,100.34,443,110.39Z" style="opacity:0.25"></path><path d="M323.91,200.65a3.7,3.7,0,0,0-1.78-1.54,7.89,7.89,0,0,0-2.21-.29,4.25,4.25,0,0,1-1.85-.74l0,0a3,3,0,0,1-1-3.46l1.39-3.86s-7.46.56-8.14,2.16-2,7.13-1.7,9.11,1.14,4.9,2.71,5.88a12.2,12.2,0,0,0,3.22,1.53,7.16,7.16,0,0,0,3.84.1,2.87,2.87,0,0,0,1-.49,1.58,1.58,0,0,0,.56-1c0-.05,0-.11,0-.13a.15.15,0,0,1,.09,0,4.11,4.11,0,0,0,1.67-.28,1.49,1.49,0,0,0,.54-.4,1.19,1.19,0,0,0,.23-.9,1.32,1.32,0,0,0-.35-.66c-.1-.11-.34-.45-.5-.45a2.91,2.91,0,0,0,1.06-.11,1.19,1.19,0,0,0,.76-.74,1.33,1.33,0,0,0-.22-1.09,3.57,3.57,0,0,0-.79-.76l1.1-.3a1,1,0,0,0,.4-.18.78.78,0,0,0,.25-.67A1.76,1.76,0,0,0,323.91,200.65Z" style="fill:#ffa8a7"></path></g><path id="freepik--Hair--inject-21" d="M403.43,155.29c-2.85-13.43-5.07-21.68-5.63-34.88H362.91V130.9c-.55,3.63-4.06,8.9-6.73,10.14a11.17,11.17,0,0,0,6.73-4.11v18.36Z" style="fill:#263238"></path><g id="freepik--Chest--inject-21"><path d="M407.55,208.35s1,3.48,1.46,6.12c-3.3,3.08-14.33,8.5-34.34,6.08s-22.21-8.5-22.21-8.5l.77-7.44Z" style="fill:#95E1D3"></path><path d="M407.55,208.35s1,3.48,1.46,6.12c-3.3,3.08-14.33,8.5-34.34,6.08s-22.21-8.5-22.21-8.5l.77-7.44Z" style="opacity:0.25"></path><path d="M384.88,137.23,404.33,143c2.42.84,9.27,5.69,6.07,19.58-1.06,4.6-3.15,13.19-3.68,21.87-.29,4.7-.69,8.53,1.92,21.83a4.1,4.1,0,0,1-2,4.38C401.91,213.26,390.69,218,373,216c-12.28-1.4-17.49-5.24-19.59-7.62a5.14,5.14,0,0,1-1.27-3.55c.06-1.77.11-3.42.17-5,.25-6.88,1.46-23,1.46-23-3.51-5.46-3.56-10.79-1.63-16.36,4.49-13,11.35-18.78,11.35-18.78C368.23,140.14,384.88,137.23,384.88,137.23Z" style="fill:#95E1D3"></path></g><g id="freepik--Arm--inject-21"><path d="M388.79,222.82c.06-.33.35-.41.65-.49.61-.17,1.22-.32,1.83-.51a21.91,21.91,0,0,0,2.76-1.23,31.7,31.7,0,0,1,3.84-1.34,15.83,15.83,0,0,0,1.78-.8A5.82,5.82,0,0,0,402,216.5a15,15,0,0,0,1.41-2.5,18.89,18.89,0,0,0,.77-2.06q5.28-.47,9.29,6.17c-.37.71-.71,1.34-1,1.88-2.52,4.47-2.06,8.74-6.15,13.44a12,12,0,0,1-8.78-3.8,17.67,17.67,0,0,1-2.24-3.08c.28-.4,1.49-1.92.43-1.93-.28,0-.71,0-.92,0-.7.1-1.4.18-2.1.21a4.57,4.57,0,0,1-2.66-.36C389.44,224.17,388.65,223.65,388.79,222.82Z" style="fill:#ffa8a7"></path><path d="M406.32,233.43a11.54,11.54,0,0,1-8.78-3.8,17,17,0,0,1-2.17-2.95,12.75,12.75,0,0,0,3.86,3.06c3.1,1.72,5.12,2.2,6.5,1.76a7.92,7.92,0,0,0,3.74-3.39A17.07,17.07,0,0,1,406.32,233.43Z" style="fill:#f28f8f"></path><path d="M404.72,143.12c8.08,1.95,11.34,5.9,13.74,12.15,1.81,4.71,9.31,21.78,10.84,27.09s2.12,7.51-1.12,12.75c-4.34,7-14.67,23.65-14.67,23.65-2.69-3-6.34-5.33-9.72-5.65l8.61-25.53s-5.67-12.79-9.6-20.84S398.43,150.22,404.72,143.12Z" style="fill:#95E1D3"></path><path d="M404.72,143.12c8.08,1.95,11.34,5.9,13.74,12.15,1.81,4.71,9.31,21.78,10.84,27.09s2.12,7.51-1.12,12.75c-4.34,7-14.67,23.65-14.67,23.65-2.69-3-6.34-5.33-9.72-5.65l8.61-25.53s-5.67-12.79-9.6-20.84S398.43,150.22,404.72,143.12Z" style="opacity:0.25"></path><path d="M412.4,187.58c1.13-2.92,5.53-4.23,6.9-4.32-2.69-1.19-6.26.3-7.77,2.38Z" style="opacity:0.1"></path></g><path d="M390.49,132.58c0-1.31,3.76-5.81,5.75-9.21,5.61-9.57,6.45-20.7-1.54-23.8-2.4-7.91-8.12-11.33-20.34-10.51-7.1.48-11.59,7-15.09,11.23-3,3.62-4,11.47.29,15.32Z" style="fill:#263238"></path><path d="M419.32,110.52a4.91,4.91,0,0,1-.05.85,4.7,4.7,0,0,1-.29,1.1,3.47,3.47,0,0,1-4.52,1.88,3.77,3.77,0,0,1-2.2,2.5,4.83,4.83,0,0,1-5.49-2,3.66,3.66,0,0,1-4.27-2.07,5.41,5.41,0,0,1,.55-5,4.47,4.47,0,0,1-.32-6.16,2.49,2.49,0,0,1,2.65-.62c.75-2.23,2.87-3.61,5.16-2.56a3.88,3.88,0,0,1,2,2.2,6.21,6.21,0,0,1,1.38-.25,4.94,4.94,0,0,1,1.37.2,4,4,0,0,1,2.87,5,2.61,2.61,0,0,1-.86,1.38A4.41,4.41,0,0,1,419.32,110.52Z" style="fill:#95E1D3"></path><path d="M419.32,110.52a4.91,4.91,0,0,1-.05.85,4.7,4.7,0,0,1-.29,1.1,3.47,3.47,0,0,1-4.52,1.88,3.77,3.77,0,0,1-2.2,2.5,4.83,4.83,0,0,1-5.49-2,3.66,3.66,0,0,1-4.27-2.07,5.41,5.41,0,0,1,.55-5,4.47,4.47,0,0,1-.32-6.16,2.49,2.49,0,0,1,2.65-.62c.75-2.23,2.87-3.61,5.16-2.56a3.88,3.88,0,0,1,2,2.2,6.21,6.21,0,0,1,1.38-.25,4.94,4.94,0,0,1,1.37.2,4,4,0,0,1,2.87,5,2.61,2.61,0,0,1-.86,1.38A4.41,4.41,0,0,1,419.32,110.52Z" style="fill:#fff;opacity:0.5"></path><path d="M401.66,104.85l0,0a4.71,4.71,0,0,1,4.28-.58,3.2,3.2,0,0,1,2.07,2.58,3.79,3.79,0,0,1-.17,1.29,3.44,3.44,0,0,1-2.65,2.61,2,2,0,0,0,2.93.65,2.47,2.47,0,0,0,4.9-.34,6.56,6.56,0,0,0,1.82,1.29,3.33,3.33,0,0,0,3.79-1,3,3,0,0,0,.58-1.38,3.39,3.39,0,0,1,.07.64,4.91,4.91,0,0,1-.05.85,4.7,4.7,0,0,1-.29,1.1,3.47,3.47,0,0,1-4.52,1.88,3.77,3.77,0,0,1-2.2,2.5,4.83,4.83,0,0,1-5.49-2,3.66,3.66,0,0,1-4.27-2.07,5.41,5.41,0,0,1,.55-5A3.82,3.82,0,0,1,401.66,104.85Z" style="fill:#95E1D3;opacity:0.30000000000000004"></path><path d="M364.51,91.16c5.47-2.63,15.72-7.9,25.05-6S407.82,97.65,408,102.81s-4.46,6.25-5.46,8.78-2.39,7.1-4.57,7.61c0,0,4.17-16.59-10.86-23.44S364.51,91.16,364.51,91.16Z" style="fill:#95E1D3"></path><path d="M364.51,91.16c5.47-2.63,15.72-7.9,25.05-6S407.82,97.65,408,102.81s-4.46,6.25-5.46,8.78-2.39,7.1-4.57,7.61c0,0,4.17-16.59-10.86-23.44S364.51,91.16,364.51,91.16Z" style="opacity:0.1"></path><path d="M404.26,109.52a5.9,5.9,0,0,0-1.7,2.07c-.09.23-.18.47-.27.73l0,0c.7-3.84-.33-8.82-1.35-9.72C402.61,103.74,404.11,106.94,404.26,109.52Z" style="opacity:0.1"></path><path d="M394.66,115.62c-1.17-4.71-10.93-15-20.35-16.18-12.87-1.63-15,.85-15,.85l-1.35,2.15a8.11,8.11,0,0,1,.16-3.43c.5-1.33,3.53-7.3,6.34-8.28s13.26-1.61,23.51,4A20.53,20.53,0,0,1,398.7,117,4.76,4.76,0,0,0,394.66,115.62Z" style="fill:#95E1D3"></path><g style="opacity:0.30000000000000004"><path d="M394.66,115.62c-1.17-4.71-10.93-15-20.35-16.18-12.87-1.63-15,.85-15,.85l-1.35,2.15a8.11,8.11,0,0,1,.16-3.43c.5-1.33,3.53-7.3,6.34-8.28s13.26-1.61,23.51,4A20.53,20.53,0,0,1,398.7,117,4.76,4.76,0,0,0,394.66,115.62Z"></path></g><path d="M366.21,102.2a4,4,0,0,0-6.08,2.65c-.57,2.85-.79,7.13-.29,15,.67,10.69,3.32,12.83,5.91,14a19.49,19.49,0,0,0,8.61,1l0,4.89c-4.49,3.75,10.34,5,16,0l.21-16c.63,1.08,4.79,1.9,7.2-1.4s2.15-7.35-.57-8.85-5.72-.13-7.14,3.16c-.83,1.9-2.81,2.12-3.49-.41-.46-1.75-.12-3.6-.37-5.18-3.54-3.26-3.4-6.64-4.79-7.83-3.49-3-7.18,1.25-10.34,1.25C369.52,104.49,367.86,103.23,366.21,102.2Z" style="fill:#ffa8a7"></path><polygon points="372 112.3 371.54 122.59 366.5 121.16 372 112.3" style="fill:#f28f8f"></polygon><path d="M368.21,102.48a5.27,5.27,0,0,0,1.46,1.62A15.94,15.94,0,0,1,371,105a1.72,1.72,0,0,1,.66,1.43,3.15,3.15,0,0,1-.89,1.47,4,4,0,0,0-.95,2.43,3,3,0,0,0,1,2.35,3,3,0,0,0,2.69.73,2.06,2.06,0,0,1-1.73-2.28,4.82,4.82,0,0,1,1.3-2.11,6.63,6.63,0,0,0,1.29-2.28,3.72,3.72,0,0,0-.08-2.57,4.63,4.63,0,0,0-2.56-2.23" style="fill:#263238"></path><path d="M376.25,125.51c0,.35-.27.52-.59.52a4.52,4.52,0,0,0-1.42.09,3.55,3.55,0,0,0-1.23.65.53.53,0,0,1-.88-.31,2,2,0,0,1,.16-1,2,2,0,0,1,1.5-1.13,3,3,0,0,1,1.93.38A1.16,1.16,0,0,1,376.25,125.51Z" style="fill:#b16668"></path><path d="M374.36,134.82c7.49-1.17,11.32-2.95,13.36-9.73,0,0-.56,5.92-3,8a17.77,17.77,0,0,1-10.36,3.75Z" style="fill:#f28f8f"></path><path d="M378.92,114.87a1.84,1.84,0,0,1-2.07,1.49,1.73,1.73,0,0,1-1.48-2c.17-1,.86-1.31,1.92-.82C378.19,114,379.09,113.91,378.92,114.87Z" style="fill:#263238"></path><path d="M363.52,114.83a1.85,1.85,0,0,0,2,1.55,1.72,1.72,0,0,0,1.53-2,1.24,1.24,0,0,0-1.94-.9C364.23,114,363.38,113.86,363.52,114.83Z" style="fill:#263238"></path><path d="M365.78,108.89l-4,1.64a2.07,2.07,0,0,0,2.74,1.21A2.27,2.27,0,0,0,365.78,108.89Z" style="fill:#263238"></path><path d="M376.66,108.6l3.78,2.15a2.08,2.08,0,0,1-2.9.87A2.29,2.29,0,0,1,376.66,108.6Z" style="fill:#263238"></path></g></g></g></svg>