<svg xmlns="http://www.w3.org/2000/svg" xmlns:xlink="http://www.w3.org/1999/xlink" viewBox="0 0 500 500"><defs><clipPath id="freepik--clip-path--inject-58"><path d="M385.9,86.93c-3.27-9-11.42-12.77-18.19-8.41a15.33,15.33,0,0,0-5,5.47c-5.27-11.67-16.66-15.46-25.45-8.46a22.85,22.85,0,0,0-6.58,9h-.63a15.53,15.53,0,0,0-6.9,1.65c-3.67-11.57-11.9-19.44-21.33-20.39-4.9-13.35-17-18.89-27.06-12.38a22.9,22.9,0,0,0-7.31,8c-7.81-17.35-24.72-23-37.77-12.6a33.91,33.91,0,0,0-9.8,13.35H219c-12.12,0-23,10-27.29,25-.37-.07-.74-.14-1.11-.18-3.29-9-11.44-12.76-18.22-8.39a15.22,15.22,0,0,0-5,5.46c-5.28-11.68-16.67-15.46-25.45-8.45a23,23,0,0,0-6.58,9h-.63c-10.86,0-19.64,11.77-19.61,26.21s8.86,26.1,19.72,26.06c5.43,0,10.62-3,14.32-8.31,4.49,6.5,11.85,7.75,17.42,3,5.08,7.37,13.69,7.87,19.24,1.11.23-.29.47-.6.69-.91a13.59,13.59,0,0,0,12-3.23c11.42,15.11,29.89,15.05,41.25-.13.2-.26.4-.53.59-.81,6.66,9.65,17.59,11.51,25.87,4.4,7.55,11,20.36,11.67,28.59,1.62.35-.42.68-.86,1-1.32,6.57,1.48,13.31-.56,18.75-5.67,6.6,11.44,18.93,13.6,27.54,4.82a23.55,23.55,0,0,0,2.36-2.84c4.49,6.5,11.85,7.75,17.42,3,5.07,7.37,13.67,7.87,19.21,1.13.24-.3.48-.61.71-.93,9.23,2.14,18-6.08,19.63-18.35s-4.57-24-13.8-26.1A13.85,13.85,0,0,0,385.9,87Z" style="fill:none"></path></clipPath></defs><g id="freepik--background-simple--inject-58"><g id="freepik--background-simple--inject-348--inject-58"><path d="M108.27,340.44S148.63,395,227.6,403.19s101.42-43.65,129.15-70S442,288,447.2,223.62s-29.28-97.42-77.85-96.74S306,116.3,265.17,93.64,155.77,79.22,123,112,65.65,160.78,58.05,222.6,108.27,340.44,108.27,340.44Z" style="fill:#263238"></path><path d="M108.27,340.44S148.63,395,227.6,403.19s101.42-43.65,129.15-70S442,288,447.2,223.62s-29.28-97.42-77.85-96.74S306,116.3,265.17,93.64,155.77,79.22,123,112,65.65,160.78,58.05,222.6,108.27,340.44,108.27,340.44Z" style="fill:#fff;opacity:0.30000000000000004"></path></g></g><g id="freepik--Floor--inject-58"><line x1="387.13" y1="366.83" x2="445.16" y2="366.83" style="fill:none;stroke:#263238;strokeLinecap:round;strokeLinejoin:round"></line><line x1="81.2" y1="366.83" x2="121.22" y2="366.83" style="fill:none;stroke:#263238;strokeLinecap:round;strokeLinejoin:round"></line></g><g id="freepik--Plant--inject-58"><path d="M84.39,319.78s-1.93-8.95-12.48-8.95-22.78,6.28-22.78,6.28,11.39,3.35,17.25,5.95S81.29,326.48,84.39,319.78Z" style="fill:#FFE2E2"></path><path d="M97.26,324.19c-.1,0-6.93-4.32-5.17-10.6s10.14-14,10.81-18.76C102.9,294.83,114.08,322.06,97.26,324.19Z" style="fill:#FFE2E2"></path><path d="M114,333.63s-2.91-6.33,3.46-11.17,26.38-5.35,26.38-5.35-8.29,5.86-11.06,10.3S119.77,339.19,114,333.63Z" style="fill:#FFE2E2"></path><path d="M127.52,302.37s-2.35-6.77,7-10,19.93-2.1,25.12-4.95C159.59,287.38,140.5,315.85,127.52,302.37Z" style="fill:#FFE2E2"></path><path d="M83.41,307.12s3.36-17.92-16.3-25.2c0,0,3.34,3.53,3,10.85S69.78,308,83.41,307.12Z" style="fill:#FFE2E2"></path><path d="M84.39,319.78s-1.93-8.95-12.48-8.95-22.78,6.28-22.78,6.28,11.39,3.35,17.25,5.95S81.29,326.48,84.39,319.78Z" style="opacity:0.2"></path><path d="M97.26,324.19c-.1,0-6.93-4.32-5.17-10.6s10.14-14,10.81-18.76C102.9,294.83,114.08,322.06,97.26,324.19Z" style="opacity:0.2"></path><path d="M114,333.63s-2.91-6.33,3.46-11.17,26.38-5.35,26.38-5.35-8.29,5.86-11.06,10.3S119.77,339.19,114,333.63Z" style="opacity:0.2"></path><path d="M127.52,302.37s-2.35-6.77,7-10,19.93-2.1,25.12-4.95C159.59,287.38,140.5,315.85,127.52,302.37Z" style="opacity:0.2"></path><path d="M83.41,307.12s3.36-17.92-16.3-25.2c0,0,3.34,3.53,3,10.85S69.78,308,83.41,307.12Z" style="opacity:0.2"></path><polygon points="88.66 345.77 116.92 345.77 112.26 367.39 94.03 367.39 88.66 345.77" style="fill:#263238"></polygon><polyline points="105.85 346.68 114.88 315.7 127.1 292.33" style="fill:none;stroke:#263238;strokeLinecap:round;strokeLinejoin:round"></polyline><line x1="118.6" y1="331.1" x2="108.82" y2="336.5" style="fill:none;stroke:#263238;strokeLinecap:round;strokeLinejoin:round"></line><line x1="81.25" y1="301.71" x2="99.48" y2="346.68" style="fill:none;stroke:#263238;strokeLinecap:round;strokeLinejoin:round"></line><line x1="99.48" y1="317.11" x2="94.26" y2="333.8" style="fill:none;stroke:#263238;strokeLinecap:round;strokeLinejoin:round"></line><line x1="79.12" y1="317.11" x2="89.66" y2="322.46" style="fill:none;stroke:#263238;strokeLinecap:round;strokeLinejoin:round"></line><line x1="118.6" y1="308.58" x2="135.49" y2="299.33" style="fill:none;stroke:#263238;strokeLinecap:round;strokeLinejoin:round"></line></g><g id="freepik--Clouds--inject-58"><path d="M385.9,86.93c-3.27-9-11.42-12.77-18.19-8.41a15.33,15.33,0,0,0-5,5.47c-5.27-11.67-16.66-15.46-25.45-8.46a22.85,22.85,0,0,0-6.58,9h-.63a15.53,15.53,0,0,0-6.9,1.65c-3.67-11.57-11.9-19.44-21.33-20.39-4.9-13.35-17-18.89-27.06-12.38a22.9,22.9,0,0,0-7.31,8c-7.81-17.35-24.72-23-37.77-12.6a33.91,33.91,0,0,0-9.8,13.35H219c-12.12,0-23,10-27.29,25-.37-.07-.74-.14-1.11-.18-3.29-9-11.44-12.76-18.22-8.39a15.22,15.22,0,0,0-5,5.46c-5.28-11.68-16.67-15.46-25.45-8.45a23,23,0,0,0-6.58,9h-.63c-10.86,0-19.64,11.77-19.61,26.21s8.86,26.1,19.72,26.06c5.43,0,10.62-3,14.32-8.31,4.49,6.5,11.85,7.75,17.42,3,5.08,7.37,13.69,7.87,19.24,1.11.23-.29.47-.6.69-.91a13.59,13.59,0,0,0,12-3.23c11.42,15.11,29.89,15.05,41.25-.13.2-.26.4-.53.59-.81,6.66,9.65,17.59,11.51,25.87,4.4,7.55,11,20.36,11.67,28.59,1.62.35-.42.68-.86,1-1.32,6.57,1.48,13.31-.56,18.75-5.67,6.6,11.44,18.93,13.6,27.54,4.82a23.55,23.55,0,0,0,2.36-2.84c4.49,6.5,11.85,7.75,17.42,3,5.07,7.37,13.67,7.87,19.21,1.13.24-.3.48-.61.71-.93,9.23,2.14,18-6.08,19.63-18.35s-4.57-24-13.8-26.1A13.85,13.85,0,0,0,385.9,87Z" style="fill:#263238"></path><g style="clip-path:url(#freepik--clip-path--inject-58)"><path d="M385.9,86.93c-3.27-9-11.42-12.77-18.19-8.41a15.33,15.33,0,0,0-5,5.47c-5.27-11.67-16.66-15.46-25.45-8.46a22.85,22.85,0,0,0-6.58,9h-.63a15.53,15.53,0,0,0-6.9,1.65c-3.67-11.57-11.9-19.44-21.33-20.39-4.9-13.35-17-18.89-27.06-12.38a22.9,22.9,0,0,0-7.31,8c-7.81-17.35-24.72-23-37.77-12.6a33.91,33.91,0,0,0-9.8,13.35H219c-12.12,0-23,10-27.29,25-.37-.07-.74-.14-1.11-.18-3.29-9-11.44-12.76-18.22-8.39a15.22,15.22,0,0,0-5,5.46c-5.28-11.68-16.67-15.46-25.45-8.45a23,23,0,0,0-6.58,9h-.63c-10.86,0-19.64,11.77-19.61,26.21s8.86,26.1,19.72,26.06c5.43,0,10.62-3,14.32-8.31,4.49,6.5,11.85,7.75,17.42,3,5.08,7.37,13.69,7.87,19.24,1.11.23-.29.47-.6.69-.91a13.59,13.59,0,0,0,12-3.23c11.42,15.11,29.89,15.05,41.25-.13.2-.26.4-.53.59-.81,6.66,9.65,17.59,11.51,25.87,4.4,7.55,11,20.36,11.67,28.59,1.62.35-.42.68-.86,1-1.32,6.57,1.48,13.31-.56,18.75-5.67,6.6,11.44,18.93,13.6,27.54,4.82a23.55,23.55,0,0,0,2.36-2.84c4.49,6.5,11.85,7.75,17.42,3,5.07,7.37,13.67,7.87,19.21,1.13.24-.3.48-.61.71-.93,9.23,2.14,18-6.08,19.63-18.35s-4.57-24-13.8-26.1A13.85,13.85,0,0,0,385.9,87Z" style="fill:#fff;opacity:0.2;isolation:isolate"></path></g><polygon points="184.26 109.4 178.35 130.35 186.89 130.35 176.39 165.26 199.37 128.61 190.18 123.37 200.68 105.04 184.26 109.4" style="fill:#FFE2E2"></polygon><path d="M385.9,96.9c-3.28-9-11.43-12.76-18.2-8.4a15.51,15.51,0,0,0-5,5.48c-5.27-11.68-16.66-15.47-25.45-8.47a22.74,22.74,0,0,0-6.58,9h-.63a15.53,15.53,0,0,0-6.9,1.65c-3.67-11.57-11.9-19.44-21.33-20.39-4.9-13.35-17-18.89-27.06-12.38a22.9,22.9,0,0,0-7.31,8c-7.81-17.34-24.72-23-37.76-12.61a33.83,33.83,0,0,0-9.81,13.35H219c-12.08,0-22.89,10-27.2,25a10.73,10.73,0,0,1-1.11-.19c-3.3-9-11.45-12.75-18.23-8.38a15.48,15.48,0,0,0-5,5.46C162.19,82.3,150.79,78.52,142,85.53a22.82,22.82,0,0,0-6.57,8.94h-.63c-6.54,0-12.65,4.31-16.3,11.52,6.07,12,18.28,15.11,27.28,7.05a22.83,22.83,0,0,0,3.33-3.76c4.48,6.5,11.84,7.75,17.41,3,5.08,7.37,13.7,7.86,19.24,1.11.24-.3.47-.6.69-.91a13.61,13.61,0,0,0,12-3.23c11.43,15.1,29.91,15,41.27-.17.19-.25.38-.51.56-.77,6.67,9.64,17.59,11.49,25.87,4.39,7.55,10.94,20.34,11.68,28.58,1.65.35-.43.69-.88,1-1.34a20,20,0,0,0,4.21.46,21.18,21.18,0,0,0,14.54-6.16c6.62,11.44,18.95,13.59,27.56,4.8a21.63,21.63,0,0,0,2.34-2.82c4.49,6.5,11.85,7.75,17.42,3,5.07,7.37,13.67,7.87,19.21,1.13.25-.3.48-.61.71-.93,5.9,1.34,11.9-1.56,15.77-7.63C394.57,100.21,390.4,97.37,385.9,96.9Z" style="fill:#263238"></path><path d="M468.24,242c-3.94-2.16-5.74-.36-7.17-2.16s3.94-6.45-6.81-11.11c0,0-.72-10-15.42-10.39s-10.76,10-14.7,12.54-5-1.43-9,1.08-2.15,7.53-5.37,8.25-7.54-3.23-11.48-.72-3.94,4.66-5.73,4.66-5.39-1.43-7.54,0-4.65,3.22-4.65,3.22h90.71S472.18,244.13,468.24,242Z" style="fill:#fff;isolation:isolate"></path><path d="M468.24,242c-3.94-2.16-5.74-.36-7.17-2.16s3.94-6.45-6.81-11.11c0,0-.72-10-15.42-10.39s-10.76,10-14.7,12.54-5-1.43-9,1.08-2.15,7.53-5.37,8.25-7.54-3.23-11.48-.72-3.94,4.66-5.73,4.66-5.39-1.43-7.54,0-4.65,3.22-4.65,3.22h90.71S472.18,244.13,468.24,242Z" style="opacity:0.2;isolation:isolate"></path><path d="M122,229c-4.24-2.32-6.17-.39-7.71-2.32s4.24-6.93-7.32-11.94c0,0-.77-10.79-16.57-11.17S78.86,214.34,74.62,217,69.23,215.5,65,218.2s-2.3,8.09-5.77,8.86-8.09-3.47-12.33-.77-4.24,5-6.17,5-5.78-1.54-8.09,0-5,3.46-5,3.46H125.1S126.25,231.23,122,229Z" style="fill:#fff;isolation:isolate"></path><path d="M122,229c-4.24-2.32-6.17-.39-7.71-2.32s4.24-6.93-7.32-11.94c0,0-.77-10.79-16.57-11.17S78.86,214.34,74.62,217,69.23,215.5,65,218.2s-2.3,8.09-5.77,8.86-8.09-3.47-12.33-.77-4.24,5-6.17,5-5.78-1.54-8.09,0-5,3.46-5,3.46H125.1S126.25,231.23,122,229Z" style="opacity:0.2;isolation:isolate"></path><path d="M209.57,180.88h90.71s-2.51-1.8-4.65-3.23-5.74,0-7.54,0-1.79-2.15-5.73-4.66-8.25,1.43-11.48.72-1.43-5.74-5.37-8.25-5,1.43-9-1.08,0-12.89-14.7-12.54-15.42,10.39-15.42,10.39c-10.76,4.66-5.38,9.32-6.81,11.11s-3.23,0-7.17,2.16S209.57,180.88,209.57,180.88Z" style="fill:#fff;isolation:isolate"></path><path d="M209.57,180.88h90.71s-2.51-1.8-4.65-3.23-5.74,0-7.54,0-1.79-2.15-5.73-4.66-8.25,1.43-11.48.72-1.43-5.74-5.37-8.25-5,1.43-9-1.08,0-12.89-14.7-12.54-15.42,10.39-15.42,10.39c-10.76,4.66-5.38,9.32-6.81,11.11s-3.23,0-7.17,2.16S209.57,180.88,209.57,180.88Z" style="opacity:0.2;isolation:isolate"></path><g id="freepik--Rain--inject-256--inject-58"><line x1="146.16" y1="120.96" x2="141.78" y2="151.3" style="fill:none;stroke:#263238;strokeLinecap:round;strokeLinejoin:round"></line><line x1="193.54" y1="140.88" x2="189.16" y2="171.22" style="fill:none;stroke:#263238;strokeLinecap:round;strokeLinejoin:round"></line><line x1="135.56" y1="194.47" x2="132.74" y2="214.02" style="fill:none;stroke:#263238;strokeLinecap:round;strokeLinejoin:round"></line><line x1="160.55" y1="169.15" x2="157.73" y2="188.72" style="fill:none;stroke:#263238;strokeLinecap:round;strokeLinejoin:round"></line><line x1="128.65" y1="242.35" x2="124.27" y2="272.7" style="fill:none;stroke:#263238;strokeLinecap:round;strokeLinejoin:round"></line><line x1="336.43" y1="152.54" x2="332.05" y2="182.89" style="fill:none;stroke:#263238;strokeLinecap:round;strokeLinejoin:round"></line><line x1="147.06" y1="388.01" x2="144.62" y2="404.86" style="fill:none;stroke:#263238;strokeLinecap:round;strokeLinejoin:round"></line><line x1="324.14" y1="126.63" x2="321.72" y2="143.49" style="fill:none;stroke:#263238;strokeLinecap:round;strokeLinejoin:round"></line><line x1="155.55" y1="237.28" x2="153.11" y2="254.14" style="fill:none;stroke:#263238;strokeLinecap:round;strokeLinejoin:round"></line><line x1="255.95" y1="328.33" x2="253.52" y2="345.18" style="fill:none;stroke:#263238;strokeLinecap:round;strokeLinejoin:round"></line><line x1="204.56" y1="398.33" x2="202.14" y2="415.19" style="fill:none;stroke:#263238;strokeLinecap:round;strokeLinejoin:round"></line><line x1="327.34" y1="250.88" x2="324.91" y2="267.74" style="fill:none;stroke:#263238;strokeLinecap:round;strokeLinejoin:round"></line><line x1="350.16" y1="195.82" x2="347.72" y2="212.68" style="fill:none;stroke:#263238;strokeLinecap:round;strokeLinejoin:round"></line><line x1="110.1" y1="172.38" x2="107.67" y2="189.23" style="fill:none;stroke:#263238;strokeLinecap:round;strokeLinejoin:round"></line><line x1="294.71" y1="291.36" x2="292.28" y2="308.22" style="fill:none;stroke:#263238;strokeLinecap:round;strokeLinejoin:round"></line><line x1="334.11" y1="302.29" x2="331.68" y2="319.15" style="fill:none;stroke:#263238;strokeLinecap:round;strokeLinejoin:round"></line><line x1="306.43" y1="384.34" x2="304" y2="401.2" style="fill:none;stroke:#263238;strokeLinecap:round;strokeLinejoin:round"></line><line x1="260.79" y1="134.32" x2="258.35" y2="151.19" style="fill:none;stroke:#263238;strokeLinecap:round;strokeLinejoin:round"></line><line x1="379.7" y1="153.27" x2="377.27" y2="170.14" style="fill:none;stroke:#263238;strokeLinecap:round;strokeLinejoin:round"></line><line x1="369.48" y1="224.09" x2="367.06" y2="240.94" style="fill:none;stroke:#263238;strokeLinecap:round;strokeLinejoin:round"></line><line x1="350.89" y1="263.55" x2="348.45" y2="280.41" style="fill:none;stroke:#263238;strokeLinecap:round;strokeLinejoin:round"></line><line x1="296.26" y1="149.49" x2="293.83" y2="166.35" style="fill:none;stroke:#263238;strokeLinecap:round;strokeLinejoin:round"></line><line x1="258.38" y1="188.97" x2="255.95" y2="205.83" style="fill:none;stroke:#263238;strokeLinecap:round;strokeLinejoin:round"></line><line x1="218.32" y1="216.5" x2="215.88" y2="233.36" style="fill:none;stroke:#263238;strokeLinecap:round;strokeLinejoin:round"></line><line x1="304.63" y1="184.58" x2="302.2" y2="201.44" style="fill:none;stroke:#263238;strokeLinecap:round;strokeLinejoin:round"></line><line x1="303.24" y1="228.85" x2="300.81" y2="245.72" style="fill:none;stroke:#263238;strokeLinecap:round;strokeLinejoin:round"></line><line x1="178.89" y1="213.8" x2="176.46" y2="230.66" style="fill:none;stroke:#263238;strokeLinecap:round;strokeLinejoin:round"></line><line x1="205.78" y1="184.58" x2="203.34" y2="201.44" style="fill:none;stroke:#263238;strokeLinecap:round;strokeLinejoin:round"></line><line x1="168" y1="284.52" x2="165.57" y2="301.37" style="fill:none;stroke:#263238;strokeLinecap:round;strokeLinejoin:round"></line><line x1="210.46" y1="309.92" x2="208.04" y2="326.78" style="fill:none;stroke:#263238;strokeLinecap:round;strokeLinejoin:round"></line><line x1="357.01" y1="324.86" x2="351.96" y2="359.93" style="fill:none;stroke:#263238;strokeLinecap:round;strokeLinejoin:round"></line><line x1="398.73" y1="184.38" x2="393.67" y2="219.45" style="fill:none;stroke:#263238;strokeLinecap:round;strokeLinejoin:round"></line><line x1="191.84" y1="323.16" x2="186.79" y2="358.23" style="fill:none;stroke:#263238;strokeLinecap:round;strokeLinejoin:round"></line><line x1="141.33" y1="340.56" x2="138.9" y2="357.42" style="fill:none;stroke:#263238;strokeLinecap:round;strokeLinejoin:round"></line></g></g><g id="freepik--Character--inject-58"><path d="M282.59,455.53a224.42,224.42,0,0,0,22.71-3.06c21.86-4.14,45-11.64,60.71-28.15,18.48-19.37,22.35-50.23,12.4-74.65-7.71-18.9-24.37-34.2-44.19-39.13-13.72-3.42-28.51-2.05-41.72-7.1-20.46-7.82-32.51-29.06-51-40.81s-43-12.85-63.27-4.37-36.28,25.83-44.86,46.06S123.3,347.43,127.31,369c4.15,22.41,13.42,43.69,32.39,57.35,16.2,11.67,40.36,24.24,59.16,26.9A286.68,286.68,0,0,0,282.59,455.53Z" style="fill:#FFE2E2"></path><path d="M282.59,455.53a224.42,224.42,0,0,0,22.71-3.06c21.86-4.14,45-11.64,60.71-28.15,18.48-19.37,22.35-50.23,12.4-74.65-7.71-18.9-24.37-34.2-44.19-39.13-13.72-3.42-28.51-2.05-41.72-7.1-20.46-7.82-32.51-29.06-51-40.81s-43-12.85-63.27-4.37-36.28,25.83-44.86,46.06S123.3,347.43,127.31,369c4.15,22.41,13.42,43.69,32.39,57.35,16.2,11.67,40.36,24.24,59.16,26.9A286.68,286.68,0,0,0,282.59,455.53Z" style="fill:#fff;opacity:0.5"></path><path d="M248.56,344.63s33.88,17.88,35.19,8.72,34.15-35.59,34.15-35.59c-15.23,20.18-5.82,44.81-5.82,44.81,21.63-13.74,40.62-12.18,40.62-12.18-23.28,6-47.22,33.8-47.22,33.8L259.41,399S205.8,394.54,200.3,367s-38.08-59.25-38.08-59.25l25.67,17.85c12.19-10.2-1.5-37.28-1.5-37.28,23.13,8.1,26,33.93,26,33.93Z" style="opacity:0.1"></path><path d="M151.68,303.84s43.74,10.87,56.83,57.46" style="fill:none;stroke:#2e353a;strokeLinecap:round;strokeLinejoin:round;strokeWidth:2px"></path><path d="M180.1,284.55s30.79,12,21.78,60.08" style="fill:none;stroke:#2e353a;strokeLinecap:round;strokeLinejoin:round;strokeWidth:2px"></path><path d="M292.77,379s28.51-33.63,68.84-28" style="fill:none;stroke:#2e353a;strokeLinecap:round;strokeLinejoin:round;strokeWidth:2px"></path><path d="M293.78,366.83s4.29-46.56,35.87-54.43" style="fill:none;stroke:#2e353a;strokeLinecap:round;strokeLinejoin:round;strokeWidth:2px"></path><path d="M234.12,355.31s-11,.33-27.06-3.25-29.18-1-31.67,13,38.44,28.26,66.91,33.47,57,7.46,70.84,2,13.52-25.34,8.18-34.44-23.13-10.39-32.39-9S234.12,355.31,234.12,355.31Z" style="fill:#263238"></path><path d="M290.08,404.15c-16.37,0-35.37-2.87-47.88-5.16-28.67-5.23-69.9-19.66-67.35-34,1-5.37,3.54-9.36,7.64-11.83,5.58-3.39,14.13-3.9,24.7-1.56,15.75,3.51,26.8,3.24,26.91,3.23h0c.46,0,45.61,2.92,54.69,1.64,8.28-1.17,27.22-.41,32.95,9.34,3.33,5.68,5,15.87,1.77,24.37a18,18,0,0,1-10.21,10.72C307.43,403.26,299.15,404.15,290.08,404.15Zm-94.79-53c-4.95,0-9.08,1-12.21,2.83-3.85,2.33-6.26,6.09-7.17,11.18-2.34,13.13,37.12,27.54,66.5,32.91,19.32,3.53,54.19,8.47,70.48,1.95a17,17,0,0,0,9.61-10.15c3.1-8.16,1.44-18.26-1.7-23.61-5.46-9.29-23.82-10-31.83-8.85-9.18,1.3-52.71-1.47-54.91-1.61a124.46,124.46,0,0,1-27.18-3.26A53.7,53.7,0,0,0,195.29,351.14Z" style="fill:#263238"></path><path d="M301.88,266.1c-.44-2.71-.8-5.53-1.17-8.26a122.47,122.47,0,0,0-3.33-18.27c-1.86-7.38-4.87-14.86-12.35-18.92a30.38,30.38,0,0,0-28.8.23,26,26,0,0,0-11,12.28c-2.32,5.49-.49,11.93-.23,17.68a74.73,74.73,0,0,1-2.56,22.65c10.51,5.78,37.89,17.56,60.53-1Z" style="fill:#263238"></path><path d="M267.31,274.76s-17.62,2.19-25.9,4.14-11.21,4.72-14.19,9.87-7.41,24.3-11.68,32.34-12,10.17-13.37,18.69,6.14,11.45,11.75,12.43a109.74,109.74,0,0,0,12.54,1.22s9.08,19.49,26.7,20.95,30.7-9.75,38.71-13.89,8.54-13.64,8.81-24.6,7.37-35.62,5.5-42.44-4.67-7.94-16.8-13.64C284.19,277.42,274.78,274.27,267.31,274.76Z" style="fill:#fff"></path><path d="M298.79,285.17s-5.5,6.18-5.86,12.52-1.05,42.08-1.05,42.08-8.4-23.66-11.73-28.21c0,0,8.77-16.27,9-31.31A20.82,20.82,0,0,1,298.79,285.17Z" style="fill:#FFE2E2"></path><path d="M256.33,375a28.53,28.53,0,0,1-3.2-.12c-16.56-1.38-25.79-18.52-27-21a110,110,0,0,1-12.29-1.21c-5.17-.9-13.61-3.78-12.18-13,.8-5.07,3.79-8,6.95-11a30.92,30.92,0,0,0,6.47-7.86c2.26-4.26,4.62-11.82,6.72-18.51,1.83-5.85,3.57-11.43,5-13.86,2.94-5.11,6-8.07,14.55-10.09,8.2-1.95,25.77-4.13,25.95-4.15h0c7.33-.49,16.64,2.48,22.36,5.15l1.06.49c11.14,5.21,14.14,6.61,16,13.44,1.07,4-.7,13.39-2.59,23.39-1.37,7.14-2.77,14.52-2.89,19.22-.24,10.11-.5,20.58-9.07,25-1.62.83-3.4,1.95-5.47,3.21C279.14,368.79,269,375,256.33,375Zm11-99.77c-.64.08-17.78,2.24-25.81,4.13-8.21,1.95-11,4.64-13.88,9.59-1.35,2.34-3.06,7.84-4.89,13.64-2.14,6.71-4.47,14.32-6.78,18.66a32.19,32.19,0,0,1-6.65,8.11c-3.21,3.07-5.93,5.71-6.67,10.47-1.25,8,5.46,10.86,11.31,11.88a108.51,108.51,0,0,0,12.47,1.21.54.54,0,0,1,.47.29c.09.2,9.17,19.24,26.25,20.66,13.88,1.15,24.85-5.63,32.87-10.57,2.14-1.3,3.89-2.41,5.53-3.26,7.48-3.89,8.26-12.46,8.54-24.18.12-4.77,1.53-12.19,2.9-19.37,1.79-9.42,3.65-19.16,2.61-22.94-1.75-6.41-4.38-7.63-15.45-12.81l-1.07-.5C283.59,277.67,274.5,274.78,267.36,275.24Z" style="fill:#263238"></path><path d="M230.73,343.7a.34.34,0,0,1-.2,0,.46.46,0,0,1-.29-.62h0c.06-.12,5.34-12.13,5.34-15.41,0-2.3-1.15-4.63-2.49-7.33-.58-1.17-1.18-2.38-1.75-3.7-1.84-4.34,2.35-11.14,2.93-12,.26-1.77,3.13-21.33,5.9-25a.56.56,0,0,1,.73-.12h0a.47.47,0,0,1,.14.68c-2.69,3.54-5.71,24.45-5.73,24.65a.64.64,0,0,1-.08.19c0,.07-4.64,7.16-2.89,11.27.54,1.29,1.14,2.49,1.72,3.66,1.38,2.79,2.58,5.22,2.58,7.72,0,3.46-5.16,15.27-5.34,15.77A.52.52,0,0,1,230.73,343.7Z" style="fill:#263238"></path><path d="M226.46,347.11s6.36,3.44,11.12,4.41" style="fill:#fff"></path><path d="M232.87,354.42a22.73,22.73,0,0,0,6.29,1.19" style="fill:#fff"></path><path d="M227.27,349.59a34.25,34.25,0,0,0,11.1,4.58" style="fill:#fff"></path><path d="M257.84,271.86s-2.39,12.67-2.63,20.47,6.2,15.68,15.27,5.66,7.64-26.57,7.64-26.57A27.44,27.44,0,0,1,257.84,271.86Z" style="fill:#fff"></path><polygon points="259.17 284.77 259.08 277.29 257 276.08 251.93 276.62 251.07 279.61 259.17 284.77" style="fill:#FFE2E2"></polygon><path d="M258.31,288.25h-.09a.49.49,0,0,1-.44-.56h0c.7-3.61.24-10.27.24-10.34a.5.5,0,0,1,.48-.52h0a.54.54,0,0,1,.57.46c0,.27.48,6.82-.25,10.57A.49.49,0,0,1,258.31,288.25Z" style="fill:#263238"></path><path d="M204.92,398.89s-5.33,2.6-15.3,2.92-18.15-4.55-13.53-8.45a23.94,23.94,0,0,1,18.16-5.19c6.4,1,16,3.24,16,3.24Z" style="fill:#fff"></path><path d="M188.69,402.27c-6.67,0-12.81-2.27-14.18-5.34a3.26,3.26,0,0,1,1.22-4,24.42,24.42,0,0,1,18.61-5.32c6.41,1,16,3.24,16,3.26a.53.53,0,0,1,.36.29.43.43,0,0,1-.05.45l-5.34,7.46a.52.52,0,0,1-.19.17c-.23.1-5.57,2.66-15.54,3Zm2.5-13.89a23.56,23.56,0,0,0-14.73,5.29,2.33,2.33,0,0,0-1,2.93c1.06,2.45,6.81,5,14.09,4.71,8.92-.29,14.13-2.44,15-2.81l4.85-6.82c-2.35-.54-9.94-2.26-15.25-3.07A19.57,19.57,0,0,0,191.19,388.38Zm13.73,10.51" style="fill:#263238"></path><path d="M206.36,390.72c.48,0,1,.08,1.5.1-3.27-.74-9.19-2-13.61-2.7a24,24,0,0,0-18.16,5.19c-2.35,1.95-1.37,4.23,1.45,5.91a6.22,6.22,0,0,1,4.28-6.55C187.84,390.12,200.3,390.12,206.36,390.72Z" style="fill:#fff"></path><path d="M177.54,399.71a.65.65,0,0,1-.28-.08c-1.85-1.09-2.89-2.37-3-3.69a3.53,3.53,0,0,1,1.48-3,24.42,24.42,0,0,1,18.61-5.32c4.42.67,10.46,1.95,13.65,2.7a.51.51,0,0,1,.41.55.58.58,0,0,1-.56.42,12.85,12.85,0,0,1-1.55-.11h0c-6.41-.68-18.54-.56-24.27,1.95a5.69,5.69,0,0,0-3.94,6.06.48.48,0,0,1-.26.47A.65.65,0,0,1,177.54,399.71Zm13.65-11.33a23.56,23.56,0,0,0-14.73,5.29,2.62,2.62,0,0,0-1.15,2.2,3.73,3.73,0,0,0,1.68,2.37,6.71,6.71,0,0,1,4.57-6c4.95-2.13,13.58-2.5,19.79-2.32-2.44-.49-5-1-7.19-1.31A19.6,19.6,0,0,0,191.19,388.38Z" style="fill:#263238"></path><path d="M316.35,371.88S305.67,386.49,295,392.34s-59.45,6.55-69.41,6.55H204.92v-6.82s32.76-4.27,50.91-13.65,27.76-19.81,42-24,26.69,2.93,26.34,20.47" style="fill:#263238"></path><path d="M225.58,399.33H204.92a.51.51,0,0,1-.53-.49V392a.5.5,0,0,1,.46-.48c.33,0,32.86-4.33,50.71-13.58a189.08,189.08,0,0,0,19.3-11.84c7.76-5.25,14.47-9.75,22.81-12.24,7.15-2.13,13.83-1.45,18.8,1.95,5.48,3.7,8.41,10.45,8.24,19a.5.5,0,0,1-.5.48h0a.5.5,0,0,1-.52-.49h0c.17-8.23-2.61-14.7-7.81-18.22-4.69-3.16-11-3.8-17.83-1.77-8.17,2.43-14.81,6.91-22.51,12.1a189,189,0,0,1-19.39,11.89c-16.88,8.77-46.58,13.09-50.64,13.65v5.91h20.12c.56,0,57.52-.07,69.13-6.43,10.45-5.72,21.08-20.16,21.19-20.31a.57.57,0,0,1,.73-.14.45.45,0,0,1,.16.66v0c-.1.14-10.86,14.77-21.53,20.61C283.4,399.25,226.15,399.33,225.58,399.33Z" style="fill:#263238"></path><path d="M198.62,358l-1.17-.11" style="fill:#263238"></path><path d="M198.62,358.51h-.05l-1.16-.1a.51.51,0,0,1-.49-.53.54.54,0,0,1,.57-.45l1.2.11a.49.49,0,1,1-.07,1Z" style="fill:#263238"></path><path d="M298.9,400.13a107.23,107.23,0,0,1,16.38-3.89c7.47-1,13.52,0,15.65,4.23s.72,9.41-6.76,10.72-21-1.31-22.42-1.31a11.4,11.4,0,0,1-3.56-1Z" style="fill:#fff"></path><path d="M319.12,412a113.19,113.19,0,0,1-14.84-1.34c-1.26-.18-2.25-.32-2.53-.32a12,12,0,0,1-3.8-1,.45.45,0,0,1-.29-.47l.7-8.77a.52.52,0,0,1,.35-.42,107.72,107.72,0,0,1,16.49-3.9c8.55-1.12,14.16.44,16.22,4.5a7.44,7.44,0,0,1,.1,7.08c-.87,1.55-2.83,3.55-7.25,4.32A30.57,30.57,0,0,1,319.12,412Zm-20.37-3.4a9.63,9.63,0,0,0,3,.78c.9.07,1.8.18,2.69.33,4.53.65,13.94,1.95,19.64,1,3.2-.56,5.4-1.87,6.49-3.81a6.56,6.56,0,0,0-.12-6.23c-2.32-4.59-9.49-4.68-15.1-3.95a105.29,105.29,0,0,0-15.94,3.78Z" style="fill:#263238"></path><path d="M322.31,396c2.28.8,6.57,3,5.78,8.05-1.07,6.82-10,6.82-16,6.82a5.91,5.91,0,0,0-1.32.18c4.48.48,9.71.8,13.42.16,7.48-1.31,8.9-6.5,6.76-10.72C329.51,397.68,326.42,396.32,322.31,396Z" style="fill:#fff"></path><path d="M319.11,412a78.8,78.8,0,0,1-8.42-.52.5.5,0,0,1-.47-.45.51.51,0,0,1,.39-.51,6,6,0,0,1,1.46-.18c6.11,0,14.48,0,15.49-6.41.72-4.62-3.1-6.7-5.44-7.53a.5.5,0,0,1-.33-.56.52.52,0,0,1,.57-.37c4.6.37,7.65,1.95,9.06,4.76a7.46,7.46,0,0,1,.1,7.09c-.87,1.55-2.83,3.54-7.25,4.31A29.66,29.66,0,0,1,319.11,412Zm-.11-1a33.19,33.19,0,0,0,5.08-.35c3.2-.56,5.4-1.87,6.49-3.81a6.56,6.56,0,0,0-.12-6.23,7.47,7.47,0,0,0-5-3.67,6.91,6.91,0,0,1,3.21,7.1C327.87,408.88,323.6,410.5,319,411.06Z" style="fill:#263238"></path><path d="M194.61,350.77s-12.11-1.95-19.94,3.56-6.76,11.38.72,19.83,26.69,23.38,68.34,30.2,54.46,4.55,54.46,4.55l.71-8.78a90.23,90.23,0,0,1-49.83-14.61c-23.31-15.59-33.7-25.84-50.45-27.5" style="fill:#263238"></path><path d="M291,409.77c-7.72,0-22.29-.83-47.33-4.93-44.09-7.22-62.7-23.65-68.66-30.38-4.73-5.34-6.63-9.31-6.17-12.89.35-2.74,2.13-5.24,5.54-7.62,7.94-5.59,19.85-3.75,20.35-3.66a.48.48,0,0,1,.45.52v0a.53.53,0,0,1-.61.4h0c-.11,0-12-1.85-19.51,3.47-3.14,2.22-4.82,4.5-5.14,7-.42,3.25,1.47,7.11,5.94,12.15,5.88,6.65,24.28,22.87,68,30.05,37.1,6.07,51.39,4.87,53.87,4.6l.63-7.85a92.06,92.06,0,0,1-49.57-14.72c-5.28-3.53-9.95-6.82-14.07-9.75-14-9.88-23.31-16.42-36.11-17.69a.5.5,0,0,1-.47-.55.52.52,0,0,1,.59-.43c13.1,1.31,22.42,7.9,36.64,17.89,4.12,2.93,8.79,6.19,14,9.75a90.61,90.61,0,0,0,49.5,14.52.53.53,0,0,1,.4.14.48.48,0,0,1,.15.38l-.7,8.77a.53.53,0,0,1-.44.44A46.06,46.06,0,0,1,291,409.77Z" style="fill:#263238"></path><path d="M190.16,359.05a.53.53,0,0,1-.53-.4.48.48,0,0,1,.41-.56h0a31.48,31.48,0,0,1,3.89-.43.52.52,0,0,1,.56.47.5.5,0,0,1-.51.5h0a31.38,31.38,0,0,0-3.75.41Z" style="fill:#fff"></path><path d="M293.5,258.32c-6.55,3.16-7.47-3.18-7.42-7a.31.31,0,0,0,.14-.16c.47-1.76,0-10.51-5.52-14-4.87-3.09-11.32-5.75-17.34-5.76A13,13,0,0,0,253.07,237c-2.7,3.73-2.47,8.06-2.69,12.36s-.67,9.07.27,13.38c1.26,5.75,7.14,17.83,14.29,17.83,6.48,0,18-8.85,21.94-14.07a7.15,7.15,0,0,0,2.43-1.27C290.78,264.07,293.72,262.16,293.5,258.32Z" style="fill:#fff"></path><path d="M264.94,281c-7.7,0-13.64-12.85-14.81-18.22-.84-3.81-.6-7.85-.38-11.77l.1-1.72.06-1.71c.15-3.71.29-7.55,2.73-10.91a13.48,13.48,0,0,1,10.68-5.84h0c5.33,0,11.8,2.14,17.64,5.84s6.25,12.67,5.73,14.53a.55.55,0,0,1-.12.24c0,2.15.33,5.73,2.33,6.82q1.61.87,4.27-.45a.59.59,0,0,1,.52,0,.47.47,0,0,1,.26.4c.22,3.78-2.44,5.85-4,7l-.36.26a7.44,7.44,0,0,1-2.43,1.32C283.39,271.84,271.93,281,264.94,281Zm-1.64-49.17a12.43,12.43,0,0,0-9.82,5.38c-2.26,3.13-2.39,6.67-2.54,10.41l-.07,1.72-.09,1.72c-.23,3.9-.46,7.79.35,11.54,1.34,6.08,7.24,17.43,13.77,17.43,6.07,0,17.36-8.38,21.5-13.86a.53.53,0,0,1,.28-.18,6.37,6.37,0,0,0,2.23-1.18l.36-.28c1.41-1.07,3.49-2.66,3.66-5.47a5.29,5.29,0,0,1-4.58.08c-2.37-1.32-2.86-5-2.84-7.86a.47.47,0,0,1,.18-.36c.43-1.63-.14-10.11-5.34-13.42-5.66-3.59-11.88-5.66-17-5.67Z" style="fill:#263238"></path><path d="M247.71,253.06a.6.6,0,0,1-.42-.2.46.46,0,0,1,.1-.68l2.52-1.73a.58.58,0,0,1,.75.1.47.47,0,0,1-.11.68L248,253A.58.58,0,0,1,247.71,253.06Z" style="fill:#263238"></path><path d="M256,234.3s7.47-4.15,10.08-.22,14.58,30.1,27.43,24.24-.09-25.11-12.57-31.24S258,226.2,256,234.3Z" style="fill:#263238"></path><path d="M289.68,259.66c-9.87,0-18.48-15.43-22.42-22.51-.71-1.26-1.27-2.27-1.64-2.81a3.12,3.12,0,0,0-2-1.35c-3-.66-7.26,1.71-7.3,1.73a.58.58,0,0,1-.74-.16.46.46,0,0,1-.06-.36,13.12,13.12,0,0,1,7.94-9c5.19-2.18,11.5-1.68,17.78,1.41,8.69,4.28,18.32,15.41,18.16,23.94a8.75,8.75,0,0,1-5.61,8.17A9.6,9.6,0,0,1,289.68,259.66ZM262.44,231.9a6.49,6.49,0,0,1,1.39.14,4.18,4.18,0,0,1,2.69,1.79c.38.57,1,1.59,1.68,2.92,4.34,7.8,14.51,26,25.07,21.17a7.78,7.78,0,0,0,5-7.3c.14-8.19-9.18-18.93-17.6-23.08-6-2.92-12-3.42-16.83-1.37a12.35,12.35,0,0,0-7,7.2A14.86,14.86,0,0,1,262.44,231.9Z" style="fill:#263238"></path><path d="M284,332.62a31.13,31.13,0,0,1-21.76-9.36.47.47,0,0,1,.19-.68.57.57,0,0,1,.65.06,29.92,29.92,0,0,0,20.92,9,.49.49,0,1,1,0,1Z" style="fill:#263238"></path><path d="M259.47,255.94a7,7,0,0,1-4.83-1.78.6.6,0,0,1,0-.92.75.75,0,0,1,1,0c2.93,2.67,7,.72,7.18.64a.77.77,0,0,1,1,.26.63.63,0,0,1-.29.89A9.56,9.56,0,0,1,259.47,255.94Z" style="fill:#2e353a"></path><path d="M274.93,257.12a8.13,8.13,0,0,1-4.43-1.42.62.62,0,0,1-.12-.92.77.77,0,0,1,1-.12c.16.11,3.73,2.57,6.57,0a.78.78,0,0,1,1,0,.62.62,0,0,1,0,.93A5.79,5.79,0,0,1,274.93,257.12Z" style="fill:#2e353a"></path><path d="M266.8,265.91a4.91,4.91,0,0,1-3.43-1.49.63.63,0,0,1,0-.93.78.78,0,0,1,1,0c1.78,1.71,3.34.92,3.51.82a.77.77,0,0,1,1,.22.62.62,0,0,1-.22.9A3.93,3.93,0,0,1,266.8,265.91Z" style="fill:#2e353a"></path><path d="M207.86,391.48a.71.71,0,0,1-.71-.56.67.67,0,0,1,.6-.75c.27,0,26.83-3.79,40.93-9.85,10.45-4.49,21.83-11.87,29.36-16.75,2.8-1.81,5.21-3.38,6.89-4.35a.76.76,0,0,1,1,.2.64.64,0,0,1-.22.91c-1.65.95-4,2.51-6.83,4.31-7.58,4.91-19,12.33-29.58,16.87-14.3,6.14-41.06,9.92-41.33,10Z" style="fill:#fff"></path><path d="M244.1,383a.87.87,0,0,1-.32-.06c-5.62-2.56-10.05-6.52-14.35-10.35-1.1-1-2.21-2-3.33-2.94a40.23,40.23,0,0,0-26.89-9.21.72.72,0,0,1-.74-.64.7.7,0,0,1,.7-.68,41.8,41.8,0,0,1,27.91,9.58c1.14,1,2.25,2,3.36,2.95,4.21,3.76,8.57,7.65,14,10.11a.63.63,0,0,1,.32.88A.72.72,0,0,1,244.1,383Z" style="fill:#fff"></path><path d="M257.18,249.93a.71.71,0,0,1-.71-.6.68.68,0,0,1,.64-.72,11.89,11.89,0,0,0,6.08-2.34.77.77,0,0,1,1,.08.61.61,0,0,1-.09.92,13.37,13.37,0,0,1-6.86,2.65Z" style="fill:#2e353a"></path><path d="M278.72,250.77h-.13c-.69-.12-1.38-.18-2.11-.25s-1.48-.13-2.22-.26a7.33,7.33,0,0,1-4.23-2,.62.62,0,0,1,.08-.93.78.78,0,0,1,1,.07,5.9,5.9,0,0,0,3.41,1.54c.68.12,1.36.18,2.09.24s1.48.14,2.23.26a.67.67,0,0,1,.58.77A.71.71,0,0,1,278.72,250.77Z" style="fill:#2e353a"></path><path d="M272.31,271.5h-.14a26.3,26.3,0,0,0-8.85-.09.71.71,0,0,1-.83-.53.66.66,0,0,1,.58-.76,27.87,27.87,0,0,1,9.38.09.67.67,0,0,1,.57.78A.71.71,0,0,1,272.31,271.5Z" style="fill:#2e353a"></path><path d="M267.47,317.06a23.41,23.41,0,0,1-5.49-.68,16.39,16.39,0,0,1-10.89-7.69c-6.84-11.7.52-31.25.84-32.07a.73.73,0,0,1,.91-.41.65.65,0,0,1,.45.84c-.08.2-7.47,19.83-.92,31a15,15,0,0,0,10,7c5.5,1.31,10.24.59,14.1-2.12,11.76-8.28,11.95-32.49,11.95-32.74a.73.73,0,0,1,1.45,0c0,1-.2,25.1-12.52,33.77A16.73,16.73,0,0,1,267.47,317.06Z" style="fill:#263238"></path><path d="M291.76,344.06s-4.65-42.81-44.08-66.62c0,0,.92-10.87-2.56-11.86s-10,9.32-10,9.32S206,287.67,193.4,308.49c0,0-5.43-3.11-7.78.76-2.75,4.51,8.49,9.4,8.49,9.4s3.81,24.83,32,35.73" style="fill:#fff"></path><path d="M226.1,355a.92.92,0,0,1-.28-.05c-26.41-10.22-31.74-32.82-32.35-35.9-1.53-.71-7.58-3.68-8.79-7.13a3.41,3.41,0,0,1,.31-3,4.48,4.48,0,0,1,2.91-2.14,8.62,8.62,0,0,1,5.22.81c12.16-19.52,38.86-32,41.45-33.21,1.37-2.12,7-10.5,10.76-9.44s3.28,9.6,3.09,12.16c39,23.75,44,66.45,44.05,66.88a.67.67,0,0,1-.64.72.71.71,0,0,1-.79-.59c0-.42-5.08-42.77-43.76-66.13a.63.63,0,0,1-.32-.6c.36-4.3,0-10.61-2.06-11.18s-6.59,4.93-9.19,9a.72.72,0,0,1-.31.26c-.29.13-29.05,12.93-41.37,33.32a.7.7,0,0,1-.45.31.78.78,0,0,1-.56-.07s-2.64-1.49-4.77-1a3.08,3.08,0,0,0-2,1.49,2.2,2.2,0,0,0-.19,2c1.16,3.33,8.29,6.46,8.36,6.49a.71.71,0,0,1,.41.5c0,.25,5.13,25,32.59,35.62.36.14,0,.35-.15.68S226.38,355,226.1,355Z" style="fill:#2e353a"></path><path d="M292.4,312l-.53,27.77s-15.75,8-24.56,10.24a63.23,63.23,0,0,1-14.95,2.19c-.8,0-4.27-5.12-6.14-6.82s-3.38-1.74-6.79-3.3c-4.77-2.17-6.83-2.55-6.56-1.57s.53,1.94,2.94,3.16,4,2.2,4,2.2l.54,1s-5.88-.73-8.28-1.22-8.54-4.38-8.54-4.38-2.62-.15-.75,2.77,3.68,3.07,3.68,3.07a8.61,8.61,0,0,0,2.67,4.63,39.71,39.71,0,0,0,3.74,2.68s-5.07-1.22-4.54,0,3.74,1.71,7.74,3.41,13.09,1.95,18.16,2.68A139.22,139.22,0,0,0,282,361c10.68-1,26.7-7.55,29.64-9.75s1.06-26.79.26-32.4-2.4-16.08-3.47-21-5.34-11.69-8-13.15S292.94,287.91,292.4,312Z" style="fill:#fff"></path><path d="M291.85,312.06h0c.35-15.73,2.68-25.83,6.41-27.7a2.48,2.48,0,0,1,2.42,0c2.87,1.57,7.2,8.62,8.25,13.47s2.7,15.52,3.49,21c.35,2.49,3.07,30.21-.46,32.84-3.07,2.29-19.32,8.89-29.9,9.86-3.81.35-7.63.44-11.28.44a128.31,128.31,0,0,1-16.63-1c-1.53-.22-3.47-.4-5.52-.58-4.64-.43-9.92-.92-12.81-2.14-1.45-.61-2.78-1.06-3.95-1.46-2.19-.75-3.63-1.24-4.06-2.21a.7.7,0,0,1,.13-.84c.39-.42,1.44-.43,2.62-.27-.53-.39-1.14-.85-1.81-1.39A8.85,8.85,0,0,1,226,347.5a7,7,0,0,1-3.68-3.22c-.78-1.23-.95-2.14-.51-2.79a2.06,2.06,0,0,1,1.75-.72.42.42,0,0,1,.27.09c.06,0,6.08,3.85,8.36,4.3,1.75.36,5.44.85,7.22,1.09h0c-.4-.25-1.85-1.1-3.84-2.11-2.61-1.31-2.93-2.46-3.2-3.47a.76.76,0,0,1,.27-.9c.36-.26,1.07-.79,7,1.94,1.16.54,2.14.89,2.93,1.19a10.72,10.72,0,0,1,4,2.2,36,36,0,0,1,3.1,3.57,20.48,20.48,0,0,0,2.77,3.12,64.4,64.4,0,0,0,14.71-2.19c8-2,22.06-9,24.16-10.05m-62.38,14.83a8.93,8.93,0,0,0,3.35,1.51c1.2.4,2.54.86,4,1.49,2.69,1.15,7.87,1.63,12.43,2.05,2.06.2,4,.37,5.58.6a138.67,138.67,0,0,0,27.63.48c10.42-1,26.35-7.4,29.34-9.64,2.51-1.87,1.07-24.77.08-32-.78-5.46-2.38-16-3.46-20.92s-5.34-11.51-7.76-12.82a1.37,1.37,0,0,0-1.36,0c-1.24.63-5.34,4.42-5.84,26.87l-.54,27.77a.44.44,0,0,1-.27.41c-.15.09-15.9,8.1-24.68,10.28a64.5,64.5,0,0,1-15.09,2.22c-.63,0-1.28-.71-3.52-3.51a37.63,37.63,0,0,0-3-3.46,9.84,9.84,0,0,0-3.67-1.95c-.84-.32-1.79-.67-3-1.22-4-1.85-5.34-2-5.76-2,.25.91.55,1.7,2.64,2.76,2.4,1.22,4,2.21,4.05,2.22a.45.45,0,0,1,.18.18l.54,1a.52.52,0,0,1,0,.51.56.56,0,0,1-.52.2c-.23,0-5.91-.74-8.31-1.22s-7.63-3.77-8.55-4.38a.91.91,0,0,0-.65.27c-.09.13-.22.59.52,1.77,1.68,2.62,3.27,2.84,3.28,2.84a.5.5,0,0,1,.47.39,8.3,8.3,0,0,0,2.5,4.35,37.39,37.39,0,0,0,3.69,2.64.47.47,0,0,1,.15.68.55.55,0,0,1-.59.2,14.36,14.36,0,0,0-3.91-.54Zm62.95-14.61" style="fill:#263238"></path><path d="M237.58,352h-.12c-4.78-1-11-4.32-11.26-4.46a.47.47,0,0,1-.2-.67.56.56,0,0,1,.72-.17h0c.06,0,6.34,3.41,11,4.35a.51.51,0,0,1,.48.54.52.52,0,0,1-.59.43Z" style="fill:#263238"></path><path d="M239.16,356.1a23,23,0,0,1-6.48-1.23.48.48,0,0,1-.31-.62.55.55,0,0,1,.69-.29h0a22.11,22.11,0,0,0,6.1,1.16.49.49,0,1,1,0,1Z" style="fill:#263238"></path><path d="M238.37,354.66h-.13A34.28,34.28,0,0,1,227,350a.45.45,0,0,1-.1-.68.57.57,0,0,1,.75-.09,33.8,33.8,0,0,0,10.89,4.49.48.48,0,0,1,.4.57v0A.54.54,0,0,1,238.37,354.66Z" style="fill:#263238"></path><path d="M220.34,324.22H220c1.15-4.7-1.17-5.71-1.17-5.71l-1.42-3.39c-2.83,5.49-11,13.16-11,13.16.36-4.26,5-8,.85-6.43s-12,12.87-12,12.87c-3.32,4.43-1.22,10.26,6.23,11.86s15.19-6.44,18.81-12.58S220.34,324.22,220.34,324.22Z" style="fill:#fff"></path><path d="M203.51,347.45a9.8,9.8,0,0,1-2.14-.23c-3.86-.83-6.61-2.78-7.77-5.5a7.32,7.32,0,0,1,1.11-7.37c.32-.45,8.06-11.48,12.32-13.11.94-.35,1.89-.65,2.43-.12s.16,1.3-.52,2.55a19.22,19.22,0,0,0-1.17,2.36c2.54-2.58,7.08-7.44,9-11.19a.7.7,0,0,1,.41-.34.77.77,0,0,1,.56,0,3.26,3.26,0,0,1,1.61,2c.63,2-1.7,6.69-3.93,10a.77.77,0,0,1-1,.21.62.62,0,0,1-.24-.9c2.47-3.71,4.12-7.81,3.8-8.92a2.55,2.55,0,0,0-.36-.74c-3.15,5.41-10.34,12.23-10.66,12.53a.75.75,0,0,1-.81.14.63.63,0,0,1-.42-.65,13.2,13.2,0,0,1,1.9-5.15c.14-.26.3-.55.42-.8l-.48.18c-3.2,1.21-9.51,9.52-11.68,12.61a6.13,6.13,0,0,0-1,6.17c1,2.31,3.37,4,6.75,4.7,7,1.52,14.61-6.49,18-12.25s.13-9,.1-9a.61.61,0,0,1,.05-.93.75.75,0,0,1,1,0c.17.16,3.92,4.07.1,10.54C218.14,339.12,211.13,347.45,203.51,347.45Z" style="fill:#2e353a"></path><path d="M217.63,330a.77.77,0,0,1-.26-.07.64.64,0,0,1-.32-.89c3.57-6.5,1.81-10,1.79-10a.63.63,0,0,1-.23-.9.74.74,0,0,1,1-.22c.16.09,3,4-1.24,11.75A.71.71,0,0,1,217.63,330Z" style="fill:#2e353a"></path><path d="M239.64,342.37a.74.74,0,0,1-.62-.32c-.16-.24-15.93-24.6-5.33-50.16a.74.74,0,0,1,.93-.38.63.63,0,0,1,.42.84c-10.35,24.95,5.06,48.79,5.22,49a.63.63,0,0,1-.25.9A.78.78,0,0,1,239.64,342.37Z" style="fill:#2e353a"></path><path d="M252.34,314a.75.75,0,0,1-.43-.13.62.62,0,0,1-.15-.92,31,31,0,0,1,8.26-7,.76.76,0,0,1,1,.2.63.63,0,0,1-.22.91,29.15,29.15,0,0,0-7.88,6.72A.77.77,0,0,1,252.34,314Z" style="fill:#2e353a"></path><path d="M244.54,344.37a.7.7,0,0,1-.71-.57c-.07-.52-1.75-12.81,3.8-24.31a.74.74,0,0,1,.94-.34.64.64,0,0,1,.37.87c-5.38,11.15-3.7,23.48-3.68,23.61a.66.66,0,0,1-.62.73Z" style="fill:#2e353a"></path><path d="M293.67,255.3a14.42,14.42,0,0,1-9.46-3.86c-2.92-2.63-4.75-5.94-6.51-9.38l-.36-.72a37.38,37.38,0,0,0-5.42-8.61,8.9,8.9,0,0,0-3.06-2.31,4.35,4.35,0,0,0-3.52,0,.74.74,0,0,1-1-.26.62.62,0,0,1,.28-.89,5.91,5.91,0,0,1,4.81,0,10.24,10.24,0,0,1,3.56,2.66,39,39,0,0,1,5.63,8.91l.36.71c1.7,3.33,3.46,6.53,6.21,9,3,2.67,6.87,3.95,10.19,3.33a.72.72,0,0,1,.85.52.66.66,0,0,1-.57.77A11.32,11.32,0,0,1,293.67,255.3Z" style="fill:#fff"></path><path d="M293.54,235.89a11.35,11.35,0,0,1-7.46-3.38c-.76-.69-1.46-1.44-2.15-2.16a23.23,23.23,0,0,0-4-3.59c-4.06-2.66-10.07-2.82-15.29-.39a.76.76,0,0,1-1-.29.63.63,0,0,1,.32-.88c5.7-2.65,12.29-2.45,16.78.49a24.56,24.56,0,0,1,4.24,3.8c.67.7,1.36,1.43,2.08,2.09,1.4,1.28,4.2,3.37,7.25,2.94a.72.72,0,0,1,.83.55.67.67,0,0,1-.6.75A7.17,7.17,0,0,1,293.54,235.89Z" style="fill:#fff"></path><path d="M245.56,403.58a64.54,64.54,0,0,1-11.63-.88.65.65,0,0,1-.55-.78.71.71,0,0,1,.85-.5c.41.08,40.68,7.5,78-24.62a.76.76,0,0,1,1,0,.61.61,0,0,1,0,.92,105,105,0,0,1-53.95,24.85A97.77,97.77,0,0,1,245.56,403.58Z" style="fill:#fff"></path></g><g id="freepik--Mug--inject-58"><path d="M391.1,394.46s-.9-3.6-3.9-2.4-2.69,9.15-2.1,13.65,4.65,2.4,4.65,2.4v-2.7s-1.5,1.19-2.25-.45-.6-9.9.15-9.75,2.25,2.69,2.25,2.69S390.35,397.62,391.1,394.46Z" style="fill:#FFE2E2;stroke:#263238;strokeLinecap:round;strokeLinejoin:round"></path><path d="M388.94,395.06v19.7c0,2.32,5.33,4.2,11.91,4.2s11.9-1.88,11.9-4.2v-19.7Z" style="fill:#FFE2E2;stroke:#263238;strokeLinecap:round;strokeLinejoin:round"></path><path d="M412.75,395.06c0,2-5.33,3.62-11.9,3.62s-11.91-1.62-11.91-3.62,5.33-3.62,11.91-3.62S412.75,393.07,412.75,395.06Z" style="fill:#fff;stroke:#263238;strokeLinecap:round;strokeLinejoin:round"></path><path d="M411.19,395.06c0,1.74-4.63,3.15-10.34,3.15s-10.35-1.41-10.35-3.15,4.64-3.15,10.35-3.15S411.19,393.32,411.19,395.06Z" style="fill:#fff;stroke:#263238;strokeLinecap:round;strokeLinejoin:round"></path><path d="M392.87,397.06a28.47,28.47,0,0,0,15.95,0A28.47,28.47,0,0,0,392.87,397.06Z" style="fill:#263238;stroke:#263238;strokeLinecap:round;strokeLinejoin:round"></path><path d="M397.44,389.84s8.34-5,5.62-10.74-11.92-9.52-11.92-18.45c0-7.69,8.18-10.54,13.52-13.62" style="fill:none;stroke:#263238;strokeLinecap:round;strokeLinejoin:round"></path><path d="M405.14,389.68s4.65-3.09,4.65-8c0-3.29-3.52-5.45-8.17-10.75" style="fill:none;stroke:#263238;strokeLinecap:round;strokeLinejoin:round"></path></g></svg>