<svg xmlns="http://www.w3.org/2000/svg" viewBox="0 0 500 500"><g id="freepik--background-complete--inject-22"><path d="M293.51,127.7H212.1s8.07-22,20.49-22,16.32,15.22,16.32,15.22,8.38-8.27,15.27-8.27,12.87,10.93,12.87,10.93S286.78,117.65,293.51,127.7Z" style="fill:#ebebeb"></path><path d="M314.62,181.43H276.57s8.51-12.32,15.2-12.32,8.68,8.21,8.68,8.21,4.73-3.83,9.11-3.15S314.62,181.43,314.62,181.43Z" style="fill:#ebebeb;opacity:0.5"></path><path d="M371.4,155.74h-38s8.5-12.31,15.2-12.31,8.67,8.21,8.67,8.21,4.73-3.84,9.11-3.15S371.4,155.74,371.4,155.74Z" style="fill:#ebebeb;opacity:0.5"></path><path d="M209.72,207.26H135.61s10.15-22.66,21-24.08,16,16.84,16,16.84,7-6.45,12.51-6.45,9.76,8.49,9.76,8.49S205.94,196.24,209.72,207.26Z" style="fill:#ebebeb"></path><path d="M365.81,237.89H291.7s10.15-22.66,21-24.07,16.05,16.83,16.05,16.83,7-6.45,12.51-6.45,9.75,8.5,9.75,8.5S362,226.88,365.81,237.89Z" style="fill:#ebebeb"></path><path d="M172.66,149.58H122.6s8.6-16.41,17.93-16.65,14.23,12.42,14.23,12.42S169.27,133.71,172.66,149.58Z" style="fill:#ebebeb;opacity:0.5"></path><path d="M194.85,224.65c-1.89,0-1.78-2.16-.91-4.32.28-.7.47-1.29.91-2.21.44.92.63,1.51.91,2.21C196.63,222.49,196.74,224.65,194.85,224.65Z" style="fill:#c7c7c7"></path><path d="M165,234c-1.89,0-1.78-2.16-.91-4.32.28-.7.47-1.29.91-2.21.44.92.63,1.51.91,2.21C166.78,231.81,166.89,234,165,234Z" style="fill:#dbdbdb"></path><path d="M214.39,232.58c-1.89,0-1.78-2.17-.91-4.33.28-.69.46-1.28.91-2.2.44.92.62,1.51.91,2.2C216.16,230.41,216.27,232.58,214.39,232.58Z" style="fill:#dbdbdb"></path><path d="M148.88,178.53c-1.88,0-1.78-2.16-.91-4.32.28-.7.47-1.28.91-2.21.45.93.63,1.51.91,2.21C150.66,176.37,150.77,178.53,148.88,178.53Z" style="fill:#dbdbdb"></path><path d="M224.54,262.89c-1.88,0-1.78-2.16-.91-4.32.28-.7.47-1.28.91-2.21.45.93.63,1.51.91,2.21C226.32,260.73,226.43,262.89,224.54,262.89Z" style="fill:#c7c7c7"></path><path d="M284,143.5c-1.88,0-1.78-2.17-.91-4.33.28-.69.47-1.28.91-2.21.45.93.63,1.52.91,2.21C285.75,141.33,285.86,143.5,284,143.5Z" style="fill:#c7c7c7"></path><path d="M337.6,266.16c-1.89,0-1.78-2.16-.91-4.32.28-.7.46-1.29.91-2.21.44.92.63,1.51.91,2.21C339.38,264,339.48,266.16,337.6,266.16Z" style="fill:#dbdbdb"></path><path d="M238.52,136.19c-1.89,0-1.78-2.16-.91-4.32.28-.7.47-1.29.91-2.21.44.92.63,1.51.91,2.21C240.3,134,240.41,136.19,238.52,136.19Z" style="fill:#dbdbdb"></path><path d="M272.16,166.8c-1.89,0-1.78-2.17-.91-4.33.28-.69.47-1.28.91-2.2.44.92.63,1.51.91,2.2C273.94,164.63,274.05,166.8,272.16,166.8Z" style="fill:#dbdbdb"></path><path d="M355.43,250.79c-1.89,0-1.78-2.17-.91-4.33.28-.69.47-1.28.91-2.21.45.93.63,1.52.91,2.21C357.21,248.62,357.32,250.79,355.43,250.79Z" style="fill:#dbdbdb"></path><path d="M304,204.17c-1.89,0-1.78-2.17-.91-4.33.28-.69.47-1.28.91-2.2.44.92.63,1.51.91,2.2C305.79,202,305.9,204.17,304,204.17Z" style="fill:#dbdbdb"></path><path d="M342.36,173.85c-1.89,0-1.78-2.16-.91-4.32.28-.7.47-1.29.91-2.21.44.92.63,1.51.91,2.21C344.14,171.69,344.25,173.85,342.36,173.85Z" style="fill:#dbdbdb"></path><path d="M352.52,204.17c-1.89,0-1.78-2.17-.91-4.33.28-.69.46-1.28.91-2.2.44.92.63,1.51.91,2.2C354.3,202,354.4,204.17,352.52,204.17Z" style="fill:#c7c7c7"></path><path d="M364.13,169.63c-1.88,0-1.78-2.16-.91-4.32.28-.7.47-1.29.91-2.21.45.92.63,1.51.91,2.21C365.91,167.47,366,169.63,364.13,169.63Z" style="fill:#c7c7c7"></path><path d="M131.29,163.1c-1.89,0-1.78-2.16-.91-4.32.28-.7.47-1.29.91-2.21.44.92.63,1.51.91,2.21C133.07,160.94,133.18,163.1,131.29,163.1Z" style="fill:#c7c7c7"></path><path d="M217.36,150.26c-1.88,0-1.78-2.16-.91-4.33.28-.69.47-1.28.91-2.2.45.92.63,1.51.91,2.2C219.14,148.1,219.25,150.26,217.36,150.26Z" style="fill:#c7c7c7"></path><path d="M150.39,223.33c-1.88,0-1.78-2.16-.91-4.32.28-.7.47-1.28.91-2.21.45.93.63,1.51.91,2.21C152.17,221.17,152.28,223.33,150.39,223.33Z" style="fill:#dbdbdb"></path><path d="M137.12,251.47c-1.89,0-1.78-2.17-.91-4.33.28-.69.46-1.28.91-2.2.44.92.63,1.51.91,2.2C138.9,249.3,139,251.47,137.12,251.47Z" style="fill:#dbdbdb"></path><rect x="48.73" y="263.42" width="26.48" height="11.19" style="fill:#ebebeb"></rect><rect x="33.96" y="277.53" width="26.48" height="11.19" style="fill:#ebebeb"></rect><rect x="63.5" y="277.53" width="26.48" height="11.19" style="fill:#ebebeb"></rect><rect x="424.79" y="277.53" width="26.48" height="11.19" style="fill:#ebebeb"></rect><rect x="424.79" y="45" width="26.48" height="11.19" style="fill:#ebebeb"></rect><rect x="439.56" y="59.11" width="26.48" height="11.19" style="fill:#ebebeb"></rect><rect x="33.96" y="45.01" width="26.48" height="11.19" style="fill:#ebebeb"></rect><rect x="207.11" y="399.57" width="26.48" height="11.19" transform="translate(440.7 810.33) rotate(180)" style="fill:#ebebeb"></rect><rect x="221.88" y="385.46" width="26.48" height="11.19" transform="translate(470.25 782.11) rotate(180)" style="fill:#ebebeb"></rect></g><g id="freepik--Floor--inject-22"><polygon points="27.54 428.89 82.61 428.64 137.69 428.56 247.83 428.39 357.98 428.56 413.06 428.64 468.13 428.89 413.06 429.13 357.98 429.22 247.83 429.39 137.69 429.22 82.61 429.13 27.54 428.89" style="fill:#263238"></polygon></g><g id="freepik--Shadow--inject-22"><ellipse cx="89.73" cy="456.66" rx="51.42" ry="9.64" style="fill:#ebebeb"></ellipse><ellipse cx="356.71" cy="456.66" rx="105.39" ry="9.64" style="fill:#ebebeb"></ellipse></g><g id="freepik--Table--inject-22"><rect x="273.23" y="388.08" width="166.96" height="11.28" style="fill:#37474f"></rect><polygon points="307.53 399.37 303.35 409.56 282.94 459.43 277.71 459.43 291.44 409.56 294.24 399.37 307.53 399.37" style="fill:#37474f"></polygon><polygon points="294.24 399.37 307.53 399.37 303.35 409.56 291.44 409.56 294.24 399.37" style="fill:#263238"></polygon><polygon points="435.7 459.43 430.48 459.43 410.06 409.56 405.9 399.37 419.18 399.37 421.98 409.56 435.7 459.43" style="fill:#37474f"></polygon><polygon points="421.98 409.56 410.06 409.56 405.9 399.37 419.18 399.37 421.98 409.56" style="fill:#263238"></polygon></g><g id="freepik--Mug--inject-22"><path d="M424.09,364.84s13.66-6.3,13.66-14.73S420,336.24,420,329.64s7.73-10.47,7.73-10.47-12.2,4.17-12.2,12.51,11.68,14,12.79,19.3C429.9,358.35,424.09,364.84,424.09,364.84Z" style="fill:#dbdbdb;opacity:0.6000000000000001"></path><path d="M424.76,364.84s-13.66-4.95-13.66-11.59,17.72-10.9,17.72-16.08-7.73-8.24-7.73-8.24,12.21,3.28,12.21,9.84-13.41,11.06-14.37,16.39S424.76,364.84,424.76,364.84Z" style="fill:#dbdbdb;opacity:0.6000000000000001"></path><rect x="417.74" y="386.05" width="13" height="2.03" style="fill:#95E1D3"></rect><rect x="417.74" y="386.05" width="13" height="1.34" style="fill:#263238"></rect><path d="M402.31,380.6a7.36,7.36,0,0,0,7.32,3.13,7.78,7.78,0,0,0,1.32-.38,9,9,0,0,0,1.83-1l-1.65-2.44a6.06,6.06,0,0,1-1,.55,4.32,4.32,0,0,1-5.44-1.59c-1.78-2.51-2.42-8.23-.62-10.43.12-.16.64-.42,2.74,0,.38.09.82.18,1.32.32a5.52,5.52,0,0,0,1.19.26l0-1.47.14-1.47c-.13,0-.34-.09-.62-.16a19.88,19.88,0,0,0-2.95-.62,4.53,4.53,0,0,0-4.15,1.24C398.89,370.2,400.08,377.46,402.31,380.6Z" style="fill:#95E1D3"></path><path d="M411.13,379.94a6.06,6.06,0,0,1-1,.55l.79,2.86a9,9,0,0,0,1.83-1Z" style="fill:#263238"></path><path d="M406,365.36l.87,3.14c.38.09.82.18,1.32.32a5.52,5.52,0,0,0,1.19.26l0-1.47.14-1.47c-.13,0-.34-.09-.62-.16A19.88,19.88,0,0,0,406,365.36Z" style="fill:#263238"></path><path d="M441.52,361.53s-1.56,13.25-4.25,18.83-6.45,6.19-8.79,6.19H420c-2.34,0-6.1-.63-8.79-6.19S407,361.53,407,361.53Z" style="fill:#95E1D3"></path><path d="M412.59,365.31a1.53,1.53,0,1,1-1.53-1.53A1.53,1.53,0,0,1,412.59,365.31Zm12-1.85a1.54,1.54,0,1,0,1.54,1.53A1.53,1.53,0,0,0,424.6,363.46Zm0,19.27a1.54,1.54,0,1,0,1.54,1.54A1.53,1.53,0,0,0,424.6,382.73ZM435.73,374a1.54,1.54,0,1,0,1.53,1.53A1.53,1.53,0,0,0,435.73,374Zm-17.06,4.53a1.54,1.54,0,1,0,1.54,1.54A1.54,1.54,0,0,0,418.67,378.57Zm18-15.11a1.54,1.54,0,1,0,1.53,1.53A1.54,1.54,0,0,0,436.7,363.46ZM424.42,373.8a1.54,1.54,0,1,0,1.53,1.54A1.53,1.53,0,0,0,424.42,373.8Zm-11.64.24a1.54,1.54,0,1,0,1.54,1.53A1.54,1.54,0,0,0,412.78,374Zm18-5.13a1.53,1.53,0,1,0,1.54,1.53A1.52,1.52,0,0,0,430.73,368.91Zm-.42,9.92a1.53,1.53,0,1,0,1.54,1.53A1.52,1.52,0,0,0,430.31,378.83ZM418,368.91a1.53,1.53,0,1,0,1.54,1.53A1.52,1.52,0,0,0,418,368.91Z" style="opacity:0.1"></path></g><g id="freepik--Books--inject-22"><rect x="293.92" y="374.72" width="67.73" height="13.36" style="fill:#95E1D3"></rect><rect x="298.13" y="374.72" width="6.62" height="13.36" style="fill:#37474f"></rect><rect x="307.2" y="374.72" width="2.76" height="13.36" style="fill:#37474f"></rect><rect x="347.06" y="374.72" width="6.62" height="13.36" style="fill:#37474f"></rect><rect x="289.98" y="364.75" width="46.98" height="9.97" style="fill:#455a64"></rect><rect x="336.96" y="364.75" width="20.27" height="9.97" style="fill:#455a64"></rect><rect x="289.98" y="365.78" width="46.98" height="7.9" style="fill:#fff"></rect><path d="M293,367.41c3.66-.1,7.32-.16,11-.2l11,0,11,0c3.66,0,7.32.1,11,.2q-5.49.13-11,.19l-11,.06-11-.06Q298.51,367.54,293,367.41Z" style="fill:#dbdbdb"></path><path d="M293,369q5.49-.15,11-.19l11-.06,11,.05c3.66,0,7.32.1,11,.2-3.66.09-7.32.16-11,.19l-11,.06-11-.06Q298.51,369.09,293,369Z" style="fill:#dbdbdb"></path><path d="M293,370.51c3.66-.09,7.32-.16,11-.19l11-.06,11,.05c3.66,0,7.32.1,11,.2-3.66.09-7.32.16-11,.19l-11,.06-11-.06Q298.51,370.64,293,370.51Z" style="fill:#dbdbdb"></path><path d="M293,372.06c3.66-.09,7.32-.16,11-.19l11-.06,11,.05c3.66,0,7.32.1,11,.2-3.66.09-7.32.16-11,.19l-11,.06-11-.06Q298.51,372.19,293,372.06Z" style="fill:#dbdbdb"></path><rect x="300.51" y="353.82" width="47.02" height="10.93" style="fill:#37474f"></rect><rect x="338.17" y="353.82" width="4.38" height="10.93" style="fill:#95E1D3"></rect><rect x="333.59" y="353.82" width="1.7" height="10.93" style="fill:#95E1D3"></rect></g><g id="freepik--Window--inject-22"><rect x="88.52" y="82.47" width="322.96" height="1" style="fill:#ebebeb"></rect><polygon points="411.48 348.78 88.52 348.78 119.5 312.83 380.5 312.83 411.48 348.78" style="fill:#ebebeb"></polygon><polygon points="119.49 82.97 88.52 82.97 88.52 348.78 119.49 312.83 119.49 82.97" style="fill:#dbdbdb"></polygon><polygon points="380.51 82.97 411.48 82.97 411.48 348.78 380.51 312.83 380.51 82.97" style="fill:#dbdbdb"></polygon><path d="M119.5,83V312.84h261V83ZM372.84,305.22H127.16V90.59H372.84Z" style="fill:#a6a6a6"></path><rect x="246.17" y="90.59" width="7.67" height="214.63" style="fill:#a6a6a6"></rect><rect x="75.53" y="53.3" width="348.95" height="5.57" style="fill:#ebebeb"></rect><rect x="75.53" y="59.56" width="348.95" height="5.57" style="fill:#ebebeb"></rect><rect x="75.53" y="65.83" width="348.95" height="5.57" style="fill:#ebebeb"></rect><rect x="75.53" y="72.1" width="348.95" height="5.57" style="fill:#ebebeb"></rect><rect x="75.53" y="78.36" width="348.95" height="5.57" style="fill:#ebebeb"></rect><rect x="75.53" y="84.63" width="348.95" height="5.57" style="fill:#ebebeb"></rect><rect x="75.53" y="90.89" width="348.95" height="5.57" style="fill:#ebebeb"></rect><rect x="75.53" y="97.16" width="348.95" height="5.57" style="fill:#ebebeb"></rect><rect x="75.53" y="103.43" width="348.95" height="5.57" style="fill:#ebebeb"></rect><rect x="396.59" y="50.25" width="1" height="158.39" style="fill:#263238"></rect><polygon points="398.87 213.3 395.32 213.3 396.21 208.2 397.98 208.2 398.87 213.3" style="fill:#263238"></polygon><rect x="400.2" y="50.25" width="1" height="215.73" style="fill:#263238"></rect><polygon points="402.47 269.74 398.92 269.74 399.81 264.64 401.58 264.64 402.47 269.74" style="fill:#263238"></polygon><rect x="69.32" y="44.43" width="361.36" height="11.65" style="fill:#dbdbdb"></rect></g><g id="freepik--Character--inject-22"><path d="M212.86,195.5c6.87,9.48,47.43,46.65,72.65,40.92,8.56-1.95.41-38.06-21.94-69.5-.66-.93-24,9-22.75,15.18.13.66,7.22,16.36,7.77,15.83,0,0-9.08-5.47-27.46-11.05C212.44,184.24,208.76,189.84,212.86,195.5Z" style="fill:#d3766a"></path><path d="M267.07,172.05c-1.19-1.64-10.58-19.85-18-24.65-4-2.55-15.61-8.31-17.46-6.1-1.69,2,1.12,4.38,1.12,4.38s-5.24-2.49-7.55.34,2.63,6.58,2.63,6.58-5.56-2.17-7.67.82,3.5,5.93,3.5,5.93-5-2.22-5.69,1c-.84,3.85,8.83,6.9,12.64,10.44.87.81,16.38,17.56,16.38,17.56Z" style="fill:#d3766a"></path><path d="M223.6,159.56c7.11,2.26,9.82,4.48,14.55,10.1.09.11.28,0,.19-.13-4.13-5.92-7.13-9.19-14.65-10.32C223.33,159.16,223.26,159.45,223.6,159.56Z" style="fill:#263238"></path><path d="M227.75,152.82c7.17,3,10.14,5.37,15.52,10.89.08.08.22,0,.15-.13-4.83-5.85-7.91-9.05-15.47-11.1C227.61,152.39,227.42,152.68,227.75,152.82Z" style="fill:#263238"></path><path d="M232.94,146c6.74,3.4,10.1,5.87,14.64,11.9a.14.14,0,0,0,.23-.16c-4-6.59-8.21-9.71-14.74-11.94C232.62,145.61,232.52,145.74,232.94,146Z" style="fill:#263238"></path><path d="M247.24,194.33s-8.45-4-11.77-6.56-12.19-16.72-9.24-18.81c3.8-2.69,10.52,4.47,13.36,8.4,0,0,8.79-6.24,14.73-2.15S247.24,194.33,247.24,194.33Z" style="fill:#d3766a"></path><path d="M227.51,168.57c5.25,0,8.63,5.45,11.67,9.06a.43.43,0,0,0,.71,0c3.86-2.37,10-4.59,14.38-2.68a.11.11,0,0,0,.1-.19c-4.42-2.69-10.63-1-14.69,1.86-3.05-3.75-6.69-9-12.17-8.07A0,0,0,0,0,227.51,168.57Z" style="fill:#263238"></path><path d="M246.17,194.33,277.9,180.1s20.47,50.7,8.83,56.92-47.35-10.89-70.05-36.13c-10.2-11.33-5.77-17.5,6.7-14a123.21,123.21,0,0,1,24.3,10.24Z" style="fill:#95E1D3"></path><path d="M267.77,228.3a1.45,1.45,0,1,0,1.46,1.45A1.45,1.45,0,0,0,267.77,228.3Zm0,2.65a1.2,1.2,0,1,1,1.21-1.2A1.2,1.2,0,0,1,267.77,231Zm-37.95-32.21a1.45,1.45,0,1,0,1.45,1.45A1.45,1.45,0,0,0,229.82,198.74Zm0,2.65a1.2,1.2,0,1,1,1.2-1.2A1.21,1.21,0,0,1,229.82,201.39Zm6.06-10a1.2,1.2,0,0,1-2.36-.29,1.1,1.1,0,0,1,.18-.62l-.23-.09a1.33,1.33,0,0,0-.2.71,1.45,1.45,0,0,0,2.84.39Zm29.2,10.56a1.45,1.45,0,1,0,1.45,1.45A1.45,1.45,0,0,0,265.08,201.92Zm0,2.65a1.2,1.2,0,1,1,1.2-1.2A1.2,1.2,0,0,1,265.08,204.57ZM281,198a1.46,1.46,0,1,0,1.45,1.46A1.46,1.46,0,0,0,281,198Zm0,2.66a1.21,1.21,0,1,1,1.2-1.2A1.21,1.21,0,0,1,281,200.65Zm-10.38-9.17a1.46,1.46,0,1,0,1.46,1.45A1.45,1.45,0,0,0,270.62,191.48Zm0,2.66a1.21,1.21,0,1,1,1.21-1.21A1.21,1.21,0,0,1,270.62,194.14Zm4.91,13.2A1.46,1.46,0,1,0,277,208.8,1.46,1.46,0,0,0,275.53,207.34Zm0,2.66a1.21,1.21,0,1,1,1.2-1.2A1.2,1.2,0,0,1,275.53,210ZM277,232.41a1.45,1.45,0,1,0,1.45,1.45A1.45,1.45,0,0,0,277,232.41Zm0,2.65a1.2,1.2,0,1,1,1.2-1.2A1.21,1.21,0,0,1,277,235.06Zm-.93-53.9a1.46,1.46,0,1,0,1.45,1.45A1.45,1.45,0,0,0,276.06,181.16Zm0,2.66a1.21,1.21,0,1,1,1.2-1.21A1.21,1.21,0,0,1,276.06,183.82Zm-14.2,3.47h0a1,1,0,0,1-.5.23h0l-.51.23a1,1,0,0,0,.3,0,1.44,1.44,0,0,0,1.26-.74Zm-43.6,6.85a1.45,1.45,0,1,0,1.45,1.45A1.45,1.45,0,0,0,218.26,194.14Zm0,2.65a1.2,1.2,0,1,1,1.2-1.2A1.2,1.2,0,0,1,218.26,196.79Zm29.33,20.74A1.45,1.45,0,1,0,249,219,1.45,1.45,0,0,0,247.59,217.53Zm0,2.65a1.2,1.2,0,1,1,1.2-1.2A1.2,1.2,0,0,1,247.59,220.18Zm10.9,2.07a1.46,1.46,0,1,0,1.45,1.46A1.45,1.45,0,0,0,258.49,222.25Zm0,2.66a1.21,1.21,0,1,1,1.2-1.2A1.2,1.2,0,0,1,258.49,224.91Zm23.15-2.41a1.46,1.46,0,1,0,1.45,1.46A1.46,1.46,0,0,0,281.64,222.5Zm0,2.66a1.21,1.21,0,1,1,1.2-1.2A1.21,1.21,0,0,1,281.64,225.16ZM286.33,237a1.46,1.46,0,0,0-1.21.65l.52-.17h0a1,1,0,0,1,.48-.21h0a3.54,3.54,0,0,0,.48-.23A1.55,1.55,0,0,0,286.33,237Zm-47-28.23a1.45,1.45,0,1,0,1.45,1.45A1.46,1.46,0,0,0,239.32,208.8Zm0,2.65a1.2,1.2,0,1,1,1.2-1.2A1.21,1.21,0,0,1,239.32,211.45Zm4.18-12A1.45,1.45,0,1,0,245,200.9,1.45,1.45,0,0,0,243.5,199.45Zm0,2.65a1.2,1.2,0,1,1,1.2-1.2A1.2,1.2,0,0,1,243.5,202.1Zm12.37-7.22a1.45,1.45,0,1,0,1.45,1.45A1.45,1.45,0,0,0,255.87,194.88Zm0,2.65a1.2,1.2,0,1,1,1.2-1.2A1.2,1.2,0,0,1,255.87,197.53Zm6.39,14.82a1.46,1.46,0,0,0,0,2.91,1.46,1.46,0,1,0,0-2.91Zm0,2.66a1.21,1.21,0,1,1,1.21-1.21A1.21,1.21,0,0,1,262.26,215Zm9.82,3.28a1.45,1.45,0,1,0,1.45,1.45A1.46,1.46,0,0,0,272.08,218.29Zm0,2.65a1.2,1.2,0,1,1,1.2-1.2A1.21,1.21,0,0,1,272.08,220.94Zm17.52,7.44a1.15,1.15,0,0,1,.68.22c0-.09,0-.18,0-.28a1.41,1.41,0,0,0-.7-.19,1.46,1.46,0,0,0,0,2.91,1.5,1.5,0,0,0,.47-.08,2.7,2.7,0,0,0,0-.28,1.26,1.26,0,0,1-.51.11,1.21,1.21,0,0,1,0-2.41Zm-3.85-16.68a1.46,1.46,0,1,0,1.45,1.46A1.46,1.46,0,0,0,285.75,211.7Zm0,2.66a1.21,1.21,0,1,1,1.2-1.2A1.21,1.21,0,0,1,285.75,214.36Zm-32.94-6.61a1.45,1.45,0,1,0,1.45,1.45A1.46,1.46,0,0,0,252.81,207.75Zm0,2.65a1.2,1.2,0,1,1,1.2-1.2A1.21,1.21,0,0,1,252.81,210.4Z" style="fill:#fff"></path><path d="M247.73,197.12c3.86,7.93,7.88,15.78,12.12,23.52,1.18,2.16,2.33,4.33,3.51,6.49,0,.08-.09.14-.14.07a129.85,129.85,0,0,1-6.94-11.26c-2.11-3.83-4.15-7.76-5.87-11.77-1-2.32-1.94-4.64-2.84-7C247.53,197.08,247.68,197,247.73,197.12Z" style="fill:#263238"></path><path d="M278.48,188c-4.61,1.76-9.16,3.73-13.65,5.79-2.21,1-4.42,2-6.6,3.12s-4.46,2.42-6.73,3.54c-.1.05-.05.22.06.17,2.28-1,4.65-1.93,7-2.93s4.42-2,6.63-3c4.51-2.06,9-4.14,13.45-6.35C278.81,188.26,278.7,187.94,278.48,188Z" style="fill:#263238"></path><path d="M237.85,219.74a134.88,134.88,0,0,1-21.18-18.85C207.74,191,210,185,219.14,186Z" style="fill:#263238"></path><path d="M372.73,324.16c-2.51.91-76.84,2.38-79.64.67-.33-.17-1.54-24.76-1.54-24.76.09-.35-1.15-2.72-3.05-6-5.3-9.25-15.66-25.81-15.66-25.81L317,254.9l18.12,36.3,4.62,9.26s10.13,4,19,7.92l0,0c5.45,2.42,10.18,4.64,11.29,5.47C372.82,316.06,375.24,323.28,372.73,324.16Z" style="fill:#d3766a"></path><path d="M372.73,324.16c-2.51.91-76.84,2.38-79.64.67-.33-.17-1.54-24.76-1.54-24.76.09-.35-1.15-2.72-3.05-6l46.58-2.85,4.62,9.26s10.13,4,19,7.92l0,0c5.45,2.42,10.18,4.64,11.29,5.47C372.82,316.06,375.24,323.28,372.73,324.16Z" style="fill:#fff"></path><path d="M373,324.44c-2.59.92-77,2.19-79.88.45-1.1-.66-2.41-12.12-1.61-24.82l48-.77s27.79,12.28,30.73,14.54S375.62,323.53,373,324.44Z" style="fill:#95E1D3"></path><path d="M312.63,325.73c-10.6-.05-18.57-.3-19.48-.84-1.09-.66-2.4-12.11-1.6-24.82l1.17,0Z" style="opacity:0.1"></path><path d="M371.92,321.48c-12.48-.09-62.83.71-75.18,1.57-.1,0-.1.08,0,.08,12.37.36,62.72-.85,75.18-1.44C372.19,321.67,372.18,321.48,371.92,321.48Z" style="fill:#263238"></path><path d="M365.44,311.24a10,10,0,0,0-7.42,3.18,9.69,9.69,0,0,0-2.67,6.7c0,.08.14.08.15,0a11.58,11.58,0,0,1,9.94-9.72C365.54,311.39,365.54,311.24,365.44,311.24Z" style="fill:#263238"></path><path d="M343.47,300.48c-5,0-10.75,1.88-13.78,6-.12.16.11.33.25.25a68.51,68.51,0,0,1,13.63-5.65A.32.32,0,0,0,343.47,300.48Z" style="fill:#263238"></path><path d="M347.35,301.92c-5,0-10.75,1.88-13.78,6-.12.16.11.32.26.24a69.37,69.37,0,0,1,13.62-5.65A.31.31,0,0,0,347.35,301.92Z" style="fill:#263238"></path><path d="M351.23,303.36c-5,0-10.75,1.88-13.78,6-.12.16.11.33.26.25A69.37,69.37,0,0,1,351.33,304,.31.31,0,0,0,351.23,303.36Z" style="fill:#263238"></path><path d="M355.12,304.8c-5,0-10.76,1.87-13.79,6-.12.16.11.33.26.25a68.18,68.18,0,0,1,13.62-5.65A.31.31,0,0,0,355.12,304.8Z" style="fill:#263238"></path><path d="M299.72,311.15c-5.61.11-5.44,8.82.17,8.7S305.33,311,299.72,311.15Z" style="fill:#263238"></path><path d="M348.64,287.07c-2.56-2.06-5.71.05-7.23,2.25a26.11,26.11,0,0,0-4.32,12.85c0,.1.07.15.16.14a.61.61,0,0,0,.9.39c3.51-2.52,7.58-4.78,10.22-8.31C349.91,292.34,351.07,289,348.64,287.07Zm-5.94,10.72c-1.7,1.28-3.45,2.47-5.1,3.81a77,77,0,0,1,2.69-7.45,28.07,28.07,0,0,1,1.76-3.4c1.06-1.66,5.89-5.92,6.48-.5C348.85,293.24,344.72,296.26,342.7,297.79Z" style="fill:#263238"></path><path d="M324.71,304.23c4.36.6,8.83-.72,13.09-1.46a.61.61,0,0,0,.36-.91c.06-.06.09-.14,0-.21A26.26,26.26,0,0,0,326,295.71c-2.64-.46-6.34.31-6.68,3.58C319,302.38,322.17,303.89,324.71,304.23Zm-3.06-2.79c-3.45-4.22,3-4.68,4.9-4.26a29.16,29.16,0,0,1,3.66,1.12,77.92,77.92,0,0,1,7.19,3.31c-2.11.24-4.19.65-6.29,1C328.6,302.94,323.55,303.77,321.65,301.44Z" style="fill:#263238"></path><path d="M285.15,293.57l52.33-7.93s-25.15-50.14-40.73-77.35c-8.66-15.12-32.34-15.87-43.86,2.26-15.39,24.22-27.34,46.9-34.18,59.48l-11.87,1,2.56,19.4,39.45,8.83c15.12,1.81,25.72-25.1,26-24.64C276.73,278.17,285.15,293.57,285.15,293.57Z" style="fill:#37474f"></path><path d="M275.1,274.76c-1.49-3.05-2.65-6.28-4-9.41s-2.57-6-3.84-9.06c-2.57-6.12-5.23-12.2-7.72-18.35-1.4-3.45-2.68-6.94-4-10.43,0-.08-.17,0-.14,0q1.51,4.95,3.17,9.84c-.3-.56-.59-1.12-.9-1.67-.83-1.5-1.7-3-2.57-4.47a.05.05,0,1,0-.09.05c.8,1.49,1.6,3,2.44,4.45.41.74.87,1.46,1.31,2.19a228.92,228.92,0,0,0,10.85,26.82c1.66,3.42,3.61,6.69,5.28,10.1C275,275,275.15,274.87,275.1,274.76Z" style="fill:#263238"></path><path d="M286.32,284.27c-2.53-3.89-8.54-15.68-10.69-19.75-4.35-8.24-8.34-16.65-12.1-25.18-2.13-4.81-4.12-9.67-6.09-14.55,0,0-.07,0-.06,0,3,8.8,6.5,17.41,10.33,25.86s16.22,31.24,18.45,33.71C286.24,284.46,286.38,284.37,286.32,284.27Z" style="fill:#263238"></path><path d="M253.83,231.3c-4.51,8-9.12,16-13.65,24.09q-3.44,6.09-6.84,12.21c-1.07,1.91-2.1,3.86-3.21,5.75a10.72,10.72,0,0,1-4.13,4.29,31.58,31.58,0,0,1-6.57,2.29c-2.54.75-5.07,1.55-7.63,2.25-.11,0-.06.21.06.18,2.28-.61,4.58-1.13,6.87-1.7A61.09,61.09,0,0,0,225,279a10.06,10.06,0,0,0,4.62-3.2,36.43,36.43,0,0,0,3.24-5.4q6.79-12.4,13.45-24.89c2.53-4.72,5-9.46,7.59-14.17C253.88,231.29,253.84,231.27,253.83,231.3Z" style="fill:#263238"></path><path d="M284,286.23c3.13-.57,6.35-.84,9.51-1.25l9.51-1.23c6.32-.83,27.85-4.26,29.48-4.8.1,0,.06-.2,0-.2-1.54-.05-15.64,1.83-18.8,2.29-6.32.93-12.61,2.06-18.91,3.12-1.8.3-3.59.64-5.39,1s-3.59.71-5.39.94C283.82,286.07,283.85,286.25,284,286.23Z" style="fill:#263238"></path><path d="M315.34,340.58c-.84-2.54-45.7-61.82-48.77-63-.35-.15-20.4,14.12-20.4,14.12-.83,1.11-38.95-6.95-38.95-6.95l-.38,46,69.44-1.48s9.38,5.52,18,10h0c5.28,2.78,10,5.12,11.29,5.47C309,345.68,316.19,343.1,315.34,340.58Z" style="fill:#d3766a"></path><path d="M305.56,344.79c-1.34-.34-6-2.69-11.29-5.48h0c-8.57-4.49-18-10-18-10l-15.45.33-24.2-39c5.31.94,9.27,1.5,9.54,1.15,0,0,20.05-14.27,20.4-14.12,3.07,1.14,47.93,60.42,48.77,62.95S309,345.69,305.56,344.79Z" style="fill:#fff"></path><path d="M315.75,340.66c-.88-2.6-45.95-61.85-49.1-63-1.19-.45-11,5.61-20.48,14.1l29.1,38.17s26.85,14.22,30.44,15.13S316.63,343.25,315.75,340.66Z" style="fill:#95E1D3"></path><path d="M312.73,341.61c-7.8-9.75-38.33-49.79-45.3-60-.05-.08,0-.12.06,0,7.94,9.5,38.15,49.79,45.41,59.95C313.05,341.7,312.9,341.81,312.73,341.61Z" style="fill:#263238"></path><path d="M300.68,342.85a10,10,0,0,1-2.1-7.78,9.67,9.67,0,0,1,3.62-6.25c.06-.05.14.06.09.12a11.57,11.57,0,0,0-1.49,13.82C300.85,342.84,300.74,342.93,300.68,342.85Z" style="fill:#263238"></path><path d="M278.63,332.26c-3.07-3.93-5.18-9.61-3.81-14.55.06-.19.33-.11.36.05a69,69,0,0,0,4,14.2A.32.32,0,0,1,278.63,332.26Z" style="fill:#263238"></path><path d="M282.16,334.42c-3.07-3.93-5.18-9.61-3.81-14.55.06-.19.33-.11.36.05a69,69,0,0,0,4,14.2A.32.32,0,0,1,282.16,334.42Z" style="fill:#263238"></path><path d="M285.7,336.58c-3.08-3.93-5.19-9.61-3.81-14.55.05-.19.32-.11.35.05a69,69,0,0,0,4,14.2A.31.31,0,0,1,285.7,336.58Z" style="fill:#263238"></path><path d="M289.23,338.74c-3.08-3.93-5.19-9.61-3.81-14.55.05-.19.32-.12.35.05a69,69,0,0,0,4,14.2A.31.31,0,0,1,289.23,338.74Z" style="fill:#263238"></path><path d="M259.92,291.3c-3.38-4.47,3.56-9.73,6.95-5.26S263.31,295.77,259.92,291.3Z" style="fill:#263238"></path><path d="M276.88,339.88c1.14-4.25.39-8.85.2-13.16a.62.62,0,0,0-.87-.48.14.14,0,0,0-.21,0,26.21,26.21,0,0,0-7.41,11.34c-.79,2.56-.49,6.34,2.71,7.08C274.32,345.33,276.22,342.36,276.88,339.88Zm-3.15,2.69c-4.63,2.89-4.27-3.54-3.62-5.4a28,28,0,0,1,1.58-3.49,78.52,78.52,0,0,1,4.18-6.72c0,2.13.12,4.24.16,6.36C276.09,335.86,276.28,341,273.73,342.57Z" style="fill:#263238"></path><path d="M262.73,314c-2.36,2.29-.67,5.67,1.33,7.46a26.27,26.27,0,0,0,12.2,5.9.13.13,0,0,0,.16-.14.61.61,0,0,0,.5-.85c-2.06-3.8-3.79-8.12-7-11.18C268.12,313.43,265,311.86,262.73,314Zm9.89,7.24c1.06,1.85,2,3.73,3.14,5.54-2.37-1.16-4.79-2.21-7.05-3.6a28.47,28.47,0,0,1-3.15-2.18c-1.52-1.26-5.14-6.58.32-6.49C268.89,314.58,271.36,319.06,272.62,321.26Z" style="fill:#263238"></path><path d="M227.15,274.17s-67.25-13.36-88.89-9c-30.19,6.12-35.74,41.82-13.35,55.12,28.37,16.85,133.77,13.59,133.77,13.59l-27.29-46.25a273.46,273.46,0,0,0-71.19-7.55l67.28,11.62Z" style="fill:#37474f"></path><path d="M233.21,290.64a1.55,1.55,0,0,1-.06-.23c0-.07,0-.13,0-.2l-.12-.44c-.09-.31-.2-.61-.32-.91s-.24-.59-.38-.88a7,7,0,0,0-.51-.82s-.05,0-.08-.05l0,0-.07,0-.07,0c-4.62-.86-36-5.35-40.65-5.88s-24.15-2.55-33.59-2.39c-.89,0-1.77.05-2.65.09-.19-.07-.39-.1-.58-.15-.46-.11-.91-.22-1.37-.31-.85-.16-1.71-.28-2.56-.42-1.79-.27-3.58-.46-5.36-.79a.09.09,0,0,0,0,.17c1.79.39,3.54.91,5.33,1.3l1.55.33c-3.46.18-6.92.45-10.37.76-.11,0-.12.18,0,.17,4.7-.28,9.43-.31,14.14-.23s24,1.84,33.46,2.82c5.28.55,37.26,5.22,42.56,5.44h.07a2.24,2.24,0,0,0,.14.36l.45.86c.16.27.3.54.48.8s.17.25.26.38l.13.19a1.21,1.21,0,0,1,.14.2C233.09,290.83,233.28,290.75,233.21,290.64Z" style="fill:#263238"></path><path d="M248.84,331.1c-1.69-2.71-3.13-5.59-4.68-8.38s-3.1-5.59-4.66-8.38c-3.1-5.57-14.24-24.31-15.35-25.62a.1.1,0,0,0-.17.11c.52,1.45,7.48,13.86,9.08,16.62,3.2,5.53,6.56,11,9.88,16.42.95,1.56,1.93,3.1,2.89,4.65s2,3.08,2.86,4.67C248.75,331.28,248.9,331.19,248.84,331.1Z" style="fill:#263238"></path><path d="M223.84,293.38c-2.79-.66-5.64-1.1-8.45-1.63s-5.65-1.07-8.47-1.59c-5.65-1.05-36.06-6.8-61.49-9.08-.14,0-.13.21,0,.22,11.49.51,48,7.1,59.2,9l9.5,1.63c3.21.55,6.43,1.24,9.66,1.65C223.91,293.59,224,293.41,223.84,293.38Z" style="fill:#263238"></path><path d="M232.84,273.55c-1.25,1-71.71-6.19-72-6.68C160,265.54,174.7,222.1,184.18,206c12.17-20.66,17.7-22,21-22.87,4.24-1.15,11.17-.23,14.35,2.06,1.78,1.28,6.54,11.7,8.16,19.94C231,221.65,233.93,272.65,232.84,273.55Z" style="fill:#95E1D3"></path><path d="M229.09,214.14a1.2,1.2,0,1,1-1.16-1.54,1.19,1.19,0,0,1,1,.59c0-.15,0-.3-.05-.45a1.39,1.39,0,0,0-1-.39,1.46,1.46,0,0,0,0,2.91,1.48,1.48,0,0,0,1.22-.66Zm-10.83-20a1.45,1.45,0,1,0,1.45,1.45A1.45,1.45,0,0,0,218.26,194.14Zm0,2.65a1.2,1.2,0,1,1,1.2-1.2A1.2,1.2,0,0,1,218.26,196.79Zm-24.34-5.27-.18.22a1.21,1.21,0,1,1-1.28,1.63,2.65,2.65,0,0,1-.17.22,1.45,1.45,0,1,0,1.63-2.07ZM202,212.35a1.46,1.46,0,1,0,1.46,1.45A1.45,1.45,0,0,0,202,212.35Zm0,2.66a1.21,1.21,0,1,1,1.21-1.21A1.21,1.21,0,0,1,202,215Zm-1.32,26.91a1.45,1.45,0,1,0,1.45,1.45A1.46,1.46,0,0,0,200.68,241.92Zm0,2.65a1.2,1.2,0,1,1,1.2-1.2A1.21,1.21,0,0,1,200.68,244.57Zm-23.74,8.82a1.46,1.46,0,1,0,1.46,1.45A1.45,1.45,0,0,0,176.94,253.39Zm0,2.66a1.21,1.21,0,1,1,1.21-1.21A1.21,1.21,0,0,1,176.94,256.05Zm11.66-38.52a1.45,1.45,0,1,0,1.46,1.45A1.45,1.45,0,0,0,188.6,217.53Zm0,2.65a1.2,1.2,0,1,1,1.21-1.2A1.2,1.2,0,0,1,188.6,220.18Zm-1.2,24.72a1.45,1.45,0,1,0,1.45,1.45A1.45,1.45,0,0,0,187.4,244.9Zm0,2.65a1.2,1.2,0,1,1,1.2-1.2A1.2,1.2,0,0,1,187.4,247.55Zm12.42,18.86a1.46,1.46,0,1,0,1.45,1.45A1.45,1.45,0,0,0,199.82,266.41Zm0,2.66a1.21,1.21,0,1,1,1.2-1.21A1.21,1.21,0,0,1,199.82,269.07ZM171,266.41a1.45,1.45,0,0,0-1.45,1.45.57.57,0,0,0,0,.13l.25,0a.81.81,0,0,1,0-.16,1.2,1.2,0,0,1,2.4,0,1.42,1.42,0,0,1-.07.42l.25,0a1.31,1.31,0,0,0,.07-.44A1.45,1.45,0,0,0,171,266.41Zm0-23.77a1.45,1.45,0,1,0,1.45,1.45A1.45,1.45,0,0,0,171,242.64Zm0,2.65a1.2,1.2,0,1,1,1.2-1.2A1.2,1.2,0,0,1,171,245.29Zm5.12-22.47-.09.24a1.19,1.19,0,0,1,.4.9,1.2,1.2,0,0,1-1.2,1.2h-.07a2.44,2.44,0,0,0-.1.24.47.47,0,0,0,.17,0,1.45,1.45,0,0,0,1.45-1.45A1.41,1.41,0,0,0,176.11,222.82Zm29.3,4.27a1.46,1.46,0,1,0,0,2.91,1.46,1.46,0,0,0,0-2.91Zm0,2.66a1.21,1.21,0,1,1,1.2-1.2A1.21,1.21,0,0,1,205.41,229.75Zm20.42,12.89a1.45,1.45,0,1,0,1.45,1.45A1.45,1.45,0,0,0,225.83,242.64Zm0,2.65a1.2,1.2,0,1,1,1.2-1.2A1.2,1.2,0,0,1,225.83,245.29Zm-9.71-27.76a1.45,1.45,0,1,0,1.45,1.45A1.45,1.45,0,0,0,216.12,217.53Zm0,2.65a1.2,1.2,0,1,1,1.2-1.2A1.2,1.2,0,0,1,216.12,220.18Zm-1.81,16.6a1.46,1.46,0,1,0,1.45,1.45A1.45,1.45,0,0,0,214.31,236.78Zm0,2.66a1.21,1.21,0,1,1,1.2-1.21A1.21,1.21,0,0,1,214.31,239.44Zm-14.49,14.83a1.45,1.45,0,1,0,1.45,1.45A1.45,1.45,0,0,0,199.82,254.27Zm0,2.65a1.2,1.2,0,1,1,1.2-1.2A1.2,1.2,0,0,1,199.82,256.92ZM213,264.54a1.46,1.46,0,1,0,1.45,1.45A1.45,1.45,0,0,0,213,264.54Zm0,2.66a1.21,1.21,0,1,1,1.2-1.21A1.21,1.21,0,0,1,213,267.2Zm2.66-61.86a1.46,1.46,0,1,0,1.45,1.45A1.46,1.46,0,0,0,215.64,205.34Zm0,2.66a1.21,1.21,0,1,1,1.2-1.21A1.21,1.21,0,0,1,215.64,208ZM206,187a1.46,1.46,0,1,0,1.45,1.46A1.45,1.45,0,0,0,206,187Zm0,2.66a1.21,1.21,0,1,1,1.2-1.2A1.2,1.2,0,0,1,206,189.62Zm-1.87,10.44a1.46,1.46,0,1,0,1.45,1.46A1.46,1.46,0,0,0,204.08,200.06Zm0,2.66a1.21,1.21,0,1,1,1.2-1.2A1.2,1.2,0,0,1,204.08,202.72Zm-10.83,27a1.46,1.46,0,1,0,1.46,1.45A1.45,1.45,0,0,0,193.25,229.75Zm0,2.66a1.21,1.21,0,1,1,1.21-1.21A1.21,1.21,0,0,1,193.25,232.41Zm-2.33-29.29a1.46,1.46,0,0,0,0,2.91,1.46,1.46,0,1,0,0-2.91Zm0,2.66a1.21,1.21,0,1,1,1.21-1.21A1.21,1.21,0,0,1,190.92,205.78Zm-11.09,29a1.45,1.45,0,1,0,1.45,1.45A1.45,1.45,0,0,0,179.83,234.77Zm0,2.65a1.2,1.2,0,1,1,1.2-1.2A1.2,1.2,0,0,1,179.83,237.42Zm8.3,24.46a1.46,1.46,0,1,0,1.45,1.46A1.46,1.46,0,0,0,188.13,261.88Zm0,2.66a1.21,1.21,0,1,1,1.2-1.2A1.21,1.21,0,0,1,188.13,264.54Zm36.37-36.12a1.46,1.46,0,1,0,1.46,1.45A1.45,1.45,0,0,0,224.5,228.42Zm0,2.66a1.21,1.21,0,1,1,1.21-1.21A1.21,1.21,0,0,1,224.5,231.08Zm-10.19,21a1.46,1.46,0,1,0,1.45,1.46A1.46,1.46,0,0,0,214.31,252.06Zm0,2.66a1.21,1.21,0,1,1,1.2-1.2A1.2,1.2,0,0,1,214.31,254.72Zm12.3,2.62a1.46,1.46,0,1,0,0,2.91,1.46,1.46,0,0,0,0-2.91Zm0,2.66a1.21,1.21,0,1,1,1.2-1.2A1.21,1.21,0,0,1,226.61,260Zm-1.91,9.07a1.45,1.45,0,1,0,1.45,1.45A1.45,1.45,0,0,0,224.7,269.07Zm0,2.65a1.2,1.2,0,1,1,1.2-1.2A1.2,1.2,0,0,1,224.7,271.72Z" style="fill:#fff"></path><path d="M193.11,194.62c-11.89,18.72-33.12,57.32-27,68.51s42.64,19.82,55.15,22.59c4.12.91,20.37-28,16.32-30-6.87-3.39-39.88-10.84-40.85-13.14-.6-1.44,7-27,8.43-42.18C207,180.64,196.8,188.81,193.11,194.62Z" style="fill:#d3766a"></path><path d="M234,254.3s13,2.37,21.44,4.32c4.7,1.09,12.6,3.68,15.69,6.06,4.62,3.57,21.67,21.41,17.44,25.64C284.69,294.15,272,277,272,277s14.35,16.22,8.88,20-17.23-17.58-17.23-17.58,14.37,17,8.12,20c-4.73,2.26-16.48-16.47-16.48-16.47s12.26,14.69,7.5,17.22c-5.26,2.8-17.19-13.81-17.19-13.81-13.17,4.4-21.24,1.1-26.71-1.93C217.56,283.6,234,254.3,234,254.3Z" style="fill:#d3766a"></path><path d="M267.38,271c1.76,1.84,3.54,3.7,5.13,5.69s3.1,4,4.49,6.18a42.6,42.6,0,0,1,4.63,8.81c-2.53-5.36-8.1-12.58-9.68-14.58s-3.07-4.05-4.65-6.05C267.26,271,267.34,271,267.38,271Z" style="fill:#263238"></path><path d="M260.08,276.62c2.14,2.45,4.35,4.81,6.38,7.35s3.72,5.12,5.56,7.79c.14.2,0,.21-.16,0-1.95-2.59-3.95-4.84-5.93-7.41s-3.85-5.21-5.91-7.69C260,276.63,260.05,276.58,260.08,276.62Z" style="fill:#263238"></path><path d="M253,280.29a72.49,72.49,0,0,1,8.9,12c.13.21-.07.2-.22,0-2.88-4-5.12-7.23-8.81-11.86C252.77,280.34,252.88,280.22,253,280.29Z" style="fill:#263238"></path><path d="M235.17,253.71l-28,31.76s-38.09-10.44-43-23.8,15.2-49.44,26.1-64.28,17.38-14.18,15.44,3.27c-1.74,15.63-8.61,40.57-8,41.46S235.17,253.71,235.17,253.71Z" style="fill:#95E1D3"></path><path d="M194.68,192l-.17.19a1.17,1.17,0,0,1,.27.75,1.21,1.21,0,0,1-1.2,1.21A1.1,1.1,0,0,1,193,194l-.16.2a1.45,1.45,0,0,0,2.23-1.23A1.42,1.42,0,0,0,194.68,192ZM202,212.35a1.46,1.46,0,1,0,1.46,1.45A1.45,1.45,0,0,0,202,212.35Zm0,2.66a1.21,1.21,0,1,1,1.21-1.21A1.21,1.21,0,0,1,202,215Zm-.16,28.66a1.19,1.19,0,0,1-1.16.9,1.21,1.21,0,0,1-1.21-1.2,1.23,1.23,0,0,1,.09-.47l-.22-.08a1.26,1.26,0,0,0-.12.55,1.46,1.46,0,0,0,1.46,1.45,1.43,1.43,0,0,0,1.39-1.07Zm-24.9,9.72a1.46,1.46,0,1,0,1.46,1.45A1.45,1.45,0,0,0,176.94,253.39Zm0,2.66a1.21,1.21,0,1,1,1.21-1.21A1.21,1.21,0,0,1,176.94,256.05Zm3.59,16a1.46,1.46,0,1,0,1.45,1.45A1.45,1.45,0,0,0,180.53,272.06Zm0,2.66a1.21,1.21,0,1,1,1.2-1.21A1.21,1.21,0,0,1,180.53,274.72Zm8.07-57.19a1.45,1.45,0,1,0,1.46,1.45A1.45,1.45,0,0,0,188.6,217.53Zm0,2.65a1.2,1.2,0,1,1,1.21-1.2A1.2,1.2,0,0,1,188.6,220.18Zm-1.2,24.72a1.45,1.45,0,1,0,1.45,1.45A1.45,1.45,0,0,0,187.4,244.9Zm0,2.65a1.2,1.2,0,1,1,1.2-1.2A1.2,1.2,0,0,1,187.4,247.55Zm12.42,18.86a1.46,1.46,0,1,0,1.45,1.45A1.45,1.45,0,0,0,199.82,266.41Zm0,2.66a1.21,1.21,0,1,1,1.2-1.21A1.21,1.21,0,0,1,199.82,269.07ZM171,266.41a1.45,1.45,0,0,0-1.45,1.45,1.42,1.42,0,0,0,.24.79h0l.69.55h0a1.21,1.21,0,0,0,.5.1,1.46,1.46,0,0,0,0-2.91Zm0,2.66a1.21,1.21,0,1,1,1.2-1.21A1.21,1.21,0,0,1,171,269.07Zm0-26.43a1.45,1.45,0,1,0,1.45,1.45A1.45,1.45,0,0,0,171,242.64Zm0,2.65a1.2,1.2,0,1,1,1.2-1.2A1.2,1.2,0,0,1,171,245.29Zm4.23-22.79-.21,0-.15.29a1,1,0,0,1,.36-.06,1.21,1.21,0,1,1-1.14,1.6c-.05.09-.1.18-.14.27h0a1.43,1.43,0,0,0,1.28.78,1.46,1.46,0,0,0,0-2.91Zm16.71,53.6a1.46,1.46,0,1,0,1.45,1.46A1.46,1.46,0,0,0,191.93,276.1Zm0,2.66a1.21,1.21,0,1,1,1.2-1.2A1.21,1.21,0,0,1,191.93,278.76Zm7.89-24.49a1.45,1.45,0,1,0,1.45,1.45A1.45,1.45,0,0,0,199.82,254.27Zm0,2.65a1.2,1.2,0,1,1,1.2-1.2A1.2,1.2,0,0,1,199.82,256.92ZM213,264.54a1.46,1.46,0,1,0,1.45,1.45A1.45,1.45,0,0,0,213,264.54Zm0,2.66a1.21,1.21,0,1,1,1.2-1.21A1.21,1.21,0,0,1,213,267.2Zm-4.82,6.9a1.45,1.45,0,1,0,1.45,1.45A1.46,1.46,0,0,0,208.16,274.1Zm0,2.65a1.2,1.2,0,1,1,1.2-1.2A1.21,1.21,0,0,1,208.16,276.75Zm-2.87-87.33h0a1.19,1.19,0,0,1-.53-1,.19.19,0,0,1,0-.08,2.23,2.23,0,0,0-.2-.3,1.21,1.21,0,0,0-.06.38,1.45,1.45,0,0,0,.91,1.35A2.06,2.06,0,0,0,205.29,189.42Zm-1.21,10.64a1.46,1.46,0,1,0,1.45,1.46A1.46,1.46,0,0,0,204.08,200.06Zm0,2.66a1.21,1.21,0,1,1,1.2-1.2A1.2,1.2,0,0,1,204.08,202.72Zm-10.83,27a1.46,1.46,0,1,0,1.46,1.45A1.45,1.45,0,0,0,193.25,229.75Zm0,2.66a1.21,1.21,0,1,1,1.21-1.21A1.21,1.21,0,0,1,193.25,232.41Zm-2.33-29.29a1.46,1.46,0,0,0,0,2.91,1.46,1.46,0,1,0,0-2.91Zm0,2.66a1.21,1.21,0,1,1,1.21-1.21A1.21,1.21,0,0,1,190.92,205.78Zm-11.09,29a1.45,1.45,0,1,0,1.45,1.45A1.45,1.45,0,0,0,179.83,234.77Zm0,2.65a1.2,1.2,0,1,1,1.2-1.2A1.2,1.2,0,0,1,179.83,237.42Zm8.3,24.46a1.46,1.46,0,1,0,1.45,1.46A1.46,1.46,0,0,0,188.13,261.88Zm0,2.66a1.21,1.21,0,1,1,1.2-1.2A1.21,1.21,0,0,1,188.13,264.54Zm26.18-12.48a1.46,1.46,0,1,0,1.45,1.46A1.46,1.46,0,0,0,214.31,252.06Zm0,2.66a1.21,1.21,0,1,1,1.2-1.2A1.2,1.2,0,0,1,214.31,254.72Zm12.3,2.62a1.46,1.46,0,1,0,0,2.91,1.46,1.46,0,0,0,0-2.91Zm0,2.66a1.21,1.21,0,1,1,1.2-1.2A1.21,1.21,0,0,1,226.61,260Z" style="fill:#fff"></path><path d="M224.63,253.2c-4.33,4.27-8.46,8.75-12.49,13.3-2,2.23-4,4.46-5.85,6.77s-3.81,4.92-5.79,7.3c-.09.11.06.26.16.15,2-2.31,4.27-4.48,6.37-6.75s4-4.43,6-6.66c4-4.55,8.07-9.11,12-13.8A.23.23,0,0,0,224.63,253.2Z" style="fill:#263238"></path><path d="M232.94,253c-3-.37-35.55-10.18-35.59-10.19s2.19-11.13,2.65-13.22q1.41-6.44,3.08-12.79c0-.1.19-.08.18,0-.32,2.6-.72,5.2-1.17,7.78.44-1.12.91-2.23,1.44-3.29a.09.09,0,0,1,.17.07c-.68,2.17-1.44,4.32-2.2,6.47-.12.57-.2,1.14-.32,1.71-.45,2.15-.92,4.3-1.42,6.43-.25,1.05-1.24,5.13-1.48,6.22,4.65,1.12,32,9.41,34.71,10.58C233.09,252.81,233,253,232.94,253Z" style="fill:#263238"></path><path d="M163.43,257.59a16.31,16.31,0,0,0,.73,2.89,18.52,18.52,0,0,0,1.2,2.69,20.45,20.45,0,0,0,1.62,2.46c.59.79,1.26,1.53,1.93,2.29-.43-.27-.84-.56-1.25-.87a12.32,12.32,0,0,1-1.13-1,12,12,0,0,1-1.83-2.48A10,10,0,0,1,163.43,257.59Z" style="fill:#263238"></path><path d="M218.42,198c-4,.8-10.73-5.6-13.27-10.68-.17-.35.49-3.92,1.08-8.31.35-2.66.68-5.63.78-8.37,0-.56,17,4.81,17,4.81A43.54,43.54,0,0,0,222,185.88,6.83,6.83,0,0,0,222,187c0,.05,0,.11,0,.18C222.32,189.34,222.34,197.22,218.42,198Z" style="fill:#d3766a"></path><path d="M208.06,170.75c.62,4.66,3.08,15.93,12.23,16.48a11.13,11.13,0,0,0,1.75,0,1,1,0,0,0,0-.19,5.9,5.9,0,0,1-.08-1.13A43.68,43.68,0,0,1,224,175.44S211.76,171.57,208.06,170.75Z" style="fill:#263238"></path><path d="M208.86,148c-3.25,5.47-4.29,23.31-1,28.14,4.74,7,14.59,10,21.07,3.78,6.28-6,7.23-29.26,3.37-33.86C226.62,139.3,213.65,139.94,208.86,148Z" style="fill:#d3766a"></path><path d="M219.09,159.42a14.44,14.44,0,0,1,1.56-.43,2.6,2.6,0,0,1,1.67-.14.84.84,0,0,1,.47.9,2.07,2.07,0,0,1-1.59,1.36A3,3,0,0,1,219,161,.89.89,0,0,1,219.09,159.42Z" style="fill:#263238"></path><path d="M232.61,162.53c-.38-.41-.79-.72-1.2-1.09a2.6,2.6,0,0,0-1.42-.88.83.83,0,0,0-.83.59,2.07,2.07,0,0,0,.8,1.94,3,3,0,0,0,2,.92A.89.89,0,0,0,232.61,162.53Z" style="fill:#263238"></path><path d="M217.64,174.61c.26.32.49.75.93.84a3.24,3.24,0,0,0,1.34-.14,0,0,0,0,1,0,.07,1.65,1.65,0,0,1-1.62.46,1.29,1.29,0,0,1-.81-1.19C217.51,174.58,217.61,174.56,217.64,174.61Z" style="fill:#263238"></path><path d="M220.29,173.22a10.47,10.47,0,0,1,4.83.33c.14,0,.3-.26.34-.39h0c0-.05.24-2.59.24-2.59.32.21,2,1.2,2,.71a62.63,62.63,0,0,0-.07-12.62.11.11,0,0,0-.22,0c-.4,3.87-.11,7.8-.44,11.7a7.21,7.21,0,0,0-1.87-.83c-.14,0-.11,2.75-.21,3.16a6,6,0,0,0-4.53,0C219.77,173,219.52,173.42,220.29,173.22Z" style="fill:#263238"></path><path d="M228.83,164.42s.08.07.07.11c-.25,1.12-.34,2.43.6,3,0,0,0,.08,0,.06C228.28,167.18,228.42,165.43,228.83,164.42Z" style="fill:#263238"></path><path d="M228.52,165.89a1.82,1.82,0,0,0,.24.91,1.32,1.32,0,0,0,.86.57,1.16,1.16,0,0,0,1-.32,2.22,2.22,0,0,0,.48-.8,3.37,3.37,0,0,0,.12-.55,2.35,2.35,0,0,0-.06-1.15,3.75,3.75,0,0,1-.18.82,5.56,5.56,0,0,1-.29.71c-.24.46-.59.82-1,.73s-.66-.44-.74-1a8.64,8.64,0,0,1-.05-1.62A3.86,3.86,0,0,0,228.52,165.89Z" style="fill:#263238"></path><path d="M221.89,163.37c0-.05-.09,0-.09.09-.08,1.13-.36,2.42-1.42,2.7,0,0,0,.06,0,.06C221.65,166.17,222,164.45,221.89,163.37Z" style="fill:#263238"></path><path d="M221.78,164.86a1.72,1.72,0,0,1-.49.81,1.28,1.28,0,0,1-1,.31,1.19,1.19,0,0,1-.86-.59,2.11,2.11,0,0,1-.23-.9,3.51,3.51,0,0,1,0-.56,2.45,2.45,0,0,1,.38-1.09,4,4,0,0,0-.06.84,6.1,6.1,0,0,0,.08.76c.1.51.34,1,.74,1s.75-.24,1-.72a8.42,8.42,0,0,0,.5-1.54A3.77,3.77,0,0,1,221.78,164.86Z" style="fill:#263238"></path><path d="M235.27,154.69c-6.86,3.16-14.2-4.63-14.2-4.63a6.77,6.77,0,0,1-7.5,3.07s-3,10.2-5.71,9.71c-4.18-.73-3.07-15.13-1.28-17.69s5.46-2.68,5.46-2.68a7,7,0,0,1,3.55-3.65c3.22-1.7,12.58,2.92,12.58,2.92a9.33,9.33,0,0,1,3.1-3,2.63,2.63,0,0,1,3.67,1,6.3,6.3,0,0,0-1.44,2.4c-1,3,1.48,3.38,1.93.61a4.41,4.41,0,0,0-.49-3c1.53-1.59,3.64-1.84,4.69-.67C241.55,141.19,241,152.06,235.27,154.69Z" style="fill:#263238"></path><path d="M229.28,179.57a9.71,9.71,0,0,0,1.69-2.74,25,25,0,0,0,1.14-3,43.73,43.73,0,0,0,1.44-6.29c.35-2.12.55-4.27.7-6.43s.23-4.31.23-6.48a54.21,54.21,0,0,1,.15,6.5,56.49,56.49,0,0,1-.59,6.49,40.63,40.63,0,0,1-1.56,6.33A14.78,14.78,0,0,1,229.28,179.57Z" style="fill:#263238"></path><path d="M227.69,164.94c.31-2.72,2-4.76,3.81-4.55s3,2.57,2.7,5.28-2,4.75-3.81,4.55S227.39,167.65,227.69,164.94Zm.66.07c-.26,2.35.68,4.39,2.11,4.55s2.81-1.61,3.08-4-.68-4.39-2.11-4.55S228.62,162.66,228.35,165Z" style="fill:#ebebeb"></path><path d="M215.33,163.54a4.63,4.63,0,1,1,4,5.43A4.8,4.8,0,0,1,215.33,163.54Zm.66.07a4,4,0,1,0,4.42-3.81A4.13,4.13,0,0,0,216,163.61Z" style="fill:#ebebeb"></path><path d="M224.35,164.11c2.56-.59,3.58.34,3.58.35l.47-.47c-.05-.05-1.25-1.2-4.2-.53Z" style="fill:#ebebeb"></path><path d="M215.71,163.14l.2-.63c-.42-.13-10.24-3.12-11.33-3.3s-4,1-4.32,1.14l.26.61a12.68,12.68,0,0,1,3.9-1.1h.05C205.3,160,212.19,162.07,215.71,163.14Z" style="fill:#ebebeb"></path><path d="M209.12,162.83s-2.65-6.42-5.47-5.59-1.7,9.51,1,11.27a3.07,3.07,0,0,0,4.38-.72Z" style="fill:#d3766a"></path><path d="M204,159.72c-.05,0-.07.05,0,.08,1.88,1.3,2.55,3.46,2.87,5.62a1.7,1.7,0,0,0-2.39-1c-.06,0,0,.12,0,.12a1.9,1.9,0,0,1,1.89,1.1,8.6,8.6,0,0,1,.6,1.86c.06.21.42.18.39-.05v0C208,164.77,206.81,160.62,204,159.72Z" style="fill:#263238"></path><path d="M222.93,190.21s-.05,0-.05,0c.31,3.28.8,10.9-4.37,10.59-2.08-.12-4-1.36-5.63-2.58a28.74,28.74,0,0,1-4.52-4.3,42.39,42.39,0,0,1-4.24-5.57c-.05-.08-.18,0-.13.1,1.29,2,2.37,4,3.85,5.87a24.68,24.68,0,0,0,4.87,4.76c1.73,1.26,3.78,2.49,6,2.51a4.14,4.14,0,0,0,4.12-3.26A18.24,18.24,0,0,0,222.93,190.21Z" style="fill:#263238"></path></g><g id="freepik--Plant--inject-22"><path d="M84,362.5a78.22,78.22,0,0,1,1.83-12.83c.9-3.8,2.18-7.69,4.58-10.83a13.76,13.76,0,0,1,9-5.6c3.52-.43,6.83,1.14,9.46,3.36,3.26,2.74,5.76,6.38,8.11,9.91a121.56,121.56,0,0,1,7,12.26.12.12,0,0,1-.21.11,76.1,76.1,0,0,0-6.26-10.25,64.93,64.93,0,0,0-7.21-8.73c-2.42-2.36-5.49-4.57-9-4.68a11,11,0,0,0-8.8,4.53c-2.35,3-3.54,6.75-4.43,10.4a78.78,78.78,0,0,0-1.81,12.23c-.69,8.45-.87,17-1.06,25.44Q85.06,395,85,402.21l-.06,7.3a45.84,45.84,0,0,1-.28,7c-.08.47-.85.43-.93,0a42.41,42.41,0,0,1-.33-6.67c0-2.3-.06-4.61-.08-6.91q-.06-6.72,0-13.44C83.3,380.5,83.41,371.48,84,362.5Z" style="fill:#263238"></path><path d="M96.1,356.13c.45-2.39,1.26-5.51,2.62-7.36,2.45-3.33,5.09-1.88,2.65,1.8a22.16,22.16,0,0,0-3.44,9.09s4.12,5.88,9.08,8.78c-.21-2.26-.85-5.74-.41-9.09,1-7.27,5.35-6.86,4.26-1.09a49.88,49.88,0,0,0-1,11.67,24.84,24.84,0,0,0,5.31,2.6c-.29-.84-.59-1.85-.92-3.08-1.77-6.51,2.57-8.54,2.71-4.88a52.37,52.37,0,0,0,1.69,9.24c2.38.8,4.36,1.35,5.57,1.77a20.35,20.35,0,0,1,8.14,5.56,25.61,25.61,0,0,0,5.55-7.18c-1.52-1.3-3.92-3.24-7.25-5.59-6.24-4.41-4.07-10,.88-6.51,3.58,2.49,6.34,7.12,7.6,9.49a38.53,38.53,0,0,0,2.83-13c-4.9-4.61-17-11-13.37-11,3.29,0,10.65,4.82,13.35,6.68a37.45,37.45,0,0,0-.42-3.77c-4.62-3-19.62-7.74-17.23-9.09,2.63-1.49,13.09,3.36,16.26,4.89a18.93,18.93,0,0,0-2.77-5.74c-6.39-8.54-17.89-11.49-22.91-9.86-3.55,1.15-2.51,10.16-3.28,9.86C97.34,334.57,90.86,338.62,96.1,356.13Zm35-1c1-1.22,5.7,2.38,4.34,4.34S129.77,356.71,131.08,355.14Zm-24.47-7.68c1.23.78-.59,5.33-2.49,4C102.51,350.24,105.37,346.66,106.61,347.46Z" style="fill:#95E1D3"></path><path d="M108.48,348.85c.64-1.27,1.32-2.54,2-3.76a21.87,21.87,0,0,1,2.36-3.42c-.21-.25-.4-.51-.61-.75s.06-.24.15-.14c.24.27.46.55.7.82a.29.29,0,0,1,.1.12c.88,1.06,1.71,2.15,2.5,3.26a35,35,0,0,1,4.14,1.2c1.4.47,2.79.95,4.15,1.53.14.06.07.29-.07.23-1.35-.6-2.71-1.17-4.11-1.65s-2.67-.79-4-1.17c.43.62.86,1.24,1.27,1.87a49,49,0,0,1,7.33,3c2.47,1.17,4.86,2.54,7.23,3.91a.12.12,0,0,1-.13.21,77.58,77.58,0,0,0-7.19-3.72c-2.3-1.08-4.67-2-7-3,5.83,9.09,9.33,19.58,14,29.3.07.14-.15.25-.21.11-1.43-3.4-3.07-6.72-4.63-10.07-1.39-3-2.75-6-4.15-9.05-.41-.88-.83-1.76-1.25-2.63.25,4.85.15,9.79.94,14.59a.12.12,0,1,1-.23,0c-.34-5.19-1.26-10.3-1.22-15.52,0,0,0,0,0-.06-1-2-2-4-3.18-5.85-1.93,4.54-4,9.16-4.86,14,0,.15-.27.08-.23-.07,1.31-4.89,2.53-9.79,4.88-14.31a54.72,54.72,0,0,0-4.1-5.92c-.65,1.21-1.48,2.35-2.21,3.5s-1.43,2.27-2.09,3.43a48.83,48.83,0,0,0-3.65,7.7c0,.15-.29.07-.23-.07C106.08,354,107.21,351.36,108.48,348.85Z" style="fill:#263238"></path><path d="M62.55,359.91c3.74-3.75,8.08-8.68,13.86-8.67,5.58,0,9.68,4.51,12,9.14,2.47,4.84,3.35,10.33,4,15.67A187.82,187.82,0,0,1,94,395.31c.1,3.57.09,7.15,0,10.73a71.31,71.31,0,0,1-.82,10.83c-.1.58-1,.6-1.07,0-.16-3,0-6,0-9.06s0-5.93-.14-8.9c-.22-6-.65-12-1.36-18-.61-5.2-1.1-10.56-2.66-15.59-1.41-4.54-4-9.73-8.64-11.73-6.28-2.72-12.42,2.25-16.53,6.45C62.63,360.17,62.44,360,62.55,359.91Z" style="fill:#263238"></path><path d="M43.47,368.29h0c0,.77.07,1.53.13,2.27A13.56,13.56,0,0,1,49.72,368c5.31-.56,5,3.47,1.43,3.64a20.16,20.16,0,0,0-7.28,1.46c.86,7,2.79,12.64,3.08,12.72a102.76,102.76,0,0,0,14-1.77c-1.32-2.82-4.32-6.55-2.79-6.86s3.2,3,4,6.6A66.79,66.79,0,0,0,72.43,381c-2.33-2-5.94-4.53-4.56-5.6s4.24,2.46,5.95,5A20.72,20.72,0,0,0,78.23,378c-3.14-4.62-10.81-5.56-9.81-8.9s8.18,1.29,11.39,7.48c3.79-3.92,4.89-9.47,4.5-14.22-3.3-.38-9.64.32-9.18-2s5-1.92,8.79-.54a13.08,13.08,0,0,0-2.2-5.21c-3.47-4.45-14.06,1.21-14.06,1.21s1.13-10.65-2.91-12.49c-2.33-1.05-6.44-1-10.56,1.38,2.31.19,5.1.93,6.23,2.53,1.43,2.05-.83,3.16-2.27,2.22-1-.67-2.91-2.78-6.33-3.06A20.75,20.75,0,0,0,48,350.57c-.39.55-.75,1.13-1.12,1.76a14.53,14.53,0,0,1,12.41.22c4.59,2.28,2,7.05-1.93,5.2s-7.71-3.68-11.9-2.63a29.72,29.72,0,0,0-2,11.88,20.87,20.87,0,0,1,6.81-3.27c4.56-1.2,5.94,1.53.93,2A19.94,19.94,0,0,0,43.47,368.29ZM49,361c-.32-1.48,2.92-1.91,3.46-.71C52.94,361.28,49.33,362.44,49,361Zm27.7,8.19c.31-.81,2.47.11,2.28,1.12C78.74,371.61,76.44,370,76.73,369.15Zm-15.29,5.19c1.58-.63,4,3.29,2.32,4.19S60.15,374.86,61.44,374.34Z" style="fill:#95E1D3"></path><path d="M47.57,385c2.38-4,4.73-8,7.23-11.89q1.74-2.73,3.65-5.35l-.57-.13c-.32-.07-.63-.13-1-.18-.73-.13-1.47-.24-2.2-.31s-1.4-.11-2.09-.12a10.49,10.49,0,0,0-2.24.12c-.09,0-.1-.12,0-.12.75,0,1.51-.07,2.25-.08s1.45,0,2.17,0,1.36.11,2,.21l1.11.2a4.83,4.83,0,0,1,.66.14q1.93-2.65,4-5.21a47.46,47.46,0,0,0-13-4.16c-.08,0-.05-.13,0-.12a44.51,44.51,0,0,1,13.21,4l2.3-2.79c.86-1,1.78-2,2.56-3.14,0-.07.15,0,.1.07a43.54,43.54,0,0,0-3,3.7h0a45.27,45.27,0,0,1,4.84,3.89c1.58,1.4,3.13,2.85,4.63,4.35,0,.05,0,.14-.08.08-1.49-1.47-3-2.88-4.64-4.22s-3.3-2.56-4.91-3.88a0,0,0,0,1,0,0l-1.11,1.46-.56.73,0,.05-1.85,2.43a19.51,19.51,0,0,1,1.84,3.32c.53,1.12,1,2.28,1.42,3.45a50.19,50.19,0,0,1,2,7.45c0,.08-.1.11-.12,0A43.2,43.2,0,0,0,64,371.74c-.47-1.22-1-2.41-1.54-3.59S61.4,366,60.94,365c-.54.71-1.07,1.42-1.59,2.14l-.45.63s0,.11,0,.11h0c-1.64,2.29-3.19,4.62-4.71,7a1.89,1.89,0,0,1,.21.51q.15.44.27.87A17.52,17.52,0,0,1,55,378c.1.56.18,1.13.23,1.7a17.53,17.53,0,0,0,.15,1.92.06.06,0,1,1-.12,0,6.36,6.36,0,0,0-.13-1.79c-.09-.62-.2-1.23-.34-1.83s-.28-1.09-.44-1.63c-.08-.27-.17-.54-.26-.8s-.12-.29-.17-.44c-.71,1.11-1.41,2.22-2.1,3.34q-2.06,3.35-4.09,6.69C47.68,385.24,47.5,385.14,47.57,385Z" style="fill:#263238"></path><path d="M84.27,415.58c.06-2.25.42-4.52.66-6.76s.5-4.51.74-6.76a102.09,102.09,0,0,1,1.74-13,19,19,0,0,1,5.31-9.75,8.57,8.57,0,0,1,5.2-2.48,8.9,8.9,0,0,1,5.52,1.7,19.14,19.14,0,0,1,4.65,4.89,48.58,48.58,0,0,1,3.62,5.88c0,.08-.08.13-.12.06a30.06,30.06,0,0,0-7.84-8.78,9.14,9.14,0,0,0-4.94-2.06A6.66,6.66,0,0,0,94,380.39c-2.63,2.28-4.15,5.65-5.06,8.95a90.42,90.42,0,0,0-1.95,12q-.48,3.58-.94,7.16c-.32,2.38-.51,4.81-1,7.15A.39.39,0,0,1,84.27,415.58Z" style="fill:#263238"></path><path d="M95.36,398.07a12.6,12.6,0,0,0,2.45,2.51c-.37-2.2-.82-6.11.29-8.19,1.73-3.24,3.77-1.62,2.74,1.19a23,23,0,0,0-1.66,8,34.67,34.67,0,0,0,7.49,3.54,12.77,12.77,0,0,1-.24-3.86c.34-3.45,3-3.39,2.3.21a21.56,21.56,0,0,0-.36,4.22A77.86,77.86,0,0,0,120,408.28a34,34,0,0,0,4.83-8.6c-2.81-.71-8.51-.87-8.38-2.88.16-2.7,5.68-.62,8.9,1.34a21.33,21.33,0,0,0,1-7.27,35.71,35.71,0,0,0-7.76-1.29c-5.79-.5-5.51-3.78-1.31-3.71,3.1.06,7,1.95,8.87,2.94-1.21-7.88-7.22-12.93-12-13.12-8.1-.33-5.18,9.75-5.18,9.75s-5.49-3.86-10.67-3.76S89.82,390.37,95.36,398.07ZM117,383.5c-.18-1.13,3.43-1.41,3.62.05C120.84,385.18,117.18,384.65,117,383.5Zm5.81,11.83c-.07-.75,1.49-.88,1.84.06C124.89,396,122.88,396.06,122.81,395.33Zm-19.45.69c1.22.17,1.92,4.53-.18,4.45C101.57,400.4,102.33,395.87,103.36,396Z" style="fill:#95E1D3"></path><path d="M105.05,400.86c.2-.54.38-1.09.55-1.65-.15.56-.29,1.13-.4,1.7C105.18,401,105,401,105.05,400.86Z" style="fill:#263238"></path><path d="M107.19,393.85c.38-1.12.81-2.23,1.24-3.33.23-.58.47-1.17.73-1.74a7.34,7.34,0,0,1,.72-1.46,10.58,10.58,0,0,1-.65-1.42,0,0,0,0,1,.07,0,16.52,16.52,0,0,1,1.58,2.45c.23.38.44.77.66,1.15a12.4,12.4,0,0,1,1.36.21c.49.09,1,.19,1.45.3l1.45.34c.47.11,1,.27,1.43.34.12,0,.07.2,0,.15a9.85,9.85,0,0,0-1.51-.39c-.47-.1-.93-.18-1.4-.25s-1-.13-1.42-.17-.71-.06-1.07-.09c.19.34.39.67.58,1l.09.16a4.55,4.55,0,0,1,1.16.14c.42.07.84.15,1.25.24.85.19,1.69.39,2.52.62,1.75.49,3.49,1.05,5.22,1.62.09,0,0,.18-.06.14a52.78,52.78,0,0,0-5.24-1.45c-.83-.19-1.66-.38-2.49-.55l-1.25-.27a6.45,6.45,0,0,1-1-.21c.89,1.65,1.73,3.32,2.51,5,1.67,3.72,3.09,7.54,4.53,11.36,0,.09-.11.16-.14.06a105,105,0,0,0-4.83-11.11c-.32-.66-.66-1.31-1-2l-.09.4-.24,1.36c-.15.9-.3,1.8-.44,2.71a31.44,31.44,0,0,0-.65,5.63c0,.12-.18.11-.16,0a25.06,25.06,0,0,0,.2-2.74c.06-.95.13-1.9.24-2.84s.22-1.82.37-2.72l.24-1.36a2.74,2.74,0,0,1,.26-1L112,391.34c-.45-.89-.9-1.78-1.37-2.66-.19-.38-.4-.76-.61-1.14a11.46,11.46,0,0,1-.54,1.37l-.63,1.53c-.46,1.13-.89,2.27-1.32,3.41-.62,1.63-1.29,3.29-1.8,5C106.22,397.17,106.64,395.48,107.19,393.85Z" style="fill:#263238"></path><path d="M105.6,399.21l.12-.39Z" style="fill:#263238"></path><polygon points="70.72 411.2 71.29 423.26 72.76 454.34 104.83 454.34 106.29 423.26 106.86 411.2 70.72 411.2" style="fill:#37474f"></polygon><polygon points="70.72 411.2 71.29 423.26 106.29 423.26 106.86 411.2 70.72 411.2" style="fill:#263238"></polygon><rect x="68.44" y="406.32" width="40.7" height="9.75" transform="translate(177.59 822.4) rotate(180)" style="fill:#37474f"></rect><rect x="96.6" y="454.34" width="5.63" height="5.1" style="fill:#37474f"></rect><rect x="96.6" y="454.34" width="5.63" height="2.55" style="fill:#263238"></rect><rect x="75.36" y="454.34" width="5.62" height="5.1" style="fill:#37474f"></rect><rect x="75.36" y="454.34" width="5.62" height="2.55" style="fill:#263238"></rect></g></svg>