<svg xmlns="http://www.w3.org/2000/svg" viewBox="0 0 500 500"><g id="freepik--background-complete--inject-27"><path d="M87.59,239.56l-13.12.27-6.66.12c-2.23,0-4.47,0-6.7.05h-.44v-.44l-.06-11.19v-.51h.5l13.24.06c4.42,0,8.83.11,13.24.16h.28v.27c0,1.89-.09,3.78-.13,5.65Zm0,0-.14-5.66c0-1.86-.11-3.7-.13-5.53l.27.27c-4.41.05-8.82.16-13.24.16l-13.24.07.5-.5,0,11.19-.45-.45c2.18,0,4.36,0,6.55,0l6.58.12Z" style="fill:#ebebeb"></path><path d="M72.82,253.67l-13.12.27-6.66.12c-2.23,0-4.47,0-6.7.05H45.9v-.44l-.06-11.19V242h.5l13.24.06c4.41,0,8.83.11,13.24.16h.28v.27c0,1.89-.08,3.78-.13,5.65Zm0,0L72.68,248c-.05-1.86-.11-3.7-.13-5.53l.27.27c-4.41.05-8.83.16-13.24.16L46.34,243l.5-.49-.05,11.19-.45-.45c2.18,0,4.36,0,6.55.05l6.58.12Z" style="fill:#ebebeb"></path><path d="M453.66,253.67l-13.13.27-6.66.12c-2.22,0-4.46,0-6.69.05h-.45v-.44l-.05-11.19V242h.5l13.24.06c4.41,0,8.83.11,13.24.16h.27v.27c0,1.89-.08,3.78-.13,5.65Zm0,0-.14-5.66c0-1.86-.12-3.7-.13-5.53l.27.27c-4.41.05-8.83.16-13.24.16l-13.24.06.5-.49-.06,11.19-.44-.45c2.18,0,4.36,0,6.54.05l6.58.12Z" style="fill:#ebebeb"></path><path d="M438.89,55.2l-13.13.28-6.66.11c-2.22,0-4.46,0-6.69.06H412V55.2l0-11.19v-.5h.51l13.24.06c4.41,0,8.82.12,13.24.17h.27V44c0,1.9-.09,3.79-.13,5.65Zm0,0-.14-5.65c-.05-1.87-.12-3.71-.14-5.54l.28.27c-4.42,0-8.83.16-13.24.17l-13.24.06.5-.5-.06,11.19-.44-.45c2.18,0,4.35,0,6.54.06l6.58.11Z" style="fill:#ebebeb"></path><path d="M453.66,69.31l-13.13.28-6.66.11c-2.22,0-4.46,0-6.69.06h-.45v-.45l-.05-11.19v-.5h.5l13.24.06c4.41,0,8.83.12,13.24.17h.27v.27c0,1.9-.08,3.79-.13,5.65Zm0,0-.14-5.65c0-1.87-.12-3.71-.13-5.54l.27.27c-4.41,0-8.83.16-13.24.17l-13.24.06.5-.5-.06,11.19-.44-.45c2.18,0,4.36,0,6.54.06l6.58.11Z" style="fill:#ebebeb"></path><path d="M72.82,55.2l-13.12.28L53,55.59c-2.23,0-4.47,0-6.7.06H45.9V55.2L45.84,44v-.5h.5l13.24.06c4.41,0,8.83.12,13.24.17h.28V44c0,1.9-.08,3.79-.13,5.65Zm0,0-.14-5.65c-.05-1.87-.11-3.71-.13-5.54l.27.27c-4.41,0-8.83.16-13.24.17l-13.24.06.5-.5L46.79,55.2l-.45-.45c2.18,0,4.36,0,6.55.06l6.58.11Z" style="fill:#ebebeb"></path><path d="M205.6,166.05l-13.12.28-6.66.11c-2.23.05-4.46,0-6.7.06h-.44v-.45l-.06-11.19v-.5h.5l13.24.07c4.42,0,8.83.11,13.24.16h.28v.27c0,1.9-.09,3.79-.13,5.66Zm0,0-.14-5.65c0-1.86-.11-3.71-.13-5.54l.27.28c-4.41.05-8.82.15-13.24.16l-13.24.06.5-.5-.05,11.19-.45-.44c2.19,0,4.36,0,6.55,0l6.58.11Z" style="fill:#ebebeb"></path><polygon points="47.15 315.71 176.6 315.71 180.77 233.57 42.98 233.57 47.15 315.71" style="fill:#ebebeb"></polygon><path d="M167.11,271.17H53.1l-1.57-28.52H168.94Zm-113-1H166.17l1.7-26.5H52.6Z" style="fill:#dbdbdb"></path><path d="M165.57,304H56.38L55.1,278.24H167.18ZM57.34,303H164.62l1.48-23.72H56.16Z" style="fill:#dbdbdb"></path><path d="M123.22,260H99.05l-.89-6.87h26Zm-23.28-1h22.39l.63-4.85H99.31Z" style="fill:#dbdbdb"></path><path d="M123.22,294.54H99.05l-.89-6.87h26Zm-23.28-1h22.39l.63-4.85H99.31Z" style="fill:#dbdbdb"></path><polygon points="65.1 315.71 63.84 324.66 61.31 342.64 56.37 342.64 56.37 315.71 65.1 315.71" style="fill:#ebebeb"></polygon><polygon points="65.1 315.71 63.84 324.66 56.37 324.66 56.37 315.71 65.1 315.71" style="fill:#dbdbdb"></polygon><polygon points="158.65 315.71 159.91 324.66 162.43 342.64 167.38 342.64 167.38 315.71 158.65 315.71" style="fill:#ebebeb"></polygon><polygon points="158.65 315.71 159.91 324.66 167.38 324.66 167.38 315.71 158.65 315.71" style="fill:#dbdbdb"></polygon><rect x="316.95" y="44.01" width="136.36" height="185.11" style="fill:#ebebeb"></rect><rect x="325.47" y="51.42" width="56.03" height="82.34" style="fill:#fff"></rect><rect x="388.76" y="51.42" width="56.03" height="82.34" style="fill:#fff"></rect><rect x="325.47" y="139.37" width="56.03" height="82.34" style="fill:#fff"></rect><rect x="388.76" y="139.37" width="56.03" height="82.34" style="fill:#fff"></rect><rect x="316.95" y="44.01" width="37.03" height="264.83" style="fill:#dbdbdb"></rect><polygon points="346.96 56.6 347.25 85.23 347.35 113.87 347.55 171.14 347.35 228.41 347.25 257.04 346.96 285.67 346.67 257.04 346.57 228.41 346.37 171.14 346.57 113.87 346.68 85.23 346.96 56.6" style="fill:#ebebeb"></polygon><polygon points="329.95 63.24 330.24 88.81 330.4 114.38 330.54 165.51 330.41 216.65 330.24 242.22 329.95 267.78 329.67 242.22 329.5 216.65 329.37 165.51 329.5 114.38 329.67 88.81 329.95 63.24" style="fill:#ebebeb"></polygon><polygon points="338.46 69.28 338.74 99.22 338.85 129.15 339.04 189.03 338.85 248.91 338.75 278.84 338.46 308.78 338.17 278.84 338.07 248.91 337.87 189.03 338.07 129.15 338.17 99.22 338.46 69.28" style="fill:#ebebeb"></polygon><polygon points="323.63 58.11 323.92 89.44 324.02 120.78 324.22 183.45 324.02 246.11 323.92 277.45 323.63 308.78 323.34 277.45 323.24 246.11 323.04 183.45 323.24 120.78 323.35 89.44 323.63 58.11" style="fill:#ebebeb"></polygon><rect x="416.27" y="44.01" width="37.03" height="264.83" transform="translate(869.58 352.85) rotate(180)" style="fill:#dbdbdb"></rect><polygon points="423.3 56.6 423.58 85.23 423.69 113.87 423.88 171.14 423.69 228.41 423.58 257.04 423.3 285.67 423.01 257.04 422.9 228.41 422.71 171.14 422.91 113.87 423.01 85.23 423.3 56.6" style="fill:#ebebeb"></polygon><polygon points="440.3 63.24 440.59 88.81 440.75 114.38 440.89 165.51 440.75 216.65 440.59 242.22 440.3 267.78 440.01 242.22 439.85 216.65 439.71 165.51 439.85 114.38 440.02 88.81 440.3 63.24" style="fill:#ebebeb"></polygon><polygon points="431.8 69.28 432.08 99.22 432.19 129.15 432.39 189.03 432.19 248.91 432.09 278.84 431.8 308.78 431.51 278.84 431.41 248.91 431.21 189.03 431.41 129.15 431.51 99.22 431.8 69.28" style="fill:#ebebeb"></polygon><polygon points="446.63 58.11 446.91 89.44 447.02 120.78 447.21 183.45 447.02 246.11 446.91 277.45 446.63 308.78 446.34 277.45 446.24 246.11 446.04 183.45 446.24 120.78 446.34 89.44 446.63 58.11" style="fill:#ebebeb"></polygon><rect x="143.69" y="57.63" width="60.5" height="73.39" style="fill:#ebebeb"></rect><rect x="150.6" y="64.33" width="46.68" height="59.99" style="fill:#fff"></rect><rect x="150.6" y="64.33" width="1.82" height="59.99" style="fill:#dbdbdb"></rect><rect x="204.19" y="57.63" width="1.82" height="73.39" style="fill:#dbdbdb"></rect><rect x="166.24" y="72.6" width="11.01" height="32.79" style="fill:#dbdbdb"></rect><rect x="161.44" y="94.93" width="29.35" height="16.06" style="fill:none;stroke:#ebebeb;stroke-miterlimit:10"></rect><rect x="71.75" y="135.17" width="60.5" height="73.39" style="fill:#ebebeb"></rect><rect x="78.66" y="141.87" width="46.68" height="59.99" style="fill:#fff"></rect><rect x="78.66" y="141.87" width="1.82" height="59.99" style="fill:#dbdbdb"></rect><rect x="132.25" y="135.17" width="1.82" height="73.39" style="fill:#dbdbdb"></rect><rect x="97.48" y="157.38" width="9.43" height="23.84" style="fill:#ebebeb"></rect><rect x="91.51" y="171.87" width="25.33" height="16.43" style="fill:none;stroke:#dbdbdb;stroke-miterlimit:10"></rect></g><g id="freepik--Shadow--inject-27"><ellipse cx="250" cy="421.38" rx="185.22" ry="26.41" style="fill:#ebebeb"></ellipse></g><g id="freepik--Floor--inject-27"><polygon points="34.31 342.64 88.23 342.4 142.16 342.31 250 342.14 357.84 342.31 411.76 342.39 465.69 342.64 411.76 342.88 357.84 342.97 250 343.14 142.16 342.97 88.23 342.88 34.31 342.64" style="fill:#263238"></polygon></g><g id="freepik--Plant--inject-27"><path d="M411.4,194s20.87-2.92,16-28.11C427.39,165.88,404.08,171.12,411.4,194Z" style="fill:#95E1D3"></path><path d="M411.4,194s20.87-2.92,16-28.11C427.39,165.88,404.08,171.12,411.4,194Z" style="opacity:0.1"></path><path d="M412.46,188.73c.41-1.27.89-2.52,1.42-3.75,0-.16,0-.32.05-.48l.09-1q.09-1.12.15-2.25c.09-1.51.19-3,.21-4.52a.07.07,0,0,1,.13,0c0,1.51,0,3,0,4.53q0,1.13-.12,2.25l0,.5a43.67,43.67,0,0,1,4.18-7.15c.72-1,1.47-2,2.28-2.89s1.71-1.86,2.55-2.8a.06.06,0,0,1,.09.09,38.06,38.06,0,0,0-4,5.34c-.64,1-1.23,1.95-1.8,2.95l.19-.08.74-.3,1.71-.64,3.35-1.25c.07,0,.12.09,0,.12-1.11.44-2.21.91-3.3,1.38l-1.62.7-.81.33a2.51,2.51,0,0,1-.56.2c-.42.75-.84,1.51-1.22,2.28a56.86,56.86,0,0,0-2.55,6l-.15.43a12.22,12.22,0,0,1,1.71-.83l2.16-1c1.46-.67,2.92-1.35,4.32-2.15.07,0,.13.08.06.11-1.43.79-2.84,1.62-4.27,2.4-.72.39-1.44.77-2.18,1.13a6.64,6.64,0,0,1-2,.78,25.09,25.09,0,0,0-1.37,5.92c-.23,2.85-.2,5.72-.27,8.57,0,0-.07,0-.08,0-.2-2.59-.32-5.2-.33-7.8A22.76,22.76,0,0,1,412.46,188.73Z" style="fill:#263238"></path><path d="M415.67,173.92a24.47,24.47,0,0,1,.21,4.44s-.06,0-.06,0c-.09-1.47-.1-2.94-.27-4.41C415.54,173.87,415.66,173.84,415.67,173.92Z" style="fill:#263238"></path><path d="M421.64,175.18a16.62,16.62,0,0,0,2.68-1.31c.07-.05.13.06.06.11a10.08,10.08,0,0,1-2.71,1.29C421.62,175.29,421.59,175.21,421.64,175.18Z" style="fill:#263238"></path><path d="M410.74,234c0-2.3.06-4.61.09-6.92,0-7.65.1-15.31.24-23q.17-9.12.42-18.23a.12.12,0,0,1,.06-.08c0-1.66,0-3.32,0-5,0,0,.05-.06.1-.06s.1,0,.1.07l0,5a.09.09,0,0,1,.05.08c.31,10.81.58,21.63.65,32.45,0,2.2,0,4.4,0,6.6q.11,10.59.08,21.17c0,1.12,0,2.25,0,3.37,0,6.45-.06,12.91-.07,19.36,0,.35-.38.52-.79.54s-1-.17-1-.57c0-7.11-.05-14.23-.05-21.35C410.72,243,410.7,238.47,410.74,234Z" style="fill:#263238"></path><path d="M419.45,227s10-7.44,19.56-2.42S450,249,450,249s-14,2-22.79-6.39C418.75,234.49,419.45,227,419.45,227Z" style="fill:#95E1D3"></path><path d="M416.72,227.44a11.83,11.83,0,0,1,5.81-.76,8.54,8.54,0,0,1,1.23-.12l1.41-.11c1-.08,2-.13,2.93-.21,2-.14,4-.27,5.94-.46.07,0,.09.11,0,.12-2,.25-3.91.53-5.87.73-1,.1-2,.2-3,.28-.23,0-.48,0-.73.07a8.89,8.89,0,0,1,.89.22,23.23,23.23,0,0,1,4.55,1.85c.79.14,1.57.36,2.35.54,1.24.29,2.48.61,3.71.94,2.44.64,4.85,1.35,7.27,2.06.08,0,0,.14,0,.12-2.41-.59-4.84-1.14-7.27-1.71l-3.52-.85-.93-.21a29.29,29.29,0,0,1,7.14,6.2,39.12,39.12,0,0,1,4.95,7.82c0,.07-.06.14-.1.07a38.73,38.73,0,0,0-6-7.88c0,.14.09.27.13.41.18.59.37,1.18.56,1.77.37,1.18.74,2.36,1.1,3.55,0,.08-.1.1-.13,0-.42-1.15-.82-2.3-1.23-3.45-.19-.57-.39-1.13-.59-1.7l-.3-.88-.1-.27a35.19,35.19,0,0,0-3.56-3,26.76,26.76,0,0,0-5.33-3.05c0,.17.07.34.11.51.09.46.2.91.29,1.37.2,1,.38,1.91.57,2.86.38,1.94.61,3.91,1,5.85a.06.06,0,1,1-.12,0c-.45-2-1-3.87-1.47-5.83-.21-1-.43-2-.64-2.94-.09-.46-.18-.92-.28-1.38-.05-.25-.11-.51-.14-.77l-.54-.22a15.89,15.89,0,0,0-8.35-1.15,8.21,8.21,0,0,0-6,4.84c-.09.22-.44.09-.39-.14A7.74,7.74,0,0,1,416.72,227.44Z" style="fill:#263238"></path><path d="M432.08,235.71c.28,1.27.57,2.54.85,3.81a27.56,27.56,0,0,1,.7,3.71,0,0,0,0,1-.08,0,29.8,29.8,0,0,1-.86-3.74c-.24-1.25-.49-2.51-.73-3.76A.06.06,0,1,1,432.08,235.71Z" style="fill:#263238"></path><path d="M441.79,238.94c1.27.65,2.51,1.38,3.85,1.91.08,0,0,.16-.05.12a40.74,40.74,0,0,1-3.83-2A0,0,0,1,1,441.79,238.94Z" style="fill:#263238"></path><path d="M417.2,213.32s12.26.78,18-7.31,4.42-19.63,4.42-19.63-12.88,1.56-18,7.37S417.2,213.32,417.2,213.32Z" style="fill:#95E1D3"></path><path d="M411.44,225.42c.42-1.31.95-2.6,1.45-3.89s1-2.47,1.52-3.68a76.72,76.72,0,0,1,3.68-7.23c.86-1.49,1.79-2.93,2.75-4.36,0-.22.06-.43.09-.65.06-.38.11-.76.17-1.14.12-.78.26-1.55.39-2.33.28-1.69.63-3.37.9-5.07,0-.08.14-.08.13,0-.25,1.68-.42,3.36-.65,5-.12.82-.22,1.64-.35,2.46,0,.3-.09.6-.14.9a90.22,90.22,0,0,1,6.07-7.88c.29-.33.6-.66.89-1,0-.09.08-.18.12-.28s.18-.47.26-.7c.19-.49.36-1,.54-1.46.34-1,.65-1.93.91-2.92,0-.08.14,0,.12,0-.25,1-.51,2-.8,3-.14.48-.3,1-.47,1.43l-.09.24c1.57-1.71,3.2-3.36,4.86-5,.06-.06.14,0,.08.09a89.73,89.73,0,0,0-8.69,10.65,7.58,7.58,0,0,1,.91-.23c1-.18,1.9-.32,2.85-.44,2-.25,4-.5,6-.82.08,0,.12.11,0,.12-1.9.38-3.78.81-5.67,1.24-.89.21-1.78.38-2.68.56a15.56,15.56,0,0,0-2.15.61c-.2.28-.41.56-.6.85-.9,1.31-1.77,2.65-2.61,4l1.25-.24c.95-.18,1.9-.36,2.85-.51,1.87-.31,3.74-.64,5.59-1.06.08,0,.11.11,0,.13-1.87.44-3.73,1-5.59,1.45-.9.24-1.81.46-2.71.66l-1.37.29a2.86,2.86,0,0,1-.55.09q-2.69,4.37-5,8.92-1,2-2,4c-.66,1.39-1.22,2.81-1.82,4.23C411.79,225.85,411.34,225.73,411.44,225.42Z" style="fill:#263238"></path><path d="M424,197.23c.24-1.17.48-2.33.74-3.5,0-.08.14,0,.13,0-.24,1.15-.46,2.3-.67,3.45a33.23,33.23,0,0,1-.69,3.44s0,0,0,0A25,25,0,0,1,424,197.23Z" style="fill:#263238"></path><path d="M431.15,196.89c.57-.28,1.17-.51,1.76-.74l.93-.36.48-.19a2.34,2.34,0,0,0,.51-.23c.1-.07.15.09.06.11a2.36,2.36,0,0,0-.52.21l-.47.21-.89.4c-.59.26-1.2.52-1.81.72A.07.07,0,0,1,431.15,196.89Z" style="fill:#263238"></path><path d="M404.64,203.68s-7.42-13.87-18.72-16-18.2,9.48-18.2,9.48,8.24,10.51,18.6,12.35S404.64,203.68,404.64,203.68Z" style="fill:#95E1D3"></path><path d="M378.36,193.88a30.53,30.53,0,0,1,8.85.1l-.5-.27c-.84-.42-1.67-.85-2.51-1.29-1.73-.9-3.48-1.86-5.3-2.59a.06.06,0,1,1,.05-.11c1.77.82,3.6,1.51,5.37,2.32.89.41,1.76.84,2.62,1.29.56.3,1.18.58,1.72.93a30.91,30.91,0,0,1,7.18,2.39l-1.41-1.54c-1.05-1.15-2.09-2.36-3.24-3.41a.06.06,0,0,1,.09-.09c1.18,1.07,2.43,2.07,3.57,3.18.56.54,1.09,1.1,1.61,1.68.26.29.52.59.76.89a29.71,29.71,0,0,1,15.14,20.45.06.06,0,0,1-.12,0,34.12,34.12,0,0,0-8.3-14,32.65,32.65,0,0,0-15.13-8.75,33.08,33.08,0,0,0-10.44-1A.11.11,0,0,1,378.36,193.88Z" style="fill:#263238"></path><path d="M367.72,197.14s8.24,10.52,18.6,12.35c7.91,1.4,14.41-2.72,17.05-4.75l.57-.94s-5.35-4.5-15.46-7.1S367.72,197.14,367.72,197.14Z" style="opacity:0.1"></path><path d="M384.91,188.93c.86.53,1.71,1,2.51,1.66a15.85,15.85,0,0,1,2.18,2c.06.07,0,.15-.1.09-.75-.65-1.5-1.3-2.28-1.92a25,25,0,0,0-2.37-1.71C384.78,189,384.84,188.89,384.91,188.93Z" style="fill:#263238"></path><path d="M378.72,191.28l1.26.5,1.26.52a.08.08,0,0,1-.05.15l-1.26-.51c-.42-.17-.83-.37-1.25-.54A.06.06,0,1,1,378.72,191.28Z" style="fill:#263238"></path><path d="M406.12,221.13s-2,13.75-12.32,18.56-23,0-23,0S375.8,209.93,406.12,221.13Z" style="fill:#95E1D3"></path><path d="M378,230.75c.95-.11,1.9-.28,2.85-.45l1.39-.26.72-.15c.28-.26.55-.52.84-.77a41.34,41.34,0,0,1,6.33-4.59,37.62,37.62,0,0,1,3.79-1.95h-.2l-3.4.15c-2.27.11-4.54.16-6.81.3-.08,0-.08-.12,0-.12,2.28-.16,4.54-.41,6.82-.6l3.31-.3,1.7-.15.44,0c.59-.22,1.18-.43,1.78-.62a16.13,16.13,0,0,1,8.76-.48c2.6.67,5.2,2.37,5.88,5.11,0,.1-.13.16-.17.07-1-2.29-3.51-3.45-5.81-3.92a13.63,13.63,0,0,0-4.68-.1A10.93,10.93,0,0,1,401,224c-.28,1-.57,1.94-.86,2.91-.58,1.93-1.23,3.84-1.8,5.78a.06.06,0,0,1-.12,0c.48-1.93.88-3.88,1.35-5.81.22-.95.46-1.9.7-2.85a16.61,16.61,0,0,1,.52-2,23.74,23.74,0,0,0-2.68.63,40,40,0,0,0-4.69,1.72c-.15,1-.37,1.95-.6,2.92-.28,1.21-.6,2.41-1,3.6,0,.08-.13,0-.12,0a1.89,1.89,0,0,0,.05-.23h0c.23-1.13.48-2.25.72-3.37.19-.91.37-1.82.56-2.72-1.28.57-2.54,1.21-3.77,1.91,0,.28-.09.56-.13.82-.07.47-.16.94-.25,1.41-.19,1.06-.4,2.12-.66,3.17a49.5,49.5,0,0,1-1.78,6,.05.05,0,0,1,0,.08l-.06.07c0,.05-.11,0-.1-.07.48-2,1-4.06,1.47-6.1.23-1,.45-2,.66-3.07.1-.51.19-1,.29-1.54,0-.14.05-.3.07-.46a44.12,44.12,0,0,0-4,2.69,43.17,43.17,0,0,0-6.16,5.62c-.07.09-.22,0-.15-.12.79-1,1.57-2,2.46-3,.52-.55,1.06-1.09,1.61-1.62l-.17,0-1.46.22c-.95.13-1.91.22-2.87.33C377.92,230.88,377.89,230.76,378,230.75Z" style="fill:#263238"></path><path d="M385.24,235.41h0a2.25,2.25,0,0,1,.06-.36c0-.15.1-.29.12-.45h0c.21-.92.39-1.85.55-2.78a.06.06,0,0,1,.12,0,11.33,11.33,0,0,1-.79,3.59s-.08,0-.07,0Z" style="fill:#263238"></path><path d="M393.9,235.19a.06.06,0,0,1,.06-.06c.29-1.22.57-2.44.82-3.66l.39-1.94c.06-.35.13-.69.19-1a3.12,3.12,0,0,1,.22-.9.07.07,0,0,1,.12,0,6.17,6.17,0,0,1-.26,1.85c-.13.67-.26,1.34-.41,2-.3,1.35-.64,2.71-1,4a.07.07,0,0,1-.14,0Z" style="fill:#263238"></path><path d="M378.91,226.78c1.89-.25,3.78-.53,5.67-.76.08,0,.11.11,0,.13-1.88.27-3.78.51-5.67.76C378.86,226.92,378.83,226.8,378.91,226.78Z" style="fill:#263238"></path><path d="M411.42,188.87s6.33-27.77-23.5-39C387.92,149.86,379.65,186.41,411.42,188.87Z" style="fill:#95E1D3"></path><path d="M405,173.12l-.32-.2L403,172l-3.46-1.93c-2.27-1.28-4.52-2.6-6.81-3.85-.08,0,0-.15.06-.11,2.3,1.25,4.64,2.42,6.95,3.64l3.42,1.81,1.39.74c-1-1.89-2-3.74-3.22-5.52-1.56-2.38-3.27-4.65-5.05-6.86a.1.1,0,0,1,.15-.14,47.9,47.9,0,0,1,6.9,8.45,2.62,2.62,0,0,1,0-.28c0-.7-.05-1.39-.06-2.08,0-1.35,0-2.71,0-4.06,0-.09.12-.08.13,0,.05,1.33.21,2.66.29,4,0,.66.07,1.33.09,2,0,.36,0,.77,0,1.17.61,1,1.2,2,1.76,3a54.13,54.13,0,0,1,2.67,5.59c0-.69.07-1.38.11-2.07.09-1.52.27-3,.34-4.55a.07.07,0,0,1,.13,0c0,1.52,0,3,0,4.56,0,.76,0,1.52-.1,2.28,0,.28,0,.56-.05.85a50.45,50.45,0,0,1,2.25,7.63,81.79,81.79,0,0,1,1.11,8.38,0,0,0,0,1,0,0,45.32,45.32,0,0,0-1.58-7.47c-.37-1.31-.76-2.62-1.18-3.91-1.24-.59-2.43-1.32-3.63-2s-2.5-1.36-3.74-2c-2.49-1.36-5-2.75-7.55-4-.07,0,0-.14.07-.11,2.6,1.18,5.22,2.3,7.78,3.58,1.27.64,2.52,1.33,3.76,2,1,.59,2.1,1.17,3.09,1.84-.29-.86-.59-1.72-.92-2.57A75.12,75.12,0,0,0,405,173.12Z" style="fill:#263238"></path><path d="M407.5,166.77c0-.08.13-.08.12,0-.1,1.59-.16,3.17-.33,4.75a.07.07,0,0,1-.14,0C407.21,169.93,407.38,168.35,407.5,166.77Z" style="fill:#263238"></path><path d="M393.19,172.07c1.87.76,3.75,1.47,5.61,2.25.05,0,0,.1,0,.08-1.89-.7-3.75-1.47-5.62-2.2C393.08,172.17,393.12,172,393.19,172.07Z" style="fill:#263238"></path><path d="M390.36,159.27a49.06,49.06,0,0,1,5.3,2.84.08.08,0,0,1-.08.14c-1.73-1-3.49-2-5.29-2.87C390.22,159.34,390.28,159.23,390.36,159.27Z" style="fill:#263238"></path><rect x="390.81" y="248.91" width="43.03" height="45.35" transform="translate(824.64 543.18) rotate(180)" style="fill:#455a64"></rect><rect x="434.59" y="264.96" width="2.2" height="77.68" style="fill:#263238"></rect><rect x="388.08" y="264.96" width="2.2" height="77.68" style="fill:#263238"></rect><rect x="410.16" y="264.96" width="2.2" height="77.68" style="fill:#263238"></rect><rect x="389.18" y="291.36" width="46.51" height="6.28" transform="translate(824.87 588.99) rotate(180)" style="fill:#263238"></rect></g><g id="freepik--Mat--inject-27"><path d="M78.44,425.09a85.17,85.17,0,0,1-9.7.5,85.29,85.29,0,0,1-9.7-.5,80.92,80.92,0,0,1,9.7-.5A80.81,80.81,0,0,1,78.44,425.09Z" style="fill:#95E1D3"></path><path d="M81.39,421.88a85.29,85.29,0,0,1-9.7.5,85.05,85.05,0,0,1-9.7-.5,80.71,80.71,0,0,1,9.7-.5A80.92,80.92,0,0,1,81.39,421.88Z" style="fill:#95E1D3"></path><path d="M84.47,418.66a80.65,80.65,0,0,1-9.69.5,80.71,80.71,0,0,1-9.7-.5,82.81,82.81,0,0,1,9.7-.49A82.75,82.75,0,0,1,84.47,418.66Z" style="fill:#95E1D3"></path><path d="M87.44,415.45a80.65,80.65,0,0,1-9.69.5,80.71,80.71,0,0,1-9.7-.5,85.05,85.05,0,0,1,9.7-.5A85,85,0,0,1,87.44,415.45Z" style="fill:#95E1D3"></path><path d="M90.44,412.24a80.81,80.81,0,0,1-9.7.5,80.92,80.92,0,0,1-9.7-.5,85.29,85.29,0,0,1,9.7-.5A85.17,85.17,0,0,1,90.44,412.24Z" style="fill:#95E1D3"></path><path d="M93.46,409a85.29,85.29,0,0,1-9.7.5,80.81,80.81,0,0,1-9.7-.5,85.17,85.17,0,0,1,9.7-.5A85.29,85.29,0,0,1,93.46,409Z" style="fill:#95E1D3"></path><path d="M96.43,405.82a85.29,85.29,0,0,1-9.7.5,80.81,80.81,0,0,1-9.7-.5,80.81,80.81,0,0,1,9.7-.5A85.29,85.29,0,0,1,96.43,405.82Z" style="fill:#95E1D3"></path><path d="M99.49,402.61a85.05,85.05,0,0,1-9.7.5,85,85,0,0,1-9.69-.5,80.65,80.65,0,0,1,9.69-.5A85.05,85.05,0,0,1,99.49,402.61Z" style="fill:#95E1D3"></path><path d="M102.39,399.4a85.17,85.17,0,0,1-9.7.5,85.29,85.29,0,0,1-9.7-.5,80.92,80.92,0,0,1,9.7-.5A80.81,80.81,0,0,1,102.39,399.4Z" style="fill:#95E1D3"></path><path d="M105.48,396.19a94.34,94.34,0,0,1-19.4,0,80.92,80.92,0,0,1,9.7-.5A80.71,80.71,0,0,1,105.48,396.19Z" style="fill:#95E1D3"></path><path d="M108.47,393a94.24,94.24,0,0,1-19.39,0,80.71,80.71,0,0,1,9.7-.5A80.65,80.65,0,0,1,108.47,393Z" style="fill:#95E1D3"></path><path d="M111.49,389.76a80.71,80.71,0,0,1-9.7.5,80.65,80.65,0,0,1-9.69-.5,94.24,94.24,0,0,1,19.39,0Z" style="fill:#95E1D3"></path><path d="M421.56,425.09a94.34,94.34,0,0,1,19.4,0,94.34,94.34,0,0,1-19.4,0Z" style="fill:#95E1D3"></path><path d="M418.61,421.88a94.34,94.34,0,0,1,19.4,0,94.34,94.34,0,0,1-19.4,0Z" style="fill:#95E1D3"></path><path d="M415.53,418.66a96.16,96.16,0,0,1,19.39,0,94.24,94.24,0,0,1-19.39,0Z" style="fill:#95E1D3"></path><path d="M412.56,415.45a94.24,94.24,0,0,1,19.39,0,94.24,94.24,0,0,1-19.39,0Z" style="fill:#95E1D3"></path><path d="M409.56,412.24a94.34,94.34,0,0,1,19.4,0,94.34,94.34,0,0,1-19.4,0Z" style="fill:#95E1D3"></path><path d="M406.54,409a94.34,94.34,0,0,1,19.4,0,80.81,80.81,0,0,1-9.7.5A85.29,85.29,0,0,1,406.54,409Z" style="fill:#95E1D3"></path><path d="M403.57,405.82a85.29,85.29,0,0,1,9.7-.5,80.81,80.81,0,0,1,9.7.5,80.81,80.81,0,0,1-9.7.5A85.29,85.29,0,0,1,403.57,405.82Z" style="fill:#95E1D3"></path><path d="M400.51,402.61a85.05,85.05,0,0,1,9.7-.5,80.65,80.65,0,0,1,9.69.5,94.24,94.24,0,0,1-19.39,0Z" style="fill:#95E1D3"></path><path d="M397.61,399.4a94.34,94.34,0,0,1,19.4,0,94.34,94.34,0,0,1-19.4,0Z" style="fill:#95E1D3"></path><path d="M394.52,396.19a94.34,94.34,0,0,1,19.4,0,94.34,94.34,0,0,1-19.4,0Z" style="fill:#95E1D3"></path><path d="M391.53,393a94.24,94.24,0,0,1,19.39,0,94.24,94.24,0,0,1-19.39,0Z" style="fill:#95E1D3"></path><path d="M388.51,389.76a94.24,94.24,0,0,1,19.39,0,94.24,94.24,0,0,1-19.39,0Z" style="fill:#95E1D3"></path><polygon points="108.69 389.33 392.17 389.33 425.5 425.52 74.5 425.52 108.69 389.33" style="fill:#95E1D3"></polygon><polygon points="114.56 389.33 80.62 425.51 77.11 425.51 111.29 389.33 114.56 389.33" style="opacity:0.1"></polygon><polygon points="122.3 389.33 90.21 425.51 86.41 425.51 119.24 389.33 122.3 389.33" style="opacity:0.1"></polygon><polygon points="135.81 389.33 106.95 425.51 96.28 425.51 127.19 389.33 135.81 389.33" style="opacity:0.1"></polygon><polygon points="143.54 389.33 116.53 425.51 112.73 425.51 140.47 389.33 143.54 389.33" style="opacity:0.1"></polygon><polygon points="157.03 389.33 133.28 425.51 122.6 425.51 148.43 389.33 157.03 389.33" style="opacity:0.1"></polygon><polygon points="164.77 389.33 142.86 425.51 139.07 425.51 161.71 389.33 164.77 389.33" style="opacity:0.1"></polygon><polygon points="178.28 389.33 159.6 425.51 148.93 425.51 169.65 389.33 178.28 389.33" style="opacity:0.1"></polygon><polygon points="186 389.33 169.19 425.51 165.39 425.51 182.94 389.33 186 389.33" style="opacity:0.1"></polygon><polygon points="199.5 389.33 185.94 425.51 175.26 425.51 190.89 389.33 199.5 389.33" style="opacity:0.1"></polygon><polygon points="207.23 389.33 195.52 425.51 191.72 425.51 204.16 389.33 207.23 389.33" style="opacity:0.1"></polygon><polygon points="220.73 389.33 212.26 425.51 201.59 425.51 212.12 389.33 220.73 389.33" style="opacity:0.1"></polygon><polygon points="228.47 389.33 221.85 425.51 218.05 425.51 225.41 389.33 228.47 389.33" style="opacity:0.1"></polygon><polygon points="241.97 389.33 238.6 425.51 227.92 425.51 233.36 389.33 241.97 389.33" style="opacity:0.1"></polygon><polygon points="249.7 389.33 248.18 425.51 244.38 425.51 246.63 389.33 249.7 389.33" style="opacity:0.1"></polygon><polygon points="264.92 425.51 254.25 425.51 254.59 389.33 263.2 389.33 264.92 425.51" style="opacity:0.1"></polygon><polygon points="274.5 425.51 270.71 425.51 267.87 389.33 270.93 389.33 274.5 425.51" style="opacity:0.1"></polygon><polygon points="291.25 425.51 280.57 425.51 275.82 389.33 284.43 389.33 291.25 425.51" style="opacity:0.1"></polygon><polygon points="300.84 425.51 297.04 425.51 289.1 389.33 292.16 389.33 300.84 425.51" style="opacity:0.1"></polygon><polygon points="317.58 425.51 306.9 425.51 297.06 389.33 305.67 389.33 317.58 425.51" style="opacity:0.1"></polygon><polygon points="327.17 425.51 323.37 425.51 310.33 389.33 313.4 389.33 327.17 425.51" style="opacity:0.1"></polygon><polygon points="343.91 425.51 333.23 425.51 318.29 389.33 326.89 389.33 343.91 425.51" style="opacity:0.1"></polygon><polygon points="353.5 425.51 349.7 425.51 331.57 389.33 334.63 389.33 353.5 425.51" style="opacity:0.1"></polygon><polygon points="370.24 425.51 359.56 425.51 339.52 389.33 348.13 389.33 370.24 425.51" style="opacity:0.1"></polygon><polygon points="379.83 425.51 376.03 425.51 352.8 389.33 355.86 389.33 379.83 425.51" style="opacity:0.1"></polygon><polygon points="396.57 425.51 385.89 425.51 360.75 389.33 369.36 389.33 396.57 425.51" style="opacity:0.1"></polygon><polygon points="406.16 425.51 402.36 425.51 374.03 389.33 377.09 389.33 406.16 425.51" style="opacity:0.1"></polygon><polygon points="422.89 425.51 412.21 425.51 381.99 389.33 390.59 389.33 422.89 425.51" style="opacity:0.1"></polygon><rect x="74.5" y="425.51" width="350.99" height="2.74" style="fill:#95E1D3"></rect><rect x="74.5" y="425.51" width="350.99" height="2.74" style="opacity:0.2"></rect></g><g id="freepik--Character--inject-27"><path d="M234,312.09h59.2l10.06,11.51c20.27-.93,43.6-1.28,65.34,3.42,39.87,8.64,54.23,61.27,4.6,81.62-40.43,16.58-195.46-16.41-195.46-16.41l35-57.05s42.17-1.61,92.6-1.05l-70.88,7.2Z" style="fill:#37474f"></path><path d="M192.65,390.43c.8-1.65,10.1-15.8,12.17-19.05q6.28-9.84,12.14-19.95c2.22-3.83,4.46-7.65,6.54-11.57a.08.08,0,1,0-.13-.08c-4.4,6.51-8.58,13.19-12.85,19.79S193,388.32,192.24,390.22C192.09,390.62,192.46,390.82,192.65,390.43Z" style="fill:#263238"></path><path d="M366,334c-5-.36-10-.48-15-.69l-6.15-.23a98.1,98.1,0,0,1,9.84-1.13.19.19,0,0,0,0-.37A57,57,0,0,0,342.85,333c-2.31-.08-4.61-.14-6.92-.2-10-.25-20-.27-30-.22-19.92.11-39.84.51-59.74,1.07-5.62.15-11.24.32-16.85.54s-11.26.46-16.84,1.09a.08.08,0,1,0,0,.15c5,.28,10,.19,15,.18s10-.16,15-.28q15-.33,30-.61c19.91-.33,39.82-.42,59.74-.4,5.61,0,11.23,0,16.84,0s11.23.19,16.84.16C366.3,334.51,366.28,334,366,334Z" style="fill:#263238"></path><path d="M410.59,336.66c-1-.42-101.48-5.08-101.48-5.08-3.37,1.73-4.77,13.38-4.77,13.38.39,1.77-34.26,9.34-34.26,9.34l40,44.5L365.74,366s39.14-14.87,40.64-15.9C410.25,347.35,413.84,338,410.59,336.66Z" style="fill: rgb(211, 118, 106);"></path><path d="M235,342.91v2.54l-132.63-4.67C130.89,339.82,189.5,341.37,235,342.91Z" style="fill:#37474f"></path><path d="M109.2,340.79l11.77-.4,1.91.91Z" style="fill:#37474f"></path><path d="M329.73,400.93s-165.94,22.27-217.66,4.21c-41.21-14.4-38.13-57.19-9.73-73.71.48-.28,1-.56,1.47-.82s.89-.47,1.34-.69l.28-.14,1.07-.5c.22-.11.45-.21.68-.3l1.15-.49.29-.11c.48-.2,1-.38,1.47-.56l.15-.05c.46-.17.93-.33,1.4-.47.25-.09.5-.17.76-.24s.74-.23,1.12-.33c.58-.17,1.17-.32,1.76-.46,34.6-8.32,78.62-1.91,78.62-1.91l14-12.28H235v30.83c-45.47-1.54-104.08-3.09-132.63-2.13L235,345.45v-2.54c34.82,1.16,61.93,2.32,61.93,2.32Z" style="fill:#37474f"></path><path d="M215.69,342.29c-38.31-1.19-81.17-2.17-107-1.68-.31-1.91,0-3.47,1.15-3.95,1-.43,101.47-5.08,101.47-5.08C213.67,332.78,215.06,338.75,215.69,342.29Z" style="fill:#37474f"></path><path d="M305.91,332.6H308a9.48,9.48,0,0,0-1,1.8q-17.2.08-34.4.35-15,.25-30,.61c-5,.12-10,.28-15,.28s-10,.1-15-.18a.08.08,0,1,1,0-.15c5.58-.63,11.23-.88,16.84-1.09s11.23-.39,16.85-.54C266.07,333.11,286,332.71,305.91,332.6Z" style="fill:#263238"></path><path d="M366.21,334.29c-10.57-.51-21.52-1-31-1.48h.68c2.31.05,4.61.12,6.92.2a57,57,0,0,1,11.77-1.44.19.19,0,0,1,0,.37,98.1,98.1,0,0,0-9.84,1.13l6.15.23c5,.21,10,.33,15,.69A.27.27,0,0,1,366.21,334.29Z" style="fill:#263238"></path><path d="M215.69,342.29c-38.31-1.19-81.17-2.17-107-1.68-.31-1.91,0-3.47,1.15-3.95,1-.43,101.47-5.08,101.47-5.08C213.67,332.78,215.06,338.75,215.69,342.29Z" style="fill: rgb(211, 118, 106);"></path><path d="M298.31,347a17.13,17.13,0,0,0-1.3-2.57c-30.73-1.78-53.57-2.39-79.67-3.09s-52.19-1.14-78.29-1.23c-14.31,0-28.82-.05-42.92,2.67-.19,0-.14.35.05.33a297.9,297.9,0,0,1,38.6-1.39c13,.21,25.93.38,38.89.62q39,.72,77.89,2c14.58.51,30.64.87,45.22,1.39a9,9,0,0,0,1.09,1.77C298.28,347.66,298.5,347.41,298.31,347Z" style="fill:#263238"></path><path d="M330.93,401.23q-1.74-2.73-3.45-5.48a47.72,47.72,0,0,0-3.55-5.24c-.28-.34-.7.12-.55.45a49.36,49.36,0,0,0,3.18,5.5c1,1.53,1.92,3.06,2.87,4.6-3.76.43-7.53.81-11.3,1.22l-12.05,1.34c-8.12.88-16.26,1.64-24.39,2.47-4.61.46-9.23.83-13.82,1.42a.11.11,0,0,0,0,.21c4.12,0,8.24-.2,12.35-.41s8.07-.48,12.09-.8c8.14-.64,16.28-1.41,24.38-2.42,4.59-.58,9.16-1.28,13.74-1.95A.6.6,0,0,0,330.93,401.23Z" style="fill:#263238"></path><path d="M311.23,398.78c-1.13-1.43-9.82-16-11.84-19.25q-6.12-9.94-12.68-19.61c-2.48-3.67-4.94-7.35-7.56-10.93a.08.08,0,0,0-.13.08c4,6.8,8.13,13.47,12.22,20.19s18.23,28.33,19.63,29.8C311.16,399.37,311.51,399.12,311.23,398.78Z" style="fill:#263238"></path><path d="M251.14,150.5c-1.89-.12-9.75-2.56-16.48,3.73-6.37,6-12.12,26.62-14.06,31s-8.09,3.93-10.51,9c-2.07,4.35.94,6.65.65,10.07-.23,2.66-3.58,6.06-1.94,10.36,1.5,3.91,5.44,3.88,7.52,5.41s2.52,7.11,6.49,9.34,8.46-.93,10.7-.48,3.62,7.86,11.08,8.64,10.76-5,14-5.69,10.49,2.9,14.68-.23S279,223.53,281,222s5.14-.66,7.9-4.6-.73-7.44-.59-11.29c.1-2.68,2.86-4.63,2-8.92-1.21-5.9-8.13-6-9.62-12.09-1.17-4.79-1.7-24.73-12.39-31.64C260.86,148.66,251.14,150.5,251.14,150.5Z" style="fill:#263238"></path><path d="M221,184.17a6.7,6.7,0,0,1-2.42,2.09l-2.79,1.62a20.19,20.19,0,0,0-5.07,3.67A6.43,6.43,0,0,0,209,197a9.48,9.48,0,0,0,1.06,2.83,11.47,11.47,0,0,1,1.28,3.14,5.45,5.45,0,0,1-.95,3.39c-.53,1-1.09,1.86-1.56,2.79a7.59,7.59,0,0,0-.9,5.79,4.42,4.42,0,0,0,1.64,2.36,8,8,0,0,0,2.81,1.18c1,.27,2.08.44,3.13.65a5.42,5.42,0,0,1,2.93,1.28,5.7,5.7,0,0,0-3-1c-1.06-.12-2.13-.19-3.21-.38a8.54,8.54,0,0,1-3.12-1.14,5.22,5.22,0,0,1-2.1-2.7c-.86-2.21-.17-4.66.8-6.58.48-1,1-1.92,1.53-2.84a4.4,4.4,0,0,0,.77-2.67c-.31-1.79-1.92-3.65-2.23-6a7.21,7.21,0,0,1,2.18-6.28,20.35,20.35,0,0,1,5.48-3.55l2.9-1.37A7.26,7.26,0,0,0,221,184.17Z" style="fill:#263238"></path><path d="M276.91,166.26c1.4,3.6,2,7.44,2.9,11.14.47,1.85.87,3.71,1.47,5.5a12.59,12.59,0,0,0,1.09,2.5,1.61,1.61,0,0,0,.36.5,2,2,0,0,0,.44.43c.35.28.74.55,1.13.81a54,54,0,0,1,4.72,3.38,9.73,9.73,0,0,1,3.35,4.92,6,6,0,0,1,0,3.06,7.74,7.74,0,0,1-1.38,2.64,12.42,12.42,0,0,0-2.76,4.94c.13-2,1.25-3.69,2.26-5.27a7.42,7.42,0,0,0,1.13-2.49,5.31,5.31,0,0,0-.18-2.62,9.54,9.54,0,0,0-3.17-4.33,54.45,54.45,0,0,0-4.69-3.22c-.4-.28-.8-.57-1.19-.89a4.22,4.22,0,0,1-1.05-1.25,14.26,14.26,0,0,1-1.15-2.77,46.74,46.74,0,0,1-1.33-5.65l-.94-5.68A51.07,51.07,0,0,0,276.91,166.26Z" style="fill:#263238"></path><path d="M283,221a10,10,0,0,0-1.93,3.55c-.53,1.27-1.06,2.54-1.66,3.79a20.19,20.19,0,0,1-2.15,3.62,9.16,9.16,0,0,1-3.32,2.83c-2.88,1.16-5.89.39-8.44-.59-1.29-.5-2.54-1.06-3.82-1.53a8.51,8.51,0,0,0-3.95-.73,8,8,0,0,1,4.13.16c1.35.36,2.64.83,3.95,1.21,2.55.77,5.33,1.34,7.64.36a8.23,8.23,0,0,0,2.9-2.42,25.32,25.32,0,0,0,2.23-3.35c.69-1.17,1.31-2.39,1.95-3.61.34-.6.69-1.2,1.06-1.78A3.94,3.94,0,0,1,283,221Z" style="fill:#263238"></path><path d="M245.2,224.86c0,13.64-24.7,74.24-37.26,84.8-4.3,3.61-39.07,12.27-58.57,12.55-8.14.12-15.56-38.33-3.53-41.23,9.83-2.37,42-8,43.06-9,7.45-7.22,19.71-29.78,39.17-50.93C239.24,208.87,245.21,214.35,245.2,224.86Z" style="fill: rgb(211, 118, 106);"></path><path d="M157.75,321.26c-13.56,4.65-30.17,5.58-35.83,3.8s-22.45-16.2-25.57-20.23.12-23.92,1-28.39c.72-3.58,4.34-6.15,7.75.55,4.39,8.58,2,18.06,3.86,20.13s11.75,4,14.76,1.15c1.77-1.67,2.38-7.19-.61-10.41s-8-3.09-13-6.23-7.16-10.92-5.24-12.06,3.73,1.06,12.06,2.6c5.36,1,13.41-1,23.09,2.07,4.87,1.55,14,6.46,14,6.46Z" style="fill: rgb(211, 118, 106);"></path><path d="M130,316c-6.89,1.26-21.27,1.46-30.46-3C93.35,309.89,78.31,298.49,81,294c3.86-6.42,24.42,6.15,27.25,6.89,8.7,2.28,19.91-1.4,19.91-1.4Z" style="fill: rgb(211, 118, 106);"></path><path d="M118.1,301.49a28.58,28.58,0,0,1-6.13.44,19.2,19.2,0,0,1-3.1-.4,16.6,16.6,0,0,1-3-1c-1.88-.84-3.7-1.77-5.49-2.73s-3.55-2-5.35-3a57.2,57.2,0,0,1,5.69,2.28l5.54,2.51a16.7,16.7,0,0,0,2.79,1,20.44,20.44,0,0,0,2.93.54C114,301.35,116.05,301.42,118.1,301.49Z" style="fill:#263238"></path><path d="M131.54,317.26c-6.47,2.35-20.34,4.89-30,2-6.5-1.93-22.9-10.5-21-15.28,2.69-6.83,24.62,2,27.48,2.22,8.79.79,19-4.6,19-4.6Z" style="fill: rgb(211, 118, 106);"></path><path d="M118.13,304.9a23.23,23.23,0,0,1-8.68,2,10.26,10.26,0,0,1-2.26-.38l-2.14-.55-4.27-1.13q-4.27-1.12-8.53-2.31a33.68,33.68,0,0,0-4.27-1,9.77,9.77,0,0,0-4.33.26,9.29,9.29,0,0,1,4.37-.7,29.24,29.24,0,0,1,4.4.71c2.89.61,5.75,1.32,8.6,2.06,1.43.36,2.86.73,4.28,1.12l2.13.57a9.79,9.79,0,0,0,2.07.43,20.26,20.26,0,0,0,4.31-.26C115.25,305.52,116.7,305.24,118.13,304.9Z" style="fill:#263238"></path><path d="M136.4,325.61c-9.55.8-24,.35-28.25-.66S88.5,318,87.45,313.15c-1.33-6.09,11.39-3.07,16.71-1.95,5.51,1.16,12.63-1.42,12.63-1.42Z" style="fill: rgb(211, 118, 106);"></path><path d="M87.35,312.34a3.67,3.67,0,0,1,.46-1.76,3,3,0,0,1,1.42-1.19A9,9,0,0,1,92.9,309a37.69,37.69,0,0,1,7.24,1.09,30.15,30.15,0,0,0,7.06,1.15,23.71,23.71,0,0,0,7-1.38c2.28-.74,4.51-1.7,6.75-2.63a47.3,47.3,0,0,1,6.92-2.44,30.51,30.51,0,0,1,7.3-.78,30.92,30.92,0,0,1,7.24.81,34.41,34.41,0,0,0-7.24-.41,30.33,30.33,0,0,0-7.12,1.06c-4.59,1.4-8.88,3.74-13.53,5.34a25,25,0,0,1-7.29,1.33,27.19,27.19,0,0,1-7.24-1.34,41.09,41.09,0,0,0-7.11-1.35,8.56,8.56,0,0,0-3.53.23,2.72,2.72,0,0,0-1.4,1A3.63,3.63,0,0,0,87.35,312.34Z" style="fill:#263238"></path><path d="M245.21,224.86c0,13.65-24.71,74.24-37.27,84.8-1.18,1-4.64,2.36-9.44,3.83l42.27-99.07C243.7,215.55,245.21,219.57,245.21,224.86Z" style="fill:#263238"></path><path d="M232.17,271.61l-22.74-30.83s12.32-14.8,20.29-22c10.55-9.56,18.13-8,16.12,9.37C244.49,239.71,232.17,271.61,232.17,271.61Z" style="fill:#95E1D3"></path><path d="M245.24,231.66c-.4,1.87-.94,4-1.57,6.27l-1-.27a51.25,51.25,0,0,1-6.65-2.33c-.23-.08-.39-.12-.54-.16l-.48-.12a6.91,6.91,0,0,0-1-.21c-.67-.12-1.31-.24-2-.39-2.63-.65-5.75-.33-8.7-.17a17.69,17.69,0,0,1-7.64-.77c1.8-2,3.84-4.33,5.92-6.58l3.74.09c2,0,4.1.13,6.2.34a24.91,24.91,0,0,1,6.48,1.55C240.39,229.91,242.78,230.89,245.24,231.66Zm-4.49,15.86c-.66,2-1.34,4-2,6-.81-.19-1.62-.35-2.44-.49-1.25-.2-2.5-.34-3.74-.46s-2.53-.2-3.66-.19a29.73,29.73,0,0,0-7,1l-2.69.66-3.44-4.67c.32-.11.65-.2,1-.29a94.41,94.41,0,0,1,9.48-2.18c.87-.09,1.74-.21,2.64-.22.43,0,.93,0,1.31,0h1.15c1.54,0,3.09.09,4.66.22A46.75,46.75,0,0,1,240.75,247.52Zm-7.11-31.9c3,.83,5.87,1.87,8.75,2.91a25.27,25.27,0,0,0,3.55,1C244.88,212,240.12,211.19,233.64,215.62Zm-5.73,48.91h-1l5.22,7.07h0c.12-.31,1.12-2.9,2.53-6.74C232.42,264.65,230.16,264.55,227.91,264.53Z" style="opacity:0.1"></path><path d="M232.79,266.33c-3-4.72-6.06-9.38-9.33-13.91-1.63-2.27-8.63-11-10.29-13.19-.09-.12-.26,0-.18.16,1.78,2.94,8.33,11.85,10,14.1,3.28,4.51,6.49,8.41,9.65,13C232.69,266.6,232.87,266.45,232.79,266.33Z" style="fill:#263238"></path><path d="M245.84,228.11c-1.35,11.6-13.66,43.51-13.66,43.51l-19.69-26.7L241.41,213h0C245.11,213.69,247,218.46,245.84,228.11Z" style="fill:#263238"></path><path d="M254.8,224.86c0,13.64,24.7,74.24,37.26,84.8,4.3,3.61,39.07,12.27,58.57,12.55,8.14.12,15.56-38.33,3.53-41.23-9.83-2.37-42-8-43.06-9-7.45-7.22-19.71-29.78-39.17-50.93C260.76,208.87,254.79,214.35,254.8,224.86Z" style="fill: rgb(211, 118, 106);"></path><path d="M342.25,321.26c13.56,4.65,30.17,5.58,35.83,3.8s22.45-16.2,25.57-20.23-.12-23.92-1-28.39c-.72-3.58-4.34-6.15-7.75.55-4.39,8.58-2,18.06-3.86,20.13s-11.75,4-14.76,1.15c-1.77-1.67-2.38-7.19.61-10.41s8-3.09,13-6.23,7.16-10.92,5.24-12.06-3.73,1.06-12.06,2.6c-5.36,1-13.41-1-23.09,2.07-4.87,1.55-14,6.46-14,6.46Z" style="fill: rgb(211, 118, 106);"></path><path d="M370,316c6.89,1.26,21.27,1.46,30.46-3,6.21-3.05,21.25-14.45,18.54-18.93-3.86-6.42-24.42,6.15-27.25,6.89-8.7,2.28-19.91-1.4-19.91-1.4Z" style="fill: rgb(211, 118, 106);"></path><path d="M381.9,301.49c2-.07,4.08-.14,6.07-.36a20.44,20.44,0,0,0,2.93-.54,16.7,16.7,0,0,0,2.79-1l5.54-2.51a57.2,57.2,0,0,1,5.69-2.28c-1.8,1-3.55,2-5.35,3s-3.61,1.89-5.49,2.73a16.6,16.6,0,0,1-2.95,1,19.2,19.2,0,0,1-3.1.4A28.58,28.58,0,0,1,381.9,301.49Z" style="fill:#263238"></path><path d="M368.46,317.26c6.47,2.35,20.34,4.89,30,2,6.5-1.93,22.9-10.5,21-15.28-2.69-6.83-24.62,2-27.48,2.22-8.79.79-19-4.6-19-4.6Z" style="fill: rgb(211, 118, 106);"></path><path d="M381.87,304.9c1.43.34,2.88.62,4.32.84a20.26,20.26,0,0,0,4.31.26,9.79,9.79,0,0,0,2.07-.43l2.13-.57c1.42-.39,2.85-.76,4.28-1.12,2.85-.74,5.71-1.45,8.6-2.06a29.24,29.24,0,0,1,4.4-.71,9.29,9.29,0,0,1,4.37.7,9.77,9.77,0,0,0-4.33-.26,33.68,33.68,0,0,0-4.27,1q-4.26,1.19-8.53,2.31L395,306l-2.14.55a10.26,10.26,0,0,1-2.26.38A23.23,23.23,0,0,1,381.87,304.9Z" style="fill:#263238"></path><path d="M363.6,325.61c9.55.8,24,.35,28.25-.66s19.65-6.95,20.7-11.8c1.33-6.09-11.39-3.07-16.71-1.95-5.51,1.16-12.63-1.42-12.63-1.42Z" style="fill: rgb(211, 118, 106);"></path><path d="M412.65,312.34a3.63,3.63,0,0,0-.58-1.68,2.72,2.72,0,0,0-1.4-1,8.56,8.56,0,0,0-3.53-.23,41.09,41.09,0,0,0-7.11,1.35,27.19,27.19,0,0,1-7.24,1.34,25,25,0,0,1-7.29-1.33c-4.65-1.6-8.94-3.94-13.53-5.34a30.33,30.33,0,0,0-7.12-1.06,34.41,34.41,0,0,0-7.24.41,30.92,30.92,0,0,1,7.24-.81,30.51,30.51,0,0,1,7.3.78,47.3,47.3,0,0,1,6.92,2.44c2.24.93,4.47,1.89,6.75,2.63a23.71,23.71,0,0,0,7,1.38,30.15,30.15,0,0,0,7.06-1.15A37.69,37.69,0,0,1,407.1,309a9,9,0,0,1,3.67.44,3,3,0,0,1,1.42,1.19A3.67,3.67,0,0,1,412.65,312.34Z" style="fill:#263238"></path><path d="M254.79,224.86c0,13.65,24.71,74.24,37.27,84.8,1.18,1,4.64,2.36,9.44,3.83l-42.27-99.07C256.3,215.55,254.79,219.57,254.79,224.86Z" style="fill:#263238"></path><path d="M267.83,271.61l22.74-30.83s-12.32-14.8-20.29-22c-10.55-9.56-18.13-8-16.12,9.37C255.51,239.71,267.83,271.61,267.83,271.61Z" style="fill:#95E1D3"></path><path d="M282.09,231l-.16,0a2.12,2.12,0,0,1-.44.05h-.08a2.46,2.46,0,0,1-.47,0,2.38,2.38,0,0,1,.9-.06h.09l.11,0s0,0,0,0l-.06-.07-.09-.09-1.57,0-.49.07c-.57.12-1.15.22-1.5-.13l-.43,0,.08.07-.16-.07-1.81,0c-.6,0-1.2,0-1.81,0s-1.22,0-1.84.07a58.94,58.94,0,0,0-11.43,2,23,23,0,0,1-5.38.74h-.39c.41,1.74.92,3.64,1.48,5.63l1.09-.12c2.79-.41,5.18-1.16,7.48-1.7s4.25-1.71,6.22-2.35a20.54,20.54,0,0,1,4.23-.15c.47,0,.92,0,1.36-.09s.94-.08,1.39-.14c.92-.11,1.77-.28,2.61-.45l-5.25.53c-1.28.08.84-.95,1.78-1.16.4-.17,1,.62,1.43.45a11.31,11.31,0,0,0,2.56-.58c.39-.17.37.55.56.46a6.54,6.54,0,0,0,1.79-.69Zm-10.32,0a1.91,1.91,0,0,1,2,.16A3,3,0,0,1,271.77,230.94Zm10.25,0-.11,0h-.07l-.35.06h-.08a1.16,1.16,0,0,1-1-.2l1.56,0ZM281,253.82l-4.81,6.52c-2.81-.1-5.58-.11-8.36-.16-1.4,0-2.82-.06-4.24-.14-.79-2.2-1.63-4.6-2.48-7.09a62,62,0,0,0,9.34,0C274.19,252.73,277.84,252.68,281,253.82Zm-9.06-33.56c-4.55-.2-8.92,0-13.32,0-1.52,0-3.06,0-4.61,0,.42-4.07,1.83-6.38,4-7.11.81,0,1.62-.12,2.42-.19,2.72.33,6.14,2.32,9.94,5.77C270.81,219.22,271.35,219.73,271.9,220.26Z" style="opacity:0.1"></path><path d="M267.21,266.33c3-4.72,6.06-9.38,9.33-13.91,1.63-2.27,8.63-11,10.29-13.19.09-.12.26,0,.18.16-1.78,2.94-8.33,11.85-10,14.1-3.28,4.51-6.49,8.41-9.65,13C267.31,266.6,267.13,266.45,267.21,266.33Z" style="fill:#263238"></path><path d="M254.16,228.11c1.35,11.6,13.66,43.51,13.66,43.51l19.69-26.7L258.59,213h0C254.89,213.69,253,218.46,254.16,228.11Z" style="fill:#263238"></path><path d="M289.48,276.12l3.73,36H207.86s-.31-13.59,3.37-33.7c0,0-4.28-11.92-.95-20.82,5.57-14.9,17.53-30.09,25.11-38.48,10.85-12,22-9,30.26-.75,2.1,2.09,22.63,27.95,25.37,40.44C293.42,269.81,289.48,276.12,289.48,276.12Z" style="fill: rgb(211, 118, 106);"></path><path d="M289.49,276.12l1.5,14.46H209.34c.47-3.7,1.09-7.78,1.89-12.18,0,0-4.27-11.93-.95-20.82,5.57-14.9,17.53-30.09,25.11-38.49,10.86-12,22-9,30.27-.74,2.1,2.08,22.62,27.94,25.37,40.44C293.42,269.82,289.49,276.12,289.49,276.12Z" style="fill:#95E1D3"></path><path d="M257,274.78a84.09,84.09,0,0,0-14,1.28c-2.3.44-4.57,1-6.84,1.61-1.13.3-2.26.56-3.4.82a13.8,13.8,0,0,1-3.6.43c-.11,0-.13.17,0,.18a21.65,21.65,0,0,0,3.41.25,22,22,0,0,0,3.32-.4c2.33-.42,4.65-1,7-1.41,4.69-.9,9.39-1.8,14.13-2.33C257.2,275.19,257.18,274.77,257,274.78Z" style="fill:#263238"></path><path d="M268,280.45a89.93,89.93,0,0,0-11.41-1.68c-1.92-.15-3.84-.17-5.77-.14-.92,0-1.84.05-2.76.1s-2,.25-3,.29c-.11,0-.12.18,0,.18,1,0,1.91.18,2.87.24l2.87.18c1.91.12,3.82.27,5.74.37,3.84.21,7.65.46,11.48.81C268.14,280.82,268.15,280.49,268,280.45Z" style="fill:#263238"></path><path d="M277.85,234.3l-2.1.21c-1.16.07.47-.77,1.49-1.08-.5-.71-1-1.41-1.48-2.09h0c-.12-.18-.25-.35-.37-.52l-.18-.25c-.34,0-.68,0-1,0-.61,0-1.22,0-1.84.07a58.94,58.94,0,0,0-11.43,2,23,23,0,0,1-5.38.74c-.85,0-1.88-.09-2.81-.17s-1.92-.21-2.88-.37A55.94,55.94,0,0,1,238,228.91a24.91,24.91,0,0,0-6.48-1.55c-1-.1-2-.17-2.95-.23-1.76,2.22-3.59,4.63-5.38,7.16h.11c3-.16,6.07-.48,8.7.17.67.15,1.31.27,2,.39a6.91,6.91,0,0,1,1,.21l.48.12c.15,0,.31.08.54.16a51.25,51.25,0,0,0,6.65,2.33,38.3,38.3,0,0,0,7.29,1.27c1.24.1,2.47.14,3.68.15h.9l1.06,0c.73,0,1.43-.11,2.14-.19,2.79-.41,5.18-1.16,7.48-1.7s4.25-1.71,6.22-2.35a20.54,20.54,0,0,1,4.23-.15c.47,0,.92,0,1.36-.09s.65,0,1-.09Zm-6.08-3.36a1.91,1.91,0,0,1,2,.16A3,3,0,0,1,271.77,230.94Zm17.49,22.67-.15,0,.14,0A0,0,0,0,1,289.26,253.61Zm1.77,5.18a28.69,28.69,0,0,0-1.47-4.48,17.89,17.89,0,0,1-8.42-.43c-3.16-1.2-6.88-1.15-10.73-1s-7.88.48-11.36-.28l-2.62-.49a9.07,9.07,0,0,1-1.32-.29l-.65-.17a5.6,5.6,0,0,1-.73-.22,77.14,77.14,0,0,0-8.53-2.91,50.16,50.16,0,0,0-9.2-1.67c-1.57-.13-3.12-.19-4.66-.22h-1.15c-.38,0-.88,0-1.31,0-.9,0-1.77.13-2.64.22a94.41,94.41,0,0,0-9.48,2.18c-1.13.3-2.19.66-3.19,1-.94,1.86-1.8,3.74-2.56,5.61,1.26-.17,2.5-.39,3.73-.64,2.44-.5,4.81-1.14,7.16-1.7a29.73,29.73,0,0,1,7-1c1.13,0,2.44.1,3.66.19s2.49.26,3.74.46a74.26,74.26,0,0,1,15.36,4.86,32.6,32.6,0,0,0,8.22,1.88c2.67.26,5.31.39,7.91.42,5.21.09,10.39.06,15.84.64a52.77,52.77,0,0,0,7.77-.1C291.29,260.09,291.17,259.45,291,258.79Zm-132.3,32.47.78-.11,0,.06-.78.06Zm132-3.44c-.41-.05-.84-.1-1.29-.17,3.11.63-4.14,1.72-8.27.25-3.16-1.2-6.88-1.15-10.73-1s-7.88.49-11.36-.27l-2.62-.49a10.61,10.61,0,0,1-1.32-.29l-.65-.17c-.22-.06-.43-.11-.73-.22a77.14,77.14,0,0,0-8.53-2.91,50.16,50.16,0,0,0-9.2-1.67c-1.57-.13-3.12-.2-4.66-.22h-1.15c-.38,0-.88,0-1.31,0a25.39,25.39,0,0,0-2.64.22,91.73,91.73,0,0,0-9.48,2.18c-2.51.67-4.62,1.6-6.7,2.31-.24,1.56-.45,3.07-.64,4.52,1.8-.19,3.58-.48,5.32-.84,2.44-.49,4.81-1.14,7.16-1.69a29.73,29.73,0,0,1,7-1c1.13,0,2.44.1,3.66.19s2.49.26,3.74.46a61.76,61.76,0,0,1,12,3.54H291Zm-23.47-67.66c-2.91,0-5.77.09-8.65.13q-3.9.09-7.92-.15a33,33,0,0,1-8.27-1.61c-1.58-.58-3.17-1.15-4.78-1.68a22.55,22.55,0,0,1,7.19-4.65h0l.17,0,.66.15a8.82,8.82,0,0,0,1.32.25l2.64.4a35.6,35.6,0,0,0,9,.08,28.09,28.09,0,0,1,7.05,5.23C265.92,218.61,266.47,219.24,267.23,220.16Zm23.59,48.33c-.78,0-1.57.05-2.36.12a52.68,52.68,0,0,0-7.5,1c-2.44.49-4.81,1.14-7.16,1.69a29.22,29.22,0,0,1-7,1c-1.12,0-2.44-.1-3.66-.19s-2.49-.26-3.74-.46c-5.4-.91-10.41-2.87-15.36-4.85a32.23,32.23,0,0,0-8.21-1.89c-2.68-.25-5.31-.39-7.92-.41-5.21-.1-10.38-.06-15.84-.65a27.94,27.94,0,0,0-3-.09,33.27,33.27,0,0,0,.27,6.3,16.16,16.16,0,0,1,5.22.73c3.16,1.2,6.88,1.15,10.73,1s7.88-.49,11.36.27l2.63.49a10.45,10.45,0,0,1,1.31.29l.65.17a7,7,0,0,1,.73.22,77.19,77.19,0,0,0,8.53,2.92,51.33,51.33,0,0,0,9.2,1.66c1.57.14,3.13.2,4.67.22h1.15c.37,0,.87,0,1.3,0,.9,0,1.77-.14,2.64-.23a94.48,94.48,0,0,0,9.48-2.17c3.11-.84,5.6-2.07,8.18-2.8a15.62,15.62,0,0,1,2.89-.27h.9a25.7,25.7,0,0,0,.62-3c0-.21.06-.44.08-.67h0c0-.15,0-.31,0-.47Zm-3.09.44a2.94,2.94,0,0,1,2.49.11A4.94,4.94,0,0,1,287.73,268.93Z" style="opacity:0.1"></path><path d="M251.48,298.58a4.22,4.22,0,0,0-1.19,1.62,7.38,7.38,0,0,0-.61,1.88,9.05,9.05,0,0,0-.17,2,9.39,9.39,0,0,0,.19,1.94c.14.62.43,1.12.8,1.14a.52.52,0,0,0,.52-.22,2.24,2.24,0,0,0,.33-.78,6.09,6.09,0,0,0,.06-2,4.22,4.22,0,0,0-.62-1.92,3.83,3.83,0,0,1,1.08,1.83,5.3,5.3,0,0,1,.23,2.18,2.54,2.54,0,0,1-.39,1.15,1.4,1.4,0,0,1-1.27.64,1.56,1.56,0,0,1-1.22-.7,3.61,3.61,0,0,1-.48-1.12,8.2,8.2,0,0,1-.2-2.19,8,8,0,0,1,.32-2.16,6.84,6.84,0,0,1,1-1.95A3.64,3.64,0,0,1,251.48,298.58Z" style="fill:#263238"></path><path d="M230.6,218a26.58,26.58,0,0,0,19.85,8.82c11.42,0,19.46-8.37,19.46-8.37s-5.47-8.13-19.78-8.13C237.24,210.28,230.6,218,230.6,218Z" style="fill: rgb(211, 118, 106);"></path><path d="M257.74,215.11c-.75,2.2-7.67,11.66-14.53,10.38-3.53-.66-1.71-13.1-1.71-13.1l0-.94-.5-13.16,19-7.67S258,214.48,257.74,215.11Z" style="fill: rgb(211, 118, 106);"></path><path d="M259.18,199.53a26.41,26.41,0,0,1-17.73,11.92l-.5-13.16,19-7.67S259.6,194.7,259.18,199.53Z" style="fill:#263238"></path><path d="M225.1,176.35c-4.3,22.71,8.82,27.85,13.72,28.77,4.44.84,19.69,3.12,26.32-19s-2.58-31.33-12.65-33.78S229.4,153.63,225.1,176.35Z" style="fill: rgb(211, 118, 106);"></path><path d="M233.56,172.43a14,14,0,0,0,1.59-.12,2.64,2.64,0,0,0,1.6-.44.83.83,0,0,0,.13-1,2,2,0,0,0-1.93-.73,3.06,3.06,0,0,0-2,.81A.88.88,0,0,0,233.56,172.43Z" style="fill:#263238"></path><path d="M249.24,174.49a13.51,13.51,0,0,1-1.51-.53,2.46,2.46,0,0,1-1.43-.83.81.81,0,0,1,.13-1,2,2,0,0,1,2-.22,3.06,3.06,0,0,1,1.73,1.3A.87.87,0,0,1,249.24,174.49Z" style="fill:#263238"></path><path d="M235.78,178.27c0-.06-.14,0-.15.12-.22,1.55-.74,3.3-2.24,3.57,0,0,0,.08,0,.09C235.14,182.11,235.81,179.78,235.78,178.27Z" style="fill:#263238"></path><path d="M232.82,177.05a4.48,4.48,0,0,0-.14.88,2.32,2.32,0,0,1-.47.51,1.18,1.18,0,0,1-1.27.24c-.88-.38-1-1.44-.74-2.37,0-.07.06-.1.09-.05.23.6.51,1.22,1.07,1.3s1-.32,1.42-.5h0Z" style="fill:#263238"></path><path d="M235.52,180a2.29,2.29,0,0,1-.73,1,1.68,1.68,0,0,1-1.34.32,1.54,1.54,0,0,1-1.1-.86,2.79,2.79,0,0,1-.24-1.24,6.39,6.39,0,0,1,.09-.75,3.57,3.57,0,0,1,.62-1.44,5.57,5.57,0,0,0-.15,1.13,7,7,0,0,0,0,1c.09.7.37,1.32.9,1.39s1-.26,1.39-.88a10.88,10.88,0,0,0,.81-2A4.88,4.88,0,0,1,235.52,180Z" style="fill:#263238"></path><path d="M245.16,179.82c0-.06.1.1.08.16-.4,1.52-.61,3.33.66,4.17,0,0,0,.1,0,.08C244.23,183.59,244.53,181.19,245.16,179.82Z" style="fill:#263238"></path><path d="M248.35,179.86a3.49,3.49,0,0,1-.21.86,2.57,2.57,0,0,0,.23.66,1.19,1.19,0,0,0,1.07.72c1,0,1.46-.94,1.62-1.89,0-.07,0-.11-.07-.08-.44.46-1,.92-1.49.78s-.76-.68-1.11-1c0,0,0,0,0,0Z" style="fill:#263238"></path><path d="M244.73,181.47a2.38,2.38,0,0,0,.25,1.25,1.77,1.77,0,0,0,1.12.82,1.56,1.56,0,0,0,1.35-.36,2.73,2.73,0,0,0,.7-1.05,4.56,4.56,0,0,0,.21-.72,3.42,3.42,0,0,0,0-1.56,4.87,4.87,0,0,1-.3,1.09,6.14,6.14,0,0,1-.44.93c-.35.61-.85,1.07-1.37.92s-.86-.64-.93-1.34a11.56,11.56,0,0,1,.05-2.19A4.9,4.9,0,0,0,244.73,181.47Z" style="fill:#263238"></path><path d="M243.29,192.13c-.34.41-.65,1-1.22,1.07a4.2,4.2,0,0,1-1.72-.21s-.1,0-.06.09a2.13,2.13,0,0,0,2.08.63,1.68,1.68,0,0,0,1.07-1.53C243.46,192.09,243.33,192.07,243.29,192.13Z" style="fill:#263238"></path><path d="M236.86,185.73s-.61,2.29-.75,3.39a6,6,0,0,0,6-1.05c.1-.09,0-.23-.15-.18a7.88,7.88,0,0,1-4.95.77c0-.31,1.19-3.89,1-3.92a9.4,9.4,0,0,0-2.56.25c1.14-4.81,3-9.4,4.11-14.21,0-.17-.21-.26-.28-.11-2.34,4.67-3.77,10.18-5.08,15.12C234,186.4,236.4,185.86,236.86,185.73Z" style="fill:#263238"></path><path d="M261.2,187.16s5.74-6.68,8.82-4.56-1.75,12.15-5.72,13.19a3.91,3.91,0,0,1-5-2.62Z" style="fill: rgb(211, 118, 106);"></path><path d="M268.56,185.44a.06.06,0,0,1,0,.11c-2.79.81-4.45,3.16-5.7,5.64a2.15,2.15,0,0,1,3.27-.27c.07.06,0,.16-.09.14a2.38,2.38,0,0,0-2.71.57,11.63,11.63,0,0,0-1.48,2c-.15.23-.57.06-.45-.21l0-.06C261.72,189.93,264.86,185.42,268.56,185.44Z" style="fill:#263238"></path><path d="M264,194.89a1,1,0,1,1-.57-1.28A1,1,0,0,1,264,194.89Z" style="fill:#455a64"></path><path d="M263.46,194.7a.47.47,0,0,1-.6.27.45.45,0,0,1-.27-.6.46.46,0,0,1,.6-.28A.47.47,0,0,1,263.46,194.7Z" style="fill:#263238"></path><path d="M265.8,193.86a.7.7,0,0,1-.91.4.7.7,0,0,1,.51-1.31A.71.71,0,0,1,265.8,193.86Z" style="fill:#455a64"></path><path d="M265,186.19c-2.61-.46-8.6-8.5-7.32-21.21,0,0-.36,11.5.3,13.27s-3.35-4.52-2.46-14.79c0,0-6.15,3.43-11.14,4.21s-7.94.4-8.25,0,7.07-1.8,9.26-3.79c0,0-13.56,4.47-19.54,4.22-.69,0,.15-14.22,10-19.12s23.61,3.26,27.07,7.48c0,0,4.51,1.19,8.69,8.55S267.76,186.69,265,186.19Z" style="fill:#263238"></path></g></svg>