<svg xmlns="http://www.w3.org/2000/svg" viewBox="0 0 500 500"><g id="freepik--Background--inject-18"><path id="freepik--background--inject-18" d="M419.25,103.24C313.35-4,178.54,5.42,98.63,68.06-14,156.38-24.14,360.53,110.53,445.64c83.75,52.93,219,62.48,308.72-9.38C522.41,353.62,503.74,188.82,419.25,103.24ZM368.37,48c22.32,13,40.29,26.77,51.49,37.38s25.19,26,40.18,48.72c8.36,12.69,22.34,16.82,20.84-3.66a105.23,105.23,0,0,0-36-71.88C420,36.62,398.52,30.88,372.57,30.15,344.88,29.38,359.94,43.07,368.37,48Z" style="fill:#37474f"></path></g><g id="freepik--Shadows--inject-18"><path id="freepik--Shadow--inject-18" d="M158.64,417.27h0v0a.08.08,0,0,1,0,0c0-.06,0-.12,0-.18a1,1,0,0,1,0-.17l-.07-.18h0l0,0h0a5.45,5.45,0,0,0-2.42-2.1,1.41,1.41,0,0,0-.5-.17,1.89,1.89,0,0,0-.61-1,1.75,1.75,0,0,0-1.53-.37h0c-.29-.2-.59-.43-.88-.66-2.74-2.2-3.74-4.61-8.1-7.58-3.32-2.26-6.17-3.88-7.56-6.19-1-1.72-3.15-6.13-5.73-7.62l-4.06-2.35h0L116,382.12h0l-1.5-.86h0l-15.72-9.08c-1.56-.91-3.71-.78-6.09.59a18,18,0,0,0-6.38,7,16.35,16.35,0,0,0-2.28,8c0,2.68,1,4.57,2.58,5.47h0L119,411.93c2.58,1.49,7.41,1.19,9.4,1.25,2.68.09,5.51,1.75,9.12,3.51,5.22,2.53,7.8,1.91,11.58,3.73a1.86,1.86,0,0,0,.8,1l.29.13a1.9,1.9,0,0,0,1.2,0,1.42,1.42,0,0,0,.4.34,5.58,5.58,0,0,0,3,1.07h.05l.2,0a2.93,2.93,0,0,0,.37-.1h0a1.59,1.59,0,0,0,.4-.18,4.88,4.88,0,0,0,1.54-1.44,6.14,6.14,0,0,0,1.3-3.48A3.19,3.19,0,0,0,158.64,417.27Z" style="opacity:0.15"></path><path id="freepik--shadow--inject-18" d="M192.17,432.68c0,2.11-1.47,4.19-4.24,5.81-5.66,3.27-14.86,3.27-20.52,0-2.74-1.59-4.16-3.64-4.24-5.72v-.41a4.51,4.51,0,0,1,.11-.89c.41-1.78,1.78-3.47,4.13-4.83,5.66-3.27,14.86-3.27,20.52,0,2.39,1.39,3.76,3.14,4.13,4.92A4.73,4.73,0,0,1,192.17,432.68Z" style="opacity:0.15"></path><path id="freepik--shadow--inject-18" d="M442.37,290.83,310.37,215a8.85,8.85,0,0,0-8.22.12L78.4,353.6c-2.25,1.38-2.22,3.57.08,4.88l123.89,71a9.19,9.19,0,0,0,8.3,0L256.49,403c-6.87,13.85-.87,29.37,18,40.28,27.71,16,72.63,16,100.34,0s27.71-41.94,0-57.93C355.94,374.43,329,371,305,375L442.38,295.6C444.67,294.28,444.67,292.14,442.37,290.83Z" style="opacity:0.15"></path></g><g id="freepik--side-table--inject-18"><g id="freepik--side-table--inject-18"><g id="freepik--side-table--inject-18"><g id="freepik--Nightstand--inject-18"><polygon points="426.61 300.16 415.11 293.52 426.61 290.2 426.61 300.16"></polygon><polygon points="368.98 323.48 368.98 334.07 302.64 295.68 302.64 285.09 368.98 323.48"></polygon><polygon points="296.88 202.05 363.23 240.44 363.23 326.8 296.88 288.41 296.88 202.05" style="fill:#263238"></polygon><polygon points="363.23 240.44 438.12 197.19 438.12 283.56 363.23 326.8 363.23 240.44" style="fill:#37474f"></polygon><polygon points="438.12 197.19 438.37 218.78 438.51 240.37 438.63 283.56 438.63 283.85 438.38 284 400.87 305.52 382.07 316.21 363.23 326.8 381.82 315.77 400.48 304.84 437.87 283.12 437.61 283.56 437.73 240.37 437.87 218.78 438.12 197.19" style="fill:#263238"></polygon><polygon points="438.12 197.19 371.78 158.8 296.88 202.05 363.23 240.44 438.12 197.19" style="fill:#455a64"></polygon><polygon points="368.98 243.76 432.37 207.16 432.37 227.09 368.98 263.69 368.98 243.76" style="fill:#455a64"></polygon><polygon points="368.98 270.33 432.37 233.73 432.37 280.23 368.98 316.84 368.98 270.33" style="opacity:0.2"></polygon><polygon points="368.98 334.07 374.73 330.75 374.73 320.16 368.98 323.48 368.98 334.07" style="fill:#263238"></polygon><polygon points="426.61 300.16 432.37 296.84 432.37 286.88 426.61 290.2 426.61 300.16" style="fill:#263238"></polygon><path d="M388.62,236.61c0,.92,2.75.08,6.14-1.88l10.74-6.2c3.39-2,6.14-4.29,6.14-5.21v-1.66l-23,13.29Z" style="fill:#37474f"></path><polygon points="432.37 280.23 392.37 256.82 368.98 270.33 368.98 316.84 432.37 280.23" style="opacity:0.2"></polygon></g></g><path id="freepik--shadow--inject-18" d="M397.81,209.47a9.47,9.47,0,0,1-5-1.36,4.58,4.58,0,0,1-2.4-3.68,3.48,3.48,0,0,1,.31-1.46l-6.59-.16-.21-.11a117.62,117.62,0,0,0-11.22-4.8l-2.33-.87,10.8-4.85.39.14a87.16,87.16,0,0,1,11.92,5.44l.5.28.07,2.31a9.27,9.27,0,0,1,2.79-.41,9.4,9.4,0,0,1,5,1.36,4.57,4.57,0,0,1,2.41,3.71,3.93,3.93,0,0,1-2,3.3,8.21,8.21,0,0,1-4.4,1.16Z" style="fill:#263238"></path><path id="freepik--shadow--inject-18" d="M412.48,201.69a9.47,9.47,0,0,1-5-1.36,4.54,4.54,0,0,1-2.39-3.68,3.47,3.47,0,0,1,.3-1.46l-6.59-.16-.21-.11a117.62,117.62,0,0,0-11.22-4.8l-2.33-.87,10.8-4.85.39.14A86.35,86.35,0,0,1,408.14,190l.49.29.07,2.31a9.36,9.36,0,0,1,2.79-.41,9.52,9.52,0,0,1,5,1.35,4.59,4.59,0,0,1,2.4,3.72,3.92,3.92,0,0,1-2,3.3,8.25,8.25,0,0,1-4.41,1.16Z" style="fill:#263238"></path><g id="freepik--Medals--inject-18"><path d="M416,193.15a8.48,8.48,0,0,0-8.33-.21,2.9,2.9,0,0,0-1.51,2.37c0,.22,0,1.11,0,1.33a3.6,3.6,0,0,0,1.92,2.83,8.48,8.48,0,0,0,8.33.2,2.9,2.9,0,0,0,1.51-2.41c0-.21,0-1,0-1.22A3.5,3.5,0,0,0,416,193.15Z" style="fill:#e0e0e0"></path><path d="M416,193.15c2.41,1.52,2.58,3.89.39,5.29a8.46,8.46,0,0,1-8.33-.2c-2.41-1.52-2.58-3.89-.39-5.3A8.48,8.48,0,0,1,416,193.15Z" style="fill:#f5f5f5"></path><path d="M387.71,187.93l8.15-3.66a86.91,86.91,0,0,1,11.77,5.36l.1,3.36-8.69-.21A117.87,117.87,0,0,0,387.71,187.93Z" style="fill:#F38181"></path><path d="M393.8,185.2a117.22,117.22,0,0,1,13.89,6.41l0-1.25c-3.07-1.54-7.76-3.81-12.5-5.77Z" style="fill:#fff;opacity:0.30000000000000004"></path><path d="M400.71,192.82l2.49.06c-3.08-1.55-8.05-4-13.06-6l-1.37.61A107.17,107.17,0,0,1,400.71,192.82Z" style="fill:#fff;opacity:0.30000000000000004"></path><polygon points="408.48 193.58 411.43 194.28 413.8 193.18 413.9 195.12 416.48 196.31 413.6 196.81 412.82 198.65 410.94 197.01 407.88 196.96 409.6 195.45 408.48 193.58" style="fill:#e0e0e0"></polygon><polygon points="408.48 193.58 411.43 194.28 413.8 193.18 413.9 195.12 416.48 196.31 413.6 196.81 412.82 198.65 410.94 197.01 407.88 196.96 409.6 195.45 408.48 193.58" style="opacity:0.30000000000000004"></polygon><polygon points="413.8 193.91 411.43 195.01 408.99 194.44 409.6 195.45 409.6 196.18 408.7 196.98 410.94 197.01 412.82 198.65 413.6 196.81 415.32 196.51 413.9 195.85 413.8 193.91" style="fill:#e0e0e0"></polygon><polygon points="413.8 193.91 411.43 195.01 408.99 194.44 409.6 195.45 409.6 196.18 408.7 196.98 410.94 197.01 412.82 198.65 413.6 196.81 415.32 196.51 413.9 195.85 413.8 193.91" style="opacity:0.15"></polygon></g><g id="freepik--medals--inject-18"><path d="M401.28,200.93a8.46,8.46,0,0,0-8.33-.2,2.91,2.91,0,0,0-1.52,2.37c0,.21,0,1.1,0,1.33a3.54,3.54,0,0,0,1.91,2.82,8.46,8.46,0,0,0,8.33.2,2.88,2.88,0,0,0,1.52-2.41c0-.2,0-1,0-1.22A3.5,3.5,0,0,0,401.28,200.93Z" style="fill:#e0e0e0"></path><path d="M401.28,200.93c2.41,1.52,2.58,3.89.38,5.3a8.49,8.49,0,0,1-8.33-.21c-2.4-1.52-2.58-3.89-.38-5.29A8.46,8.46,0,0,1,401.28,200.93Z" style="fill:#f5f5f5"></path><path d="M373,195.72l8.16-3.67A86.82,86.82,0,0,1,393,197.42l.1,3.36-8.69-.21A115.81,115.81,0,0,0,373,195.72Z" style="fill:#F38181"></path><path d="M379.13,193A120.4,120.4,0,0,1,393,199.39l0-1.25c-3.07-1.54-7.77-3.8-12.5-5.77Z" style="fill:#fff;opacity:0.30000000000000004"></path><path d="M386,200.61l2.49.06c-3.08-1.56-8-4-13.06-6l-1.36.61A105.18,105.18,0,0,1,386,200.61Z" style="fill:#fff;opacity:0.30000000000000004"></path><polygon points="393.81 201.37 396.75 202.06 399.12 200.96 399.23 202.9 401.81 204.09 398.93 204.59 398.15 206.43 396.27 204.8 393.21 204.75 394.93 203.23 393.81 201.37" style="fill:#e0e0e0"></polygon><polygon points="393.81 201.37 396.75 202.06 399.12 200.96 399.23 202.9 401.81 204.09 398.93 204.59 398.15 206.43 396.27 204.8 393.21 204.75 394.93 203.23 393.81 201.37" style="opacity:0.30000000000000004"></polygon><polygon points="399.12 201.69 396.75 202.79 394.32 202.22 394.93 203.23 394.93 203.97 394.02 204.76 396.27 204.8 398.15 206.43 398.93 204.59 400.65 204.29 399.23 203.64 399.12 201.69" style="fill:#e0e0e0"></polygon><polygon points="399.12 201.69 396.75 202.79 394.32 202.22 394.93 203.23 394.93 203.97 394.02 204.76 396.27 204.8 398.15 206.43 398.93 204.59 400.65 204.29 399.23 203.64 399.12 201.69" style="opacity:0.15"></polygon></g><polygon id="freepik--shadow--inject-18" points="353.02 195.81 336.95 186.53 369.1 167.97 385.17 177.25 353.02 195.81" style="fill:#263238"></polygon><g id="freepik--Picture--inject-18"><g id="freepik--Frame--inject-18"><polygon points="353.4 189.56 354.74 190.2 379.55 175.88 378.21 175.23 353.4 189.56" style="fill:#263238"></polygon><polygon points="378.21 175.23 354.61 188.85 351.18 153.56 374.78 139.94 378.21 175.23" style="fill:#455a64"></polygon><path d="M378,135.43l-29.37,16.95,4,41.63,29.36-17Zm1.52,40.45L354.74,190.2l-3.56-36.64L376,139.24Z" style="fill:#37474f"></path><polygon points="379.55 175.88 378.21 175.23 374.78 139.94 375.99 139.24 379.55 175.88" style="fill:#263238"></polygon><polygon points="378.02 135.43 376.67 134.8 347.3 151.75 348.66 152.38 378.02 135.43" style="fill:#455a64"></polygon><polygon points="347.3 151.75 348.66 152.38 352.71 194.01 351.35 193.38 347.3 151.75" style="fill:#263238"></polygon></g><g id="freepik--Land--inject-18"><polygon points="377.17 174.56 355.42 187.12 354.84 181.18 358.89 163.71 362.74 169.67 361.94 174.69 368.38 156.16 376.59 168.62 377.17 174.56" style="fill:#37474f"></polygon><path d="M358.55,156.35a3.08,3.08,0,0,0-1.44,2.69c.1,1,.9,1.34,1.78.83a3,3,0,0,0,1.44-2.69C360.24,156.21,359.44,155.84,358.55,156.35Z" style="fill:#37474f"></path></g></g></g></g><g id="freepik--Character--inject-18"><g id="freepik--character-on-the-couch--inject-18"><g id="freepik--Couch--inject-18"><path d="M203.11,397.29H186.63l2.63,16.08h0a2.93,2.93,0,0,0,1.59,2,8.81,8.81,0,0,0,8,0,3,3,0,0,0,1.6-2h0Z"></path><path d="M129.11,354.35H112.64l2.63,16.07h0a3,3,0,0,0,1.6,2,8.81,8.81,0,0,0,8,0,3,3,0,0,0,1.6-2h0Z"></path><path d="M341.67,334.47H325.19l2.64,16.07h0a3,3,0,0,0,1.6,2,8.81,8.81,0,0,0,8,0,3,3,0,0,0,1.59-2h0Z"></path><path d="M257.85,285.71H241.37L244,301.78h0a3,3,0,0,0,1.6,2,8.79,8.79,0,0,0,8,0,3,3,0,0,0,1.6-2h0Z"></path><path d="M354.82,250v76.75c0,5.07-3.59,11.31-8,13.84l-6.51,3.76-.11.06a18,18,0,0,1-10,1.72l-97.81,51.75c-.22,4.95-3.67,10.8-7.89,13.29l-.08,0L218,415a4,4,0,0,1-.61.32,2.6,2.6,0,0,1-.34.16s-.07,0-.09,0a18.25,18.25,0,0,1-12.4.57,10.33,10.33,0,0,1-1.38-.52,1.45,1.45,0,0,1-.22-.09A10.53,10.53,0,0,1,202,415l-94.12-54.2c-4.41-2.54-8-8.76-8-13.84l-.14-97.16V220.5c0-5.08,3.6-11.3,8-13.84L213,146c4.41-2.54,11-2.29,15.42.26l6.51,3.75c4.39,2.54,8.54,8.72,9.21,13.76l6.27,33.43,5.8-3.35a17.4,17.4,0,0,1,17.39,0l73.27,42.32C351.23,238.69,354.82,244.92,354.82,250Z" style="fill:#37474f"></path><path d="M234.89,150l-6.51-3.75c-4.41-2.55-11-2.81-15.42-.26L107.7,206.66c-.47.27-1,.63-.82.51a18.28,18.28,0,0,0-7.08,12c.59-4.08,3.91-5.55,7.89-3.27l6.52,3.76a17.65,17.65,0,0,0,16,0l104.7-60.4C239.3,156.69,239.3,152.56,234.89,150Z" style="fill:#455a64"></path><path d="M354.82,250v76.75c0,5.07-3.59,11.31-8,13.84l-6.51,3.76-.11.06a17,17,0,0,1-9.36,1.77,15.62,15.62,0,0,1-6.51-1.83l-74-42.72c-4.39-2.53-8-8.76-8-13.84V211c0-5.07,3.58-11.31,8-13.84l5.8-3.35a17.4,17.4,0,0,1,17.39,0l73.27,42.32C351.23,238.69,354.82,244.92,354.82,250Z" style="fill:#263238"></path><path d="M256.18,193.84l-5.81,3.36c-4.4,2.53-4.4,6.69,0,9.22l74,42.71c4.39,2.54,8,8.77,8,13.84v76.76c0,5.08,3.6,7.15,8,4.62l6.51-3.76c4.39-2.54,8-8.77,8-13.84V250c0-5.08-3.6-11.3-8-13.84l-73.28-42.31A17.38,17.38,0,0,0,256.18,193.84Z" style="fill:#455a64"></path><path d="M332.33,263v76.76c0,5.08,3.6,7.15,8,4.62l6.51-3.76c4.39-2.54,8-8.77,8-13.84V250a16.33,16.33,0,0,0-2.35-7.87L330,255.1A16.36,16.36,0,0,1,332.33,263Z" style="fill:#37474f"></path><path d="M329,346.18a19.35,19.35,0,0,1-2.92,4.4c-1.7,1.9-5.31,4-7.52,5.25-28.11,16.24-48.38,27.89-76.49,44.12a8.79,8.79,0,0,1-8,0l-26-15-52-30c-4.41-2.55-8-8.49-8-13.27s3.58-10.72,8-13.27l29.49-17,22.5-13,24.44-14.07a17.75,17.75,0,0,1,16,0l74,42.72c4.41,2.55,8,8.49,8,13.27A14.16,14.16,0,0,1,329,346.18Z" style="fill:#263238"></path><path d="M242.09,382.65l84.4-48.7c2.2-1.27,4-.24,4,2.31v8.08a8.87,8.87,0,0,1-4,6.93L242.08,400c-2.2,1.28-4,.24-4-2.3v-8.08A8.84,8.84,0,0,1,242.09,382.65Z" style="fill:#37474f"></path><path d="M232.54,244.74l-76.42,44.07a17.68,17.68,0,0,0-8,13.85v16.16c0,5.1,3.58,11.3,8,13.84l74,42.71a17.65,17.65,0,0,0,16,0l76.41-44.07a17.67,17.67,0,0,0,8-13.84V301.29a17.67,17.67,0,0,0-8-13.84l-74-42.71A17.65,17.65,0,0,0,232.54,244.74Z" style="fill:#37474f"></path><path d="M238.1,342.65v34.64a16.31,16.31,0,0,1-8-1.92l-74-42.7c-4.41-2.55-8-8.75-8-13.84V302.66c0-4.78,3.16-10.52,7.18-13.32-3.58,2.56-3.3,6.33.81,8.71l74,42.7A16.36,16.36,0,0,0,238.1,342.65Z" style="fill:#263238"></path><path d="M246.08,340.75l76.41-44.07c4.41-2.55,4.41-6.68,0-9.23l-74-42.71a17.65,17.65,0,0,0-16,0l-76.42,44.07c-4.41,2.55-4.41,6.68,0,9.23l74,42.71A17.65,17.65,0,0,0,246.08,340.75Z" style="fill:#455a64"></path></g><g id="freepik--character--inject-18"><g id="freepik--Bottom--inject-18"><path d="M302.09,314.1c3.85,3.2,11.14,4.38,23.13-4.37,12.28-9,9.72-21.46,5.52-24C323,281,299,282.14,294.29,291S296.91,309.8,302.09,314.1Z" style="fill:#263238"></path><path d="M256.38,338.18c8.34,3.9,19.57-.25,26.62-7.38s12.59-17.35,7.32-21.6-25.88-4.84-34.93,3.07S249.29,334.87,256.38,338.18Z" style="fill:#263238"></path><path d="M185.1,264c.08,13.95.37,20.36,7.47,29.69S254,332.08,257.4,334.29s3.6,3,3.28,7.44c-.41,5.81-1.51,12.3,2.45,27.93,2.83,11.22,8.5,24.73,10.45,33.83.05,2.21-.58,6-.58,8,0,0,7.23,6,14.4,4.31s4.63-9,4.63-9-.58-14.68.37-34.28c1-20.23.82-35.12.94-45,.13-10.51.45-15.66-11.76-24.51-10.28-7.44-34.5-25.92-34.5-25.92Z" style="fill:#ffa8a7"></path><path d="M272.47,403.62c-.4-1.42-2.28-5.66-.59-6.49l.59,1.54s1.37,1.59,9.2.65c8.21-1,10.19-4.25,10.19-4.25V393.3s1.15.05,1.31,2.07.23,8.71.94,11.23-.42,7.2-10.66,8.27-11.46-9.6-11.46-9.6Z" style="fill:#263238"></path><path d="M326,439.44c.36,1.35.34,2.3-4.49,4.6s-12.42,3-19,2.2-12.71-5.86-15.8-9.51-9-6.76-12.77-8.31-4.63-2.23-4.48-3.44.85-4.42.85-4.42Z" style="fill:#ebebeb"></path><path d="M269.34,415.62c.47-4,2-6,1.67-9.17s1.46-2.83,1.46-2.83l.38,1.79c.3,1.16,1,1.56,1.73,2.42,1.51,1.92,1.65,3.39,3.47,3.8s1.81-2.62,3.77-2.83a3.09,3.09,0,0,1,2.06.8,5.21,5.21,0,0,1-.39-2.45c.36-1.95,5.12-2.81,8.46-3.77s2.07,1.61,3.61,4.7,9.79,13.11,13,16.12a101.55,101.55,0,0,0,9.05,5.94c4.39,2.47,5.92,3.2,7.19,3.83s1.85,3.37,1.38,5.08-9.46,6.69-19.66,5.51-13.55-5.09-17.57-10a27.68,27.68,0,0,0-11.4-8.24c-2.63-1-5.55-2.21-7.48-4.05A13.44,13.44,0,0,1,269.34,415.62Z" style="fill:#F38181"></path><path d="M308.58,424.2c-3.23-3-11.47-13-13-16.12s-.27-5.67-3.61-4.7-8.1,1.82-8.46,3.77,1.76,6.27,6,11.39,12.05,10,12.05,10Z" style="opacity:0.1"></path><path d="M324.25,435.77c-1.75.64-3.68,1.31-3.69,2s.34,4.48-.5,5.83-2,1.81-3.72,2.14-9.12,1.12-13.59.26a25.15,25.15,0,0,1-12.95-6.56c-4.25-3.93-5.17-5.95-10.52-8.75s-7.3-3.12-9.71-4.88a9.58,9.58,0,0,0-.24,1.61A6.18,6.18,0,0,0,271.8,429c1.7.66,7.52,2.81,9.92,4.48a66.93,66.93,0,0,1,7.62,7A25.8,25.8,0,0,0,302.82,447c5.8.79,13.61.2,18.51-2.09s5.06-3.34,5.43-4,.18-4.26-.2-5S325.51,435.31,324.25,435.77Z" style="fill:#455a64"></path><path d="M299.82,427.16c3.38-2.87,6.4-4.09,7.83-3.88a3,3,0,0,1,1.49,1.33s-2.76.17-7.58,3.89C301.56,428.5,300.05,428.5,299.82,427.16Z" style="fill:#37474f"></path><path d="M304.48,419.79c-2.64.29-5.82,1.76-9.49,4.43a1.9,1.9,0,0,1-1.65-1.35s4.87-4.36,9.89-4.54C303.23,418.33,304.46,418.83,304.48,419.79Z" style="fill:#37474f"></path><path d="M300.41,414.89c-2.3-.58-8.36,3.08-10.07,5a1.59,1.59,0,0,1-1.67-1.53s4.67-5,10.28-5.33C299,413,300.57,413.56,300.41,414.89Z" style="fill:#37474f"></path><path d="M296.89,410.22c-1.12-.08-7.34.76-10.68,4.42a1.93,1.93,0,0,1-1.37-1.65,15.24,15.24,0,0,1,10.9-4.57A3,3,0,0,1,296.89,410.22Z" style="fill:#37474f"></path><path d="M331.79,331a4.89,4.89,0,0,0-4.3.9,1.56,1.56,0,0,0-.63,1.43l10.73,51.37a1.56,1.56,0,0,0,1.15,1.05,4.83,4.83,0,0,0,4.3-.9,1.53,1.53,0,0,0,.64-1.42L332.94,332A1.53,1.53,0,0,0,331.79,331Z" style="fill:#e0e0e0"></path><path d="M331.79,331a4.89,4.89,0,0,0-4.3.9,1.56,1.56,0,0,0-.63,1.43l10.73,51.37a1.56,1.56,0,0,0,1.15,1.05,4.83,4.83,0,0,0,4.3-.9,1.53,1.53,0,0,0,.64-1.42L332.94,332A1.53,1.53,0,0,0,331.79,331Z" style="opacity:0.1"></path><path d="M334.44,369.57c.59,2,6.46.54,6-1.52,1.12.22,1.95.33,2.45,3.27s6.91,5.87,7.75,8.41-4,7.47-9.47,9-10.42-5-10.76-7.32c-.64-4.29,3.76-4.94,3.17-7.82C333.31,372.11,333.06,370.25,334.44,369.57Z" style="fill:#263238"></path><path d="M327.49,331.87a1.34,1.34,0,0,0,.52,2.49,4.89,4.89,0,0,0,4.3-.9,1.34,1.34,0,0,0-.52-2.49A4.89,4.89,0,0,0,327.49,331.87Z" style="fill:#455a64"></path><path d="M333.8,330.4a9.45,9.45,0,0,0-8.37,1.75,3,3,0,0,0-1.23,2.78l.64,3.06a3,3,0,0,0,2.24,2.05,9.43,9.43,0,0,0,8.36-1.75,3,3,0,0,0,1.23-2.77l-.64-3.07A3,3,0,0,0,333.8,330.4Z" style="fill:#e0e0e0"></path><path d="M325.43,332.15a2.6,2.6,0,0,0,1,4.83,9.43,9.43,0,0,0,8.36-1.75,2.6,2.6,0,0,0-1-4.83A9.45,9.45,0,0,0,325.43,332.15Z" style="fill:#ebebeb"></path><path d="M329.05,313.07a7,7,0,0,0-6.21,1.3,2.24,2.24,0,0,0-.91,2.06l3.78,18.07a2.2,2.2,0,0,0,1.66,1.52,7,7,0,0,0,6.2-1.3,2.21,2.21,0,0,0,.91-2.05l-3.77-18.07A2.25,2.25,0,0,0,329.05,313.07Z" style="fill:#455a64"></path><path d="M322.84,314.37a1.93,1.93,0,0,0,.75,3.58,7,7,0,0,0,6.21-1.29,1.94,1.94,0,0,0-.75-3.59A7,7,0,0,0,322.84,314.37Z" style="fill:#455a64"></path><path d="M339.19,314.66c-1-6.56-1.36-9.6-2.72-15.6-2.11-9.31-4.67-12.15-11.45-16.43-11.94-7.51-16.69-10.06-16.69-10.06a32.08,32.08,0,0,0-12.78,8.93,22.28,22.28,0,0,0-3.45,5.95c-3.13,7.69-2.36,17.68-2.36,17.68s15.08,7.57,17,10.56a24,24,0,0,1,3,6.2c.51,1.63,2.55,3.26,5.29,4.16,6.52,2.14,15.94.17,21.06-4.4C338.65,319.36,339.65,316.86,339.19,314.66Z" style="fill:#f28f8f"></path><path d="M291.43,289.33c-.09.29-.18.57-.25.85,8,2.75,20.29,9.89,23.18,19.08,2,6.3,3.76,13.34,4.78,17.58l.92.05c-1-4.22-2.83-11.45-4.86-17.9C312.21,299.48,299.59,292.14,291.43,289.33Z" style="fill:#b16668"></path><path d="M298.43,296.84a1.36,1.36,0,1,1-1.35-1.35A1.36,1.36,0,0,1,298.43,296.84Z" style="fill:#b16668"></path><path d="M307,301.69a1.36,1.36,0,1,1-1.35-1.35A1.35,1.35,0,0,1,307,301.69Z" style="fill:#b16668"></path><path d="M312.63,310a1.35,1.35,0,1,1-1.35-1.35A1.35,1.35,0,0,1,312.63,310Z" style="fill:#b16668"></path><path d="M316.13,320a1.35,1.35,0,1,1-1.35-1.35A1.35,1.35,0,0,1,316.13,320Z" style="fill:#b16668"></path><path d="M386.57,407.47c.49,1.3.57,2.25-4,5s-12,4.31-18.65,4.15-13.24-4.52-16.69-7.83-9.61-5.8-13.55-7-4.84-1.74-4.82-3,.39-4.48.39-4.48Z" style="fill:#ebebeb"></path><path d="M327.77,389.6c.06-4,1.16-6.1.72-9.29a3.62,3.62,0,0,1,1.16-3,9.5,9.5,0,0,1,3.65-2c-.66,1.25-2.57,2.75-2.83,4.25.28.71.95.9,1.71,1.69,1.7,1.75,2,3.19,3.84,3.42s1.53-2.79,3.46-3.2a3.07,3.07,0,0,1,2.13.58,5.33,5.33,0,0,1-.64-2.39c.16-2,4.8-3.33,8-4.63s2.22,1.39,4.08,4.31,11.08,12,14.61,14.69a99.23,99.23,0,0,0,9.61,5c4.62,2,6.21,2.58,7.54,3.07s2.19,3.17,1.9,4.92-8.71,7.63-19,7.5-14-3.67-18.5-8.11a27.67,27.67,0,0,0-12.18-7c-2.72-.73-5.76-1.64-7.87-3.27A13.51,13.51,0,0,1,327.77,389.6Z" style="fill:#F38181"></path><path d="M367.69,394.1c-3.53-2.67-12.76-11.77-14.61-14.69s-.86-5.61-4.08-4.31-7.87,2.65-8,4.63,2.4,6,7.17,10.7,13,8.67,13,8.67Z" style="opacity:0.1"></path><path d="M384.47,404c-1.69.82-3.53,1.69-3.47,2.37s.79,4.41.1,5.85-1.81,2-3.48,2.51-8.95,2-13.49,1.66a25.14,25.14,0,0,1-13.55-5.2c-4.64-3.47-5.76-5.38-11.37-7.62s-7.58-2.35-10.16-3.86a10,10,0,0,0-.08,1.63,6.19,6.19,0,0,0,2.63,1.36c1.76.48,7.77,2,10.33,3.44a66.82,66.82,0,0,1,8.29,6.14,25.75,25.75,0,0,0,14.09,5.13c5.85.18,13.55-1.2,18.2-4s4.68-3.85,5-4.53-.27-4.26-.72-5S385.67,403.4,384.47,404Z" style="fill:#455a64"></path><path d="M359.28,397.94c3.06-3.2,6-4.72,7.39-4.66a3,3,0,0,1,1.61,1.17s-2.72.46-7.13,4.65A1.76,1.76,0,0,1,359.28,397.94Z" style="fill:#37474f"></path><path d="M363.15,390.14c-2.59.55-5.6,2.35-9,5.38a1.89,1.89,0,0,1-1.78-1.17s4.39-4.84,9.37-5.54C361.76,388.81,363,389.18,363.15,390.14Z" style="fill:#37474f"></path><path d="M358.6,385.68c-2.35-.34-8,3.92-9.5,6a1.59,1.59,0,0,1-1.82-1.35s4.13-5.45,9.68-6.36C357,384,358.62,384.34,358.6,385.68Z" style="fill:#37474f"></path><path d="M354.62,381.39c-1.13,0-7.22,1.52-10.17,5.5a1.93,1.93,0,0,1-1.53-1.49,15.21,15.21,0,0,1,10.37-5.67A3,3,0,0,1,354.62,381.39Z" style="fill:#37474f"></path><path d="M183.16,262.22c.28,9.74-1.57,25.58,12.62,37.7s53.85,35.23,60.6,38.26c-4.13-4.12,5.62-18.89,16.83-25.36s15-5.06,17.11-3.62L279,300.29l23.14,13.81A30.47,30.47,0,0,1,313,291.83c8.52-7,15.1-7.26,17.72-6.12,0,0-55.94-33.75-62.13-37.47a15.87,15.87,0,0,1-7.09-10.64Z" style="fill:#F38181"></path><path d="M183.16,262.22c.28,9.74-1.57,25.58,12.62,37.7s53.85,35.23,60.6,38.26c-4.13-4.12,5.62-18.89,16.83-25.36s15-5.06,17.11-3.62L279,300.29l23.14,13.81A30.47,30.47,0,0,1,313,291.83c8.52-7,15.1-7.26,17.72-6.12,0,0-55.94-33.75-62.13-37.47a15.87,15.87,0,0,1-7.09-10.64Z" style="opacity:0.2"></path><path d="M279,300.29,253,281.66s9.62-7.83,15.15-18.1c.2,4-4,13.48-7.51,17.29l22.53,19.49,18.88,13.76Z" style="opacity:0.2"></path></g><g id="freepik--Top--inject-18"><g id="freepik--Arm--inject-18"><path d="M333,199c.23,9.58,1.55,31.93-2.49,54.6-3.14,17.67-8.23,23.07-13,25.48-5.44,2.72-12.14-.39-18-6.3-10.46-10.63-23.85-35.28-23.85-35.28l-11.1-64.86c5,0,14.54.57,20.61,5.17C293.92,184.47,307,229,307,229l6.52-31.9Z" style="fill:#f28f8f"></path><path d="M307,229c-2.78,12-6.19,19.16-5.41,31.89-3.38-10.27.38-25.79,4.23-36.48Z" style="fill:#b16668"></path></g><path id="freepik--Chest--inject-18" d="M280.07,178.35c-11.48-8.49-29.57-8-55.48,2.29-29.15,11.59-35.69,32.29-39.49,48.49s-2.89,33.14-2.62,44.48c5.16,3.31,18,4.49,34,3.29,29-2.19,51.26-21.73,53.07-28.12,0-5.35.09-16.43,2.8-23.51,3.71-9.65,6.19-11.11,12.53-25.2C288,193,289,185,280.07,178.35Z" style="fill:#F38181"></path><g id="freepik--Head--inject-18"><path id="freepik--Neck--inject-18" d="M270.81,185.16c-3.64-.18-10.77.59-14.25,12.39-2.2,7.46-.59,18,2.14,21.24C267,221,274.85,223,274.85,223c1-4.36,14.45-31.3,11.34-35.78Z" style="fill:#ffa8a7"></path><g id="freepik--head--inject-18"><path d="M301,244.8a41.37,41.37,0,0,1-12.38,1.6c-3.18-.16-3.11-.77-2.83-3.3a32.57,32.57,0,0,1,2.3-7.42Z" style="fill:#b16668"></path><path d="M268.53,214.9c-1.41,6.27-7.36,16-.66,19.58,7.34,4,17,6.63,24,8.39s17.3,4.49,29.94-.22c15.14-5.63,22.06-37.52,1.56-51-16.68-10.94-40.4-5.66-48.24,7.11A46.26,46.26,0,0,0,268.53,214.9Z" style="fill:#ffa8a7"></path><path d="M290.61,221.52c-2.39,2.74,1.1,3.27,4,4.43,1.16.47,2.13.16,3.32,2.76a7.81,7.81,0,0,0,3.44,4c-2.66,2.38-2.78,6.1-1.91,9,1.57-1.92,3.8-4.08,5.73-4.3-3.22,4.75-4.3,7.82-4.44,10.73,6.18,1.13,31.08,2.16,40.12-19.3,3.2-7.6,2.17-16.11.54-18.66.42-6.68-2.11-11.41-5.31-15.29a29.3,29.3,0,0,0-15-9.56c-13.17-3.77-25,.1-30.11,1.51a29.13,29.13,0,0,1-5.86,1.24c-2.8,1.13-14.42,7.55-11.44,26.35,0,.23.78.63,1,.75a7.7,7.7,0,0,0,1.25.63,5.33,5.33,0,0,0,3.23.33,2.68,2.68,0,0,1-.09-4,9.05,9.05,0,0,1,4-2.26,15.11,15.11,0,0,1,4.95-.68,12,12,0,0,1,7.9,3.18,5.86,5.86,0,0,1,2.06,5C297.58,219.88,296.16,221.7,290.61,221.52Z" style="fill:#263238"></path><path d="M292.12,183.56a14.93,14.93,0,0,0-2.41,2.67l-2.41,3.13a1.45,1.45,0,0,0-.4.94c.05.44.49.72.91.88a7.31,7.31,0,0,0,5.72-.33c2.19-1,4-2.86,6.28-3.6,2.63-.85,5.74-.5,8.47-.6,1.74-.06,3.47,0,5.21-.1,8-.46,12,.4,12,.4a29.17,29.17,0,0,1,9.24,6.43s-2-5-5.6-7.63c-2.17-1.56-4.64-3.47-7.47-3.34a5.71,5.71,0,0,1-3.7-1.06,5.77,5.77,0,0,0-3-1.32c-.73,0-1.45.31-2.18.28-1.4-.05-2.53-1.26-3.92-1.42-1.22-.14-2.37.55-3.59.67s-2.73-.48-4.1-.38a7.56,7.56,0,0,0-2.12.56,36.13,36.13,0,0,0-5.34,2.78,12.9,12.9,0,0,0-1.53,1Z" style="fill:#f28f8f"></path><path d="M275.64,216.79c-1.85-.11-7.35-.81-9,4.06l-2.61-.67A9.69,9.69,0,0,1,275.64,216.79Z" style="fill:#f28f8f"></path></g></g><g id="freepik--arm--inject-18"><path d="M227.26,201c10.33-.08,14.67,9.44,19.81,24.9,5.66,17,18.14,56.79,18.14,56.79l-14.65,18.95s-5.77-3.4-15.22-19.2c-10.75-18-13.24-21.38-19.87-36.16C209.73,233.45,209.08,207,227.26,201Z" style="fill:#ffa8a7"></path><path d="M251.47,239.39c-4.95,11.07-9.21,31.23-8.4,42.28.58,7.88,8.75-7.1,15-21.63Z" style="fill:#f28f8f"></path><path d="M321.53,187l-.16,0-6.48-1.64a3.14,3.14,0,0,1-.9-.33,4.5,4.5,0,0,1-.68-.63c-1.43-1.38-3.32-1.54-5.2-1.54h-4.35s-3.39-1.07-3.84-1.1a12.44,12.44,0,0,0-4.41.46l-3.43.87s-1-.56-1.4-.81c-1.25-.82-1.87-.55-3.3-.21a53.91,53.91,0,0,0-5.39,1.5,41.87,41.87,0,0,0-5.06,1.94c-1.55.73-4.14,5.62-8.9,16a126.67,126.67,0,0,0-6.56,16.33c-1.39,4.4-6.43,21.28-10.67,33.56-6.88,19.9-10.29,30.19-5.51,41.6,3.33,7.93,6.84,12.76,15.2,10.16s16.66-15,18-26.79c1.85-16.3,2.65-34.18,5-51.15.67-4.83,1.41-5.54,3.2-6.74a16.44,16.44,0,0,0,4.92-5.09c1.41-2.06,2.11-4.31,3.21-6.51,1.24-2.46,2.62-4.83,4-7.2a11,11,0,0,1,6-5.47c2.11-1.07,4.07-2.27,6.26-3.17a9,9,0,0,1,1.75-.57,12.12,12.12,0,0,1,2.41,0,18.79,18.79,0,0,0,4.1-.36,4.16,4.16,0,0,0,2.56-1.27,1.19,1.19,0,0,0,0-1.61A1.07,1.07,0,0,0,321.53,187Z" style="fill:#ffa8a7"></path><path d="M292.08,183c-1,.49-2.07.94-3.1,1.4s-2.07.89-3,1.38a56.61,56.61,0,0,1-6.06,3.1,58,58,0,0,1,5.62-3.89,17,17,0,0,1,3.19-1.34A14.34,14.34,0,0,1,292.08,183Z" style="fill:#f28f8f"></path><path d="M287.38,182c-1.89.53-3.76,1.11-5.59,1.81-.93.33-1.84.66-2.74,1-.45.19-.9.38-1.34.59l-.65.32a2.71,2.71,0,0,0-.49.38,25.29,25.29,0,0,0-3.05,4.88c-.89,1.73-1.74,3.5-2.57,5.27-1.7,3.53-3.33,7.1-5,10.66s-3.16,7.17-4.51,10.86c.5-1.9,1.08-3.78,1.72-5.64s1.38-3.69,2.13-5.51c1.51-3.63,3.15-7.2,4.79-10.77.86-1.77,1.73-3.53,2.66-5.27.48-.87,1-1.73,1.47-2.58a12.32,12.32,0,0,1,1.84-2.41,3.27,3.27,0,0,1,.69-.49l.68-.3,1.38-.54c.93-.34,1.87-.64,2.81-.92A47.46,47.46,0,0,1,287.38,182Z" style="fill:#f28f8f"></path><path d="M294.78,191c1.42-1,2.82-2,4.3-3a17.6,17.6,0,0,1,2.34-1.28,15.68,15.68,0,0,1,2.53-.85,39.32,39.32,0,0,1,5.17-1,12.4,12.4,0,0,1,5.25.29,17.74,17.74,0,0,0-5.14.43c-1.69.34-3.37.74-5.05,1.18a18.27,18.27,0,0,0-4.73,1.86C297.93,189.43,296.38,190.26,294.78,191Z" style="fill:#f28f8f"></path><path d="M303.76,182.79a38.11,38.11,0,0,0-4,1.32,41.22,41.22,0,0,0-3.88,1.53c-1.19.69-2.4,1.48-3.61,2.22s-2.45,1.46-3.72,2.14q1.64-1.4,3.34-2.69a42.78,42.78,0,0,1,3.54-2.46,12.66,12.66,0,0,1,2-.87c.68-.24,1.37-.44,2.07-.63A14.32,14.32,0,0,1,303.76,182.79Z" style="fill:#f28f8f"></path><path d="M279.72,263.77c1.11-12.68,2-25.88,3.77-38.58.67-4.83,1.41-5.54,3.2-6.74a16.44,16.44,0,0,0,4.92-5.09,32.91,32.91,0,0,0,2.66-5.35c-1.73,3.35-3.86,6.37-7.61,8-3.53,1.56-7.37-.23-6.81,2.4s2,3.74,1.06,15.64C280.26,242.36,279.72,263.72,279.72,263.77Z" style="fill:#f28f8f"></path><path d="M295.18,206.17l0-.08v0A.47.47,0,0,0,295.18,206.17Z" style="fill:#f28f8f"></path></g></g></g><g id="freepik--Armchair--inject-18"><path d="M210,410.34V333.58c0-5.07-3.59-11.3-8-13.84L127.89,277a5.27,5.27,0,0,1,0-9.12l1.81-1-6.28-33.44c-.67-5-4.82-11.22-9.21-13.76l-6.51-3.75c-4.39-2.54-8-.46-8,4.61v29.25l.13,97.16c0,5.08,3.6,11.31,8,13.84L202,415C206.36,417.5,210,415.42,210,410.34Z" style="fill:#263238"></path><path d="M232.43,320.59v76.77a4.52,4.52,0,0,1,0,.52c-.22,4.95-3.67,10.8-7.89,13.29l-.08,0L218,415a4,4,0,0,1-.61.32,2.6,2.6,0,0,1-.34.16s-.07,0-.09,0c-.22.09-.44.18-.64.24a18.62,18.62,0,0,1-11.76.33,10.33,10.33,0,0,1-1.38-.52c3.84,1.59,6.81-.57,6.82-5.16V333.59c0-5.08-3.59-11.32-8-13.84l-14.5-8.38L127.88,277a5.26,5.26,0,0,1,0-9.11l6.62-3.82c4.39-2.53,11.58-2.53,16,0L210,298.39l14.49,8.36C228.85,309.3,232.43,315.52,232.43,320.59Z" style="fill:#455a64"></path><path d="M210,333.59v76.77c0,4.59-3,6.75-6.82,5.16a10.33,10.33,0,0,0,1.38.52,18.62,18.62,0,0,0,11.76-.33c.2-.06.42-.15.64-.24,0,0,.06,0,.09,0a2.6,2.6,0,0,0,.34-.16A4,4,0,0,0,218,415l6.49-3.75.08,0c4.22-2.49,7.67-8.34,7.89-13.29a4.52,4.52,0,0,0,0-.52V320.59a16.31,16.31,0,0,0-2.34-7.86l-22.48,13A16.35,16.35,0,0,1,210,333.59Z" style="fill:#37474f"></path></g></g></g><g id="freepik--Drinks--inject-18"><g id="freepik--beer-bottle--inject-18"><path d="M189.83,431.69V394.31c0-3-2.77-7-3.74-8.77-1.3-2.36-1.28-5.64-1.58-9.65-.44-5.78-2.32-7.71-2.65-11.89a1.73,1.73,0,0,0,.45-1.52c-.18-1-1.07-1.32-1.07-1.55,0,0-1-1.13-3.57-1.13s-3.57,1.13-3.57,1.13c0,.23-.9.6-1.07,1.56a1.75,1.75,0,0,0,0,.32,1.85,1.85,0,0,0,.49,1.19c-.33,4.18-2.21,6.11-2.65,11.89-.3,4-.27,7.29-1.58,9.65-1,1.76-3.74,5.79-3.74,8.77V431.7h0c0,1.8,1.19,3.59,3.56,5,4.75,2.75,12.45,2.75,17.2,0C188.65,435.29,189.83,433.49,189.83,431.69Z" style="fill:#455a64"></path><path d="M180.6,363.28a2,2,0,0,0,1.21-1.69v0c-.28-.3-.57-.48-.57-.61s-1-1.13-3.57-1.13-3.57,1.13-3.57,1.13-.29.31-.57.62v0a2,2,0,0,0,1.21,1.69A6.44,6.44,0,0,0,180.6,363.28Z" style="fill:#263238"></path><path d="M182.07,365.69c-.09-.58-.16-1.15-.2-1.69a3.49,3.49,0,0,1-.89.72,7.35,7.35,0,0,1-6.62,0,3.43,3.43,0,0,1-.88-.72c0,.54-.12,1.11-.21,1.68l.07.11a3,3,0,0,0,1,.89,7.29,7.29,0,0,0,6.62,0A3.12,3.12,0,0,0,182.07,365.69Z" style="fill:#263238"></path><path d="M181.81,360.92a5.42,5.42,0,0,0-.61-3.14l0-.06-.12-.15a2.56,2.56,0,0,0-.29-.27s0,0,0,0h0a2.68,2.68,0,0,0-.37-.26,6,6,0,0,0-5.36,0,2.68,2.68,0,0,0-.37.26h0s0,0,0,0a3.84,3.84,0,0,0-.29.27l-.12.16,0,0a5.4,5.4,0,0,0-.62,3.16,2.06,2.06,0,0,0,1.21,1.69,6.5,6.5,0,0,0,5.86,0A2.07,2.07,0,0,0,181.81,360.92Z" style="fill:#37474f"></path><path d="M175,360.12c-1.48-.86-1.48-2.24,0-3.1a6,6,0,0,1,5.36,0c1.48.86,1.48,2.24,0,3.1A6,6,0,0,1,175,360.12Z" style="fill:#455a64"></path><path d="M175.76,359.67a1.16,1.16,0,0,1,0-2.2,4.22,4.22,0,0,1,3.82,0,1.16,1.16,0,0,1,0,2.2A4.22,4.22,0,0,1,175.76,359.67Z" style="fill:#263238"></path><path d="M188.45,396.91v34.32c0,1.37-1,2.7-2.87,3.78a17.66,17.66,0,0,1-15.82,0c-1.85-1.08-2.87-2.41-2.87-3.77V396.68A3.83,3.83,0,0,1,167,396a5.92,5.92,0,0,1,3.08-3.58,16.86,16.86,0,0,1,15.25,0,5.89,5.89,0,0,1,3.07,3.65A4,4,0,0,1,188.45,396.91Z" style="fill:#F38181"></path><path d="M188.45,396.91v34.32c0,1.37-1,2.7-2.87,3.78a17.66,17.66,0,0,1-15.82,0c-1.85-1.08-2.87-2.41-2.87-3.77V396.68A3.83,3.83,0,0,1,167,396a5.92,5.92,0,0,1,3.08-3.58,16.86,16.86,0,0,1,15.25,0,5.89,5.89,0,0,1,3.07,3.65A4,4,0,0,1,188.45,396.91Z" style="opacity:0.5"></path><path d="M170.23,434.86c-4.11-2.37-4.11-6.22,0-8.59a16.46,16.46,0,0,1,14.88,0c4.11,2.37,4.11,6.22,0,8.59A16.46,16.46,0,0,1,170.23,434.86Z" style="opacity:0.1"></path><path d="M188.45,396.91c0,1.57-1.09,3.12-3.15,4.32a16.86,16.86,0,0,1-15.25,0c-2.05-1.18-3.1-2.71-3.16-4.25v-.3A3.83,3.83,0,0,1,167,396a5.92,5.92,0,0,1,3.08-3.58,16.86,16.86,0,0,1,15.25,0,5.89,5.89,0,0,1,3.07,3.65A4,4,0,0,1,188.45,396.91Z" style="fill:#F38181"></path><path d="M188.45,396.91c0,1.57-1.09,3.12-3.15,4.32a16.86,16.86,0,0,1-15.25,0c-2.05-1.18-3.1-2.71-3.16-4.25v-.3A3.83,3.83,0,0,1,167,396a5.92,5.92,0,0,1,3.08-3.58,16.86,16.86,0,0,1,15.25,0,5.89,5.89,0,0,1,3.07,3.65A4,4,0,0,1,188.45,396.91Z" style="opacity:0.4"></path><path d="M165.51,413.54c0,1.79,1.19,3.59,3.56,5,4.75,2.74,12.45,2.74,17.2,0,2.38-1.37,3.56-3.17,3.56-5v-12.8c0,1.8-1.18,3.6-3.56,5-4.75,2.74-12.45,2.74-17.2,0-2.37-1.37-3.56-3.16-3.56-5Z" style="opacity:0.1"></path><path d="M165.51,411.8c0,1.8,1.19,3.6,3.56,5,4.75,2.74,12.45,2.74,17.2,0,2.38-1.38,3.56-3.18,3.56-5V399c0,1.8-1.18,3.6-3.56,5-4.75,2.74-12.45,2.74-17.2,0-2.37-1.37-3.56-3.17-3.56-5Z" style="fill:#263238"></path><path d="M179.26,438.61a17.65,17.65,0,0,1-3.17-.77,11.13,11.13,0,0,1-4.49-2.71,5,5,0,0,1-1.5-3.43V394.31c0-3,1.87-6.92,2.64-8.77,1.29-3.11.57-6.42.86-10.42.37-5.1,1.11-6.14,1.5-9.95a1.07,1.07,0,0,1,.13-1.52,1.77,1.77,0,0,0,.83-3c-2.75-1.12-2.66-3.61.63-4.23a4.88,4.88,0,0,0-2,.61,3.32,3.32,0,0,0-.36.26h0l0,0a2.29,2.29,0,0,0-.27.27,1,1,0,0,0-.13.16l0,0a5.55,5.55,0,0,0-.59,3.16,1.52,1.52,0,0,0,.09.51,2,2,0,0,0-.57,1.05,1.17,1.17,0,0,0,0,.32,1.87,1.87,0,0,0,.47,1.19c-.32,4.18-2.14,6.11-2.56,11.89-.29,4-.27,7.29-1.53,9.65-.94,1.76-3.61,5.79-3.61,8.77V431.7h0c0,1.8,1.15,3.59,3.44,5A17.26,17.26,0,0,0,179.26,438.61Z" style="opacity:0.4"></path><path d="M182.1,362.29c-.11-.24-.4,1-1.52,1.69a8.47,8.47,0,0,1-4.86,1,8.62,8.62,0,0,0,4.65-.4C182.24,363.68,182.29,362.75,182.1,362.29Z" style="fill:#fafafa;opacity:0.1"></path><path d="M180.75,357.45a3,3,0,0,1,.78,2,4.28,4.28,0,0,1-.07,2c-.19.44-1.46,1.57-4.05,1.63,1.84-.69,3.14-1.24,3.54-2.19A4.06,4.06,0,0,0,180.75,357.45Z" style="fill:#fafafa;opacity:0.1"></path><path d="M187.53,394.31v37.38c0,1-.88,2.09-2.41,3a15.42,15.42,0,0,1-7.45,1.75c7.67-.95,7.32-4.92,7.32-9.08V399.27c0-8.6-2.64-9.28-4-12.8s-.2-8.75-.94-14.07a22.84,22.84,0,0,0-1.21-5,7,7,0,0,0,1.16-.27,29,29,0,0,0,1.14,3.35,21.36,21.36,0,0,1,1.1,5.6c0,.66.09,1.3.13,1.92.21,3.35.4,6.25,1.73,8.67l.68,1.15C185.72,389.44,187.53,392.47,187.53,394.31Z" style="fill:#fafafa;opacity:0.2"></path></g><g id="freepik--beer-bottle--inject-18"><path d="M100.14,367.94l32.38,18.69c2.58,1.49,4.68,5.9,5.72,7.63,1.39,2.3,4.25,3.93,7.56,6.19,4.8,3.27,5.52,5.86,9,8.24a1.75,1.75,0,0,1,1.53.37c.74.63.61,1.59.81,1.71,0,0,.48,1.42-.81,3.65s-2.76,2.53-2.76,2.53c-.2-.12-1,.47-1.89.14a1.08,1.08,0,0,1-.29-.13,1.83,1.83,0,0,1-.79-1c-3.79-1.81-6.4-1.14-11.62-3.66-3.62-1.74-6.45-3.4-9.15-3.45-2,0-6.88.34-9.47-1.15L88,389h0c-1.56-.9-2.52-2.82-2.52-5.57,0-5.48,3.85-12.15,8.6-14.89C96.43,367.17,98.59,367,100.14,367.94Z" style="fill:#455a64"></path><path d="M154.77,410.14a2.06,2.06,0,0,1,2.08-.2l0,0c.12.4.13.74.25.81s.48,1.42-.81,3.65-2.76,2.53-2.76,2.53-.41.09-.82.18l0,0a2.06,2.06,0,0,1-.86-1.9A6.45,6.45,0,0,1,154.77,410.14Z" style="fill:#263238"></path><path d="M153.42,407.67c.46.36.91.71,1.36,1a3.29,3.29,0,0,0-1.06.41,7.3,7.3,0,0,0-3.31,5.72,3.48,3.48,0,0,0,.18,1.13c-.49-.23-1-.45-1.56-.67l-.06-.1a3.14,3.14,0,0,1-.26-1.34,7.31,7.31,0,0,1,3.31-5.73A3,3,0,0,1,153.42,407.67Z" style="fill:#263238"></path><path d="M157.43,410.27a5.42,5.42,0,0,1,2.41,2.1l0,.07a1.71,1.71,0,0,1,.07.18,1.93,1.93,0,0,1,.09.38,0,0,0,0,0,0,0h0a3.14,3.14,0,0,1,0,.45,5.93,5.93,0,0,1-2.68,4.64,2.5,2.5,0,0,1-.41.19h0a2,2,0,0,1-.38.11,1.2,1.2,0,0,1-.2,0h-.05a5.47,5.47,0,0,1-3-1.05,2,2,0,0,1-.86-1.89,6.49,6.49,0,0,1,2.93-5.08A2.08,2.08,0,0,1,157.43,410.27Z" style="fill:#37474f"></path><path d="M154.71,416.58c0,1.71,1.2,2.4,2.68,1.55a5.93,5.93,0,0,0,2.68-4.64c0-1.71-1.2-2.4-2.68-1.55A5.91,5.91,0,0,0,154.71,416.58Z" style="fill:#455a64"></path><path d="M155.48,416.14c0,1.21.86,1.71,1.91,1.1a4.24,4.24,0,0,0,1.91-3.31c0-1.22-.86-1.71-1.91-1.1A4.24,4.24,0,0,0,155.48,416.14Z" style="fill:#263238"></path><path d="M87.6,383.33c0,4.74,3.33,6.67,7.44,4.3a16.47,16.47,0,0,0,7.44-12.89c0-4.74-3.33-6.67-7.44-4.29A16.43,16.43,0,0,0,87.6,383.33Z" style="opacity:0.1"></path><path d="M103.71,398.08c-1.56-.9-2.52-2.82-2.52-5.57,0-5.48,3.85-12.15,8.6-14.89,2.37-1.37,4.53-1.5,6.08-.6l11.09,6.4c-1.56-.9-3.71-.77-6.09.6-4.75,2.74-8.6,9.41-8.6,14.89,0,2.74,1,4.67,2.52,5.57Z" style="opacity:0.1"></path><path d="M105.21,399c-1.56-.9-2.52-2.83-2.52-5.57,0-5.48,3.85-12.15,8.6-14.89,2.38-1.37,4.53-1.5,6.08-.6l11.09,6.4c-1.56-.9-3.71-.78-6.09.6-4.75,2.74-8.6,9.41-8.6,14.89,0,2.74,1,4.67,2.52,5.57Z" style="fill:#263238"></path><path d="M88.86,373.64a17.33,17.33,0,0,0-.91,3.13,11.06,11.06,0,0,0,.1,5.24,5,5,0,0,0,2.22,3l32.38,18.69c2.58,1.49,6.93,1.84,8.92,2.1,3.33.44,5.84,2.72,9.45,4.47,4.61,2.23,5.87,2.1,9.37,3.67a1.05,1.05,0,0,0,1.38.64,1.9,1.9,0,0,0,.8-.49,1.86,1.86,0,0,0,2.22,1.28c-.41,2.94,1.79,4.11,4,1.57a4.89,4.89,0,0,1-1.53,1.45l-.4.18h0a1.84,1.84,0,0,1-.36.11l-.2,0h-.06a5.59,5.59,0,0,1-3-1.06,1.41,1.41,0,0,1-.39-.34,2,2,0,0,1-1.2,0,1.14,1.14,0,0,1-.3-.13,1.85,1.85,0,0,1-.79-1c-3.79-1.82-6.36-1.21-11.58-3.74-3.62-1.75-6.45-3.41-9.12-3.5-2-.07-6.82.23-9.41-1.26L88,389h0c-1.56-.9-2.54-2.79-2.58-5.46A17.29,17.29,0,0,1,88.86,373.64Z" style="opacity:0.4"></path><path d="M156.38,409.34c.16.21-1.08-.17-2.23.47a8.6,8.6,0,0,0-3.33,3.69,8.61,8.61,0,0,1,2.68-3.83C155.24,408.52,156.08,408.94,156.38,409.34Z" style="fill:#fafafa;opacity:0.1"></path><path d="M159.9,412.92a3,3,0,0,0-1.37-1.68,4.27,4.27,0,0,0-1.77-.94c-.47-.06-2.09.47-3.43,2.69,1.52-1.25,2.65-2.1,3.66-2A4,4,0,0,1,159.9,412.92Z" style="fill:#fafafa;opacity:0.1"></path><path d="M131.37,388.63,99,369.94c-.87-.51-2.25-.29-3.78.59A15.42,15.42,0,0,0,90,376.11c4.65-6.17,7.92-3.89,11.53-1.8l24.31,14c7.44,4.3,6.71,6.93,9.06,9.89s7.48,4.55,11.71,7.86a23.35,23.35,0,0,1,3.74,3.54,6.75,6.75,0,0,1,.82-.87,27.07,27.07,0,0,1-2.34-2.66,21.51,21.51,0,0,0-4.29-3.75l-1.6-1.07c-2.8-1.86-5.22-3.47-6.64-5.83-.19-.32-.41-.71-.66-1.16C134.68,392.63,133,389.55,131.37,388.63Z" style="fill:#fafafa;opacity:0.2"></path></g></g><g id="freepik--speech-bubble--inject-18"><g id="freepik--thoughts-bubble--inject-18"><g id="freepik--thoughts-bubble--inject-18"><path d="M71,156.8c-14.34,6.87-32.15-7-24.11-23.19C32,130.05,22.8,119.07,23.89,103A30.13,30.13,0,0,1,49.55,74.89C43.26,58.6,51.91,39.67,72.64,29.21s45.1-7.14,57.05,3.24c9.84-8.19,35.43-10.26,45.28,12.11,23.15-3.83,39.26,11.64,43.27,25.1s1.12,29.08-11.86,38.59c7.32,16.69-9.57,41.46-37.46,35.73.89,17.82-23.26,26.73-39.57,19.18C120.31,185.34,67,180,71,156.8Z" style="fill:#F38181"></path><path d="M246.21,100.38c-6.24-5.39-20.66,3.81-14.74,15.28-4.42,3.68.32,11.58,5.56,10.47.79,8.45,15.5,10.08,20.68,2.27,4.57,2.49,10.4-1.77,7.81-7.63,6.76-4.36,4-18.21-5.24-17.88C260.87,96.86,248.83,93.21,246.21,100.38Z" style="fill:#F38181"></path><path d="M290.32,143.26c4.52,1.08,9.34-7.27,3.41-11.47,1.25-3-3.17-5.71-5.5-3.8-2.59-4-10.38-1-10.94,4.24a3.19,3.19,0,0,0-1.92,5.84c-2.25,3.93,2.73,10.14,7.26,7.59C283.9,148.82,290.87,147.53,290.32,143.26Z" style="fill:#F38181"></path><path d="M300.89,164.92c1.95.46,4-3.13,1.47-4.94.54-1.29-1.36-2.46-2.37-1.63-1.11-1.74-4.46-.44-4.7,1.82a1.37,1.37,0,0,0-.83,2.51c-1,1.7,1.18,4.37,3.12,3.27C298.13,167.31,301.13,166.76,300.89,164.92Z" style="fill:#F38181"></path></g><g id="freepik--thoughts-bubble--inject-18" style="opacity:0.5"><path d="M71,156.8c-14.34,6.87-32.15-7-24.11-23.19C32,130.05,22.8,119.07,23.89,103A30.13,30.13,0,0,1,49.55,74.89C43.26,58.6,51.91,39.67,72.64,29.21s45.1-7.14,57.05,3.24c9.84-8.19,35.43-10.26,45.28,12.11,23.15-3.83,39.26,11.64,43.27,25.1s1.12,29.08-11.86,38.59c7.32,16.69-9.57,41.46-37.46,35.73.89,17.82-23.26,26.73-39.57,19.18C120.31,185.34,67,180,71,156.8Z" style="fill:#fff"></path><path d="M246.21,100.38c-6.24-5.39-20.66,3.81-14.74,15.28-4.42,3.68.32,11.58,5.56,10.47.79,8.45,15.5,10.08,20.68,2.27,4.57,2.49,10.4-1.77,7.81-7.63,6.76-4.36,4-18.21-5.24-17.88C260.87,96.86,248.83,93.21,246.21,100.38Z" style="fill:#fff"></path><path d="M290.32,143.26c4.52,1.08,9.34-7.27,3.41-11.47,1.25-3-3.17-5.71-5.5-3.8-2.59-4-10.38-1-10.94,4.24a3.19,3.19,0,0,0-1.92,5.84c-2.25,3.93,2.73,10.14,7.26,7.59C283.9,148.82,290.87,147.53,290.32,143.26Z" style="fill:#fff"></path><path d="M300.89,164.92c1.95.46,4-3.13,1.47-4.94.54-1.29-1.36-2.46-2.37-1.63-1.11-1.74-4.46-.44-4.7,1.82a1.37,1.37,0,0,0-.83,2.51c-1,1.7,1.18,4.37,3.12,3.27C298.13,167.31,301.13,166.76,300.89,164.92Z" style="fill:#fff"></path></g></g><g id="freepik--Thoughts--inject-18"><path d="M130.62,112.05A16.08,16.08,0,1,1,146.69,96,16.09,16.09,0,0,1,130.62,112.05Zm0-31.23A15.16,15.16,0,1,0,145.78,96,15.18,15.18,0,0,0,130.62,80.82Z" style="fill:#37474f"></path><path d="M124.5,113.07a16.16,16.16,0,1,1,16.15-16.16A16.17,16.17,0,0,1,124.5,113.07Zm0-31.39a15.24,15.24,0,1,0,15.23,15.23A15.24,15.24,0,0,0,124.5,81.68Z" style="fill:#37474f"></path><path d="M117.59,113.47a16.16,16.16,0,1,1,16.15-16.16A16.18,16.18,0,0,1,117.59,113.47Zm0-31.39a15.24,15.24,0,1,0,15.24,15.23A15.24,15.24,0,0,0,117.59,82.08Z" style="fill:#37474f"></path><path d="M129.24,107A16.15,16.15,0,1,1,145.4,90.81,16.17,16.17,0,0,1,129.24,107Zm0-31.39a15.24,15.24,0,1,0,15.24,15.24A15.25,15.25,0,0,0,129.24,75.57Z" style="fill:#37474f"></path><path d="M126.65,108A16.16,16.16,0,1,1,142.8,91.85,16.18,16.18,0,0,1,126.65,108Zm0-31.39a15.24,15.24,0,1,0,15.23,15.23A15.25,15.25,0,0,0,126.65,76.62Z" style="fill:#37474f"></path><path d="M126.65,106.76a9.45,9.45,0,1,1,9.44-9.45A9.46,9.46,0,0,1,126.65,106.76Zm0-18a8.53,8.53,0,1,0,8.52,8.52A8.53,8.53,0,0,0,126.65,88.79Z" style="fill:#37474f"></path><path d="M121.15,100.75a9.44,9.44,0,1,1,9.44-9.44A9.44,9.44,0,0,1,121.15,100.75Zm0-18a8.53,8.53,0,1,0,8.53,8.53A8.54,8.54,0,0,0,121.15,82.78Z" style="fill:#37474f"></path><path d="M123.45,102a9.45,9.45,0,1,1,9.44-9.44A9.45,9.45,0,0,1,123.45,102Zm0-18A8.53,8.53,0,1,0,132,92.54,8.54,8.54,0,0,0,123.45,84Z" style="fill:#37474f"></path><path d="M118.19,97.37a9.45,9.45,0,1,1,9.44-9.44A9.44,9.44,0,0,1,118.19,97.37Zm0-18a8.53,8.53,0,1,0,8.53,8.53A8.54,8.54,0,0,0,118.19,79.4Z" style="fill:#37474f"></path><path d="M121.63,97.48a8.94,8.94,0,1,1,8.94-8.94A8.95,8.95,0,0,1,121.63,97.48Zm0-17a8.07,8.07,0,1,0,8.07,8.07A8.08,8.08,0,0,0,121.63,80.47Z" style="fill:#37474f"></path><path d="M130.14,97.77a9.44,9.44,0,1,1,9.44-9.44A9.45,9.45,0,0,1,130.14,97.77Zm0-18a8.53,8.53,0,1,0,8.52,8.53A8.54,8.54,0,0,0,130.14,79.8Z" style="fill:#37474f"></path><path d="M123.45,104.69A16.15,16.15,0,1,1,139.6,88.54,16.17,16.17,0,0,1,123.45,104.69Zm0-31.39a15.24,15.24,0,1,0,15.23,15.24A15.26,15.26,0,0,0,123.45,73.3Z" style="fill:#37474f"></path><path d="M117.59,107a16.15,16.15,0,1,1,16.15-16.15A16.17,16.17,0,0,1,117.59,107Zm0-31.39a15.24,15.24,0,1,0,15.24,15.24A15.25,15.25,0,0,0,117.59,75.57Z" style="fill:#37474f"></path></g><g id="freepik--Gun--inject-18"><rect x="130.93" y="48.87" width="24.95" height="3.01" transform="translate(5.39 -13.29) rotate(5.41)" style="fill:#37474f"></rect><rect x="129.41" y="45.1" width="15.93" height="2.13" transform="matrix(1, 0.09, -0.09, 1, 4.96, -12.74)" style="fill:#37474f"></rect><rect x="135.44" y="47.26" width="4.47" height="1.06" transform="translate(5.12 -12.77) rotate(5.41)" style="fill:#37474f"></rect><path d="M166.18,54.05,129,50.52l-24.89-3.34a1.21,1.21,0,0,0-1.36,1.08L102,56.17a1.2,1.2,0,0,0,1.19,1.31l22.31.14-2.41,3.92a1.49,1.49,0,0,0,.49,2.05l3.12,1.9a1.48,1.48,0,0,0,2-.45l6-8.91,6.7.55a47.14,47.14,0,0,0,4.28,15.8,2.07,2.07,0,0,0,2.47,1.08l4.52-1.42a34.44,34.44,0,0,1-3.68-13.26L190.3,62.8l.52-5.45-.78-.07-.15,1.56-1.9-.18-.17,1.81-22-2.09Z" style="fill:#37474f"></path><path d="M138.41,61.21l-7.59-.72a.47.47,0,1,1,.09-.94l7.59.71a1.48,1.48,0,0,0,1.62-1.33l.22-2.34a.48.48,0,0,1,.52-.43.49.49,0,0,1,.43.52L141.07,59A2.44,2.44,0,0,1,138.41,61.21Z" style="fill:#37474f"></path><path d="M136.26,59.71a.7.7,0,0,1-.19-.06,4.14,4.14,0,0,1-1.91-3.51.48.48,0,0,1,.47-.48.47.47,0,0,1,.48.47,3.22,3.22,0,0,0,1.43,2.69.48.48,0,0,1,.18.65A.47.47,0,0,1,136.26,59.71Z" style="fill:#37474f"></path><rect x="128.99" y="44.1" width="0.91" height="2.62" transform="translate(4.86 -12) rotate(5.41)" style="fill:#37474f"></rect><rect x="144.85" y="45.6" width="0.91" height="2.62" transform="translate(5.07 -13.49) rotate(5.41)" style="fill:#37474f"></rect></g><g id="freepik--Grenade--inject-18"><rect x="74.99" y="49.95" width="5.38" height="6.06" transform="translate(-4.41 7.13) rotate(-5.11)" style="fill:#37474f"></rect><path d="M84,57,72.21,58A8,8,0,0,1,84,57Z" style="fill:#37474f"></path><path d="M72.88,56.38a3.27,3.27,0,1,1,3-3.55A3.27,3.27,0,0,1,72.88,56.38Zm-.51-5.72a2.47,2.47,0,1,0,2.68,2.24A2.47,2.47,0,0,0,72.37,50.66Z" style="fill:#37474f"></path><path d="M74.5,81.12S69,72.52,69.07,66.77c.09-5.51,3.05-7.54,3.05-7.54l12.15-1.09S87.54,59.61,88.6,65c1.11,5.65-2.8,15.09-2.8,15.09C83.56,82.25,76.77,82.68,74.5,81.12Z" style="fill:#37474f"></path><path d="M67.1,67.39a.08.08,0,0,1-.07,0,.41.41,0,0,1-.36-.43c.45-5.12,3.35-10.07,6.75-11.51a.4.4,0,0,1,.52.21.39.39,0,0,1-.21.52c-3.1,1.31-5.85,6.08-6.27,10.85A.38.38,0,0,1,67.1,67.39Z" style="fill:#37474f"></path><rect x="75.55" y="45.91" width="3.48" height="5.35" transform="translate(-4.02 7.07) rotate(-5.11)" style="fill:#37474f"></rect></g><g id="freepik--Bomb--inject-18"><path d="M73.22,110.12l3.84-.32-.28-3.38,1.68-.14.51,6,8.36-.7-1.44-17.1-8.36.7.51,6-1.68.14L76.08,98l-3.85.32-5.54-2.63L50.34,97.06a14,14,0,0,0-9.66,5q-4.32,5.26.81,9.72A14,14,0,0,0,51.84,115l16.36-1.37Zm12.17-1.51.13,1.57-5,.42L80.38,109ZM79.47,98.2l-.13-1.56,5-.42.13,1.56Z" style="fill:#37474f"></path></g><g id="freepik--Skull--inject-18"><path d="M156.52,115.44a1.68,1.68,0,0,1,1.22.25,4.56,4.56,0,0,0,3.52.59l24.07-6.06a2.62,2.62,0,0,0,1.79-1.93h0a2,2,0,0,1,2.6-1.5,2,2,0,0,1,1.08,1.76,1.52,1.52,0,0,0,.87,1.38,1.8,1.8,0,0,1,1.08,1.44,2.37,2.37,0,0,1-1.71,2.7,1.69,1.69,0,0,1-1.11-.16,6.43,6.43,0,0,0-4.5-.62l-23,5.78a3.08,3.08,0,0,0-2.08,2.21v0a2,2,0,0,1-2.61,1.46,2,2,0,0,1-1.06-1.78,1.57,1.57,0,0,0-.85-1.4,1.81,1.81,0,0,1-1.06-1.46A2.35,2.35,0,0,1,156.52,115.44Z" style="fill:#37474f"></path><path d="M186.84,97c.15-1.69,1.54-2.25,2-7.2s-3.21-10.5-11.64-11.3-13.09,4-13.56,8.91.78,5.77.62,7.45-2.65,2.44-1.79,4.91,3,1.54,4.05,2.44,1.31,2,1.1,4.14c0,0,1.64,2.45,6.66,2.92s7.1-1.62,7.1-1.62c.21-2.18.62-3.18,1.86-3.85s3.13.63,4.43-1.64S186.68,98.7,186.84,97Zm-19.11,1.38a3.75,3.75,0,0,1-1.13-4.77c.64-1.1,2.22-1.53,3.87-1.16,2.56.57,3.72,3,2.63,4.75S169,99.2,167.73,98.41Zm9.08,6c-.58.29-1.63-.2-1.91-1.54-.53,1.26-1.65,1.55-2.18,1.16s-.33-1.06.27-2.08a21,21,0,0,1,2.26-2.78,21.88,21.88,0,0,1,1.7,3.15C177.34,103.39,177.4,104.07,176.81,104.36Zm6-4.52c-1.41.53-4.3-.29-5.05-2.17s.85-4.09,3.48-4.18c1.68,0,3.15.67,3.57,1.87A3.75,3.75,0,0,1,182.77,99.84Z" style="fill:#37474f"></path><path d="M190.58,118.66a1.74,1.74,0,0,0-1.25,0,4.54,4.54,0,0,1-3.56-.08l-22.51-10.47a2.66,2.66,0,0,1-1.4-2.23h0a2,2,0,0,0-2.27-2,2,2,0,0,0-1.39,1.52,1.55,1.55,0,0,1-1.12,1.2,1.8,1.8,0,0,0-1.32,1.2,2.35,2.35,0,0,0,1.17,3,1.66,1.66,0,0,0,1.12,0,6.37,6.37,0,0,1,4.53.24l21.5,10a3.1,3.1,0,0,1,1.63,2.56v0a2,2,0,0,0,2.3,1.92,2,2,0,0,0,1.37-1.55,1.56,1.56,0,0,1,1.1-1.21,1.79,1.79,0,0,0,1.31-1.23A2.35,2.35,0,0,0,190.58,118.66Z" style="fill:#37474f"></path></g><g id="freepik--Tank--inject-18"><rect x="75.66" y="129.49" width="27.16" height="1.14" transform="translate(-4.95 3.54) rotate(-2.21)" style="fill:#37474f"></rect><rect x="102.8" y="124.76" width="30.11" height="8.39" transform="translate(-4.89 4.64) rotate(-2.21)" style="fill:#37474f"></rect><rect x="101.11" y="126.42" width="1.94" height="6.29" transform="translate(-4.93 4.04) rotate(-2.21)" style="fill:#37474f"></rect><rect x="132.45" y="125.18" width="3.65" height="6.29" transform="translate(-4.85 5.28) rotate(-2.21)" style="fill:#37474f"></rect><rect x="110.52" y="123.85" width="7.43" height="1.52" transform="translate(-4.73 4.5) rotate(-2.21)" style="fill:#37474f"></rect><rect x="68.74" y="129.6" width="7.37" height="2.22" transform="translate(-4.99 2.89) rotate(-2.21)" style="fill:#37474f"></rect><rect x="97.65" y="122.51" width="12.19" height="0.43" transform="translate(-4.66 4.09) rotate(-2.21)" style="fill:#37474f"></rect><rect x="101.56" y="121.97" width="8.27" height="0.68" transform="translate(-4.64 4.17) rotate(-2.21)" style="fill:#37474f"></rect><rect x="104.24" y="121.17" width="5.56" height="0.92" transform="translate(-4.61 4.22) rotate(-2.21)" style="fill:#37474f"></rect><rect x="105.47" y="119.8" width="0.81" height="1.73" transform="translate(-4.57 4.17) rotate(-2.21)" style="fill:#37474f"></rect><rect x="106.96" y="122.59" width="0.46" height="3.24" transform="translate(-4.71 4.23) rotate(-2.21)" style="fill:#37474f"></rect><polygon points="152.47 138.48 77.61 141.37 82.09 134.53 150.16 131.91 152.47 138.48" style="fill:#37474f"></polygon><circle cx="148.4" cy="130.05" r="2.67" style="fill:#37474f"></circle><rect x="84.89" y="137.36" width="65.15" height="6.73" transform="translate(-5.34 4.64) rotate(-2.21)" style="fill:#37474f"></rect><path d="M139.82,151l-49.4,1.91a6.4,6.4,0,0,1-4.61-1.71L80.14,146a.64.64,0,0,1-.2-.43l-.19-4.94a.62.62,0,0,1,.6-.65.63.63,0,0,1,.65.6l.18,4.68,5.48,5.07a5.15,5.15,0,0,0,3.72,1.38l49.39-1.91a5.1,5.1,0,0,0,3.6-1.66l5-5.38-.16-4.16a.61.61,0,0,1,.6-.65.63.63,0,0,1,.65.6l.17,4.42a.66.66,0,0,1-.17.45L144.29,149A6.39,6.39,0,0,1,139.82,151Z" style="fill:#37474f"></path><path d="M89.87,151.07a4,4,0,1,1,3.85-4.16A4,4,0,0,1,89.87,151.07Zm-.27-6.94A2.94,2.94,0,1,0,92.65,147,2.94,2.94,0,0,0,89.6,144.13Z" style="fill:#37474f"></path><path d="M83.45,145.21a2,2,0,1,1,1.94-2.1A2,2,0,0,1,83.45,145.21Zm-.14-3.49a1.48,1.48,0,1,0,1.54,1.42A1.48,1.48,0,0,0,83.31,141.72Z" style="fill:#37474f"></path><path d="M98.27,150.75a4,4,0,1,1,3.85-4.17A4,4,0,0,1,98.27,150.75ZM98,143.81a2.93,2.93,0,1,0,3,2.82A2.94,2.94,0,0,0,98,143.81Z" style="fill:#37474f"></path><path d="M106.66,150.43a4,4,0,1,1,3.86-4.17A4,4,0,0,1,106.66,150.43Zm-.26-7a2.94,2.94,0,1,0,3,2.82A2.94,2.94,0,0,0,106.4,143.48Z" style="fill:#37474f"></path><path d="M115.06,150.1a4,4,0,1,1,3.86-4.16A4,4,0,0,1,115.06,150.1Zm-.26-6.94a2.93,2.93,0,1,0,3,2.82A2.93,2.93,0,0,0,114.8,143.16Z" style="fill:#37474f"></path><path d="M123.46,149.78a4,4,0,1,1,3.86-4.17A4,4,0,0,1,123.46,149.78Zm-.27-6.95a2.94,2.94,0,1,0,3,2.82A3,3,0,0,0,123.19,142.83Z" style="fill:#37474f"></path><path d="M131.86,149.45a4,4,0,1,1,3.86-4.16A4,4,0,0,1,131.86,149.45Zm-.27-6.94a2.93,2.93,0,1,0,3,2.82A2.95,2.95,0,0,0,131.59,142.51Z" style="fill:#37474f"></path><path d="M140.26,149.13a4,4,0,1,1,3.85-4.17A4,4,0,0,1,140.26,149.13Zm-.27-6.95a2.94,2.94,0,1,0,3,2.82A2.94,2.94,0,0,0,140,142.18Z" style="fill:#37474f"></path></g></g></svg>