<svg xmlns="http://www.w3.org/2000/svg" viewBox="0 0 500 500"><g id="freepik--background-complete--inject-7"><rect y="382.4" width="500" height="0.25" style="fill:#ebebeb"></rect><rect x="363" y="398.49" width="86.9" height="0.25" style="fill:#ebebeb"></rect><rect x="357.66" y="389.21" width="8.69" height="0.25" style="fill:#ebebeb"></rect><rect x="280.12" y="397.5" width="19.19" height="0.25" style="fill:#ebebeb"></rect><rect x="52.46" y="390.89" width="21.6" height="0.25" style="fill:#ebebeb"></rect><rect x="82.96" y="390.89" width="27.93" height="0.25" style="fill:#ebebeb"></rect><rect x="207.67" y="394.99" width="46.84" height="0.25" style="fill:#ebebeb"></rect><path d="M237,337.8H43.91a5.71,5.71,0,0,1-5.7-5.71V60.66A5.71,5.71,0,0,1,43.91,55H237a5.71,5.71,0,0,1,5.71,5.71V332.09A5.71,5.71,0,0,1,237,337.8ZM43.91,55.2a5.46,5.46,0,0,0-5.45,5.46V332.09a5.46,5.46,0,0,0,5.45,5.46H237a5.47,5.47,0,0,0,5.46-5.46V60.66A5.47,5.47,0,0,0,237,55.2Z" style="fill:#ebebeb"></path><path d="M453.31,337.8H260.21a5.72,5.72,0,0,1-5.71-5.71V60.66A5.72,5.72,0,0,1,260.21,55h193.1A5.71,5.71,0,0,1,459,60.66V332.09A5.71,5.71,0,0,1,453.31,337.8ZM260.21,55.2a5.47,5.47,0,0,0-5.46,5.46V332.09a5.47,5.47,0,0,0,5.46,5.46h193.1a5.47,5.47,0,0,0,5.46-5.46V60.66a5.47,5.47,0,0,0-5.46-5.46Z" style="fill:#ebebeb"></path><rect x="153.61" y="81.16" width="271.32" height="155.44" transform="translate(578.54 317.77) rotate(180)" style="fill:#e6e6e6"></rect><rect x="149.57" y="81.16" width="273.47" height="155.44" transform="translate(572.62 317.77) rotate(180)" style="fill:#f0f0f0"></rect><rect x="214.93" y="27.8" width="142.75" height="262.17" transform="translate(445.19 -127.42) rotate(90)" style="fill:#fafafa"></rect><polygon points="385.22 230.26 352.06 87.51 308.59 87.51 341.75 230.26 385.22 230.26" style="fill:#fff"></polygon><polygon points="334.72 230.26 301.56 87.51 281.93 87.51 315.09 230.26 334.72 230.26" style="fill:#fff"></polygon><polygon points="256.83 230.26 223.67 87.51 190.15 87.51 223.3 230.26 256.83 230.26" style="fill:#fff"></polygon><rect x="84.21" y="158.52" width="142.75" height="0.72" transform="translate(314.46 3.3) rotate(90)" style="fill:#e6e6e6"></rect><rect x="278.16" y="81.16" width="16.3" height="155.44" transform="translate(572.62 317.77) rotate(180)" style="fill:#f0f0f0"></rect><rect x="223.44" y="158.52" width="142.75" height="0.72" transform="translate(453.7 -135.93) rotate(90)" style="fill:#e6e6e6"></rect><rect x="286.02" y="81.16" width="0.57" height="155.44" transform="translate(572.62 317.77) rotate(180)" style="fill:#e6e6e6"></rect><g style="opacity:0.7000000000000001"><rect x="144.07" y="72.93" width="26.08" height="125.16" style="fill:#ebebeb"></rect><rect x="170.16" y="72.93" width="16.89" height="110.55" transform="translate(357.2 256.4) rotate(180)" style="fill:#e0e0e0"></rect><rect x="187.04" y="72.93" width="26.08" height="125.16" style="fill:#ebebeb"></rect><rect x="213.13" y="72.93" width="16.89" height="110.55" transform="translate(443.14 256.4) rotate(180)" style="fill:#e0e0e0"></rect><rect x="230.01" y="72.93" width="26.08" height="125.16" style="fill:#ebebeb"></rect><rect x="256.1" y="72.93" width="16.89" height="110.55" transform="translate(529.08 256.4) rotate(180)" style="fill:#e0e0e0"></rect><rect x="272.98" y="72.93" width="26.08" height="125.16" style="fill:#ebebeb"></rect><rect x="299.07" y="72.93" width="16.89" height="110.55" transform="translate(615.02 256.4) rotate(180)" style="fill:#e0e0e0"></rect><rect x="315.95" y="72.93" width="26.08" height="125.16" style="fill:#ebebeb"></rect><rect x="342.04" y="72.93" width="16.89" height="110.55" transform="translate(700.96 256.4) rotate(180)" style="fill:#e0e0e0"></rect><rect x="358.92" y="72.93" width="26.08" height="125.16" style="fill:#ebebeb"></rect><rect x="401.89" y="72.93" width="26.08" height="125.16" style="fill:#ebebeb"></rect><rect x="385.01" y="72.93" width="16.89" height="110.55" transform="translate(786.9 256.4) rotate(180)" style="fill:#e0e0e0"></rect></g><rect x="64.52" y="141.57" width="43.88" height="7.04" style="fill:#f0f0f0"></rect><rect x="108.4" y="141.57" width="20.93" height="7.04" transform="translate(237.72 290.17) rotate(180)" style="fill:#e6e6e6"></rect><polygon points="107.59 148.6 86.46 148.6 101.87 158.66 107.59 158.66 107.59 148.6" style="fill:#ebebeb"></polygon><polygon points="109.8 148.6 88.67 148.6 104.07 158.66 109.8 158.66 109.8 148.6" style="fill:#e0e0e0"></polygon><rect x="78.18" y="111.44" width="13.73" height="30.13" style="fill:#e6e6e6"></rect><rect x="74.21" y="111.44" width="3.97" height="30.13" transform="translate(152.38 253) rotate(180)" style="fill:#f0f0f0"></rect><polygon points="109.61 114.09 91.91 114.09 87.64 141.56 105.35 141.56 109.61 114.09" style="fill:#e6e6e6"></polygon><polygon points="86.79 114.09 91.91 114.09 87.64 141.56 82.53 141.56 86.79 114.09" style="fill:#f0f0f0"></polygon><rect x="97.71" y="110.43" width="20.06" height="31.14" style="fill:#ebebeb"></rect><rect x="91.91" y="110.43" width="5.8" height="31.14" transform="translate(189.62 251.99) rotate(180)" style="fill:#f5f5f5"></rect><path d="M115.87,141.56H115V122.82a5.9,5.9,0,0,0-11.79,0v18.74h-.86V122.82a6.75,6.75,0,0,1,13.5,0Z" style="fill:#e0e0e0"></path><rect x="64.52" y="202.59" width="43.88" height="7.04" style="fill:#f0f0f0"></rect><rect x="108.4" y="202.59" width="20.93" height="7.04" transform="translate(237.72 412.22) rotate(180)" style="fill:#e6e6e6"></rect><polygon points="107.59 209.63 86.46 209.63 101.87 219.69 107.59 219.69 107.59 209.63" style="fill:#ebebeb"></polygon><polygon points="109.8 209.63 88.67 209.63 104.07 219.69 109.8 219.69 109.8 209.63" style="fill:#e0e0e0"></polygon><rect x="76.53" y="180.31" width="20.06" height="22.28" style="fill:#e0e0e0"></rect><rect x="71.39" y="180.31" width="5.14" height="22.28" transform="translate(147.92 382.9) rotate(180)" style="fill:#f0f0f0"></rect><rect x="85.6" y="174.01" width="17.2" height="28.58" style="fill:#e0e0e0"></rect><rect x="82.1" y="174.01" width="3.5" height="28.58" transform="translate(167.7 376.6) rotate(180)" style="fill:#ebebeb"></rect><rect x="93.27" y="176.88" width="15.07" height="25.72" style="fill:#e6e6e6"></rect><rect x="88.92" y="176.88" width="4.36" height="25.72" transform="translate(182.19 379.47) rotate(180)" style="fill:#f0f0f0"></rect><rect x="97.71" y="180.31" width="20.06" height="22.28" style="fill:#f0f0f0"></rect><rect x="94.81" y="180.31" width="2.9" height="22.28" transform="translate(192.52 382.9) rotate(180)" style="fill:#fafafa"></rect><path d="M115.87,202.59H115V183.85a5.9,5.9,0,0,0-11.79,0v18.74h-.86V183.85a6.75,6.75,0,0,1,13.5,0Z" style="fill:#e0e0e0"></path><rect x="199.51" y="262.06" width="8.66" height="120.33" transform="translate(407.68 644.46) rotate(180)" style="fill:#e6e6e6"></rect><rect x="197.19" y="262.06" width="5.1" height="120.33" transform="translate(399.48 644.46) rotate(180)" style="fill:#f0f0f0"></rect><rect x="195.61" y="262.06" width="123" height="9.03" style="fill:#f0f0f0"></rect><rect x="435.11" y="262.06" width="8.66" height="120.33" transform="translate(878.88 644.46) rotate(180)" style="fill:#e6e6e6"></rect><rect x="433.49" y="262.06" width="5.1" height="120.33" transform="translate(872.08 644.46) rotate(180)" style="fill:#f0f0f0"></rect><rect x="322.32" y="262.06" width="123" height="9.03" style="fill:#e6e6e6"></rect><rect x="319.35" y="262.06" width="8.66" height="120.33" transform="translate(647.36 644.46) rotate(180)" style="fill:#e6e6e6"></rect><rect x="317.03" y="262.06" width="5.1" height="120.33" transform="translate(639.17 644.46) rotate(180)" style="fill:#f0f0f0"></rect><polygon points="341.39 222.04 277.16 222.04 272.12 259.96 336.35 259.96 341.39 222.04" style="fill:#e6e6e6"></polygon><polygon points="336.35 259.96 336.09 262.06 271.86 262.06 272.12 259.96 336.35 259.96" style="fill:#e6e6e6"></polygon><polygon points="339.41 222.04 275.19 222.04 270.14 259.96 334.37 259.96 339.41 222.04" style="fill:#f0f0f0"></polygon><polygon points="332.82 258.23 337.4 223.77 276.74 223.77 272.16 258.23 332.82 258.23" style="fill:#fff"></polygon><polygon points="317.63 259.96 317.38 262.06 246.65 262.06 246.91 259.96 317.63 259.96" style="fill:#f0f0f0"></polygon><rect x="155.48" y="262.15" width="23.48" height="117.65" transform="translate(334.43 641.96) rotate(180)" style="fill:#f0f0f0"></rect><rect x="58.68" y="379.81" width="115.77" height="2.59" transform="translate(233.12 762.21) rotate(180)" style="fill:#f0f0f0"></rect><rect x="54.17" y="262.15" width="101.31" height="117.65" style="fill:#f5f5f5"></rect><path d="M143.83,328.45h-78a2.81,2.81,0,0,1-2.8-2.8v-18.2a2.8,2.8,0,0,1,2.8-2.8H78.69a2.79,2.79,0,0,1,2.48,1.5,2.8,2.8,0,0,0,.54.75,2.91,2.91,0,0,0,2.05.86h42.12a2.9,2.9,0,0,0,2.56-1.54,2.85,2.85,0,0,1,2.5-1.57h12.89a2.8,2.8,0,0,1,2.8,2.8v18.2A2.81,2.81,0,0,1,143.83,328.45Zm-78-23a2,2,0,0,0-2,2v18.2a2,2,0,0,0,2,2h78a2,2,0,0,0,2-2v-18.2a2,2,0,0,0-2-2H130.94a2.11,2.11,0,0,0-1.83,1.17,3.66,3.66,0,0,1-3.23,1.94H83.76a3.76,3.76,0,0,1-3.28-2,2,2,0,0,0-1.79-1.08Z" style="fill:#ebebeb"></path><path d="M143.83,360.23h-78a2.8,2.8,0,0,1-2.8-2.79v-18.2a2.8,2.8,0,0,1,2.8-2.8H78.69a2.78,2.78,0,0,1,2.48,1.49,2.7,2.7,0,0,0,.54.76,2.88,2.88,0,0,0,2.05.85h42.12a2.9,2.9,0,0,0,2.56-1.53,2.84,2.84,0,0,1,2.5-1.57h12.89a2.8,2.8,0,0,1,2.8,2.8v18.2A2.8,2.8,0,0,1,143.83,360.23Zm-78-23a2,2,0,0,0-2,2v18.2a2,2,0,0,0,2,2h78a2,2,0,0,0,2-2v-18.2a2,2,0,0,0-2-2H130.94a2.11,2.11,0,0,0-1.83,1.17,3.67,3.67,0,0,1-3.23,1.94H83.76a3.65,3.65,0,0,1-2.59-1.08,3.79,3.79,0,0,1-.69-1,2,2,0,0,0-1.79-1.08Z" style="fill:#ebebeb"></path><path d="M146.63,374.38H63v-6.74h83.61Zm-82.85-.76h82.09V368.4H63.78Z" style="fill:#ebebeb"></path><path d="M143.83,296.67h-78a2.81,2.81,0,0,1-2.8-2.8v-18.2a2.8,2.8,0,0,1,2.8-2.8H78.69a2.79,2.79,0,0,1,2.48,1.5,2.8,2.8,0,0,0,.54.75,2.91,2.91,0,0,0,2.05.86h42.12a2.9,2.9,0,0,0,2.56-1.54,2.82,2.82,0,0,1,2.5-1.57h12.89a2.8,2.8,0,0,1,2.8,2.8v18.2A2.81,2.81,0,0,1,143.83,296.67Zm-78-23a2,2,0,0,0-2,2v18.2a2,2,0,0,0,2,2h78a2,2,0,0,0,2-2v-18.2a2,2,0,0,0-2-2H130.94a2.11,2.11,0,0,0-1.83,1.17,3.67,3.67,0,0,1-3.23,1.94H83.76a3.64,3.64,0,0,1-2.58-1.08,3.59,3.59,0,0,1-.7-1,2,2,0,0,0-1.79-1.08Z" style="fill:#ebebeb"></path><rect x="51.04" y="260.26" width="104.44" height="1.9" transform="translate(206.52 522.41) rotate(180)" style="fill:#f0f0f0"></rect><rect x="155.48" y="260.26" width="26.76" height="1.9" style="fill:#e6e6e6"></rect></g><g id="freepik--Shadow--inject-7"><ellipse id="freepik--path--inject-7" cx="250" cy="416.24" rx="193.89" ry="11.32" style="fill:#f5f5f5"></ellipse></g><g id="freepik--Plant--inject-7"><path d="M353,259c-25.78-11.43-42.83,23.83-22.6,43.79C339.12,284.52,377.43,264.32,353,259Z" style="fill:#263238"></path><path d="M367.77,376.72a58.24,58.24,0,0,0,.23-16,92.7,92.7,0,0,0-3.28-15.32c-3-9.9-6.79-19.3-9.75-28.92S349.85,297,349.67,287a79.55,79.55,0,0,1,1.09-15,98.28,98.28,0,0,1,3.72-14.65l-.89-.33a99.35,99.35,0,0,0-4.4,14.69A80.87,80.87,0,0,0,347.44,287c-.26,10.31,1.5,20.59,4.14,30.49s6.05,19.53,8.5,29.22,3.63,19.56,1.69,28.95Z" style="fill:#F38181"></path><path d="M362.33,394.5a58.31,58.31,0,0,0,1.72-15.9,93,93,0,0,0-1.84-15.55c-2-10.13-5-19.85-7-29.71s-3.28-19.86-2.52-29.88a79.49,79.49,0,0,1,2.48-14.83,96.55,96.55,0,0,1,5.08-14.24l-.86-.41a98,98,0,0,0-5.75,14.21,81.16,81.16,0,0,0-3.17,15.06c-1.22,10.24-.43,20.64,1.28,30.74s4.2,20,5.73,29.89,1.79,19.81-1,29Z" style="fill:#F38181"></path><path d="M336.3,356.48h50.2a3.58,3.58,0,0,1,3.55,4.07l-7.17,52.54a3.58,3.58,0,0,1-3.55,3.1H343.47a3.58,3.58,0,0,1-3.55-3.1l-7.17-52.54A3.58,3.58,0,0,1,336.3,356.48Z" style="fill:#fff"></path><path d="M343.47,416.67h35.86a4.07,4.07,0,0,0,4-3.51l7.17-52.54a4.05,4.05,0,0,0-4-4.61H336.3a4.05,4.05,0,0,0-4,4.61l7.17,52.54A4.07,4.07,0,0,0,343.47,416.67Zm43-59.71a3.12,3.12,0,0,1,3.08,3.53L382.41,413a3.13,3.13,0,0,1-3.08,2.69H343.47a3.12,3.12,0,0,1-3.08-2.69l-7.17-52.54A3.11,3.11,0,0,1,336.3,357Z" style="fill:#F38181"></path><path d="M350.93,257.9c17.17-19,36.05,18.16,35.44,41C380.46,286.15,290.84,283.84,350.93,257.9Z" style="fill:#F38181"></path><path d="M353.06,316.66c-1.08-5.13-8.26-.49-10.5,3.62C344.92,318.63,361.05,327.45,353.06,316.66Z" style="fill:#F38181"></path><path d="M382.87,291.72a.58.58,0,0,0,.55-.59c0-.18-5.62-20.67-30.36-31.76a.55.55,0,1,0-.45,1c23.68,10.62,29.67,30.62,29.7,30.81A.53.53,0,0,0,382.87,291.72Z" style="opacity:0.2"></path><path d="M342,274.89a.57.57,0,0,0,.51-.32c2.35-5,9-8.73,15.37-8.73a.55.55,0,0,0,.55-.55.54.54,0,0,0-.55-.55c-6.92,0-13.81,3.93-16.38,9.36a.56.56,0,0,0,.27.74A.59.59,0,0,0,342,274.89Z" style="opacity:0.2"></path><path d="M357.39,282.21a.55.55,0,0,0,.55-.55c0-2.49,5.06-7.94,8.86-7.94a.56.56,0,1,0,0-1.11c-4.2,0-10,5.77-10,9.05A.56.56,0,0,0,357.39,282.21Z" style="opacity:0.2"></path><path d="M369.92,287.54a.55.55,0,0,0,.51-.33c.81-1.87,1.88-3.9,4.18-4.4a.55.55,0,0,0,.43-.65.57.57,0,0,0-.66-.43c-3.06.66-4.3,3.51-5,5a.56.56,0,0,0,.29.73A.54.54,0,0,0,369.92,287.54Z" style="opacity:0.2"></path><path d="M365.72,265a.55.55,0,0,0,.53-.39,5.77,5.77,0,0,1,5-3.11.57.57,0,0,0,.57-.54.56.56,0,0,0-.54-.57c-2.93-.05-5.61,2.29-6.11,3.89a.55.55,0,0,0,.36.69A.51.51,0,0,0,365.72,265Z" style="opacity:0.2"></path><path d="M379.65,274.33a.55.55,0,0,0,.24-1.05,4.36,4.36,0,0,0-3.67,0,.57.57,0,0,0-.16.77.56.56,0,0,0,.77.15,3.42,3.42,0,0,1,2.57.13A.74.74,0,0,0,379.65,274.33Z" style="opacity:0.2"></path></g><g id="freepik--character-1--inject-7"><path d="M272.28,139.92l-1.1-3.54a3,3,0,0,0-3.84-2l-5.21,1.74-4.73,4.43a3.52,3.52,0,0,0-1,1.59c-1.08.18-2.18.36-3.24.52-1.79.26-3.55.49-5.29.65s-3.44.24-5.08.28c-.95,0-1.87-.05-2.75-.13a37.78,37.78,0,0,1-4.53-4,76,76,0,0,1-5.07-5.92c-.46-.61-.91-1.24-1.37-1.86a12.68,12.68,0,0,0,.71-4.16s-4.3-7-8.26-12.78c-1.08-3.56-3.53-6.71-8.62-8.37a62.88,62.88,0,0,0-8.61-2,6.9,6.9,0,0,1-.83-4.59h0a13.84,13.84,0,0,1,.3-1.48c4.4.29,7.65-3.18,9.68-8.32,1.82-4.6,2.74-11.28,1.27-16.73,3.08,1.09,5.81,1.21,6.59-.28,1-1.87-5.48-3.73-5.48-3.73A8.13,8.13,0,0,0,221.73,67c2.42-2.5-5.53-3-8.13-1.81,3.36-3.46,4-6-1.63-5.12a23.91,23.91,0,0,0-5.22,1.81s-12.16-8-14-.92c-.81-1.78-.89-3.94-2.55-4.18-2-.31-1.09,4.08,1.73,5.73-4.8,2.12-4.91,4.91-3.87,7.38-2.18.52-1.95,4.35-.22,7.84a4.06,4.06,0,0,0-.94,3.38,8,8,0,0,0,3.32,5.22,3.17,3.17,0,0,0,1.27.55,15.81,15.81,0,0,0,.46,1.89c.15,4.85.36,10.48-2.05,14-2.55-.15-5.11-.24-7.62-.27h-.19c-.19,0-.37,0-.56,0l-.46,0a18.82,18.82,0,0,0-8.23,2.37c-9.32,4.51-16.44,13.72-16.44,13.72a16.19,16.19,0,0,0,.91,3.56c-1.35,1.2-2.67,2.42-4,3.71a76.87,76.87,0,0,0-5.93,6.64l-.29.36a5.16,5.16,0,0,0-1,2.13,40.87,40.87,0,0,0-.89,9.15,55.88,55.88,0,0,0,.8,8.67,68,68,0,0,0,1.95,8.23c.43,1.4.89,2.77,1.4,4.13-1.22,2.74-.71,6.78-.71,6.78l-.19,4.36a3,3,0,0,0,2.4,3.09l3.64.75a3,3,0,0,0,3.58-2.4l1-5.4-1.58-6.28a3.81,3.81,0,0,0-.17-.51c-.25-2-.48-4.16-.63-6.22-.19-2.51-.31-5-.29-7.46a59.84,59.84,0,0,1,.41-7.17,35.93,35.93,0,0,1,.91-4.83c1.5-1.48,3-2.94,4.66-4.34l1.23-1a402.72,402.72,0,0,1-1,48.7c.29.16.62.33,1,.49-6.25,20.86,1.11,41.08,6,85.45-1.62,35.63,17.87,97.62,17.87,97.62L219,268.6c-7.32-17-6.92-70.78-6.79-77.85a2.38,2.38,0,0,0,.53-.27c-.71-9.13,3.45-32.15,5.47-47.13,0-.13.06-.27.08-.4a14.2,14.2,0,0,0,1.55-.67,68,68,0,0,0,6.53,6.77,42.47,42.47,0,0,0,8.25,5.91l.48.26a4.62,4.62,0,0,0,2.16.56,33.24,33.24,0,0,0,6.82-.6,47.52,47.52,0,0,0,6.13-1.65,56.74,56.74,0,0,0,5.67-2.35,45.44,45.44,0,0,0,5.35-3l.21-.16a16.71,16.71,0,0,0,5.4-2.53l3.9-1.95A3,3,0,0,0,272.28,139.92Z" style="fill:#263238"></path><path d="M204.31,78.71c-.32.75-.18,1.53.32,1.74s1.15-.23,1.46-1,.18-1.53-.31-1.74S204.63,78,204.31,78.71Z" style="fill:#fff"></path><path d="M212,81.37c-.32.76-.18,1.54.32,1.75s1.15-.24,1.47-1,.17-1.54-.32-1.75S212.32,80.62,212,81.37Z" style="fill:#fff"></path><path d="M207.83,87.62a47.8,47.8,0,0,0-4.9-3.64.88.88,0,0,0-1.34.94c.29,1.22,1.47,2.32,3.36,3.51a3.14,3.14,0,0,0,2.62.64A.86.86,0,0,0,207.83,87.62Z" style="fill:#fff"></path><path d="M207.53,78.5a.37.37,0,0,1,0,.21A.42.42,0,0,1,207,79a4.06,4.06,0,0,1-2.8-2.47.4.4,0,1,1,.77-.24h0a3.3,3.3,0,0,0,2.25,1.92A.44.44,0,0,1,207.53,78.5Z" style="fill:#fff"></path><path d="M212.76,76.75a.43.43,0,0,1,.38-.07,3.22,3.22,0,0,0,2.92-.34.4.4,0,0,1,.56.07.41.41,0,0,1-.07.58,4,4,0,0,1-3.67.47.41.41,0,0,1-.26-.52A.45.45,0,0,1,212.76,76.75Z" style="fill:#fff"></path></g><g id="freepik--character-2--inject-7"><path d="M368.59,133.47,366,130.84a3,3,0,0,0-3.89-.32l-3.55,2.54s-3.72,1.82-5.32,4.38a3.43,3.43,0,0,0-.34,2.9v0c.08,1.11.18,2.43.22,3.66s.08,2.49.07,3.72a52.89,52.89,0,0,1-.49,7.21,30.91,30.91,0,0,1-1.57,6.45c-.09.24-.2.45-.29.68-.6-.31-1.19-.63-1.77-1a64,64,0,0,1-5.87-3.82c-.37-.27-.73-.56-1.1-.84-.06-.41-.15-.82-.25-1.22,0,0-10.71-10.43-16.14-14.47a6.33,6.33,0,0,0-1.18-.69,18.7,18.7,0,0,0-9.16-4.55c-2.46-.47-5-.87-7.53-1.23-1.59-3.79-.47-8.95.58-13.52.11-.16.22-.31.33-.48a3.29,3.29,0,0,0,1.39,0,8,8,0,0,0,5-3.55,4.05,4.05,0,0,0,.42-3.49c2.93-2.57,4.6-6,2.79-7.33,1.89-1.89,2.85-4.51-.78-8.3,3.24-.46,5.79-4.15,3.79-4.64-1.63-.41-2.52,1.56-3.95,2.89,1-7.2-13.29-4.47-13.29-4.47A23.77,23.77,0,0,0,300,87.71c-4.9-2.94-5.24-.37-3.45,4.1-1.94-2.1-9.5-4.65-8.21-1.42a8.12,8.12,0,0,0,4.58,4.33s-6.68-.75-6.48,1.36c.15,1.67,2.71,2.6,6,2.76-3.44,4.48-5.13,11-5.2,16-.09,6.37,2.15,11.28,7.83,11.81v.05a15.23,15.23,0,0,1,0,2h0a7,7,0,0,1-1.71,4.33,62.5,62.5,0,0,0-8.84.28c-9.19,1.1-11.53,8.09-12.32,14.33-.84,6.61-.12,15-.07,20.91-.95,15.08-1.36,38.47-3.84,47.29a2.85,2.85,0,0,0,.48.36c-1.26,7-10.85,60.14-15.28,83.91l16.72,82.79s19.7-46.1,25.07-81.37c13.4-42.57,24.55-61,22.49-82.64a9.84,9.84,0,0,0,1.06-.3,397.28,397.28,0,0,1,8.05-45.91,36.72,36.72,0,0,0,6.38,1.11,16.57,16.57,0,0,0,4.42-3.69l1.38.82c1.29.68,2.55,1.39,3.88,2a55.86,55.86,0,0,0,8.23,3.14l.42.14a5.87,5.87,0,0,0,6.53-2.22,25.31,25.31,0,0,0,2.6-4.59,29.33,29.33,0,0,0,1.53-4.74,36.21,36.21,0,0,0,.84-9.21,49.06,49.06,0,0,0-1.09-8.66c-.28-1.33-.63-2.63-1-3.93l3.58-1.24,4-3.8A3,3,0,0,0,368.59,133.47Z" style="fill:#263238"></path><path d="M300.73,108.17c0,.81-.43,1.48-1,1.48s-1-.65-1-1.47.42-1.49.95-1.49S300.72,107.35,300.73,108.17Z" style="fill:#fff"></path><path d="M292.51,106.47c0,.82-.43,1.49-1,1.49s-1-.65-1-1.47.42-1.49,1-1.49S292.5,105.66,292.51,106.47Z" style="fill:#fff"></path><path d="M291,116s2.56-.56,10.14-.55c-.37,2.09-2.62,2.69-6.51,2.65S291,116,291,116Z" style="fill:#fff"></path><path d="M298.73,104.76a.4.4,0,0,0-.1.18.41.41,0,0,0,.31.49,4.1,4.1,0,0,0,3.64-.83.4.4,0,0,0,0-.57.41.41,0,0,0-.58,0h0a3.24,3.24,0,0,1-2.89.63A.42.42,0,0,0,298.73,104.76Z" style="fill:#fff"></path><path d="M293.63,103.71a.38.38,0,0,0-.32-.21,3.22,3.22,0,0,1-2.57-1.42.39.39,0,0,0-.55-.15.4.4,0,0,0-.16.55,4,4,0,0,0,3.22,1.84.4.4,0,0,0,.43-.38A.34.34,0,0,0,293.63,103.71Z" style="fill:#fff"></path></g><g id="freepik--character-3--inject-7"><path d="M226.54,154.1l-1-.39-.9-.35c-.59-.24-1.16-.5-1.73-.76-1.14-.52-2.23-1.11-3.33-1.71a48.2,48.2,0,0,1-6.32-4.21c-1-.81-2-1.66-3-2.58a39.4,39.4,0,0,1-2.76-3,29.36,29.36,0,0,1-2.45-3.46,28.18,28.18,0,0,1-1.93-4l-.17-.45a6,6,0,0,1,2.46-7.24,36.68,36.68,0,0,1,9-3.83,61.77,61.77,0,0,1,8.83-1.8,83.07,83.07,0,0,1,8.71-.7,77,77,0,0,1,8.7.21,3.47,3.47,0,0,1,.44,6.84l-.15,0c-2.55.55-5.25,1.12-7.84,1.76s-5.18,1.3-7.67,2.08a66.75,66.75,0,0,0-7.19,2.57,28.88,28.88,0,0,0-5.93,3.28l2.29-7.7a17.08,17.08,0,0,0,2.79,3.62,32.45,32.45,0,0,0,4,3.34,49.86,49.86,0,0,0,4.82,2.94c.83.46,1.7.88,2.56,1.31l1.29.61,1.13.51.5.22a6.94,6.94,0,0,1-5.27,12.83Z" style="fill:#ff8b7b"></path><path d="M243.74,140.14l-20.19-4.64c-5.86,1.85-8,12.79-7.12,19.71,0,0,5.87,7.81,15,5.66C241.74,158.45,253.56,142.42,243.74,140.14Z" style="fill:#F38181"></path><path d="M247.22,111.09,244,109.22a3,3,0,0,0-4.16,1.14l-1.94,3.49a6.94,6.94,0,0,0-.84,2.81l-.38,5a3.53,3.53,0,0,0,1.77,3.32l1.34.77a3.5,3.5,0,0,0,4.3-.63c2.06-2.2,2.86-6.24,2.86-6.24l1.56-4.08A3,3,0,0,0,247.22,111.09Z" style="fill:#ff8b7b"></path><path d="M247.22,111.09,244,109.22l-.2-.1a29.66,29.66,0,0,0-5.39,15.16c0,.21,0,.42,0,.64a18.55,18.55,0,0,0,0,2.37l2.56-.55.14,0a3.28,3.28,0,0,0,1.4-.65,3.46,3.46,0,0,0,1.55-1c2.06-2.2,2.86-6.24,2.86-6.24l1.56-4.08A3,3,0,0,0,247.22,111.09Z" style="opacity:0.2"></path><polygon points="187.02 402.07 178.93 399.16 184.96 380.11 193.05 383.03 187.02 402.07" style="fill:#ff8b7b"></polygon><path d="M180.34,395.8l8.89,3a.7.7,0,0,1,.47.78l-1.22,7.68a1.32,1.32,0,0,1-1.74,1c-3.18-1.15-7.74-2.91-11.77-4.29-4.71-1.61-4.31-1.26-9.83-3.15-3.35-1.14-2.95-4.79-1.43-4.61,6.91.8,7.59,1,14.42-.51A4.14,4.14,0,0,1,180.34,395.8Z" style="fill:#263238"></path><polygon points="184.96 380.12 181.85 389.94 189.94 392.85 193.05 383.03 184.96 380.12" style="opacity:0.2"></polygon><path d="M178.65,396.06a.19.19,0,0,0,.18-.11.23.23,0,0,0-.05-.24c-.31-.32-3.11-3.13-4.26-2.9a.58.58,0,0,0-.46.41h0a1.21,1.21,0,0,0,.09,1.08c.67,1.11,3.1,1.58,4.49,1.76Zm-4-2.85c.68,0,2.26,1.28,3.37,2.35-1.89-.31-3.2-.85-3.58-1.47a.8.8,0,0,1,0-.71.24.24,0,0,1,.18-.17Z" style="fill:#F38181"></path><path d="M178.65,396.06h.06a.18.18,0,0,0,.13-.15c0-.09.44-2.4-.35-3.62a1.55,1.55,0,0,0-1-.7h0c-.55-.13-.78.09-.88.3-.42.89,1,3.34,1.87,4.13A.24.24,0,0,0,178.65,396.06Zm-1.42-4.1a.82.82,0,0,1,.21,0h0a1.14,1.14,0,0,1,.72.52,5,5,0,0,1,.34,2.92c-.83-.95-1.75-2.81-1.5-3.35A.23.23,0,0,1,177.23,392Zm0,1.32Z" style="fill:#F38181"></path><path d="M222.81,307c15.3-42.5,27.31-60.35,25.79-82.45l-30.2-3s-13.06,58.72-18.84,84c-6,26.25-18.48,78.13-18.48,78.13l13.38,3.63S216,342,222.81,307Z" style="fill:#F38181"></path><path d="M222.81,307c15.3-42.5,27.31-60.35,25.79-82.45l-30.2-3s-13.06,58.72-18.84,84c-6,26.25-18.48,78.13-18.48,78.13l13.38,3.63S216,342,222.81,307Z" style="fill:#fff;opacity:0.6000000000000001"></path><path d="M247.18,241.58c-2.52,11.27-7.91,23.43-14.79,40.44C232.27,262.74,236.6,239.93,247.18,241.58Z" style="fill:#F38181;opacity:0.2"></path><polygon points="180.19 379.55 179.4 385.55 193.76 390.65 196.13 385.52 180.19 379.55" style="fill:#F38181"></polygon><polygon points="272.85 389.07 273.53 409.04 263.98 408.91 263.3 388.94 272.85 389.07" style="fill:#ff8b7b"></polygon><path d="M264.2,406.3l9.39.15a.65.65,0,0,1,.66.6l.82,7.68a1.42,1.42,0,0,1-1.42,1.51c-3.37-.11-4.44-.39-8.69-.46-5-.07-2.68.13-8.52,0-3.52-.06-4.09-3.63-2.58-3.94,4.78-1,6-2.91,8.19-4.94A3.07,3.07,0,0,1,264.2,406.3Z" style="fill:#263238"></path><polygon points="272.85 389.08 273.2 399.37 263.65 399.24 263.3 388.94 272.85 389.08" style="opacity:0.2"></polygon><path d="M265.9,407a.19.19,0,0,0,.19-.1.21.21,0,0,0,0-.24c-.29-.32-2.89-3.2-4.08-3a.64.64,0,0,0-.51.38h0a1.19,1.19,0,0,0,0,1.07c.58,1.11,3,1.68,4.4,1.92Zm-3.78-3c.69,0,2.18,1.36,3.22,2.46-1.89-.39-3.18-1-3.51-1.6a.75.75,0,0,1,0-.7.23.23,0,0,1,.2-.16Z" style="fill:#F38181"></path><path d="M265.9,407H266a.21.21,0,0,0,.14-.15c0-.09.65-2.34-.05-3.57a1.5,1.5,0,0,0-.93-.73h0c-.55-.15-.8.06-.92.26-.49.85.76,3.33,1.56,4.13A.2.2,0,0,0,265.9,407Zm-1.1-4.09.21,0h0a1.08,1.08,0,0,1,.68.54,4.8,4.8,0,0,1,.11,2.89c-.76-1-1.54-2.84-1.25-3.36C264.57,402.93,264.62,402.85,264.8,402.86Zm.26-.16Z" style="fill:#F38181"></path><path d="M265.91,307.37c-1.3-30.88,6-58.81,1.65-81.23L236,223.48s.74,63.79,6.3,89.64C248.11,340,261,393,261,393l13.88.2S273.46,336.77,265.91,307.37Z" style="fill:#F38181"></path><path d="M265.91,307.37c-1.3-30.88,6-58.81,1.65-81.23L236,223.48s.74,63.79,6.3,89.64C248.11,340,261,393,261,393l13.88.2S273.46,336.77,265.91,307.37Z" style="fill:#fff;opacity:0.6000000000000001"></path><polygon points="258.97 389.96 259.88 395.9 275.44 396.17 276.32 390.56 258.97 389.96" style="fill:#F38181"></polygon><path d="M237.35,140.09c7.58-.59,19.87,1,30.68,3.48a18.78,18.78,0,0,1,14.06,22.84c-3.14,12.45-9.34,30.87-13.93,60.29-4.58,1.34-17.94.93-28.55-.08-1.15-.11-3.92-2.89-3.92-2.89s-2.59,2.15-4.06,1.94c-7-1-12.59-2.36-13.85-3.78,2.83-8.71,4.19-32.07,5.75-47.1.2-5.93-.18-14.31.92-20.88C225.49,147.71,228.12,140.82,237.35,140.09Z" style="fill:#F38181"></path><path d="M262.36,126.08c-1.52,5.85-4.26,13.5-.65,18-2.64,3.93-8.77,7-14.88,8.58-3.91-4.64-3.43-9.07-1.68-11.64,3.57-2.54,3-6.39,2.87-9.07Z" style="fill:#ff8b7b"></path><path d="M246.83,152.71a7.9,7.9,0,0,1-1.5-3.63c-.17-1.92-3.53-.64-3.53-.64A13.1,13.1,0,0,0,246.83,152.71Z" style="fill:#263238"></path><path d="M246.83,152.71a3.54,3.54,0,0,1,3.09-2.58,11.27,11.27,0,0,1,5,.47S250.16,152.8,246.83,152.71Z" style="fill:#263238"></path><path d="M248,132a23.91,23.91,0,0,1,0,3.91c4.9-.1,9.75-2.86,10.42-8.24Z" style="opacity:0.2"></path><path d="M266.94,117.13c-2.94,8-5,13.63-10.8,15.58-11.8,4-15.84-2.24-15.36-11,.43-7.88,5.16-19.66,14.11-20.45A11.76,11.76,0,0,1,266.94,117.13Z" style="fill:#ff8b7b"></path><path d="M262.19,124.08c-1-4.36.79-6.81,2-7.17-2-.63-4.76-7.39-2.88-9.66-3.36.11-6.41-1.06-6.62-2-6,1.65-13.76.67-13.92-2.29-.1-2.11,6.54-1.1,6.54-1.1a8.11,8.11,0,0,1-4.4-4.51c-1.16-3.28,6.29-.43,8.14,1.76-1.61-4.55-1.16-7.1,3.62-4a23.87,23.87,0,0,1,4,3.82s16-2.39,12.75,6.28c4,4.21,2.92,6.92.87,8.81C275.19,116.4,268.27,124.24,262.19,124.08Z" style="fill:#263238"></path><path d="M268.91,105.05c3.49.3,4.45-4.48,6.89-3.77S273.08,107.84,268.91,105.05Z" style="fill:#263238"></path><path d="M254,127.36s-2.61-.13-9.93-2.14c.91-1.92,2.55-3.24,6.29-2.17A4.54,4.54,0,0,1,254,127.36Z" style="fill:#263238"></path><path d="M248.62,124.26a6.3,6.3,0,0,0,4.1.08,5.3,5.3,0,0,0-2.33-1.29,6.34,6.34,0,0,0-4.09-.08A5.07,5.07,0,0,0,248.62,124.26Z" style="fill:#fff"></path><path d="M253.7,127.33a2.13,2.13,0,0,0-1.12-1.39,42,42,0,0,0-6.49-1.24,1.59,1.59,0,0,0-1.67.61A65.63,65.63,0,0,0,253.7,127.33Z" style="fill:#fff"></path><path d="M255.78,128.31s-1.23,1.57-2.14.22A4.11,4.11,0,0,0,255.78,128.31Z" style="opacity:0.2"></path><path d="M256.38,116.25a4.7,4.7,0,0,1,3.52.53A9.14,9.14,0,0,1,256.38,116.25Z" style="opacity:0.2"></path><path d="M256.31,117.1a3.86,3.86,0,0,1,3,1.26A7.57,7.57,0,0,1,256.31,117.1Z" style="opacity:0.2"></path><path d="M268.62,124.77a8,8,0,0,1-5.19,3.35c-2.81.48-3.94-2.1-2.94-4.6.9-2.25,3.44-5.2,6.15-4.55S270.09,122.59,268.62,124.77Z" style="fill:#ff8b7b"></path><path d="M249.55,114.72a24.49,24.49,0,0,1-5,4.52,4,4,0,0,0,2.93,1.69Z" style="fill:#ff5652"></path><path d="M256.47,109.81a.34.34,0,0,0-.2-.06.4.4,0,0,0-.42.39,4.13,4.13,0,0,0,1.48,3.43.41.41,0,1,0,.48-.66h0a3.3,3.3,0,0,1-1.15-2.73A.41.41,0,0,0,256.47,109.81Z" style="fill:#263238"></path><path d="M255,115.93a.27.27,0,0,0,.09-.12.29.29,0,0,0-.16-.38,2.93,2.93,0,0,0-2.69.12.28.28,0,0,0-.08.4.3.3,0,0,0,.41.09h0a2.32,2.32,0,0,1,2.13-.08A.29.29,0,0,0,255,115.93Z" style="fill:#263238"></path><path d="M246.38,114.31a.32.32,0,0,0,.14,0,.29.29,0,0,0,.12-.4,2.92,2.92,0,0,0-2.18-1.58.28.28,0,0,0-.32.26.29.29,0,0,0,.27.32h0a2.41,2.41,0,0,1,1.72,1.27A.28.28,0,0,0,246.38,114.31Z" style="fill:#263238"></path><path d="M248.24,107.86a.4.4,0,0,0-.38,0,3.18,3.18,0,0,1-2.92.27.4.4,0,0,0-.55.19.41.41,0,0,0,.19.54,4,4,0,0,0,3.7-.29.42.42,0,0,0,.14-.56A.4.4,0,0,0,248.24,107.86Z" style="fill:#263238"></path><path d="M273.8,145l.6.11.77.13q.78.13,1.59.24c1.07.13,2.15.25,3.21.29a30.86,30.86,0,0,0,6.14-.25,17.6,17.6,0,0,0,5.14-1.58,11.89,11.89,0,0,0,3.77-3.07l1,8.15a42.66,42.66,0,0,0-6.61-5.09c-2.51-1.6-5.17-3.15-7.91-4.6S276,136.4,273.14,135s-5.75-2.72-8.57-4l-.08,0a3.46,3.46,0,0,1,2.08-6.55c3.33.61,6.49,1.39,9.7,2.28s6.36,1.9,9.51,3a90.85,90.85,0,0,1,9.39,4,48.08,48.08,0,0,1,9.26,5.89,6,6,0,0,1,1.2,7.85l-.19.3a24.6,24.6,0,0,1-3.28,4.16,22.68,22.68,0,0,1-4.14,3.32,28.49,28.49,0,0,1-4.61,2.33,34,34,0,0,1-4.75,1.38,38.51,38.51,0,0,1-9.31.73,45,45,0,0,1-4.5-.41c-.75-.11-1.49-.23-2.24-.38l-1.13-.25-.59-.14-.7-.18a6.93,6.93,0,0,1,3.05-13.52Z" style="fill:#ff8b7b"></path><path d="M263.72,142.64c6.76,0,21.58,2,21.58,2,4.83,3.81,7.37,12.88,4.24,20,0,0-12.86,8.36-20.64,3.11C260.12,161.76,253.64,142.65,263.72,142.64Z" style="fill:#F38181"></path><path d="M270.35,128.39l1.92-6.19L261.82,122s-.74,4.08.38,6.88a3.49,3.49,0,0,0,3.76,2.14l1.53-.22A3.5,3.5,0,0,0,270.35,128.39Z" style="fill:#ff8b7b"></path><path d="M268.11,114.16l-3.67.56a3,3,0,0,0-2.56,3l-.06,4.36,10.45.17-.71-5.45A3,3,0,0,0,268.11,114.16Z" style="fill:#ff8b7b"></path><path d="M260.75,139.13c-.23,2-2.15,9.93-10.83,11,5,.47,8,6.09,8,6.09s5.93-6.58,6.23-13.7C262.49,140.82,260.75,139.13,260.75,139.13Z" style="fill:#fff"></path><path d="M247.38,138.47c-.23,1.92-2.93,5-2,10.61-3.1-.68-8.21,3.28-8.21,3.28s2-10.71,6.19-13A9.3,9.3,0,0,1,247.38,138.47Z" style="fill:#fff"></path></g><g id="freepik--bubble-speech-1--inject-7"><path d="M64.31,92.35c-.37-7.43,1.81-13.68,6.47-18.59l.73.69C67,79.15,65,85.16,65.31,92.3Z" style="fill:#F38181"></path><path d="M69.92,106.51a27.32,27.32,0,0,1-4.21-7.38l.94-.34a26.35,26.35,0,0,0,4,7.1Z" style="fill:#F38181"></path><path d="M67.81,92.17c1.16,22.94,43.52,36.93,68.8,26.88,14.42-5.73,26-22.52,17.14-34.67a40.77,40.77,0,0,1,17.75-.87c-11-7.14-21-8.12-28.69-7a151.5,151.5,0,0,0-21.26-7.26C95.42,62.82,66.61,68.43,67.81,92.17Z" style="fill:#F38181"></path><path d="M126.33,108.71h0a1.44,1.44,0,0,1-1.32-.79,1.15,1.15,0,0,1,.17-1.26c.44-.54.89-1.07,1.36-1.61a29.13,29.13,0,0,1-7.15,3.19,1.56,1.56,0,0,1-1.76-.62,1.14,1.14,0,0,1,.17-1.43l2.23-2.37-.35.2c-4.14,2.37-7.74,3.08-10.68,2.09a1.31,1.31,0,0,1-.86-.79,1.16,1.16,0,0,1,.09-1c.19-.32.38-.63.58-.94a15.43,15.43,0,0,1-6,1.54,1.54,1.54,0,0,1-1.38-.7,1.14,1.14,0,0,1,0-1.17,51.54,51.54,0,0,1,2.9-4.41c-1.42.77-2.85,1.5-4.26,2.21-2.68,1.36-5.52,2.48-8.1,1.56a1.25,1.25,0,0,1-.86-1.46A11.6,11.6,0,0,1,93,97.17a8.89,8.89,0,0,1-6.1,1.32,2.24,2.24,0,0,1-.66-.25,15.57,15.57,0,0,1-6,1,1.73,1.73,0,0,1-1.35-.53,1.91,1.91,0,0,1-.26-1.5,21.52,21.52,0,0,1,4.21-9.75,17,17,0,0,1,5.92-10.86.46.46,0,0,1,.65.07.45.45,0,0,1-.07.64,16,16,0,0,0-5.26,8.58,62.76,62.76,0,0,1,8.42-8,10.49,10.49,0,0,1,4.25-2.39,1.56,1.56,0,0,1,1.58.61,1.16,1.16,0,0,1,0,1.31,56.1,56.1,0,0,1-9.28,10.61,10,10,0,0,1-4.6,2.66,1.57,1.57,0,0,1-1.31-.34,1.18,1.18,0,0,1-.44-.93V89.3a19.63,19.63,0,0,0-3.16,8.06,1.23,1.23,0,0,0,.06.8,1,1,0,0,0,.67.19,14.55,14.55,0,0,0,5.38-.88,2.13,2.13,0,0,1,.16-1.22A36.65,36.65,0,0,1,97,80.56c2.19-1.77,4.14-2.69,5.94-2.81a1.52,1.52,0,0,1,1.35.6,1.13,1.13,0,0,1,.13,1.13,37.47,37.47,0,0,1-12,15.3,26.58,26.58,0,0,1-4.84,2.9c2.11.25,4.24-.84,6.08-2l.9-.55.14-.17c3.46-4.07,7.15-8,11-11.73a1.63,1.63,0,0,1,2.26,0,1.12,1.12,0,0,1,.06,1.63,59.79,59.79,0,0,1-12.82,11A14.4,14.4,0,0,0,92,101.17c0,.14.09.3.29.37,2.25.81,4.88-.25,7.38-1.52,2-1,4-2.06,6.06-3.19a50,50,0,0,1,9.44-9,9.31,9.31,0,0,1,.8-.54,1.61,1.61,0,0,1,2.08.34,1.17,1.17,0,0,1-.14,1.59,56.19,56.19,0,0,1-11.58,8.34,51.23,51.23,0,0,0-4.11,6,.23.23,0,0,0,0,.25.61.61,0,0,0,.57.25,16.06,16.06,0,0,0,7-2.14,52.7,52.7,0,0,1,11.9-12.6,13.35,13.35,0,0,1,3.42-2,1.54,1.54,0,0,1,1.81.54,1.16,1.16,0,0,1-.12,1.46,65.39,65.39,0,0,1-14.52,12.19c-.58.35-1.2.72-1.86,1.08-.49.73-1,1.47-1.4,2.22a.25.25,0,0,0,0,.22.46.46,0,0,0,.29.25c2.7.89,6,.22,10-2a39.47,39.47,0,0,0,3.41-2.19l11.23-11.92a.46.46,0,0,1,.61-.05.47.47,0,0,1,.11.61,42.86,42.86,0,0,1-11.34,12l-4.78,5.08a.26.26,0,0,0-.06.34.66.66,0,0,0,.73.21,29.26,29.26,0,0,0,8.63-4.2c.64-.45,1.26-.91,1.86-1.4,2.05-2.06,4.37-4.15,7.05-6.38a.46.46,0,0,1,.59.7c-1,.87-2,1.8-2.94,2.69-1.3,1.23-2.64,2.49-4.09,3.67-1.6,1.61-3,3.2-4.36,4.8a.27.27,0,0,0,0,.29.53.53,0,0,0,.5.26,2.81,2.81,0,0,0,.71-.07,7.49,7.49,0,0,0,2.06-.86,50.06,50.06,0,0,0,7.07-4.86,1.65,1.65,0,0,1,2.07,0,1.15,1.15,0,0,1,.27,1.49c-.38.66-.75,1.32-1.09,2a.26.26,0,0,0,0,.28.64.64,0,0,0,.6.21,22.75,22.75,0,0,0,4.87-1.17.46.46,0,0,1,.31.86,23.32,23.32,0,0,1-5.06,1.21,1.53,1.53,0,0,1-1.47-.59,1.19,1.19,0,0,1-.08-1.22c.35-.69.72-1.36,1.11-2a.25.25,0,0,0-.07-.34.73.73,0,0,0-.9,0,49.65,49.65,0,0,1-7.21,4.94,8.11,8.11,0,0,1-2.31,1A4.28,4.28,0,0,1,126.33,108.71Zm-.69-20.6a.82.82,0,0,0-.26,0A12.46,12.46,0,0,0,122.21,90a51.43,51.43,0,0,0-10.59,10.8l.15-.09a64.3,64.3,0,0,0,14.32-12,.25.25,0,0,0,0-.35A.57.57,0,0,0,125.64,88.11Zm-22.56-9.45H103c-1.61.11-3.38,1-5.42,2.61a35.66,35.66,0,0,0-10.92,15.3,1.82,1.82,0,0,0-.14.57,25.4,25.4,0,0,0,5.35-3.09A36.55,36.55,0,0,0,103.6,79.12a.24.24,0,0,0,0-.24A.59.59,0,0,0,103.08,78.66Zm13.73,9.28a.72.72,0,0,0-.38.11,7.38,7.38,0,0,0-.74.5,49,49,0,0,0-7.6,6.9,51.27,51.27,0,0,0,9.17-6.91c.14-.13.15-.24,0-.37A.64.64,0,0,0,116.81,87.94Zm-10-4.23a.66.66,0,0,0-.46.18c-3.08,3-6,6.11-8.88,9.32a59.87,59.87,0,0,0,9.85-8.94c.1-.12.14-.23,0-.37A.73.73,0,0,0,106.81,83.71ZM83.73,87.83c-.07.55-.1,1.09-.12,1.64a.34.34,0,0,0,.12.22.72.72,0,0,0,.56.13,9.25,9.25,0,0,0,4.16-2.45,54.85,54.85,0,0,0,9.12-10.43.24.24,0,0,0,0-.29.6.6,0,0,0-.64-.22,9.66,9.66,0,0,0-3.84,2.2A55.4,55.4,0,0,0,83.73,87.83Z" style="fill:#fff"></path></g><g id="freepik--bubble-speech-2--inject-7"><path d="M424.71,76.5c-7.41-21.74-52-23.57-73.53-7-12.3,9.47-18.82,28.79-7,38.05a40.61,40.61,0,0,1-16.83,5.7c12.51,3.85,22.4,2,29.51-1.12a150.84,150.84,0,0,0,22.43,1.14C406.21,112.3,432.38,99,424.71,76.5Z" style="fill:#F38181"></path><path d="M367.33,106.31a7.8,7.8,0,0,1-1.59-.16c-3.41-.7-6.23-3.67-8.37-8.85-.45-1.07-.83-2.1-1.15-3.09-3-1.19-5.59-3.42-6.09-6.58a8,8,0,0,1,.2-3.31c1.42-5.38,7-8.27,11.76-9.19a13.18,13.18,0,0,1,1.4-.56,17.06,17.06,0,0,1,9.38-.24c.43.1.85.22,1.27.34l.15,0a11.72,11.72,0,0,1,2.54-2.14,17.38,17.38,0,0,1,4.94-1.92,43.63,43.63,0,0,1,17.91-.85c.95.17,2,.28,3.13.4,4.74.5,10.65,1.13,12.28,6.5a9.39,9.39,0,0,1-.3,5.58,19.49,19.49,0,0,1-6.41,9.35.46.46,0,0,1-.63-.07.44.44,0,0,1,.08-.62,18.55,18.55,0,0,0,6.11-8.92,8.49,8.49,0,0,0,.3-5.06c-1.46-4.82-6.81-5.38-11.52-5.88-1.14-.12-2.21-.24-3.19-.41a41.39,41.39,0,0,0-11.15-.31,10.39,10.39,0,0,1,2.91,1.15,32.86,32.86,0,0,1,4.64.23,10,10,0,0,1,5.23,1c.19.09.37.2.56.31l.58.22a11.63,11.63,0,0,1,3.08,1.67,5.91,5.91,0,0,1,5.05,3.37c1.32,2.91.37,7.16-2.27,10.1l-.16.18A24.78,24.78,0,0,1,406.7,91c-1.3,2.16-2.9,4.5-5.42,4.9a6.43,6.43,0,0,1-2.62-.2,20,20,0,0,1-4.25,2.09,22.6,22.6,0,0,1-14.4,0,24.14,24.14,0,0,1-6.7,6.66A11.66,11.66,0,0,1,367.33,106.31ZM357.28,94.59q.39,1.16.9,2.37c2,4.89,4.63,7.69,7.73,8.32a9.79,9.79,0,0,0,6.93-1.65,22.4,22.4,0,0,0,6-5.81l-.23,0a19.38,19.38,0,0,1-10.3.1,9.1,9.1,0,0,1-4.49-2.51l-.12-.14a21.48,21.48,0,0,1-4.63-.29A13.28,13.28,0,0,1,357.28,94.59Zm23.9,2.57a21.61,21.61,0,0,0,12.94-.25,19.37,19.37,0,0,0,3.42-1.6,18.57,18.57,0,0,1-2.06-.85,25.89,25.89,0,0,1-6.37.57l-.19.07-.54.23a16.14,16.14,0,0,1-3.16.93,31.21,31.21,0,0,1-3.32.6Zm-16.33-1.92a8.83,8.83,0,0,0,3.69,1.87,17,17,0,0,0,4.84.61,13.09,13.09,0,0,1-3.83-1.49,11.13,11.13,0,0,1-1.63-1.17l-.36-.22C366.64,95,365.74,95.15,364.85,95.24ZM372,96.4a12.86,12.86,0,0,0,5.9.67A29.31,29.31,0,0,1,372,96.4Zm1.29-3.26c.36.3.73.57,1.06.8a23.16,23.16,0,0,0,4.11,2.25c.53,0,1.06,0,1.58,0h0a10.31,10.31,0,0,1-1.33-.43,9.37,9.37,0,0,1-4-3.13Zm-4.41,1.41a9,9,0,0,0,1.05.39,28.41,28.41,0,0,0,6.32,1.18,24.27,24.27,0,0,1-2.4-1.45,15.72,15.72,0,0,1-1.51-1.18A33.91,33.91,0,0,1,368.86,94.55Zm12.63,1c.24,0,.48.06.72.07a22.69,22.69,0,0,0,2.05-1.11l.18-.13a12.65,12.65,0,0,1-1.83-.64C382.25,94.3,381.88,94.9,381.49,95.5Zm3.27-.31c-.14.11-.29.21-.44.31l.72-.11c.65-.16,1.31-.34,1.95-.55-.44-.06-.88-.13-1.32-.22C385.37,94.82,385.06,95,384.76,95.19Zm-9.26-3A8.43,8.43,0,0,0,379,94.88a8.62,8.62,0,0,0,1.52.46c.43-.67.86-1.36,1.27-2a7.72,7.72,0,0,1-1.3-.91l-.14-.12a15.53,15.53,0,0,1-2.09-1.4Q376.86,91.6,375.5,92.21ZM399.66,95a4.58,4.58,0,0,0,1.48,0c2.15-.35,3.61-2.5,4.8-4.49l.24-.39A21.51,21.51,0,0,1,403,91.92,21.08,21.08,0,0,1,399.66,95Zm-2.76-.82c.5.2,1,.38,1.52.53l.09,0a20.79,20.79,0,0,0,2.33-1.85A36.43,36.43,0,0,1,396.9,94.13Zm-40-.59a12.94,12.94,0,0,0,2.29.61l.36.06a9.72,9.72,0,0,1-2.85-1.35C356.79,93.08,356.86,93.31,356.93,93.54Zm36.18-.45c-.5.29-1,.57-1.53.83a23.21,23.21,0,0,0,2.5-.22C393.75,93.51,393.43,93.3,393.11,93.09Zm-6,.53a22.71,22.71,0,0,0,2.31.27c.42-.23.83-.47,1.23-.73a3.28,3.28,0,0,1-.8.22,3.82,3.82,0,0,1-2-.3C387.56,93.27,387.33,93.44,387.09,93.62Zm-19.21.19,0,0a35.08,35.08,0,0,0,3.71-1.06,3.09,3.09,0,0,1-.33-.39A26.87,26.87,0,0,1,367.88,93.81Zm-11.52-2.4a7.08,7.08,0,0,0,.79.66,9.67,9.67,0,0,0,5.56,1.71c-1.64-3.49-.15-7.86.67-9.78a20,20,0,0,1,1.9-3.54,12.56,12.56,0,0,0-4.28-.37,8.8,8.8,0,0,0-4.24,1.6,13.4,13.4,0,0,0-.91,4.35A19.91,19.91,0,0,0,356.36,91.41Zm9.83-10.7a18.23,18.23,0,0,0-2,3.64c-.62,1.45-2.32,6.07-.49,9.41.38,0,.77-.07,1.17-.13a13.52,13.52,0,0,0,1.41-.28l0-.1a7.6,7.6,0,0,1-1.56-5.62c.33-2.2,1.76-4.22,4.18-5.93A26.49,26.49,0,0,0,366.19,80.71ZM394,92.58c.49.32,1,.62,1.52.89a23.36,23.36,0,0,0,7.51-3l.33-.45a15.23,15.23,0,0,1-2.51-3.38A29.89,29.89,0,0,1,394,92.58Zm-10.7,0c.51.19,1,.35,1.56.5.29.09.59.16.89.23.33-.27.65-.56,1-.85-.36-.23-.72-.48-1.09-.75l-1.27-.92-.37.62Q383.61,92,383.25,92.61Zm-23.8-15.85c-3.67,1.3-7.21,3.82-8.26,7.79a7.09,7.09,0,0,0-.19,2.94c.41,2.58,2.45,4.49,4.88,5.62-.12-.42-.23-.84-.32-1.26a7.51,7.51,0,0,1-2.06-6.95A7.08,7.08,0,0,1,356,81.14c.07-.17.15-.34.23-.5A11.7,11.7,0,0,1,359.45,76.76ZM367,92.85l.19.24a26.12,26.12,0,0,0,3.56-1.41,9.25,9.25,0,0,1-1.05-5.83,25.32,25.32,0,0,0-2.38,4.74,3.86,3.86,0,0,0-.36,2.1S367,92.8,367,92.85Zm21.55-.43a2.83,2.83,0,0,0,1.12.09,3.05,3.05,0,0,0,1.61-.83c-.26-.23-.51-.47-.76-.71l-.18-.18C389.8,91.36,389.2,91.91,388.59,92.42ZM372.11,92c.14.16.28.32.42.46.54-.2,1.09-.42,1.65-.65a7.88,7.88,0,0,1-.37-.7l-.8.42C372.72,91.7,372.42,91.86,372.11,92Zm8.79-.47a16.48,16.48,0,0,0,1.52.74c.26-.43.51-.86.76-1.29l.41-.69c-.62-.43-1.25-.88-1.9-1.32l-.93.53-1,.56A5.88,5.88,0,0,0,380.9,91.54Zm3.86-1.49,1.34,1c.42.3.83.59,1.24.83.71-.67,1.4-1.36,2.08-2a17.47,17.47,0,0,1-3.61-1.51Zm10.31,0a13.34,13.34,0,0,1-1.21,1.51,27.79,27.79,0,0,0,2.66-1.94A10.09,10.09,0,0,1,395.07,90.08Zm-1.52.21-.34.51c-.19.28-.38.54-.57.77a13.18,13.18,0,0,0,1.19-1.3Zm-19,.4a7.08,7.08,0,0,0,.41.77c.84-.37,1.7-.78,2.57-1.22-.27-.26-.54-.53-.79-.8C376.05,89.86,375.32,90.28,374.58,90.69Zm-4.75-8.57c-2,1.32-3.9,3.18-4.26,5.64a6.19,6.19,0,0,0,.6,3.66,8,8,0,0,1,.36-1.14A26.74,26.74,0,0,1,370,83.85c0-.19.09-.39.14-.59s.13-.58.21-.88Zm1,2.1c-.59,3-.36,5.35.71,7.07l1-.53.88-.47a7.13,7.13,0,0,1-.4-2.33,12.08,12.08,0,0,1,.68-3.7l.05-.15c-.66-.36-1.32-.71-2-1C371.49,83.44,371.17,83.83,370.87,84.22ZM391,90.16l.18.18c.24.24.49.48.74.7a7.32,7.32,0,0,0,.55-.73h0a12.54,12.54,0,0,1-1.48-.14Zm13.48-.22a.41.41,0,0,1,.1.13,12.88,12.88,0,0,0,2.67-2c.89-2,1.39-4.17.35-5.91A18.92,18.92,0,0,1,404.49,89.94ZM355.4,83a5.94,5.94,0,0,0-1,2.12,6.36,6.36,0,0,0,.83,4.81A18.83,18.83,0,0,1,355,86,15,15,0,0,1,355.4,83Zm19,2.22A10.05,10.05,0,0,0,374,88a6.51,6.51,0,0,0,.3,1.91c.65-.36,1.29-.73,1.93-1.11a11.19,11.19,0,0,1-.9-1.34A9.06,9.06,0,0,1,374.4,85.22ZM377.55,89a11,11,0,0,0,.85.82l.23-.12a4.86,4.86,0,0,1-.28-1.17Zm5-.49,1.5,1.05c.33-.56.67-1.13,1-1.68l-.41-.26-.27-.17c-.59.33-1.17.67-1.75,1Zm9.22.88a11,11,0,0,0,1.28,0,16.92,16.92,0,0,0,1.46-3.25l-.3.24c-.39.56-.8,1.07-1.2,1.54S392.18,88.91,391.76,89.37Zm3.91-4.12a17.38,17.38,0,0,1-1.57,4.1l.43-.07A10,10,0,0,0,395.61,87,8.82,8.82,0,0,0,396,85Zm5.74.72a15.15,15.15,0,0,0,2.42,3.37,18,18,0,0,0,2.95-7.66c0-.17,0-.33.05-.49a5.34,5.34,0,0,0-1.86-1,9.56,9.56,0,0,1-.9,1.94A30.7,30.7,0,0,1,401.41,86Zm-22.22,2a4.63,4.63,0,0,0,.22,1.25l.92-.51.55-.32-1.13-.75-.29.17Zm10.82,1,.12,0c1.1-1.12,2.22-2.24,3.42-3.27a14.48,14.48,0,0,0,1.16-1.91c-.43-.4-1.42-.21-1.63-.17a24.17,24.17,0,0,0-5.54,2C388.32,86.86,389.12,88,390,89.05ZM397,84.39a9.92,9.92,0,0,1-.51,2.93,10.65,10.65,0,0,1-.72,1.67,7.81,7.81,0,0,0,4.44-3.43c-.05-.09-.1-.19-.16-.28-.35-.64-.7-1.28-1.08-1.9l-.21.09A12.79,12.79,0,0,0,397,84.39Zm-10.68,3.16a18,18,0,0,0,2.21,1c-.52-.69-1-1.39-1.51-2.1C386.74,86.83,386.51,87.19,386.28,87.55Zm-11.06-2.66a8.79,8.79,0,0,0,.84,2.09,10.6,10.6,0,0,0,.9,1.32l1.36-.8c0-.06,0-.12,0-.18a3.86,3.86,0,0,1,.09-.49C377.39,86.17,376.32,85.52,375.22,84.89Zm5.37,2.29,1.14.76.45-.26c.45-.27.91-.54,1.38-.8l-1.09-.81C381.84,86.43,381.21,86.81,380.59,87.18Zm4.65-.24.28.16c.1-.16.2-.32.31-.48Zm-5.78-.5.31.2,2-1.17q-.57-.48-1.17-1A9.18,9.18,0,0,0,379.46,86.44Zm3.84-.85c.37.28.74.55,1.11.8q.9-.51,1.83-1l-.73-1C384.77,84.76,384,85.17,383.3,85.59ZM375,83.75c1.27.71,2.51,1.45,3.71,2.21a10.52,10.52,0,0,1,1.2-2.11c-.57-.54-1.17-1.12-1.79-1.76l-.68-.7c-.38-.4-.77-.79-1.16-1.19-.49,1.07-.93,2.16-1.31,3.27Zm32.76-2.91a5.7,5.7,0,0,1,.52.67,5.56,5.56,0,0,1,.67,4.21,8.28,8.28,0,0,0,.68-7.1A4.7,4.7,0,0,0,406.5,76a5.46,5.46,0,0,1,.53.82A7.41,7.41,0,0,1,407.75,80.84Zm-26.68,2.89c.51.46,1,.88,1.48,1.27.81-.46,1.62-.92,2.44-1.36-.54-.73-1.1-1.44-1.7-2.11-.1-.12-.21-.24-.32-.35C382.34,82,381.71,82.85,381.07,83.73Zm5.23.22.67,1c.49-.7,1-1.39,1.54-2-.54.25-1.08.51-1.63.79Zm13.55-.77.77,1.36a1.18,1.18,0,0,0-.17-1.15A.85.85,0,0,0,399.85,83.18Zm0-.89a1.7,1.7,0,0,1,1.21.45,1.85,1.85,0,0,1,.51,1.59,28.07,28.07,0,0,0,1.74-2.69,8.39,8.39,0,0,0,.82-1.74,11.84,11.84,0,0,0-2.22-.26,22.45,22.45,0,0,0-4.5.32,12.71,12.71,0,0,1,1.93,2.39A2.5,2.5,0,0,1,399.84,82.29ZM390.39,82c-.67.73-1.3,1.49-1.9,2.29a22.68,22.68,0,0,1,4.4-1.45,3,3,0,0,1,2.19.21,8.5,8.5,0,0,0,.52-1.87c-.1-.27-.2-.54-.32-.8A35.37,35.37,0,0,0,390.39,82Zm5.32,1.83.06.24a3.28,3.28,0,0,1,.31-.2c0-.27,0-.54-.06-.8C395.92,83.36,395.82,83.61,395.71,83.86Zm.79-2.71a10.24,10.24,0,0,1,.43,2.23,12.75,12.75,0,0,1,1.43-.72l.09,0a11.85,11.85,0,0,0-1.68-2l-.21-.19,0,.49Zm-24.08,1.24c.55.27,1.1.56,1.64.85a9.91,9.91,0,0,1,.13-2.55C373.58,81.22,373,81.79,372.42,82.39Zm11.1-1.92.43.47c.65.72,1.25,1.5,1.83,2.28l.7-.36c1.16-.59,2.29-1.11,3.39-1.57a22,22,0,0,1,2.57-2.35l.69-.51a18.62,18.62,0,0,0-5.88-.94h-1.1A34.93,34.93,0,0,0,383.52,80.47Zm-6.84-1.11c.47.46.93.94,1.38,1.41l.69.71c.58.59,1.13,1.14,1.67,1.64.65-.89,1.28-1.75,1.92-2.58a20.41,20.41,0,0,0-2.79-2.28c-.9.19-1.79.43-2.67.7Zm-5.23,2.54.15.08a23,23,0,0,1,1.72-1.7c-.52.23-1,.47-1.55.73l0,0Q371.57,81.48,371.45,81.9ZM366.77,80a29.94,29.94,0,0,1,3,1.15c.4-.24.82-.48,1.25-.71a20.18,20.18,0,0,1,1.49-3.26l-.22-.12a9,9,0,0,0-.83-.4,13.68,13.68,0,0,0-4.17,2.79C367.1,79.6,366.93,79.78,366.77,80Zm8.57-.19a7.4,7.4,0,0,0-.26.92c.16-.37.33-.73.5-1.09a.91.91,0,0,0-.16.11Zm18.77-1c-.38.25-.76.52-1.13.81s-.69.55-1,.84c1-.34,2-.64,2.89-.88-.13-.21-.27-.42-.42-.62ZM362.36,76a11.5,11.5,0,0,0-4.82,4.2,9.46,9.46,0,0,1,3.37-1,13.79,13.79,0,0,1,4.93.49,11.65,11.65,0,0,1,.8-.9,13.85,13.85,0,0,1,3.64-2.6A17,17,0,0,0,362.36,76Zm42.79,3.29a6.66,6.66,0,0,1,1.74.84,6.1,6.1,0,0,0-.64-2.88,5,5,0,0,0-1.22-1.5c-.22,0-.45,0-.68,0A5.68,5.68,0,0,1,405.15,79.27ZM380.74,78a20.88,20.88,0,0,1,2.15,1.82c.65-.81,1.31-1.58,2-2.31A33.88,33.88,0,0,0,380.74,78Zm-7.5-.41a18,18,0,0,0-1.07,2.22c.84-.39,1.69-.75,2.56-1.07A16.43,16.43,0,0,0,373.24,77.61Zm23.27,1.6h0a24.7,24.7,0,0,1,5.41-.47,12.66,12.66,0,0,1,2.36.29,5.08,5.08,0,0,0-1-3.3,18.88,18.88,0,0,0-7.14,1.89A10,10,0,0,1,396.51,79.21ZM395,78.28l.52.28-.12-.51-.4.22Zm-18.38-.73a5.39,5.39,0,0,0-.47.6l.22-.13Zm-2.92-.69A16.45,16.45,0,0,1,375.2,78a7,7,0,0,1,1.22-1.51,19.29,19.29,0,0,0-1.9-.76A11.2,11.2,0,0,0,373.7,76.86Zm15.2-1.71a10.19,10.19,0,0,1,4.37,1.51,7.91,7.91,0,0,1,1.14.94l.71-.41a10,10,0,0,0-.86-1.74,9.83,9.83,0,0,0-1.84-2.16,14.85,14.85,0,0,0-3,1.51Zm-1.81,1.45h.17a20.52,20.52,0,0,1,5.49.78,9.66,9.66,0,0,0-4.6-1.42l-.28,0Q387.47,76.26,387.09,76.6Zm-7.36.71h0a34.31,34.31,0,0,1,6-.7l.77-.71A18.53,18.53,0,0,0,379.73,77.31Zm-1.9-.11ZM393.38,73A10.18,10.18,0,0,1,395,75a11.3,11.3,0,0,1,.9,1.81,19.67,19.67,0,0,1,6.75-1.89,7,7,0,0,0-1.33-1.11,26.49,26.49,0,0,0-5.44-1.26A12.34,12.34,0,0,0,393.38,73Zm-15.09,3.46c.17.09.35.19.52.3A19.47,19.47,0,0,1,387.58,75c.43-.34.88-.66,1.34-1a16.2,16.2,0,0,1,2.69-1.4l-.53-.35a51.44,51.44,0,0,0-10.92,1.59A17,17,0,0,0,378.29,76.44Zm-5.75-.27.15.08.26.14.33-.49C373,76,372.79,76.08,372.54,76.17Zm3-1c.66.26,1.32.54,1.95.86.35-.55.74-1.15,1.2-1.75L376,75Zm-8.64-.41a14.47,14.47,0,0,1,4.52.92c.4-.17.81-.33,1.22-.48A17.46,17.46,0,0,0,366.91,74.75Zm14.55-3.2a15.93,15.93,0,0,0-4.17,1.68,12.25,12.25,0,0,0-1.16.84c1.14-.33,2.33-.66,3.55-1A11.57,11.57,0,0,1,381.46,71.55Zm4.82-.64a7.24,7.24,0,0,0-3,.63,8.75,8.75,0,0,0-1.85,1.16,52.91,52.91,0,0,1,8-1.2A8.82,8.82,0,0,0,386.28,70.91Z" style="fill:#fff"></path></g></svg>